G75*
G70*
%OFA0B0*%
%FSLAX24Y24*%
%IPPOS*%
%LPD*%
%AMOC8*
5,1,8,0,0,1.08239X$1,22.5*
%
%ADD10C,0.0000*%
%ADD11C,0.0030*%
%ADD12C,0.0060*%
%ADD13R,0.0230X0.0720*%
%ADD14C,0.0040*%
%ADD15R,0.0295X0.0669*%
%ADD16C,0.0100*%
%ADD17C,0.0080*%
%ADD18R,0.0472X0.0079*%
%ADD19R,0.0079X0.0472*%
%ADD20R,0.0720X0.0230*%
%ADD21C,0.0020*%
%ADD22C,0.0050*%
%ADD23R,0.0669X0.0295*%
%ADD24R,0.0197X0.0748*%
D10*
X005946Y000766D02*
X005946Y008636D01*
X025446Y008636D01*
X025446Y000766D01*
X005946Y000766D01*
X006900Y003810D02*
X006902Y003839D01*
X006908Y003867D01*
X006917Y003895D01*
X006930Y003921D01*
X006947Y003944D01*
X006966Y003966D01*
X006988Y003985D01*
X007013Y004000D01*
X007039Y004013D01*
X007067Y004021D01*
X007095Y004026D01*
X007124Y004027D01*
X007153Y004024D01*
X007181Y004017D01*
X007208Y004007D01*
X007234Y003993D01*
X007257Y003976D01*
X007278Y003956D01*
X007296Y003933D01*
X007311Y003908D01*
X007322Y003881D01*
X007330Y003853D01*
X007334Y003824D01*
X007334Y003796D01*
X007330Y003767D01*
X007322Y003739D01*
X007311Y003712D01*
X007296Y003687D01*
X007278Y003664D01*
X007257Y003644D01*
X007234Y003627D01*
X007208Y003613D01*
X007181Y003603D01*
X007153Y003596D01*
X007124Y003593D01*
X007095Y003594D01*
X007067Y003599D01*
X007039Y003607D01*
X007013Y003620D01*
X006988Y003635D01*
X006966Y003654D01*
X006947Y003676D01*
X006930Y003699D01*
X006917Y003725D01*
X006908Y003753D01*
X006902Y003781D01*
X006900Y003810D01*
X006900Y005582D02*
X006902Y005611D01*
X006908Y005639D01*
X006917Y005667D01*
X006930Y005693D01*
X006947Y005716D01*
X006966Y005738D01*
X006988Y005757D01*
X007013Y005772D01*
X007039Y005785D01*
X007067Y005793D01*
X007095Y005798D01*
X007124Y005799D01*
X007153Y005796D01*
X007181Y005789D01*
X007208Y005779D01*
X007234Y005765D01*
X007257Y005748D01*
X007278Y005728D01*
X007296Y005705D01*
X007311Y005680D01*
X007322Y005653D01*
X007330Y005625D01*
X007334Y005596D01*
X007334Y005568D01*
X007330Y005539D01*
X007322Y005511D01*
X007311Y005484D01*
X007296Y005459D01*
X007278Y005436D01*
X007257Y005416D01*
X007234Y005399D01*
X007208Y005385D01*
X007181Y005375D01*
X007153Y005368D01*
X007124Y005365D01*
X007095Y005366D01*
X007067Y005371D01*
X007039Y005379D01*
X007013Y005392D01*
X006988Y005407D01*
X006966Y005426D01*
X006947Y005448D01*
X006930Y005471D01*
X006917Y005497D01*
X006908Y005525D01*
X006902Y005553D01*
X006900Y005582D01*
X022188Y006076D02*
X022190Y006095D01*
X022195Y006114D01*
X022205Y006130D01*
X022217Y006145D01*
X022232Y006157D01*
X022248Y006167D01*
X022267Y006172D01*
X022286Y006174D01*
X022305Y006172D01*
X022324Y006167D01*
X022340Y006157D01*
X022355Y006145D01*
X022367Y006130D01*
X022377Y006114D01*
X022382Y006095D01*
X022384Y006076D01*
X022382Y006057D01*
X022377Y006038D01*
X022367Y006022D01*
X022355Y006007D01*
X022340Y005995D01*
X022324Y005985D01*
X022305Y005980D01*
X022286Y005978D01*
X022267Y005980D01*
X022248Y005985D01*
X022232Y005995D01*
X022217Y006007D01*
X022205Y006022D01*
X022195Y006038D01*
X022190Y006057D01*
X022188Y006076D01*
X022488Y006076D02*
X022490Y006095D01*
X022495Y006114D01*
X022505Y006130D01*
X022517Y006145D01*
X022532Y006157D01*
X022548Y006167D01*
X022567Y006172D01*
X022586Y006174D01*
X022605Y006172D01*
X022624Y006167D01*
X022640Y006157D01*
X022655Y006145D01*
X022667Y006130D01*
X022677Y006114D01*
X022682Y006095D01*
X022684Y006076D01*
X022682Y006057D01*
X022677Y006038D01*
X022667Y006022D01*
X022655Y006007D01*
X022640Y005995D01*
X022624Y005985D01*
X022605Y005980D01*
X022586Y005978D01*
X022567Y005980D01*
X022548Y005985D01*
X022532Y005995D01*
X022517Y006007D01*
X022505Y006022D01*
X022495Y006038D01*
X022490Y006057D01*
X022488Y006076D01*
X022788Y006076D02*
X022790Y006095D01*
X022795Y006114D01*
X022805Y006130D01*
X022817Y006145D01*
X022832Y006157D01*
X022848Y006167D01*
X022867Y006172D01*
X022886Y006174D01*
X022905Y006172D01*
X022924Y006167D01*
X022940Y006157D01*
X022955Y006145D01*
X022967Y006130D01*
X022977Y006114D01*
X022982Y006095D01*
X022984Y006076D01*
X022982Y006057D01*
X022977Y006038D01*
X022967Y006022D01*
X022955Y006007D01*
X022940Y005995D01*
X022924Y005985D01*
X022905Y005980D01*
X022886Y005978D01*
X022867Y005980D01*
X022848Y005985D01*
X022832Y005995D01*
X022817Y006007D01*
X022805Y006022D01*
X022795Y006038D01*
X022790Y006057D01*
X022788Y006076D01*
X023088Y006076D02*
X023090Y006095D01*
X023095Y006114D01*
X023105Y006130D01*
X023117Y006145D01*
X023132Y006157D01*
X023148Y006167D01*
X023167Y006172D01*
X023186Y006174D01*
X023205Y006172D01*
X023224Y006167D01*
X023240Y006157D01*
X023255Y006145D01*
X023267Y006130D01*
X023277Y006114D01*
X023282Y006095D01*
X023284Y006076D01*
X023282Y006057D01*
X023277Y006038D01*
X023267Y006022D01*
X023255Y006007D01*
X023240Y005995D01*
X023224Y005985D01*
X023205Y005980D01*
X023186Y005978D01*
X023167Y005980D01*
X023148Y005985D01*
X023132Y005995D01*
X023117Y006007D01*
X023105Y006022D01*
X023095Y006038D01*
X023090Y006057D01*
X023088Y006076D01*
X023388Y006076D02*
X023390Y006095D01*
X023395Y006114D01*
X023405Y006130D01*
X023417Y006145D01*
X023432Y006157D01*
X023448Y006167D01*
X023467Y006172D01*
X023486Y006174D01*
X023505Y006172D01*
X023524Y006167D01*
X023540Y006157D01*
X023555Y006145D01*
X023567Y006130D01*
X023577Y006114D01*
X023582Y006095D01*
X023584Y006076D01*
X023582Y006057D01*
X023577Y006038D01*
X023567Y006022D01*
X023555Y006007D01*
X023540Y005995D01*
X023524Y005985D01*
X023505Y005980D01*
X023486Y005978D01*
X023467Y005980D01*
X023448Y005985D01*
X023432Y005995D01*
X023417Y006007D01*
X023405Y006022D01*
X023395Y006038D01*
X023390Y006057D01*
X023388Y006076D01*
X023688Y006076D02*
X023690Y006095D01*
X023695Y006114D01*
X023705Y006130D01*
X023717Y006145D01*
X023732Y006157D01*
X023748Y006167D01*
X023767Y006172D01*
X023786Y006174D01*
X023805Y006172D01*
X023824Y006167D01*
X023840Y006157D01*
X023855Y006145D01*
X023867Y006130D01*
X023877Y006114D01*
X023882Y006095D01*
X023884Y006076D01*
X023882Y006057D01*
X023877Y006038D01*
X023867Y006022D01*
X023855Y006007D01*
X023840Y005995D01*
X023824Y005985D01*
X023805Y005980D01*
X023786Y005978D01*
X023767Y005980D01*
X023748Y005985D01*
X023732Y005995D01*
X023717Y006007D01*
X023705Y006022D01*
X023695Y006038D01*
X023690Y006057D01*
X023688Y006076D01*
X023988Y006076D02*
X023990Y006095D01*
X023995Y006114D01*
X024005Y006130D01*
X024017Y006145D01*
X024032Y006157D01*
X024048Y006167D01*
X024067Y006172D01*
X024086Y006174D01*
X024105Y006172D01*
X024124Y006167D01*
X024140Y006157D01*
X024155Y006145D01*
X024167Y006130D01*
X024177Y006114D01*
X024182Y006095D01*
X024184Y006076D01*
X024182Y006057D01*
X024177Y006038D01*
X024167Y006022D01*
X024155Y006007D01*
X024140Y005995D01*
X024124Y005985D01*
X024105Y005980D01*
X024086Y005978D01*
X024067Y005980D01*
X024048Y005985D01*
X024032Y005995D01*
X024017Y006007D01*
X024005Y006022D01*
X023995Y006038D01*
X023990Y006057D01*
X023988Y006076D01*
X024288Y006076D02*
X024290Y006095D01*
X024295Y006114D01*
X024305Y006130D01*
X024317Y006145D01*
X024332Y006157D01*
X024348Y006167D01*
X024367Y006172D01*
X024386Y006174D01*
X024405Y006172D01*
X024424Y006167D01*
X024440Y006157D01*
X024455Y006145D01*
X024467Y006130D01*
X024477Y006114D01*
X024482Y006095D01*
X024484Y006076D01*
X024482Y006057D01*
X024477Y006038D01*
X024467Y006022D01*
X024455Y006007D01*
X024440Y005995D01*
X024424Y005985D01*
X024405Y005980D01*
X024386Y005978D01*
X024367Y005980D01*
X024348Y005985D01*
X024332Y005995D01*
X024317Y006007D01*
X024305Y006022D01*
X024295Y006038D01*
X024290Y006057D01*
X024288Y006076D01*
X024588Y006076D02*
X024590Y006095D01*
X024595Y006114D01*
X024605Y006130D01*
X024617Y006145D01*
X024632Y006157D01*
X024648Y006167D01*
X024667Y006172D01*
X024686Y006174D01*
X024705Y006172D01*
X024724Y006167D01*
X024740Y006157D01*
X024755Y006145D01*
X024767Y006130D01*
X024777Y006114D01*
X024782Y006095D01*
X024784Y006076D01*
X024782Y006057D01*
X024777Y006038D01*
X024767Y006022D01*
X024755Y006007D01*
X024740Y005995D01*
X024724Y005985D01*
X024705Y005980D01*
X024686Y005978D01*
X024667Y005980D01*
X024648Y005985D01*
X024632Y005995D01*
X024617Y006007D01*
X024605Y006022D01*
X024595Y006038D01*
X024590Y006057D01*
X024588Y006076D01*
X024888Y006076D02*
X024890Y006095D01*
X024895Y006114D01*
X024905Y006130D01*
X024917Y006145D01*
X024932Y006157D01*
X024948Y006167D01*
X024967Y006172D01*
X024986Y006174D01*
X025005Y006172D01*
X025024Y006167D01*
X025040Y006157D01*
X025055Y006145D01*
X025067Y006130D01*
X025077Y006114D01*
X025082Y006095D01*
X025084Y006076D01*
X025082Y006057D01*
X025077Y006038D01*
X025067Y006022D01*
X025055Y006007D01*
X025040Y005995D01*
X025024Y005985D01*
X025005Y005980D01*
X024986Y005978D01*
X024967Y005980D01*
X024948Y005985D01*
X024932Y005995D01*
X024917Y006007D01*
X024905Y006022D01*
X024895Y006038D01*
X024890Y006057D01*
X024888Y006076D01*
X025188Y006076D02*
X025190Y006095D01*
X025195Y006114D01*
X025205Y006130D01*
X025217Y006145D01*
X025232Y006157D01*
X025248Y006167D01*
X025267Y006172D01*
X025286Y006174D01*
X025305Y006172D01*
X025324Y006167D01*
X025340Y006157D01*
X025355Y006145D01*
X025367Y006130D01*
X025377Y006114D01*
X025382Y006095D01*
X025384Y006076D01*
X025382Y006057D01*
X025377Y006038D01*
X025367Y006022D01*
X025355Y006007D01*
X025340Y005995D01*
X025324Y005985D01*
X025305Y005980D01*
X025286Y005978D01*
X025267Y005980D01*
X025248Y005985D01*
X025232Y005995D01*
X025217Y006007D01*
X025205Y006022D01*
X025195Y006038D01*
X025190Y006057D01*
X025188Y006076D01*
X025188Y006376D02*
X025190Y006395D01*
X025195Y006414D01*
X025205Y006430D01*
X025217Y006445D01*
X025232Y006457D01*
X025248Y006467D01*
X025267Y006472D01*
X025286Y006474D01*
X025305Y006472D01*
X025324Y006467D01*
X025340Y006457D01*
X025355Y006445D01*
X025367Y006430D01*
X025377Y006414D01*
X025382Y006395D01*
X025384Y006376D01*
X025382Y006357D01*
X025377Y006338D01*
X025367Y006322D01*
X025355Y006307D01*
X025340Y006295D01*
X025324Y006285D01*
X025305Y006280D01*
X025286Y006278D01*
X025267Y006280D01*
X025248Y006285D01*
X025232Y006295D01*
X025217Y006307D01*
X025205Y006322D01*
X025195Y006338D01*
X025190Y006357D01*
X025188Y006376D01*
X024888Y006376D02*
X024890Y006395D01*
X024895Y006414D01*
X024905Y006430D01*
X024917Y006445D01*
X024932Y006457D01*
X024948Y006467D01*
X024967Y006472D01*
X024986Y006474D01*
X025005Y006472D01*
X025024Y006467D01*
X025040Y006457D01*
X025055Y006445D01*
X025067Y006430D01*
X025077Y006414D01*
X025082Y006395D01*
X025084Y006376D01*
X025082Y006357D01*
X025077Y006338D01*
X025067Y006322D01*
X025055Y006307D01*
X025040Y006295D01*
X025024Y006285D01*
X025005Y006280D01*
X024986Y006278D01*
X024967Y006280D01*
X024948Y006285D01*
X024932Y006295D01*
X024917Y006307D01*
X024905Y006322D01*
X024895Y006338D01*
X024890Y006357D01*
X024888Y006376D01*
X024588Y006376D02*
X024590Y006395D01*
X024595Y006414D01*
X024605Y006430D01*
X024617Y006445D01*
X024632Y006457D01*
X024648Y006467D01*
X024667Y006472D01*
X024686Y006474D01*
X024705Y006472D01*
X024724Y006467D01*
X024740Y006457D01*
X024755Y006445D01*
X024767Y006430D01*
X024777Y006414D01*
X024782Y006395D01*
X024784Y006376D01*
X024782Y006357D01*
X024777Y006338D01*
X024767Y006322D01*
X024755Y006307D01*
X024740Y006295D01*
X024724Y006285D01*
X024705Y006280D01*
X024686Y006278D01*
X024667Y006280D01*
X024648Y006285D01*
X024632Y006295D01*
X024617Y006307D01*
X024605Y006322D01*
X024595Y006338D01*
X024590Y006357D01*
X024588Y006376D01*
X024288Y006376D02*
X024290Y006395D01*
X024295Y006414D01*
X024305Y006430D01*
X024317Y006445D01*
X024332Y006457D01*
X024348Y006467D01*
X024367Y006472D01*
X024386Y006474D01*
X024405Y006472D01*
X024424Y006467D01*
X024440Y006457D01*
X024455Y006445D01*
X024467Y006430D01*
X024477Y006414D01*
X024482Y006395D01*
X024484Y006376D01*
X024482Y006357D01*
X024477Y006338D01*
X024467Y006322D01*
X024455Y006307D01*
X024440Y006295D01*
X024424Y006285D01*
X024405Y006280D01*
X024386Y006278D01*
X024367Y006280D01*
X024348Y006285D01*
X024332Y006295D01*
X024317Y006307D01*
X024305Y006322D01*
X024295Y006338D01*
X024290Y006357D01*
X024288Y006376D01*
X023988Y006376D02*
X023990Y006395D01*
X023995Y006414D01*
X024005Y006430D01*
X024017Y006445D01*
X024032Y006457D01*
X024048Y006467D01*
X024067Y006472D01*
X024086Y006474D01*
X024105Y006472D01*
X024124Y006467D01*
X024140Y006457D01*
X024155Y006445D01*
X024167Y006430D01*
X024177Y006414D01*
X024182Y006395D01*
X024184Y006376D01*
X024182Y006357D01*
X024177Y006338D01*
X024167Y006322D01*
X024155Y006307D01*
X024140Y006295D01*
X024124Y006285D01*
X024105Y006280D01*
X024086Y006278D01*
X024067Y006280D01*
X024048Y006285D01*
X024032Y006295D01*
X024017Y006307D01*
X024005Y006322D01*
X023995Y006338D01*
X023990Y006357D01*
X023988Y006376D01*
X023688Y006376D02*
X023690Y006395D01*
X023695Y006414D01*
X023705Y006430D01*
X023717Y006445D01*
X023732Y006457D01*
X023748Y006467D01*
X023767Y006472D01*
X023786Y006474D01*
X023805Y006472D01*
X023824Y006467D01*
X023840Y006457D01*
X023855Y006445D01*
X023867Y006430D01*
X023877Y006414D01*
X023882Y006395D01*
X023884Y006376D01*
X023882Y006357D01*
X023877Y006338D01*
X023867Y006322D01*
X023855Y006307D01*
X023840Y006295D01*
X023824Y006285D01*
X023805Y006280D01*
X023786Y006278D01*
X023767Y006280D01*
X023748Y006285D01*
X023732Y006295D01*
X023717Y006307D01*
X023705Y006322D01*
X023695Y006338D01*
X023690Y006357D01*
X023688Y006376D01*
X023388Y006376D02*
X023390Y006395D01*
X023395Y006414D01*
X023405Y006430D01*
X023417Y006445D01*
X023432Y006457D01*
X023448Y006467D01*
X023467Y006472D01*
X023486Y006474D01*
X023505Y006472D01*
X023524Y006467D01*
X023540Y006457D01*
X023555Y006445D01*
X023567Y006430D01*
X023577Y006414D01*
X023582Y006395D01*
X023584Y006376D01*
X023582Y006357D01*
X023577Y006338D01*
X023567Y006322D01*
X023555Y006307D01*
X023540Y006295D01*
X023524Y006285D01*
X023505Y006280D01*
X023486Y006278D01*
X023467Y006280D01*
X023448Y006285D01*
X023432Y006295D01*
X023417Y006307D01*
X023405Y006322D01*
X023395Y006338D01*
X023390Y006357D01*
X023388Y006376D01*
X023088Y006376D02*
X023090Y006395D01*
X023095Y006414D01*
X023105Y006430D01*
X023117Y006445D01*
X023132Y006457D01*
X023148Y006467D01*
X023167Y006472D01*
X023186Y006474D01*
X023205Y006472D01*
X023224Y006467D01*
X023240Y006457D01*
X023255Y006445D01*
X023267Y006430D01*
X023277Y006414D01*
X023282Y006395D01*
X023284Y006376D01*
X023282Y006357D01*
X023277Y006338D01*
X023267Y006322D01*
X023255Y006307D01*
X023240Y006295D01*
X023224Y006285D01*
X023205Y006280D01*
X023186Y006278D01*
X023167Y006280D01*
X023148Y006285D01*
X023132Y006295D01*
X023117Y006307D01*
X023105Y006322D01*
X023095Y006338D01*
X023090Y006357D01*
X023088Y006376D01*
X022788Y006376D02*
X022790Y006395D01*
X022795Y006414D01*
X022805Y006430D01*
X022817Y006445D01*
X022832Y006457D01*
X022848Y006467D01*
X022867Y006472D01*
X022886Y006474D01*
X022905Y006472D01*
X022924Y006467D01*
X022940Y006457D01*
X022955Y006445D01*
X022967Y006430D01*
X022977Y006414D01*
X022982Y006395D01*
X022984Y006376D01*
X022982Y006357D01*
X022977Y006338D01*
X022967Y006322D01*
X022955Y006307D01*
X022940Y006295D01*
X022924Y006285D01*
X022905Y006280D01*
X022886Y006278D01*
X022867Y006280D01*
X022848Y006285D01*
X022832Y006295D01*
X022817Y006307D01*
X022805Y006322D01*
X022795Y006338D01*
X022790Y006357D01*
X022788Y006376D01*
X022488Y006376D02*
X022490Y006395D01*
X022495Y006414D01*
X022505Y006430D01*
X022517Y006445D01*
X022532Y006457D01*
X022548Y006467D01*
X022567Y006472D01*
X022586Y006474D01*
X022605Y006472D01*
X022624Y006467D01*
X022640Y006457D01*
X022655Y006445D01*
X022667Y006430D01*
X022677Y006414D01*
X022682Y006395D01*
X022684Y006376D01*
X022682Y006357D01*
X022677Y006338D01*
X022667Y006322D01*
X022655Y006307D01*
X022640Y006295D01*
X022624Y006285D01*
X022605Y006280D01*
X022586Y006278D01*
X022567Y006280D01*
X022548Y006285D01*
X022532Y006295D01*
X022517Y006307D01*
X022505Y006322D01*
X022495Y006338D01*
X022490Y006357D01*
X022488Y006376D01*
X022188Y006376D02*
X022190Y006395D01*
X022195Y006414D01*
X022205Y006430D01*
X022217Y006445D01*
X022232Y006457D01*
X022248Y006467D01*
X022267Y006472D01*
X022286Y006474D01*
X022305Y006472D01*
X022324Y006467D01*
X022340Y006457D01*
X022355Y006445D01*
X022367Y006430D01*
X022377Y006414D01*
X022382Y006395D01*
X022384Y006376D01*
X022382Y006357D01*
X022377Y006338D01*
X022367Y006322D01*
X022355Y006307D01*
X022340Y006295D01*
X022324Y006285D01*
X022305Y006280D01*
X022286Y006278D01*
X022267Y006280D01*
X022248Y006285D01*
X022232Y006295D01*
X022217Y006307D01*
X022205Y006322D01*
X022195Y006338D01*
X022190Y006357D01*
X022188Y006376D01*
X022188Y006676D02*
X022190Y006695D01*
X022195Y006714D01*
X022205Y006730D01*
X022217Y006745D01*
X022232Y006757D01*
X022248Y006767D01*
X022267Y006772D01*
X022286Y006774D01*
X022305Y006772D01*
X022324Y006767D01*
X022340Y006757D01*
X022355Y006745D01*
X022367Y006730D01*
X022377Y006714D01*
X022382Y006695D01*
X022384Y006676D01*
X022382Y006657D01*
X022377Y006638D01*
X022367Y006622D01*
X022355Y006607D01*
X022340Y006595D01*
X022324Y006585D01*
X022305Y006580D01*
X022286Y006578D01*
X022267Y006580D01*
X022248Y006585D01*
X022232Y006595D01*
X022217Y006607D01*
X022205Y006622D01*
X022195Y006638D01*
X022190Y006657D01*
X022188Y006676D01*
X022488Y006676D02*
X022490Y006695D01*
X022495Y006714D01*
X022505Y006730D01*
X022517Y006745D01*
X022532Y006757D01*
X022548Y006767D01*
X022567Y006772D01*
X022586Y006774D01*
X022605Y006772D01*
X022624Y006767D01*
X022640Y006757D01*
X022655Y006745D01*
X022667Y006730D01*
X022677Y006714D01*
X022682Y006695D01*
X022684Y006676D01*
X022682Y006657D01*
X022677Y006638D01*
X022667Y006622D01*
X022655Y006607D01*
X022640Y006595D01*
X022624Y006585D01*
X022605Y006580D01*
X022586Y006578D01*
X022567Y006580D01*
X022548Y006585D01*
X022532Y006595D01*
X022517Y006607D01*
X022505Y006622D01*
X022495Y006638D01*
X022490Y006657D01*
X022488Y006676D01*
X022788Y006676D02*
X022790Y006695D01*
X022795Y006714D01*
X022805Y006730D01*
X022817Y006745D01*
X022832Y006757D01*
X022848Y006767D01*
X022867Y006772D01*
X022886Y006774D01*
X022905Y006772D01*
X022924Y006767D01*
X022940Y006757D01*
X022955Y006745D01*
X022967Y006730D01*
X022977Y006714D01*
X022982Y006695D01*
X022984Y006676D01*
X022982Y006657D01*
X022977Y006638D01*
X022967Y006622D01*
X022955Y006607D01*
X022940Y006595D01*
X022924Y006585D01*
X022905Y006580D01*
X022886Y006578D01*
X022867Y006580D01*
X022848Y006585D01*
X022832Y006595D01*
X022817Y006607D01*
X022805Y006622D01*
X022795Y006638D01*
X022790Y006657D01*
X022788Y006676D01*
X023088Y006676D02*
X023090Y006695D01*
X023095Y006714D01*
X023105Y006730D01*
X023117Y006745D01*
X023132Y006757D01*
X023148Y006767D01*
X023167Y006772D01*
X023186Y006774D01*
X023205Y006772D01*
X023224Y006767D01*
X023240Y006757D01*
X023255Y006745D01*
X023267Y006730D01*
X023277Y006714D01*
X023282Y006695D01*
X023284Y006676D01*
X023282Y006657D01*
X023277Y006638D01*
X023267Y006622D01*
X023255Y006607D01*
X023240Y006595D01*
X023224Y006585D01*
X023205Y006580D01*
X023186Y006578D01*
X023167Y006580D01*
X023148Y006585D01*
X023132Y006595D01*
X023117Y006607D01*
X023105Y006622D01*
X023095Y006638D01*
X023090Y006657D01*
X023088Y006676D01*
X023388Y006676D02*
X023390Y006695D01*
X023395Y006714D01*
X023405Y006730D01*
X023417Y006745D01*
X023432Y006757D01*
X023448Y006767D01*
X023467Y006772D01*
X023486Y006774D01*
X023505Y006772D01*
X023524Y006767D01*
X023540Y006757D01*
X023555Y006745D01*
X023567Y006730D01*
X023577Y006714D01*
X023582Y006695D01*
X023584Y006676D01*
X023582Y006657D01*
X023577Y006638D01*
X023567Y006622D01*
X023555Y006607D01*
X023540Y006595D01*
X023524Y006585D01*
X023505Y006580D01*
X023486Y006578D01*
X023467Y006580D01*
X023448Y006585D01*
X023432Y006595D01*
X023417Y006607D01*
X023405Y006622D01*
X023395Y006638D01*
X023390Y006657D01*
X023388Y006676D01*
X023688Y006676D02*
X023690Y006695D01*
X023695Y006714D01*
X023705Y006730D01*
X023717Y006745D01*
X023732Y006757D01*
X023748Y006767D01*
X023767Y006772D01*
X023786Y006774D01*
X023805Y006772D01*
X023824Y006767D01*
X023840Y006757D01*
X023855Y006745D01*
X023867Y006730D01*
X023877Y006714D01*
X023882Y006695D01*
X023884Y006676D01*
X023882Y006657D01*
X023877Y006638D01*
X023867Y006622D01*
X023855Y006607D01*
X023840Y006595D01*
X023824Y006585D01*
X023805Y006580D01*
X023786Y006578D01*
X023767Y006580D01*
X023748Y006585D01*
X023732Y006595D01*
X023717Y006607D01*
X023705Y006622D01*
X023695Y006638D01*
X023690Y006657D01*
X023688Y006676D01*
X023988Y006676D02*
X023990Y006695D01*
X023995Y006714D01*
X024005Y006730D01*
X024017Y006745D01*
X024032Y006757D01*
X024048Y006767D01*
X024067Y006772D01*
X024086Y006774D01*
X024105Y006772D01*
X024124Y006767D01*
X024140Y006757D01*
X024155Y006745D01*
X024167Y006730D01*
X024177Y006714D01*
X024182Y006695D01*
X024184Y006676D01*
X024182Y006657D01*
X024177Y006638D01*
X024167Y006622D01*
X024155Y006607D01*
X024140Y006595D01*
X024124Y006585D01*
X024105Y006580D01*
X024086Y006578D01*
X024067Y006580D01*
X024048Y006585D01*
X024032Y006595D01*
X024017Y006607D01*
X024005Y006622D01*
X023995Y006638D01*
X023990Y006657D01*
X023988Y006676D01*
X024288Y006676D02*
X024290Y006695D01*
X024295Y006714D01*
X024305Y006730D01*
X024317Y006745D01*
X024332Y006757D01*
X024348Y006767D01*
X024367Y006772D01*
X024386Y006774D01*
X024405Y006772D01*
X024424Y006767D01*
X024440Y006757D01*
X024455Y006745D01*
X024467Y006730D01*
X024477Y006714D01*
X024482Y006695D01*
X024484Y006676D01*
X024482Y006657D01*
X024477Y006638D01*
X024467Y006622D01*
X024455Y006607D01*
X024440Y006595D01*
X024424Y006585D01*
X024405Y006580D01*
X024386Y006578D01*
X024367Y006580D01*
X024348Y006585D01*
X024332Y006595D01*
X024317Y006607D01*
X024305Y006622D01*
X024295Y006638D01*
X024290Y006657D01*
X024288Y006676D01*
X024588Y006676D02*
X024590Y006695D01*
X024595Y006714D01*
X024605Y006730D01*
X024617Y006745D01*
X024632Y006757D01*
X024648Y006767D01*
X024667Y006772D01*
X024686Y006774D01*
X024705Y006772D01*
X024724Y006767D01*
X024740Y006757D01*
X024755Y006745D01*
X024767Y006730D01*
X024777Y006714D01*
X024782Y006695D01*
X024784Y006676D01*
X024782Y006657D01*
X024777Y006638D01*
X024767Y006622D01*
X024755Y006607D01*
X024740Y006595D01*
X024724Y006585D01*
X024705Y006580D01*
X024686Y006578D01*
X024667Y006580D01*
X024648Y006585D01*
X024632Y006595D01*
X024617Y006607D01*
X024605Y006622D01*
X024595Y006638D01*
X024590Y006657D01*
X024588Y006676D01*
X024888Y006676D02*
X024890Y006695D01*
X024895Y006714D01*
X024905Y006730D01*
X024917Y006745D01*
X024932Y006757D01*
X024948Y006767D01*
X024967Y006772D01*
X024986Y006774D01*
X025005Y006772D01*
X025024Y006767D01*
X025040Y006757D01*
X025055Y006745D01*
X025067Y006730D01*
X025077Y006714D01*
X025082Y006695D01*
X025084Y006676D01*
X025082Y006657D01*
X025077Y006638D01*
X025067Y006622D01*
X025055Y006607D01*
X025040Y006595D01*
X025024Y006585D01*
X025005Y006580D01*
X024986Y006578D01*
X024967Y006580D01*
X024948Y006585D01*
X024932Y006595D01*
X024917Y006607D01*
X024905Y006622D01*
X024895Y006638D01*
X024890Y006657D01*
X024888Y006676D01*
X025188Y006676D02*
X025190Y006695D01*
X025195Y006714D01*
X025205Y006730D01*
X025217Y006745D01*
X025232Y006757D01*
X025248Y006767D01*
X025267Y006772D01*
X025286Y006774D01*
X025305Y006772D01*
X025324Y006767D01*
X025340Y006757D01*
X025355Y006745D01*
X025367Y006730D01*
X025377Y006714D01*
X025382Y006695D01*
X025384Y006676D01*
X025382Y006657D01*
X025377Y006638D01*
X025367Y006622D01*
X025355Y006607D01*
X025340Y006595D01*
X025324Y006585D01*
X025305Y006580D01*
X025286Y006578D01*
X025267Y006580D01*
X025248Y006585D01*
X025232Y006595D01*
X025217Y006607D01*
X025205Y006622D01*
X025195Y006638D01*
X025190Y006657D01*
X025188Y006676D01*
X025188Y006976D02*
X025190Y006995D01*
X025195Y007014D01*
X025205Y007030D01*
X025217Y007045D01*
X025232Y007057D01*
X025248Y007067D01*
X025267Y007072D01*
X025286Y007074D01*
X025305Y007072D01*
X025324Y007067D01*
X025340Y007057D01*
X025355Y007045D01*
X025367Y007030D01*
X025377Y007014D01*
X025382Y006995D01*
X025384Y006976D01*
X025382Y006957D01*
X025377Y006938D01*
X025367Y006922D01*
X025355Y006907D01*
X025340Y006895D01*
X025324Y006885D01*
X025305Y006880D01*
X025286Y006878D01*
X025267Y006880D01*
X025248Y006885D01*
X025232Y006895D01*
X025217Y006907D01*
X025205Y006922D01*
X025195Y006938D01*
X025190Y006957D01*
X025188Y006976D01*
X024888Y006976D02*
X024890Y006995D01*
X024895Y007014D01*
X024905Y007030D01*
X024917Y007045D01*
X024932Y007057D01*
X024948Y007067D01*
X024967Y007072D01*
X024986Y007074D01*
X025005Y007072D01*
X025024Y007067D01*
X025040Y007057D01*
X025055Y007045D01*
X025067Y007030D01*
X025077Y007014D01*
X025082Y006995D01*
X025084Y006976D01*
X025082Y006957D01*
X025077Y006938D01*
X025067Y006922D01*
X025055Y006907D01*
X025040Y006895D01*
X025024Y006885D01*
X025005Y006880D01*
X024986Y006878D01*
X024967Y006880D01*
X024948Y006885D01*
X024932Y006895D01*
X024917Y006907D01*
X024905Y006922D01*
X024895Y006938D01*
X024890Y006957D01*
X024888Y006976D01*
X024588Y006976D02*
X024590Y006995D01*
X024595Y007014D01*
X024605Y007030D01*
X024617Y007045D01*
X024632Y007057D01*
X024648Y007067D01*
X024667Y007072D01*
X024686Y007074D01*
X024705Y007072D01*
X024724Y007067D01*
X024740Y007057D01*
X024755Y007045D01*
X024767Y007030D01*
X024777Y007014D01*
X024782Y006995D01*
X024784Y006976D01*
X024782Y006957D01*
X024777Y006938D01*
X024767Y006922D01*
X024755Y006907D01*
X024740Y006895D01*
X024724Y006885D01*
X024705Y006880D01*
X024686Y006878D01*
X024667Y006880D01*
X024648Y006885D01*
X024632Y006895D01*
X024617Y006907D01*
X024605Y006922D01*
X024595Y006938D01*
X024590Y006957D01*
X024588Y006976D01*
X024288Y006976D02*
X024290Y006995D01*
X024295Y007014D01*
X024305Y007030D01*
X024317Y007045D01*
X024332Y007057D01*
X024348Y007067D01*
X024367Y007072D01*
X024386Y007074D01*
X024405Y007072D01*
X024424Y007067D01*
X024440Y007057D01*
X024455Y007045D01*
X024467Y007030D01*
X024477Y007014D01*
X024482Y006995D01*
X024484Y006976D01*
X024482Y006957D01*
X024477Y006938D01*
X024467Y006922D01*
X024455Y006907D01*
X024440Y006895D01*
X024424Y006885D01*
X024405Y006880D01*
X024386Y006878D01*
X024367Y006880D01*
X024348Y006885D01*
X024332Y006895D01*
X024317Y006907D01*
X024305Y006922D01*
X024295Y006938D01*
X024290Y006957D01*
X024288Y006976D01*
X023988Y006976D02*
X023990Y006995D01*
X023995Y007014D01*
X024005Y007030D01*
X024017Y007045D01*
X024032Y007057D01*
X024048Y007067D01*
X024067Y007072D01*
X024086Y007074D01*
X024105Y007072D01*
X024124Y007067D01*
X024140Y007057D01*
X024155Y007045D01*
X024167Y007030D01*
X024177Y007014D01*
X024182Y006995D01*
X024184Y006976D01*
X024182Y006957D01*
X024177Y006938D01*
X024167Y006922D01*
X024155Y006907D01*
X024140Y006895D01*
X024124Y006885D01*
X024105Y006880D01*
X024086Y006878D01*
X024067Y006880D01*
X024048Y006885D01*
X024032Y006895D01*
X024017Y006907D01*
X024005Y006922D01*
X023995Y006938D01*
X023990Y006957D01*
X023988Y006976D01*
X023688Y006976D02*
X023690Y006995D01*
X023695Y007014D01*
X023705Y007030D01*
X023717Y007045D01*
X023732Y007057D01*
X023748Y007067D01*
X023767Y007072D01*
X023786Y007074D01*
X023805Y007072D01*
X023824Y007067D01*
X023840Y007057D01*
X023855Y007045D01*
X023867Y007030D01*
X023877Y007014D01*
X023882Y006995D01*
X023884Y006976D01*
X023882Y006957D01*
X023877Y006938D01*
X023867Y006922D01*
X023855Y006907D01*
X023840Y006895D01*
X023824Y006885D01*
X023805Y006880D01*
X023786Y006878D01*
X023767Y006880D01*
X023748Y006885D01*
X023732Y006895D01*
X023717Y006907D01*
X023705Y006922D01*
X023695Y006938D01*
X023690Y006957D01*
X023688Y006976D01*
X023388Y006976D02*
X023390Y006995D01*
X023395Y007014D01*
X023405Y007030D01*
X023417Y007045D01*
X023432Y007057D01*
X023448Y007067D01*
X023467Y007072D01*
X023486Y007074D01*
X023505Y007072D01*
X023524Y007067D01*
X023540Y007057D01*
X023555Y007045D01*
X023567Y007030D01*
X023577Y007014D01*
X023582Y006995D01*
X023584Y006976D01*
X023582Y006957D01*
X023577Y006938D01*
X023567Y006922D01*
X023555Y006907D01*
X023540Y006895D01*
X023524Y006885D01*
X023505Y006880D01*
X023486Y006878D01*
X023467Y006880D01*
X023448Y006885D01*
X023432Y006895D01*
X023417Y006907D01*
X023405Y006922D01*
X023395Y006938D01*
X023390Y006957D01*
X023388Y006976D01*
X023088Y006976D02*
X023090Y006995D01*
X023095Y007014D01*
X023105Y007030D01*
X023117Y007045D01*
X023132Y007057D01*
X023148Y007067D01*
X023167Y007072D01*
X023186Y007074D01*
X023205Y007072D01*
X023224Y007067D01*
X023240Y007057D01*
X023255Y007045D01*
X023267Y007030D01*
X023277Y007014D01*
X023282Y006995D01*
X023284Y006976D01*
X023282Y006957D01*
X023277Y006938D01*
X023267Y006922D01*
X023255Y006907D01*
X023240Y006895D01*
X023224Y006885D01*
X023205Y006880D01*
X023186Y006878D01*
X023167Y006880D01*
X023148Y006885D01*
X023132Y006895D01*
X023117Y006907D01*
X023105Y006922D01*
X023095Y006938D01*
X023090Y006957D01*
X023088Y006976D01*
X022788Y006976D02*
X022790Y006995D01*
X022795Y007014D01*
X022805Y007030D01*
X022817Y007045D01*
X022832Y007057D01*
X022848Y007067D01*
X022867Y007072D01*
X022886Y007074D01*
X022905Y007072D01*
X022924Y007067D01*
X022940Y007057D01*
X022955Y007045D01*
X022967Y007030D01*
X022977Y007014D01*
X022982Y006995D01*
X022984Y006976D01*
X022982Y006957D01*
X022977Y006938D01*
X022967Y006922D01*
X022955Y006907D01*
X022940Y006895D01*
X022924Y006885D01*
X022905Y006880D01*
X022886Y006878D01*
X022867Y006880D01*
X022848Y006885D01*
X022832Y006895D01*
X022817Y006907D01*
X022805Y006922D01*
X022795Y006938D01*
X022790Y006957D01*
X022788Y006976D01*
X022488Y006976D02*
X022490Y006995D01*
X022495Y007014D01*
X022505Y007030D01*
X022517Y007045D01*
X022532Y007057D01*
X022548Y007067D01*
X022567Y007072D01*
X022586Y007074D01*
X022605Y007072D01*
X022624Y007067D01*
X022640Y007057D01*
X022655Y007045D01*
X022667Y007030D01*
X022677Y007014D01*
X022682Y006995D01*
X022684Y006976D01*
X022682Y006957D01*
X022677Y006938D01*
X022667Y006922D01*
X022655Y006907D01*
X022640Y006895D01*
X022624Y006885D01*
X022605Y006880D01*
X022586Y006878D01*
X022567Y006880D01*
X022548Y006885D01*
X022532Y006895D01*
X022517Y006907D01*
X022505Y006922D01*
X022495Y006938D01*
X022490Y006957D01*
X022488Y006976D01*
X022188Y006976D02*
X022190Y006995D01*
X022195Y007014D01*
X022205Y007030D01*
X022217Y007045D01*
X022232Y007057D01*
X022248Y007067D01*
X022267Y007072D01*
X022286Y007074D01*
X022305Y007072D01*
X022324Y007067D01*
X022340Y007057D01*
X022355Y007045D01*
X022367Y007030D01*
X022377Y007014D01*
X022382Y006995D01*
X022384Y006976D01*
X022382Y006957D01*
X022377Y006938D01*
X022367Y006922D01*
X022355Y006907D01*
X022340Y006895D01*
X022324Y006885D01*
X022305Y006880D01*
X022286Y006878D01*
X022267Y006880D01*
X022248Y006885D01*
X022232Y006895D01*
X022217Y006907D01*
X022205Y006922D01*
X022195Y006938D01*
X022190Y006957D01*
X022188Y006976D01*
X023428Y008496D02*
X023430Y008515D01*
X023435Y008534D01*
X023445Y008550D01*
X023457Y008565D01*
X023472Y008577D01*
X023488Y008587D01*
X023507Y008592D01*
X023526Y008594D01*
X023545Y008592D01*
X023564Y008587D01*
X023580Y008577D01*
X023595Y008565D01*
X023607Y008550D01*
X023617Y008534D01*
X023622Y008515D01*
X023624Y008496D01*
X023622Y008477D01*
X023617Y008458D01*
X023607Y008442D01*
X023595Y008427D01*
X023580Y008415D01*
X023564Y008405D01*
X023545Y008400D01*
X023526Y008398D01*
X023507Y008400D01*
X023488Y008405D01*
X023472Y008415D01*
X023457Y008427D01*
X023445Y008442D01*
X023435Y008458D01*
X023430Y008477D01*
X023428Y008496D01*
X023728Y008496D02*
X023730Y008515D01*
X023735Y008534D01*
X023745Y008550D01*
X023757Y008565D01*
X023772Y008577D01*
X023788Y008587D01*
X023807Y008592D01*
X023826Y008594D01*
X023845Y008592D01*
X023864Y008587D01*
X023880Y008577D01*
X023895Y008565D01*
X023907Y008550D01*
X023917Y008534D01*
X023922Y008515D01*
X023924Y008496D01*
X023922Y008477D01*
X023917Y008458D01*
X023907Y008442D01*
X023895Y008427D01*
X023880Y008415D01*
X023864Y008405D01*
X023845Y008400D01*
X023826Y008398D01*
X023807Y008400D01*
X023788Y008405D01*
X023772Y008415D01*
X023757Y008427D01*
X023745Y008442D01*
X023735Y008458D01*
X023730Y008477D01*
X023728Y008496D01*
X024028Y008496D02*
X024030Y008515D01*
X024035Y008534D01*
X024045Y008550D01*
X024057Y008565D01*
X024072Y008577D01*
X024088Y008587D01*
X024107Y008592D01*
X024126Y008594D01*
X024145Y008592D01*
X024164Y008587D01*
X024180Y008577D01*
X024195Y008565D01*
X024207Y008550D01*
X024217Y008534D01*
X024222Y008515D01*
X024224Y008496D01*
X024222Y008477D01*
X024217Y008458D01*
X024207Y008442D01*
X024195Y008427D01*
X024180Y008415D01*
X024164Y008405D01*
X024145Y008400D01*
X024126Y008398D01*
X024107Y008400D01*
X024088Y008405D01*
X024072Y008415D01*
X024057Y008427D01*
X024045Y008442D01*
X024035Y008458D01*
X024030Y008477D01*
X024028Y008496D01*
X024328Y008496D02*
X024330Y008515D01*
X024335Y008534D01*
X024345Y008550D01*
X024357Y008565D01*
X024372Y008577D01*
X024388Y008587D01*
X024407Y008592D01*
X024426Y008594D01*
X024445Y008592D01*
X024464Y008587D01*
X024480Y008577D01*
X024495Y008565D01*
X024507Y008550D01*
X024517Y008534D01*
X024522Y008515D01*
X024524Y008496D01*
X024522Y008477D01*
X024517Y008458D01*
X024507Y008442D01*
X024495Y008427D01*
X024480Y008415D01*
X024464Y008405D01*
X024445Y008400D01*
X024426Y008398D01*
X024407Y008400D01*
X024388Y008405D01*
X024372Y008415D01*
X024357Y008427D01*
X024345Y008442D01*
X024335Y008458D01*
X024330Y008477D01*
X024328Y008496D01*
X024628Y008496D02*
X024630Y008515D01*
X024635Y008534D01*
X024645Y008550D01*
X024657Y008565D01*
X024672Y008577D01*
X024688Y008587D01*
X024707Y008592D01*
X024726Y008594D01*
X024745Y008592D01*
X024764Y008587D01*
X024780Y008577D01*
X024795Y008565D01*
X024807Y008550D01*
X024817Y008534D01*
X024822Y008515D01*
X024824Y008496D01*
X024822Y008477D01*
X024817Y008458D01*
X024807Y008442D01*
X024795Y008427D01*
X024780Y008415D01*
X024764Y008405D01*
X024745Y008400D01*
X024726Y008398D01*
X024707Y008400D01*
X024688Y008405D01*
X024672Y008415D01*
X024657Y008427D01*
X024645Y008442D01*
X024635Y008458D01*
X024630Y008477D01*
X024628Y008496D01*
X024928Y008496D02*
X024930Y008515D01*
X024935Y008534D01*
X024945Y008550D01*
X024957Y008565D01*
X024972Y008577D01*
X024988Y008587D01*
X025007Y008592D01*
X025026Y008594D01*
X025045Y008592D01*
X025064Y008587D01*
X025080Y008577D01*
X025095Y008565D01*
X025107Y008550D01*
X025117Y008534D01*
X025122Y008515D01*
X025124Y008496D01*
X025122Y008477D01*
X025117Y008458D01*
X025107Y008442D01*
X025095Y008427D01*
X025080Y008415D01*
X025064Y008405D01*
X025045Y008400D01*
X025026Y008398D01*
X025007Y008400D01*
X024988Y008405D01*
X024972Y008415D01*
X024957Y008427D01*
X024945Y008442D01*
X024935Y008458D01*
X024930Y008477D01*
X024928Y008496D01*
X024888Y003326D02*
X024890Y003345D01*
X024895Y003364D01*
X024905Y003380D01*
X024917Y003395D01*
X024932Y003407D01*
X024948Y003417D01*
X024967Y003422D01*
X024986Y003424D01*
X025005Y003422D01*
X025024Y003417D01*
X025040Y003407D01*
X025055Y003395D01*
X025067Y003380D01*
X025077Y003364D01*
X025082Y003345D01*
X025084Y003326D01*
X025082Y003307D01*
X025077Y003288D01*
X025067Y003272D01*
X025055Y003257D01*
X025040Y003245D01*
X025024Y003235D01*
X025005Y003230D01*
X024986Y003228D01*
X024967Y003230D01*
X024948Y003235D01*
X024932Y003245D01*
X024917Y003257D01*
X024905Y003272D01*
X024895Y003288D01*
X024890Y003307D01*
X024888Y003326D01*
X024588Y003326D02*
X024590Y003345D01*
X024595Y003364D01*
X024605Y003380D01*
X024617Y003395D01*
X024632Y003407D01*
X024648Y003417D01*
X024667Y003422D01*
X024686Y003424D01*
X024705Y003422D01*
X024724Y003417D01*
X024740Y003407D01*
X024755Y003395D01*
X024767Y003380D01*
X024777Y003364D01*
X024782Y003345D01*
X024784Y003326D01*
X024782Y003307D01*
X024777Y003288D01*
X024767Y003272D01*
X024755Y003257D01*
X024740Y003245D01*
X024724Y003235D01*
X024705Y003230D01*
X024686Y003228D01*
X024667Y003230D01*
X024648Y003235D01*
X024632Y003245D01*
X024617Y003257D01*
X024605Y003272D01*
X024595Y003288D01*
X024590Y003307D01*
X024588Y003326D01*
X024288Y003326D02*
X024290Y003345D01*
X024295Y003364D01*
X024305Y003380D01*
X024317Y003395D01*
X024332Y003407D01*
X024348Y003417D01*
X024367Y003422D01*
X024386Y003424D01*
X024405Y003422D01*
X024424Y003417D01*
X024440Y003407D01*
X024455Y003395D01*
X024467Y003380D01*
X024477Y003364D01*
X024482Y003345D01*
X024484Y003326D01*
X024482Y003307D01*
X024477Y003288D01*
X024467Y003272D01*
X024455Y003257D01*
X024440Y003245D01*
X024424Y003235D01*
X024405Y003230D01*
X024386Y003228D01*
X024367Y003230D01*
X024348Y003235D01*
X024332Y003245D01*
X024317Y003257D01*
X024305Y003272D01*
X024295Y003288D01*
X024290Y003307D01*
X024288Y003326D01*
X023988Y003326D02*
X023990Y003345D01*
X023995Y003364D01*
X024005Y003380D01*
X024017Y003395D01*
X024032Y003407D01*
X024048Y003417D01*
X024067Y003422D01*
X024086Y003424D01*
X024105Y003422D01*
X024124Y003417D01*
X024140Y003407D01*
X024155Y003395D01*
X024167Y003380D01*
X024177Y003364D01*
X024182Y003345D01*
X024184Y003326D01*
X024182Y003307D01*
X024177Y003288D01*
X024167Y003272D01*
X024155Y003257D01*
X024140Y003245D01*
X024124Y003235D01*
X024105Y003230D01*
X024086Y003228D01*
X024067Y003230D01*
X024048Y003235D01*
X024032Y003245D01*
X024017Y003257D01*
X024005Y003272D01*
X023995Y003288D01*
X023990Y003307D01*
X023988Y003326D01*
X023688Y003326D02*
X023690Y003345D01*
X023695Y003364D01*
X023705Y003380D01*
X023717Y003395D01*
X023732Y003407D01*
X023748Y003417D01*
X023767Y003422D01*
X023786Y003424D01*
X023805Y003422D01*
X023824Y003417D01*
X023840Y003407D01*
X023855Y003395D01*
X023867Y003380D01*
X023877Y003364D01*
X023882Y003345D01*
X023884Y003326D01*
X023882Y003307D01*
X023877Y003288D01*
X023867Y003272D01*
X023855Y003257D01*
X023840Y003245D01*
X023824Y003235D01*
X023805Y003230D01*
X023786Y003228D01*
X023767Y003230D01*
X023748Y003235D01*
X023732Y003245D01*
X023717Y003257D01*
X023705Y003272D01*
X023695Y003288D01*
X023690Y003307D01*
X023688Y003326D01*
X023388Y003326D02*
X023390Y003345D01*
X023395Y003364D01*
X023405Y003380D01*
X023417Y003395D01*
X023432Y003407D01*
X023448Y003417D01*
X023467Y003422D01*
X023486Y003424D01*
X023505Y003422D01*
X023524Y003417D01*
X023540Y003407D01*
X023555Y003395D01*
X023567Y003380D01*
X023577Y003364D01*
X023582Y003345D01*
X023584Y003326D01*
X023582Y003307D01*
X023577Y003288D01*
X023567Y003272D01*
X023555Y003257D01*
X023540Y003245D01*
X023524Y003235D01*
X023505Y003230D01*
X023486Y003228D01*
X023467Y003230D01*
X023448Y003235D01*
X023432Y003245D01*
X023417Y003257D01*
X023405Y003272D01*
X023395Y003288D01*
X023390Y003307D01*
X023388Y003326D01*
X023088Y003326D02*
X023090Y003345D01*
X023095Y003364D01*
X023105Y003380D01*
X023117Y003395D01*
X023132Y003407D01*
X023148Y003417D01*
X023167Y003422D01*
X023186Y003424D01*
X023205Y003422D01*
X023224Y003417D01*
X023240Y003407D01*
X023255Y003395D01*
X023267Y003380D01*
X023277Y003364D01*
X023282Y003345D01*
X023284Y003326D01*
X023282Y003307D01*
X023277Y003288D01*
X023267Y003272D01*
X023255Y003257D01*
X023240Y003245D01*
X023224Y003235D01*
X023205Y003230D01*
X023186Y003228D01*
X023167Y003230D01*
X023148Y003235D01*
X023132Y003245D01*
X023117Y003257D01*
X023105Y003272D01*
X023095Y003288D01*
X023090Y003307D01*
X023088Y003326D01*
X022788Y003326D02*
X022790Y003345D01*
X022795Y003364D01*
X022805Y003380D01*
X022817Y003395D01*
X022832Y003407D01*
X022848Y003417D01*
X022867Y003422D01*
X022886Y003424D01*
X022905Y003422D01*
X022924Y003417D01*
X022940Y003407D01*
X022955Y003395D01*
X022967Y003380D01*
X022977Y003364D01*
X022982Y003345D01*
X022984Y003326D01*
X022982Y003307D01*
X022977Y003288D01*
X022967Y003272D01*
X022955Y003257D01*
X022940Y003245D01*
X022924Y003235D01*
X022905Y003230D01*
X022886Y003228D01*
X022867Y003230D01*
X022848Y003235D01*
X022832Y003245D01*
X022817Y003257D01*
X022805Y003272D01*
X022795Y003288D01*
X022790Y003307D01*
X022788Y003326D01*
X022488Y003326D02*
X022490Y003345D01*
X022495Y003364D01*
X022505Y003380D01*
X022517Y003395D01*
X022532Y003407D01*
X022548Y003417D01*
X022567Y003422D01*
X022586Y003424D01*
X022605Y003422D01*
X022624Y003417D01*
X022640Y003407D01*
X022655Y003395D01*
X022667Y003380D01*
X022677Y003364D01*
X022682Y003345D01*
X022684Y003326D01*
X022682Y003307D01*
X022677Y003288D01*
X022667Y003272D01*
X022655Y003257D01*
X022640Y003245D01*
X022624Y003235D01*
X022605Y003230D01*
X022586Y003228D01*
X022567Y003230D01*
X022548Y003235D01*
X022532Y003245D01*
X022517Y003257D01*
X022505Y003272D01*
X022495Y003288D01*
X022490Y003307D01*
X022488Y003326D01*
X022188Y003326D02*
X022190Y003345D01*
X022195Y003364D01*
X022205Y003380D01*
X022217Y003395D01*
X022232Y003407D01*
X022248Y003417D01*
X022267Y003422D01*
X022286Y003424D01*
X022305Y003422D01*
X022324Y003417D01*
X022340Y003407D01*
X022355Y003395D01*
X022367Y003380D01*
X022377Y003364D01*
X022382Y003345D01*
X022384Y003326D01*
X022382Y003307D01*
X022377Y003288D01*
X022367Y003272D01*
X022355Y003257D01*
X022340Y003245D01*
X022324Y003235D01*
X022305Y003230D01*
X022286Y003228D01*
X022267Y003230D01*
X022248Y003235D01*
X022232Y003245D01*
X022217Y003257D01*
X022205Y003272D01*
X022195Y003288D01*
X022190Y003307D01*
X022188Y003326D01*
X022188Y003026D02*
X022190Y003045D01*
X022195Y003064D01*
X022205Y003080D01*
X022217Y003095D01*
X022232Y003107D01*
X022248Y003117D01*
X022267Y003122D01*
X022286Y003124D01*
X022305Y003122D01*
X022324Y003117D01*
X022340Y003107D01*
X022355Y003095D01*
X022367Y003080D01*
X022377Y003064D01*
X022382Y003045D01*
X022384Y003026D01*
X022382Y003007D01*
X022377Y002988D01*
X022367Y002972D01*
X022355Y002957D01*
X022340Y002945D01*
X022324Y002935D01*
X022305Y002930D01*
X022286Y002928D01*
X022267Y002930D01*
X022248Y002935D01*
X022232Y002945D01*
X022217Y002957D01*
X022205Y002972D01*
X022195Y002988D01*
X022190Y003007D01*
X022188Y003026D01*
X022488Y003026D02*
X022490Y003045D01*
X022495Y003064D01*
X022505Y003080D01*
X022517Y003095D01*
X022532Y003107D01*
X022548Y003117D01*
X022567Y003122D01*
X022586Y003124D01*
X022605Y003122D01*
X022624Y003117D01*
X022640Y003107D01*
X022655Y003095D01*
X022667Y003080D01*
X022677Y003064D01*
X022682Y003045D01*
X022684Y003026D01*
X022682Y003007D01*
X022677Y002988D01*
X022667Y002972D01*
X022655Y002957D01*
X022640Y002945D01*
X022624Y002935D01*
X022605Y002930D01*
X022586Y002928D01*
X022567Y002930D01*
X022548Y002935D01*
X022532Y002945D01*
X022517Y002957D01*
X022505Y002972D01*
X022495Y002988D01*
X022490Y003007D01*
X022488Y003026D01*
X022788Y003026D02*
X022790Y003045D01*
X022795Y003064D01*
X022805Y003080D01*
X022817Y003095D01*
X022832Y003107D01*
X022848Y003117D01*
X022867Y003122D01*
X022886Y003124D01*
X022905Y003122D01*
X022924Y003117D01*
X022940Y003107D01*
X022955Y003095D01*
X022967Y003080D01*
X022977Y003064D01*
X022982Y003045D01*
X022984Y003026D01*
X022982Y003007D01*
X022977Y002988D01*
X022967Y002972D01*
X022955Y002957D01*
X022940Y002945D01*
X022924Y002935D01*
X022905Y002930D01*
X022886Y002928D01*
X022867Y002930D01*
X022848Y002935D01*
X022832Y002945D01*
X022817Y002957D01*
X022805Y002972D01*
X022795Y002988D01*
X022790Y003007D01*
X022788Y003026D01*
X023088Y003026D02*
X023090Y003045D01*
X023095Y003064D01*
X023105Y003080D01*
X023117Y003095D01*
X023132Y003107D01*
X023148Y003117D01*
X023167Y003122D01*
X023186Y003124D01*
X023205Y003122D01*
X023224Y003117D01*
X023240Y003107D01*
X023255Y003095D01*
X023267Y003080D01*
X023277Y003064D01*
X023282Y003045D01*
X023284Y003026D01*
X023282Y003007D01*
X023277Y002988D01*
X023267Y002972D01*
X023255Y002957D01*
X023240Y002945D01*
X023224Y002935D01*
X023205Y002930D01*
X023186Y002928D01*
X023167Y002930D01*
X023148Y002935D01*
X023132Y002945D01*
X023117Y002957D01*
X023105Y002972D01*
X023095Y002988D01*
X023090Y003007D01*
X023088Y003026D01*
X023388Y003026D02*
X023390Y003045D01*
X023395Y003064D01*
X023405Y003080D01*
X023417Y003095D01*
X023432Y003107D01*
X023448Y003117D01*
X023467Y003122D01*
X023486Y003124D01*
X023505Y003122D01*
X023524Y003117D01*
X023540Y003107D01*
X023555Y003095D01*
X023567Y003080D01*
X023577Y003064D01*
X023582Y003045D01*
X023584Y003026D01*
X023582Y003007D01*
X023577Y002988D01*
X023567Y002972D01*
X023555Y002957D01*
X023540Y002945D01*
X023524Y002935D01*
X023505Y002930D01*
X023486Y002928D01*
X023467Y002930D01*
X023448Y002935D01*
X023432Y002945D01*
X023417Y002957D01*
X023405Y002972D01*
X023395Y002988D01*
X023390Y003007D01*
X023388Y003026D01*
X023688Y003026D02*
X023690Y003045D01*
X023695Y003064D01*
X023705Y003080D01*
X023717Y003095D01*
X023732Y003107D01*
X023748Y003117D01*
X023767Y003122D01*
X023786Y003124D01*
X023805Y003122D01*
X023824Y003117D01*
X023840Y003107D01*
X023855Y003095D01*
X023867Y003080D01*
X023877Y003064D01*
X023882Y003045D01*
X023884Y003026D01*
X023882Y003007D01*
X023877Y002988D01*
X023867Y002972D01*
X023855Y002957D01*
X023840Y002945D01*
X023824Y002935D01*
X023805Y002930D01*
X023786Y002928D01*
X023767Y002930D01*
X023748Y002935D01*
X023732Y002945D01*
X023717Y002957D01*
X023705Y002972D01*
X023695Y002988D01*
X023690Y003007D01*
X023688Y003026D01*
X023988Y003026D02*
X023990Y003045D01*
X023995Y003064D01*
X024005Y003080D01*
X024017Y003095D01*
X024032Y003107D01*
X024048Y003117D01*
X024067Y003122D01*
X024086Y003124D01*
X024105Y003122D01*
X024124Y003117D01*
X024140Y003107D01*
X024155Y003095D01*
X024167Y003080D01*
X024177Y003064D01*
X024182Y003045D01*
X024184Y003026D01*
X024182Y003007D01*
X024177Y002988D01*
X024167Y002972D01*
X024155Y002957D01*
X024140Y002945D01*
X024124Y002935D01*
X024105Y002930D01*
X024086Y002928D01*
X024067Y002930D01*
X024048Y002935D01*
X024032Y002945D01*
X024017Y002957D01*
X024005Y002972D01*
X023995Y002988D01*
X023990Y003007D01*
X023988Y003026D01*
X024288Y003026D02*
X024290Y003045D01*
X024295Y003064D01*
X024305Y003080D01*
X024317Y003095D01*
X024332Y003107D01*
X024348Y003117D01*
X024367Y003122D01*
X024386Y003124D01*
X024405Y003122D01*
X024424Y003117D01*
X024440Y003107D01*
X024455Y003095D01*
X024467Y003080D01*
X024477Y003064D01*
X024482Y003045D01*
X024484Y003026D01*
X024482Y003007D01*
X024477Y002988D01*
X024467Y002972D01*
X024455Y002957D01*
X024440Y002945D01*
X024424Y002935D01*
X024405Y002930D01*
X024386Y002928D01*
X024367Y002930D01*
X024348Y002935D01*
X024332Y002945D01*
X024317Y002957D01*
X024305Y002972D01*
X024295Y002988D01*
X024290Y003007D01*
X024288Y003026D01*
X024588Y003026D02*
X024590Y003045D01*
X024595Y003064D01*
X024605Y003080D01*
X024617Y003095D01*
X024632Y003107D01*
X024648Y003117D01*
X024667Y003122D01*
X024686Y003124D01*
X024705Y003122D01*
X024724Y003117D01*
X024740Y003107D01*
X024755Y003095D01*
X024767Y003080D01*
X024777Y003064D01*
X024782Y003045D01*
X024784Y003026D01*
X024782Y003007D01*
X024777Y002988D01*
X024767Y002972D01*
X024755Y002957D01*
X024740Y002945D01*
X024724Y002935D01*
X024705Y002930D01*
X024686Y002928D01*
X024667Y002930D01*
X024648Y002935D01*
X024632Y002945D01*
X024617Y002957D01*
X024605Y002972D01*
X024595Y002988D01*
X024590Y003007D01*
X024588Y003026D01*
X024888Y003026D02*
X024890Y003045D01*
X024895Y003064D01*
X024905Y003080D01*
X024917Y003095D01*
X024932Y003107D01*
X024948Y003117D01*
X024967Y003122D01*
X024986Y003124D01*
X025005Y003122D01*
X025024Y003117D01*
X025040Y003107D01*
X025055Y003095D01*
X025067Y003080D01*
X025077Y003064D01*
X025082Y003045D01*
X025084Y003026D01*
X025082Y003007D01*
X025077Y002988D01*
X025067Y002972D01*
X025055Y002957D01*
X025040Y002945D01*
X025024Y002935D01*
X025005Y002930D01*
X024986Y002928D01*
X024967Y002930D01*
X024948Y002935D01*
X024932Y002945D01*
X024917Y002957D01*
X024905Y002972D01*
X024895Y002988D01*
X024890Y003007D01*
X024888Y003026D01*
X025188Y003026D02*
X025190Y003045D01*
X025195Y003064D01*
X025205Y003080D01*
X025217Y003095D01*
X025232Y003107D01*
X025248Y003117D01*
X025267Y003122D01*
X025286Y003124D01*
X025305Y003122D01*
X025324Y003117D01*
X025340Y003107D01*
X025355Y003095D01*
X025367Y003080D01*
X025377Y003064D01*
X025382Y003045D01*
X025384Y003026D01*
X025382Y003007D01*
X025377Y002988D01*
X025367Y002972D01*
X025355Y002957D01*
X025340Y002945D01*
X025324Y002935D01*
X025305Y002930D01*
X025286Y002928D01*
X025267Y002930D01*
X025248Y002935D01*
X025232Y002945D01*
X025217Y002957D01*
X025205Y002972D01*
X025195Y002988D01*
X025190Y003007D01*
X025188Y003026D01*
X025188Y002726D02*
X025190Y002745D01*
X025195Y002764D01*
X025205Y002780D01*
X025217Y002795D01*
X025232Y002807D01*
X025248Y002817D01*
X025267Y002822D01*
X025286Y002824D01*
X025305Y002822D01*
X025324Y002817D01*
X025340Y002807D01*
X025355Y002795D01*
X025367Y002780D01*
X025377Y002764D01*
X025382Y002745D01*
X025384Y002726D01*
X025382Y002707D01*
X025377Y002688D01*
X025367Y002672D01*
X025355Y002657D01*
X025340Y002645D01*
X025324Y002635D01*
X025305Y002630D01*
X025286Y002628D01*
X025267Y002630D01*
X025248Y002635D01*
X025232Y002645D01*
X025217Y002657D01*
X025205Y002672D01*
X025195Y002688D01*
X025190Y002707D01*
X025188Y002726D01*
X024888Y002726D02*
X024890Y002745D01*
X024895Y002764D01*
X024905Y002780D01*
X024917Y002795D01*
X024932Y002807D01*
X024948Y002817D01*
X024967Y002822D01*
X024986Y002824D01*
X025005Y002822D01*
X025024Y002817D01*
X025040Y002807D01*
X025055Y002795D01*
X025067Y002780D01*
X025077Y002764D01*
X025082Y002745D01*
X025084Y002726D01*
X025082Y002707D01*
X025077Y002688D01*
X025067Y002672D01*
X025055Y002657D01*
X025040Y002645D01*
X025024Y002635D01*
X025005Y002630D01*
X024986Y002628D01*
X024967Y002630D01*
X024948Y002635D01*
X024932Y002645D01*
X024917Y002657D01*
X024905Y002672D01*
X024895Y002688D01*
X024890Y002707D01*
X024888Y002726D01*
X024588Y002726D02*
X024590Y002745D01*
X024595Y002764D01*
X024605Y002780D01*
X024617Y002795D01*
X024632Y002807D01*
X024648Y002817D01*
X024667Y002822D01*
X024686Y002824D01*
X024705Y002822D01*
X024724Y002817D01*
X024740Y002807D01*
X024755Y002795D01*
X024767Y002780D01*
X024777Y002764D01*
X024782Y002745D01*
X024784Y002726D01*
X024782Y002707D01*
X024777Y002688D01*
X024767Y002672D01*
X024755Y002657D01*
X024740Y002645D01*
X024724Y002635D01*
X024705Y002630D01*
X024686Y002628D01*
X024667Y002630D01*
X024648Y002635D01*
X024632Y002645D01*
X024617Y002657D01*
X024605Y002672D01*
X024595Y002688D01*
X024590Y002707D01*
X024588Y002726D01*
X024288Y002726D02*
X024290Y002745D01*
X024295Y002764D01*
X024305Y002780D01*
X024317Y002795D01*
X024332Y002807D01*
X024348Y002817D01*
X024367Y002822D01*
X024386Y002824D01*
X024405Y002822D01*
X024424Y002817D01*
X024440Y002807D01*
X024455Y002795D01*
X024467Y002780D01*
X024477Y002764D01*
X024482Y002745D01*
X024484Y002726D01*
X024482Y002707D01*
X024477Y002688D01*
X024467Y002672D01*
X024455Y002657D01*
X024440Y002645D01*
X024424Y002635D01*
X024405Y002630D01*
X024386Y002628D01*
X024367Y002630D01*
X024348Y002635D01*
X024332Y002645D01*
X024317Y002657D01*
X024305Y002672D01*
X024295Y002688D01*
X024290Y002707D01*
X024288Y002726D01*
X023988Y002726D02*
X023990Y002745D01*
X023995Y002764D01*
X024005Y002780D01*
X024017Y002795D01*
X024032Y002807D01*
X024048Y002817D01*
X024067Y002822D01*
X024086Y002824D01*
X024105Y002822D01*
X024124Y002817D01*
X024140Y002807D01*
X024155Y002795D01*
X024167Y002780D01*
X024177Y002764D01*
X024182Y002745D01*
X024184Y002726D01*
X024182Y002707D01*
X024177Y002688D01*
X024167Y002672D01*
X024155Y002657D01*
X024140Y002645D01*
X024124Y002635D01*
X024105Y002630D01*
X024086Y002628D01*
X024067Y002630D01*
X024048Y002635D01*
X024032Y002645D01*
X024017Y002657D01*
X024005Y002672D01*
X023995Y002688D01*
X023990Y002707D01*
X023988Y002726D01*
X023688Y002726D02*
X023690Y002745D01*
X023695Y002764D01*
X023705Y002780D01*
X023717Y002795D01*
X023732Y002807D01*
X023748Y002817D01*
X023767Y002822D01*
X023786Y002824D01*
X023805Y002822D01*
X023824Y002817D01*
X023840Y002807D01*
X023855Y002795D01*
X023867Y002780D01*
X023877Y002764D01*
X023882Y002745D01*
X023884Y002726D01*
X023882Y002707D01*
X023877Y002688D01*
X023867Y002672D01*
X023855Y002657D01*
X023840Y002645D01*
X023824Y002635D01*
X023805Y002630D01*
X023786Y002628D01*
X023767Y002630D01*
X023748Y002635D01*
X023732Y002645D01*
X023717Y002657D01*
X023705Y002672D01*
X023695Y002688D01*
X023690Y002707D01*
X023688Y002726D01*
X023388Y002726D02*
X023390Y002745D01*
X023395Y002764D01*
X023405Y002780D01*
X023417Y002795D01*
X023432Y002807D01*
X023448Y002817D01*
X023467Y002822D01*
X023486Y002824D01*
X023505Y002822D01*
X023524Y002817D01*
X023540Y002807D01*
X023555Y002795D01*
X023567Y002780D01*
X023577Y002764D01*
X023582Y002745D01*
X023584Y002726D01*
X023582Y002707D01*
X023577Y002688D01*
X023567Y002672D01*
X023555Y002657D01*
X023540Y002645D01*
X023524Y002635D01*
X023505Y002630D01*
X023486Y002628D01*
X023467Y002630D01*
X023448Y002635D01*
X023432Y002645D01*
X023417Y002657D01*
X023405Y002672D01*
X023395Y002688D01*
X023390Y002707D01*
X023388Y002726D01*
X023088Y002726D02*
X023090Y002745D01*
X023095Y002764D01*
X023105Y002780D01*
X023117Y002795D01*
X023132Y002807D01*
X023148Y002817D01*
X023167Y002822D01*
X023186Y002824D01*
X023205Y002822D01*
X023224Y002817D01*
X023240Y002807D01*
X023255Y002795D01*
X023267Y002780D01*
X023277Y002764D01*
X023282Y002745D01*
X023284Y002726D01*
X023282Y002707D01*
X023277Y002688D01*
X023267Y002672D01*
X023255Y002657D01*
X023240Y002645D01*
X023224Y002635D01*
X023205Y002630D01*
X023186Y002628D01*
X023167Y002630D01*
X023148Y002635D01*
X023132Y002645D01*
X023117Y002657D01*
X023105Y002672D01*
X023095Y002688D01*
X023090Y002707D01*
X023088Y002726D01*
X022788Y002726D02*
X022790Y002745D01*
X022795Y002764D01*
X022805Y002780D01*
X022817Y002795D01*
X022832Y002807D01*
X022848Y002817D01*
X022867Y002822D01*
X022886Y002824D01*
X022905Y002822D01*
X022924Y002817D01*
X022940Y002807D01*
X022955Y002795D01*
X022967Y002780D01*
X022977Y002764D01*
X022982Y002745D01*
X022984Y002726D01*
X022982Y002707D01*
X022977Y002688D01*
X022967Y002672D01*
X022955Y002657D01*
X022940Y002645D01*
X022924Y002635D01*
X022905Y002630D01*
X022886Y002628D01*
X022867Y002630D01*
X022848Y002635D01*
X022832Y002645D01*
X022817Y002657D01*
X022805Y002672D01*
X022795Y002688D01*
X022790Y002707D01*
X022788Y002726D01*
X022488Y002726D02*
X022490Y002745D01*
X022495Y002764D01*
X022505Y002780D01*
X022517Y002795D01*
X022532Y002807D01*
X022548Y002817D01*
X022567Y002822D01*
X022586Y002824D01*
X022605Y002822D01*
X022624Y002817D01*
X022640Y002807D01*
X022655Y002795D01*
X022667Y002780D01*
X022677Y002764D01*
X022682Y002745D01*
X022684Y002726D01*
X022682Y002707D01*
X022677Y002688D01*
X022667Y002672D01*
X022655Y002657D01*
X022640Y002645D01*
X022624Y002635D01*
X022605Y002630D01*
X022586Y002628D01*
X022567Y002630D01*
X022548Y002635D01*
X022532Y002645D01*
X022517Y002657D01*
X022505Y002672D01*
X022495Y002688D01*
X022490Y002707D01*
X022488Y002726D01*
X022188Y002726D02*
X022190Y002745D01*
X022195Y002764D01*
X022205Y002780D01*
X022217Y002795D01*
X022232Y002807D01*
X022248Y002817D01*
X022267Y002822D01*
X022286Y002824D01*
X022305Y002822D01*
X022324Y002817D01*
X022340Y002807D01*
X022355Y002795D01*
X022367Y002780D01*
X022377Y002764D01*
X022382Y002745D01*
X022384Y002726D01*
X022382Y002707D01*
X022377Y002688D01*
X022367Y002672D01*
X022355Y002657D01*
X022340Y002645D01*
X022324Y002635D01*
X022305Y002630D01*
X022286Y002628D01*
X022267Y002630D01*
X022248Y002635D01*
X022232Y002645D01*
X022217Y002657D01*
X022205Y002672D01*
X022195Y002688D01*
X022190Y002707D01*
X022188Y002726D01*
X022188Y002426D02*
X022190Y002445D01*
X022195Y002464D01*
X022205Y002480D01*
X022217Y002495D01*
X022232Y002507D01*
X022248Y002517D01*
X022267Y002522D01*
X022286Y002524D01*
X022305Y002522D01*
X022324Y002517D01*
X022340Y002507D01*
X022355Y002495D01*
X022367Y002480D01*
X022377Y002464D01*
X022382Y002445D01*
X022384Y002426D01*
X022382Y002407D01*
X022377Y002388D01*
X022367Y002372D01*
X022355Y002357D01*
X022340Y002345D01*
X022324Y002335D01*
X022305Y002330D01*
X022286Y002328D01*
X022267Y002330D01*
X022248Y002335D01*
X022232Y002345D01*
X022217Y002357D01*
X022205Y002372D01*
X022195Y002388D01*
X022190Y002407D01*
X022188Y002426D01*
X022488Y002426D02*
X022490Y002445D01*
X022495Y002464D01*
X022505Y002480D01*
X022517Y002495D01*
X022532Y002507D01*
X022548Y002517D01*
X022567Y002522D01*
X022586Y002524D01*
X022605Y002522D01*
X022624Y002517D01*
X022640Y002507D01*
X022655Y002495D01*
X022667Y002480D01*
X022677Y002464D01*
X022682Y002445D01*
X022684Y002426D01*
X022682Y002407D01*
X022677Y002388D01*
X022667Y002372D01*
X022655Y002357D01*
X022640Y002345D01*
X022624Y002335D01*
X022605Y002330D01*
X022586Y002328D01*
X022567Y002330D01*
X022548Y002335D01*
X022532Y002345D01*
X022517Y002357D01*
X022505Y002372D01*
X022495Y002388D01*
X022490Y002407D01*
X022488Y002426D01*
X022788Y002426D02*
X022790Y002445D01*
X022795Y002464D01*
X022805Y002480D01*
X022817Y002495D01*
X022832Y002507D01*
X022848Y002517D01*
X022867Y002522D01*
X022886Y002524D01*
X022905Y002522D01*
X022924Y002517D01*
X022940Y002507D01*
X022955Y002495D01*
X022967Y002480D01*
X022977Y002464D01*
X022982Y002445D01*
X022984Y002426D01*
X022982Y002407D01*
X022977Y002388D01*
X022967Y002372D01*
X022955Y002357D01*
X022940Y002345D01*
X022924Y002335D01*
X022905Y002330D01*
X022886Y002328D01*
X022867Y002330D01*
X022848Y002335D01*
X022832Y002345D01*
X022817Y002357D01*
X022805Y002372D01*
X022795Y002388D01*
X022790Y002407D01*
X022788Y002426D01*
X023088Y002426D02*
X023090Y002445D01*
X023095Y002464D01*
X023105Y002480D01*
X023117Y002495D01*
X023132Y002507D01*
X023148Y002517D01*
X023167Y002522D01*
X023186Y002524D01*
X023205Y002522D01*
X023224Y002517D01*
X023240Y002507D01*
X023255Y002495D01*
X023267Y002480D01*
X023277Y002464D01*
X023282Y002445D01*
X023284Y002426D01*
X023282Y002407D01*
X023277Y002388D01*
X023267Y002372D01*
X023255Y002357D01*
X023240Y002345D01*
X023224Y002335D01*
X023205Y002330D01*
X023186Y002328D01*
X023167Y002330D01*
X023148Y002335D01*
X023132Y002345D01*
X023117Y002357D01*
X023105Y002372D01*
X023095Y002388D01*
X023090Y002407D01*
X023088Y002426D01*
X023388Y002426D02*
X023390Y002445D01*
X023395Y002464D01*
X023405Y002480D01*
X023417Y002495D01*
X023432Y002507D01*
X023448Y002517D01*
X023467Y002522D01*
X023486Y002524D01*
X023505Y002522D01*
X023524Y002517D01*
X023540Y002507D01*
X023555Y002495D01*
X023567Y002480D01*
X023577Y002464D01*
X023582Y002445D01*
X023584Y002426D01*
X023582Y002407D01*
X023577Y002388D01*
X023567Y002372D01*
X023555Y002357D01*
X023540Y002345D01*
X023524Y002335D01*
X023505Y002330D01*
X023486Y002328D01*
X023467Y002330D01*
X023448Y002335D01*
X023432Y002345D01*
X023417Y002357D01*
X023405Y002372D01*
X023395Y002388D01*
X023390Y002407D01*
X023388Y002426D01*
X023688Y002426D02*
X023690Y002445D01*
X023695Y002464D01*
X023705Y002480D01*
X023717Y002495D01*
X023732Y002507D01*
X023748Y002517D01*
X023767Y002522D01*
X023786Y002524D01*
X023805Y002522D01*
X023824Y002517D01*
X023840Y002507D01*
X023855Y002495D01*
X023867Y002480D01*
X023877Y002464D01*
X023882Y002445D01*
X023884Y002426D01*
X023882Y002407D01*
X023877Y002388D01*
X023867Y002372D01*
X023855Y002357D01*
X023840Y002345D01*
X023824Y002335D01*
X023805Y002330D01*
X023786Y002328D01*
X023767Y002330D01*
X023748Y002335D01*
X023732Y002345D01*
X023717Y002357D01*
X023705Y002372D01*
X023695Y002388D01*
X023690Y002407D01*
X023688Y002426D01*
X023988Y002426D02*
X023990Y002445D01*
X023995Y002464D01*
X024005Y002480D01*
X024017Y002495D01*
X024032Y002507D01*
X024048Y002517D01*
X024067Y002522D01*
X024086Y002524D01*
X024105Y002522D01*
X024124Y002517D01*
X024140Y002507D01*
X024155Y002495D01*
X024167Y002480D01*
X024177Y002464D01*
X024182Y002445D01*
X024184Y002426D01*
X024182Y002407D01*
X024177Y002388D01*
X024167Y002372D01*
X024155Y002357D01*
X024140Y002345D01*
X024124Y002335D01*
X024105Y002330D01*
X024086Y002328D01*
X024067Y002330D01*
X024048Y002335D01*
X024032Y002345D01*
X024017Y002357D01*
X024005Y002372D01*
X023995Y002388D01*
X023990Y002407D01*
X023988Y002426D01*
X024288Y002426D02*
X024290Y002445D01*
X024295Y002464D01*
X024305Y002480D01*
X024317Y002495D01*
X024332Y002507D01*
X024348Y002517D01*
X024367Y002522D01*
X024386Y002524D01*
X024405Y002522D01*
X024424Y002517D01*
X024440Y002507D01*
X024455Y002495D01*
X024467Y002480D01*
X024477Y002464D01*
X024482Y002445D01*
X024484Y002426D01*
X024482Y002407D01*
X024477Y002388D01*
X024467Y002372D01*
X024455Y002357D01*
X024440Y002345D01*
X024424Y002335D01*
X024405Y002330D01*
X024386Y002328D01*
X024367Y002330D01*
X024348Y002335D01*
X024332Y002345D01*
X024317Y002357D01*
X024305Y002372D01*
X024295Y002388D01*
X024290Y002407D01*
X024288Y002426D01*
X024588Y002426D02*
X024590Y002445D01*
X024595Y002464D01*
X024605Y002480D01*
X024617Y002495D01*
X024632Y002507D01*
X024648Y002517D01*
X024667Y002522D01*
X024686Y002524D01*
X024705Y002522D01*
X024724Y002517D01*
X024740Y002507D01*
X024755Y002495D01*
X024767Y002480D01*
X024777Y002464D01*
X024782Y002445D01*
X024784Y002426D01*
X024782Y002407D01*
X024777Y002388D01*
X024767Y002372D01*
X024755Y002357D01*
X024740Y002345D01*
X024724Y002335D01*
X024705Y002330D01*
X024686Y002328D01*
X024667Y002330D01*
X024648Y002335D01*
X024632Y002345D01*
X024617Y002357D01*
X024605Y002372D01*
X024595Y002388D01*
X024590Y002407D01*
X024588Y002426D01*
X024888Y002426D02*
X024890Y002445D01*
X024895Y002464D01*
X024905Y002480D01*
X024917Y002495D01*
X024932Y002507D01*
X024948Y002517D01*
X024967Y002522D01*
X024986Y002524D01*
X025005Y002522D01*
X025024Y002517D01*
X025040Y002507D01*
X025055Y002495D01*
X025067Y002480D01*
X025077Y002464D01*
X025082Y002445D01*
X025084Y002426D01*
X025082Y002407D01*
X025077Y002388D01*
X025067Y002372D01*
X025055Y002357D01*
X025040Y002345D01*
X025024Y002335D01*
X025005Y002330D01*
X024986Y002328D01*
X024967Y002330D01*
X024948Y002335D01*
X024932Y002345D01*
X024917Y002357D01*
X024905Y002372D01*
X024895Y002388D01*
X024890Y002407D01*
X024888Y002426D01*
X025188Y002426D02*
X025190Y002445D01*
X025195Y002464D01*
X025205Y002480D01*
X025217Y002495D01*
X025232Y002507D01*
X025248Y002517D01*
X025267Y002522D01*
X025286Y002524D01*
X025305Y002522D01*
X025324Y002517D01*
X025340Y002507D01*
X025355Y002495D01*
X025367Y002480D01*
X025377Y002464D01*
X025382Y002445D01*
X025384Y002426D01*
X025382Y002407D01*
X025377Y002388D01*
X025367Y002372D01*
X025355Y002357D01*
X025340Y002345D01*
X025324Y002335D01*
X025305Y002330D01*
X025286Y002328D01*
X025267Y002330D01*
X025248Y002335D01*
X025232Y002345D01*
X025217Y002357D01*
X025205Y002372D01*
X025195Y002388D01*
X025190Y002407D01*
X025188Y002426D01*
X025188Y003326D02*
X025190Y003345D01*
X025195Y003364D01*
X025205Y003380D01*
X025217Y003395D01*
X025232Y003407D01*
X025248Y003417D01*
X025267Y003422D01*
X025286Y003424D01*
X025305Y003422D01*
X025324Y003417D01*
X025340Y003407D01*
X025355Y003395D01*
X025367Y003380D01*
X025377Y003364D01*
X025382Y003345D01*
X025384Y003326D01*
X025382Y003307D01*
X025377Y003288D01*
X025367Y003272D01*
X025355Y003257D01*
X025340Y003245D01*
X025324Y003235D01*
X025305Y003230D01*
X025286Y003228D01*
X025267Y003230D01*
X025248Y003235D01*
X025232Y003245D01*
X025217Y003257D01*
X025205Y003272D01*
X025195Y003288D01*
X025190Y003307D01*
X025188Y003326D01*
X024928Y000906D02*
X024930Y000925D01*
X024935Y000944D01*
X024945Y000960D01*
X024957Y000975D01*
X024972Y000987D01*
X024988Y000997D01*
X025007Y001002D01*
X025026Y001004D01*
X025045Y001002D01*
X025064Y000997D01*
X025080Y000987D01*
X025095Y000975D01*
X025107Y000960D01*
X025117Y000944D01*
X025122Y000925D01*
X025124Y000906D01*
X025122Y000887D01*
X025117Y000868D01*
X025107Y000852D01*
X025095Y000837D01*
X025080Y000825D01*
X025064Y000815D01*
X025045Y000810D01*
X025026Y000808D01*
X025007Y000810D01*
X024988Y000815D01*
X024972Y000825D01*
X024957Y000837D01*
X024945Y000852D01*
X024935Y000868D01*
X024930Y000887D01*
X024928Y000906D01*
X024628Y000906D02*
X024630Y000925D01*
X024635Y000944D01*
X024645Y000960D01*
X024657Y000975D01*
X024672Y000987D01*
X024688Y000997D01*
X024707Y001002D01*
X024726Y001004D01*
X024745Y001002D01*
X024764Y000997D01*
X024780Y000987D01*
X024795Y000975D01*
X024807Y000960D01*
X024817Y000944D01*
X024822Y000925D01*
X024824Y000906D01*
X024822Y000887D01*
X024817Y000868D01*
X024807Y000852D01*
X024795Y000837D01*
X024780Y000825D01*
X024764Y000815D01*
X024745Y000810D01*
X024726Y000808D01*
X024707Y000810D01*
X024688Y000815D01*
X024672Y000825D01*
X024657Y000837D01*
X024645Y000852D01*
X024635Y000868D01*
X024630Y000887D01*
X024628Y000906D01*
X024328Y000906D02*
X024330Y000925D01*
X024335Y000944D01*
X024345Y000960D01*
X024357Y000975D01*
X024372Y000987D01*
X024388Y000997D01*
X024407Y001002D01*
X024426Y001004D01*
X024445Y001002D01*
X024464Y000997D01*
X024480Y000987D01*
X024495Y000975D01*
X024507Y000960D01*
X024517Y000944D01*
X024522Y000925D01*
X024524Y000906D01*
X024522Y000887D01*
X024517Y000868D01*
X024507Y000852D01*
X024495Y000837D01*
X024480Y000825D01*
X024464Y000815D01*
X024445Y000810D01*
X024426Y000808D01*
X024407Y000810D01*
X024388Y000815D01*
X024372Y000825D01*
X024357Y000837D01*
X024345Y000852D01*
X024335Y000868D01*
X024330Y000887D01*
X024328Y000906D01*
X024028Y000906D02*
X024030Y000925D01*
X024035Y000944D01*
X024045Y000960D01*
X024057Y000975D01*
X024072Y000987D01*
X024088Y000997D01*
X024107Y001002D01*
X024126Y001004D01*
X024145Y001002D01*
X024164Y000997D01*
X024180Y000987D01*
X024195Y000975D01*
X024207Y000960D01*
X024217Y000944D01*
X024222Y000925D01*
X024224Y000906D01*
X024222Y000887D01*
X024217Y000868D01*
X024207Y000852D01*
X024195Y000837D01*
X024180Y000825D01*
X024164Y000815D01*
X024145Y000810D01*
X024126Y000808D01*
X024107Y000810D01*
X024088Y000815D01*
X024072Y000825D01*
X024057Y000837D01*
X024045Y000852D01*
X024035Y000868D01*
X024030Y000887D01*
X024028Y000906D01*
X023728Y000906D02*
X023730Y000925D01*
X023735Y000944D01*
X023745Y000960D01*
X023757Y000975D01*
X023772Y000987D01*
X023788Y000997D01*
X023807Y001002D01*
X023826Y001004D01*
X023845Y001002D01*
X023864Y000997D01*
X023880Y000987D01*
X023895Y000975D01*
X023907Y000960D01*
X023917Y000944D01*
X023922Y000925D01*
X023924Y000906D01*
X023922Y000887D01*
X023917Y000868D01*
X023907Y000852D01*
X023895Y000837D01*
X023880Y000825D01*
X023864Y000815D01*
X023845Y000810D01*
X023826Y000808D01*
X023807Y000810D01*
X023788Y000815D01*
X023772Y000825D01*
X023757Y000837D01*
X023745Y000852D01*
X023735Y000868D01*
X023730Y000887D01*
X023728Y000906D01*
X023428Y000906D02*
X023430Y000925D01*
X023435Y000944D01*
X023445Y000960D01*
X023457Y000975D01*
X023472Y000987D01*
X023488Y000997D01*
X023507Y001002D01*
X023526Y001004D01*
X023545Y001002D01*
X023564Y000997D01*
X023580Y000987D01*
X023595Y000975D01*
X023607Y000960D01*
X023617Y000944D01*
X023622Y000925D01*
X023624Y000906D01*
X023622Y000887D01*
X023617Y000868D01*
X023607Y000852D01*
X023595Y000837D01*
X023580Y000825D01*
X023564Y000815D01*
X023545Y000810D01*
X023526Y000808D01*
X023507Y000810D01*
X023488Y000815D01*
X023472Y000825D01*
X023457Y000837D01*
X023445Y000852D01*
X023435Y000868D01*
X023430Y000887D01*
X023428Y000906D01*
D11*
X007741Y007771D02*
X007451Y007771D01*
X007451Y007916D01*
X007500Y007964D01*
X007596Y007964D01*
X007645Y007916D01*
X007645Y007771D01*
X007645Y007868D02*
X007741Y007964D01*
X007741Y008066D02*
X007451Y008259D01*
X007451Y008066D02*
X007741Y008259D01*
X009661Y008319D02*
X009951Y008126D01*
X009951Y008319D02*
X009661Y008126D01*
X009661Y008024D02*
X009661Y007831D01*
X009661Y007928D02*
X009951Y007928D01*
D12*
X017406Y006096D02*
X017406Y001796D01*
X017408Y001779D01*
X017412Y001762D01*
X017419Y001746D01*
X017429Y001732D01*
X017442Y001719D01*
X017456Y001709D01*
X017472Y001702D01*
X017489Y001698D01*
X017506Y001696D01*
X017906Y001696D01*
X018806Y001696D01*
X019206Y001696D01*
X019223Y001698D01*
X019240Y001702D01*
X019256Y001709D01*
X019270Y001719D01*
X019283Y001732D01*
X019293Y001746D01*
X019300Y001762D01*
X019304Y001779D01*
X019306Y001796D01*
X019306Y006096D01*
X019304Y006113D01*
X019300Y006130D01*
X019293Y006146D01*
X019283Y006160D01*
X019270Y006173D01*
X019256Y006183D01*
X019240Y006190D01*
X019223Y006194D01*
X019206Y006196D01*
X018806Y006196D01*
X018506Y006196D01*
X018506Y006496D01*
X018206Y006496D01*
X018206Y006196D01*
X018506Y006196D01*
X018206Y006196D02*
X017906Y006196D01*
X017506Y006196D01*
X017489Y006194D01*
X017472Y006190D01*
X017456Y006183D01*
X017442Y006173D01*
X017429Y006160D01*
X017419Y006146D01*
X017412Y006130D01*
X017408Y006113D01*
X017406Y006096D01*
X015472Y005120D02*
X015365Y005226D01*
X015151Y005226D01*
X015045Y005120D01*
X014827Y005120D02*
X014827Y005013D01*
X014720Y004906D01*
X014827Y004799D01*
X014827Y004693D01*
X014720Y004586D01*
X014507Y004586D01*
X014400Y004693D01*
X014183Y004586D02*
X014183Y005226D01*
X013969Y005013D01*
X013756Y005226D01*
X013756Y004586D01*
X013324Y004586D02*
X013324Y005226D01*
X013111Y005226D02*
X013538Y005226D01*
X012893Y005120D02*
X012787Y005226D01*
X012573Y005226D01*
X012466Y005120D01*
X012466Y005013D01*
X012573Y004906D01*
X012787Y004906D01*
X012893Y004799D01*
X012893Y004693D01*
X012787Y004586D01*
X012573Y004586D01*
X012466Y004693D01*
X012506Y004166D02*
X012933Y004166D01*
X012506Y004166D02*
X012506Y003526D01*
X013151Y003526D02*
X013578Y003526D01*
X013364Y003526D02*
X013364Y004166D01*
X013151Y003953D01*
X012720Y003846D02*
X012506Y003846D01*
X013796Y003633D02*
X013902Y003526D01*
X014116Y003526D01*
X014223Y003633D01*
X014223Y004060D01*
X013796Y003633D01*
X013796Y004060D01*
X013902Y004166D01*
X014116Y004166D01*
X014223Y004060D01*
X014440Y004166D02*
X014867Y003526D01*
X014440Y003526D02*
X014867Y004166D01*
X015045Y004586D02*
X015472Y005013D01*
X015472Y005120D01*
X014827Y005120D02*
X014720Y005226D01*
X014507Y005226D01*
X014400Y005120D01*
X014614Y004906D02*
X014720Y004906D01*
X015045Y004586D02*
X015472Y004586D01*
X018106Y004196D02*
X018356Y004196D01*
X018606Y004196D01*
X018606Y004046D02*
X018606Y003846D01*
X018106Y003846D01*
X018106Y004046D01*
X018606Y004046D01*
X018606Y003696D02*
X018356Y003696D01*
X018106Y003696D01*
X020086Y003156D02*
X020086Y002256D01*
X020746Y002256D02*
X020746Y003156D01*
X018506Y001696D02*
X018506Y001396D01*
X018206Y001396D01*
X018206Y001696D01*
X013109Y002596D02*
X012682Y002596D01*
X012895Y002596D02*
X012895Y003236D01*
X012682Y003023D01*
X012464Y003236D02*
X012464Y002703D01*
X012358Y002596D01*
X012144Y002596D01*
X012037Y002703D01*
X012037Y003236D01*
X010376Y003866D02*
X009476Y003866D01*
X009476Y004526D02*
X010376Y004526D01*
X009946Y002896D02*
X009046Y002896D01*
X009046Y002236D02*
X009946Y002236D01*
X019856Y005066D02*
X019856Y005966D01*
X020516Y005966D02*
X020516Y005066D01*
X020996Y006116D02*
X020996Y007016D01*
X021656Y007016D02*
X021656Y006116D01*
D13*
X010481Y004196D03*
X009371Y004196D03*
X008941Y002566D03*
X010051Y002566D03*
D14*
X010577Y002356D02*
X010577Y001596D01*
X011196Y001596D02*
X011196Y002356D01*
X011433Y001812D02*
X011356Y001736D01*
X011356Y001582D01*
X011433Y001506D01*
X011510Y001506D01*
X011586Y001582D01*
X011586Y001812D01*
X011433Y001812D02*
X011740Y001812D01*
X011816Y001736D01*
X011816Y001582D01*
X011740Y001506D01*
X011740Y001352D02*
X011816Y001275D01*
X011816Y001122D01*
X011740Y001045D01*
X011433Y001045D01*
X011356Y001122D01*
X011356Y001275D01*
X011433Y001352D01*
X009876Y001226D02*
X009117Y001226D01*
X008333Y001233D02*
X008256Y001156D01*
X008103Y001156D01*
X008026Y001233D01*
X007873Y001156D02*
X007566Y001156D01*
X007719Y001156D02*
X007719Y001616D01*
X007566Y001463D01*
X007412Y001540D02*
X007335Y001616D01*
X007182Y001616D01*
X007105Y001540D01*
X007105Y001233D01*
X007182Y001156D01*
X007335Y001156D01*
X007412Y001233D01*
X008026Y001540D02*
X008103Y001616D01*
X008256Y001616D01*
X008333Y001540D01*
X008333Y001463D01*
X008256Y001386D01*
X008333Y001309D01*
X008333Y001233D01*
X008256Y001386D02*
X008179Y001386D01*
X009117Y001846D02*
X009876Y001846D01*
X009474Y003076D02*
X009167Y003076D01*
X009320Y003076D02*
X009320Y003536D01*
X009167Y003383D01*
X009013Y003460D02*
X009013Y003306D01*
X008937Y003229D01*
X008706Y003229D01*
X008860Y003229D02*
X009013Y003076D01*
X008706Y003076D02*
X008706Y003536D01*
X008937Y003536D01*
X009013Y003460D01*
X010416Y003439D02*
X010647Y003439D01*
X010723Y003516D01*
X010723Y003670D01*
X010647Y003746D01*
X010416Y003746D01*
X010416Y003286D01*
X010570Y003439D02*
X010723Y003286D01*
X010877Y003286D02*
X011184Y003593D01*
X011184Y003670D01*
X011107Y003746D01*
X010954Y003746D01*
X010877Y003670D01*
X010877Y003286D02*
X011184Y003286D01*
X015767Y001616D02*
X016526Y001616D01*
X016896Y001430D02*
X016896Y001123D01*
X016973Y001046D01*
X017127Y001046D01*
X017203Y001123D01*
X017357Y001046D02*
X017664Y001046D01*
X017510Y001046D02*
X017510Y001506D01*
X017357Y001353D01*
X017203Y001430D02*
X017127Y001506D01*
X016973Y001506D01*
X016896Y001430D01*
X017817Y001430D02*
X017817Y001123D01*
X018124Y001430D01*
X018124Y001123D01*
X018047Y001046D01*
X017894Y001046D01*
X017817Y001123D01*
X017817Y001430D02*
X017894Y001506D01*
X018047Y001506D01*
X018124Y001430D01*
X019016Y001410D02*
X019016Y001103D01*
X019093Y001026D01*
X019247Y001026D01*
X019323Y001103D01*
X019477Y001103D02*
X019554Y001026D01*
X019707Y001026D01*
X019784Y001103D01*
X019784Y001256D01*
X019707Y001333D01*
X019630Y001333D01*
X019477Y001256D01*
X019477Y001486D01*
X019784Y001486D01*
X019323Y001410D02*
X019247Y001486D01*
X019093Y001486D01*
X019016Y001410D01*
X020427Y001626D02*
X021186Y001626D01*
X021186Y001006D02*
X020427Y001006D01*
X020926Y002315D02*
X020926Y002545D01*
X021003Y002622D01*
X021156Y002622D01*
X021233Y002545D01*
X021233Y002315D01*
X021386Y002315D02*
X020926Y002315D01*
X021233Y002469D02*
X021386Y002622D01*
X021310Y002776D02*
X021386Y002852D01*
X021386Y003006D01*
X021310Y003082D01*
X021003Y003082D01*
X020926Y003006D01*
X020926Y002852D01*
X021003Y002776D01*
X021080Y002776D01*
X021156Y002852D01*
X021156Y003082D01*
X020756Y003766D02*
X019997Y003766D01*
X019997Y004386D02*
X020756Y004386D01*
X020683Y004486D02*
X020837Y004486D01*
X020913Y004563D01*
X021067Y004563D02*
X021144Y004486D01*
X021297Y004486D01*
X021374Y004563D01*
X021374Y004639D01*
X021297Y004716D01*
X021067Y004716D01*
X021067Y004563D01*
X020683Y004486D02*
X020606Y004563D01*
X020606Y004870D01*
X020683Y004946D01*
X020837Y004946D01*
X020913Y004870D01*
X021067Y004716D02*
X021220Y004870D01*
X021374Y004946D01*
X020416Y006326D02*
X019956Y006326D01*
X019956Y006556D01*
X020033Y006633D01*
X020186Y006633D01*
X020263Y006556D01*
X020263Y006326D01*
X020263Y006479D02*
X020416Y006633D01*
X020416Y006786D02*
X020416Y007093D01*
X020416Y006940D02*
X019956Y006940D01*
X020110Y006786D01*
X018926Y007168D02*
X017926Y007168D01*
X017346Y007186D02*
X017346Y007946D01*
X017926Y007869D02*
X018926Y007869D01*
X018694Y008076D02*
X018387Y008076D01*
X018540Y008076D02*
X018540Y008536D01*
X018387Y008383D01*
X017926Y008536D02*
X017926Y008076D01*
X018233Y008076D01*
X016727Y007946D02*
X016727Y007186D01*
X016536Y007356D02*
X016536Y006596D01*
X016716Y006700D02*
X016870Y006547D01*
X017176Y006547D02*
X017176Y006854D01*
X017176Y006700D02*
X016716Y006700D01*
X017176Y006393D02*
X017176Y006086D01*
X017100Y005933D02*
X017176Y005856D01*
X017176Y005703D01*
X017100Y005626D01*
X016793Y005626D01*
X016716Y005703D01*
X016716Y005856D01*
X016793Y005933D01*
X016870Y006086D02*
X016716Y006240D01*
X017176Y006240D01*
X015917Y006596D02*
X015917Y007356D01*
X015786Y007390D02*
X015326Y007390D01*
X015480Y007236D01*
X015786Y007236D02*
X015786Y007543D01*
X015786Y007697D02*
X015480Y008004D01*
X015403Y008004D01*
X015326Y007927D01*
X015326Y007773D01*
X015403Y007697D01*
X015786Y007697D02*
X015786Y008004D01*
X014906Y007696D02*
X014147Y007696D01*
X014016Y007886D02*
X014016Y007963D01*
X014323Y008270D01*
X014323Y008346D01*
X014016Y008346D01*
X013863Y008270D02*
X013786Y008346D01*
X013632Y008346D01*
X013556Y008270D01*
X013556Y007963D01*
X013632Y007886D01*
X013786Y007886D01*
X013863Y007963D01*
X013154Y007983D02*
X013077Y007906D01*
X012924Y007906D01*
X012847Y007983D01*
X012847Y008059D01*
X012924Y008136D01*
X013077Y008136D01*
X013154Y008059D01*
X013154Y007983D01*
X013077Y008136D02*
X013154Y008213D01*
X013154Y008290D01*
X013077Y008366D01*
X012924Y008366D01*
X012847Y008290D01*
X012847Y008213D01*
X012924Y008136D01*
X012693Y007983D02*
X012617Y007906D01*
X012463Y007906D01*
X012386Y007983D01*
X012386Y008290D01*
X012463Y008366D01*
X012617Y008366D01*
X012693Y008290D01*
X012926Y007696D02*
X012167Y007696D01*
X012167Y007076D02*
X012926Y007076D01*
X014147Y007076D02*
X014906Y007076D01*
X015326Y007006D02*
X015326Y006853D01*
X015403Y006776D01*
X015710Y006776D01*
X015786Y006853D01*
X015786Y007006D01*
X015710Y007083D01*
X015403Y007083D02*
X015326Y007006D01*
X011143Y005896D02*
X010836Y005896D01*
X011066Y006126D01*
X011066Y005666D01*
X010683Y005666D02*
X010376Y005666D01*
X010529Y005666D02*
X010529Y006126D01*
X010376Y005973D01*
X010222Y006050D02*
X010145Y006126D01*
X009992Y006126D01*
X009915Y006050D01*
X009915Y005743D01*
X009992Y005666D01*
X010145Y005666D01*
X010222Y005743D01*
X010306Y005506D02*
X009547Y005506D01*
X009547Y004886D02*
X010306Y004886D01*
X009591Y006736D02*
X009591Y007196D01*
X009438Y007196D02*
X009744Y007196D01*
X009284Y007120D02*
X009207Y007196D01*
X009054Y007196D01*
X008977Y007120D01*
X008977Y006813D01*
X009054Y006736D01*
X009207Y006736D01*
X009284Y006813D01*
X009284Y007120D01*
X008824Y007120D02*
X008747Y007196D01*
X008594Y007196D01*
X008517Y007120D01*
X008517Y006813D01*
X008594Y006736D01*
X008747Y006736D01*
X008824Y006813D01*
X008824Y007120D01*
X008363Y007120D02*
X008363Y007043D01*
X008287Y006966D01*
X008056Y006966D01*
X008287Y006966D02*
X008363Y006889D01*
X008363Y006813D01*
X008287Y006736D01*
X008056Y006736D01*
X008056Y007196D01*
X008287Y007196D01*
X008363Y007120D01*
X019956Y007323D02*
X020033Y007247D01*
X019956Y007323D02*
X019956Y007477D01*
X020033Y007554D01*
X020110Y007554D01*
X020416Y007247D01*
X020416Y007554D01*
X021096Y007486D02*
X021096Y007716D01*
X021173Y007793D01*
X021326Y007793D01*
X021403Y007716D01*
X021403Y007486D01*
X021556Y007486D02*
X021096Y007486D01*
X021403Y007639D02*
X021556Y007793D01*
X021556Y007946D02*
X021556Y008253D01*
X021556Y008100D02*
X021096Y008100D01*
X021250Y007946D01*
X021250Y008407D02*
X021096Y008560D01*
X021556Y008560D01*
X021556Y008407D02*
X021556Y008714D01*
X016526Y000996D02*
X015767Y000996D01*
D15*
X015624Y001306D03*
X016669Y001306D03*
X020284Y001316D03*
X021329Y001316D03*
X020899Y004076D03*
X019854Y004076D03*
X015049Y007386D03*
X014004Y007386D03*
X013069Y007386D03*
X012024Y007386D03*
X010449Y005196D03*
X009404Y005196D03*
X008974Y001536D03*
X010019Y001536D03*
D16*
X015320Y002661D02*
X015322Y002681D01*
X015327Y002701D01*
X015337Y002719D01*
X015349Y002736D01*
X015364Y002750D01*
X015382Y002760D01*
X015401Y002768D01*
X015421Y002772D01*
X015441Y002772D01*
X015461Y002768D01*
X015480Y002760D01*
X015498Y002750D01*
X015513Y002736D01*
X015525Y002719D01*
X015535Y002701D01*
X015540Y002681D01*
X015542Y002661D01*
X015540Y002641D01*
X015535Y002621D01*
X015525Y002603D01*
X015513Y002586D01*
X015498Y002572D01*
X015480Y002562D01*
X015461Y002554D01*
X015441Y002550D01*
X015421Y002550D01*
X015401Y002554D01*
X015382Y002562D01*
X015364Y002572D01*
X015349Y002586D01*
X015337Y002603D01*
X015327Y002621D01*
X015322Y002641D01*
X015320Y002661D01*
D17*
X015589Y002346D02*
X015746Y002504D01*
X015746Y005968D01*
X015589Y006126D01*
X012124Y006126D01*
X011967Y005968D01*
X011967Y002504D01*
X012124Y002346D01*
X015589Y002346D01*
D18*
X015982Y002760D03*
X015982Y002956D03*
X015982Y003153D03*
X015982Y003350D03*
X015982Y003547D03*
X015982Y003744D03*
X015982Y003941D03*
X015982Y004138D03*
X015982Y004334D03*
X015982Y004531D03*
X015982Y004728D03*
X015982Y004925D03*
X015982Y005122D03*
X015982Y005319D03*
X015982Y005516D03*
X015982Y005712D03*
X011730Y005712D03*
X011730Y005516D03*
X011730Y005319D03*
X011730Y005122D03*
X011730Y004925D03*
X011730Y004728D03*
X011730Y004531D03*
X011730Y004334D03*
X011730Y004138D03*
X011730Y003941D03*
X011730Y003744D03*
X011730Y003547D03*
X011730Y003350D03*
X011730Y003153D03*
X011730Y002956D03*
X011730Y002760D03*
D19*
X012380Y002110D03*
X012577Y002110D03*
X012774Y002110D03*
X012971Y002110D03*
X013167Y002110D03*
X013364Y002110D03*
X013561Y002110D03*
X013758Y002110D03*
X013955Y002110D03*
X014152Y002110D03*
X014349Y002110D03*
X014545Y002110D03*
X014742Y002110D03*
X014939Y002110D03*
X015136Y002110D03*
X015333Y002110D03*
X015333Y006362D03*
X015136Y006362D03*
X014939Y006362D03*
X014742Y006362D03*
X014545Y006362D03*
X014349Y006362D03*
X014152Y006362D03*
X013955Y006362D03*
X013758Y006362D03*
X013561Y006362D03*
X013364Y006362D03*
X013167Y006362D03*
X012971Y006362D03*
X012774Y006362D03*
X012577Y006362D03*
X012380Y006362D03*
D20*
X020186Y006071D03*
X021326Y006011D03*
X021326Y007121D03*
X020186Y004961D03*
X020416Y003261D03*
X020416Y002151D03*
D21*
X019156Y002596D02*
X019156Y005296D01*
X018856Y005296D02*
X018856Y002596D01*
X018806Y001935D02*
X018758Y001905D01*
X018709Y001878D01*
X018658Y001855D01*
X018605Y001836D01*
X018551Y001820D01*
X018496Y001808D01*
X018440Y001800D01*
X018384Y001796D01*
X018328Y001796D01*
X018272Y001800D01*
X018216Y001808D01*
X018161Y001820D01*
X018107Y001836D01*
X018054Y001855D01*
X018003Y001878D01*
X017954Y001905D01*
X017906Y001935D01*
X017856Y002596D02*
X017856Y005296D01*
X017556Y005296D02*
X017556Y002596D01*
X017906Y002378D02*
X017926Y002340D01*
X017950Y002304D01*
X017977Y002270D01*
X018006Y002239D01*
X018038Y002210D01*
X018072Y002184D01*
X018109Y002161D01*
X018147Y002142D01*
X018187Y002125D01*
X018228Y002113D01*
X018270Y002103D01*
X018313Y002098D01*
X018356Y002096D01*
X018399Y002098D01*
X018442Y002103D01*
X018484Y002113D01*
X018525Y002125D01*
X018565Y002142D01*
X018603Y002161D01*
X018640Y002184D01*
X018674Y002210D01*
X018706Y002239D01*
X018735Y002270D01*
X018762Y002304D01*
X018786Y002340D01*
X018806Y002378D01*
X018821Y002412D01*
X018834Y002448D01*
X018843Y002484D01*
X018850Y002521D01*
X018855Y002558D01*
X018856Y002596D01*
X017906Y001935D02*
X017861Y001967D01*
X017819Y002003D01*
X017779Y002042D01*
X017742Y002083D01*
X017708Y002127D01*
X017677Y002174D01*
X017649Y002222D01*
X017625Y002272D01*
X017604Y002323D01*
X017587Y002376D01*
X017573Y002430D01*
X017564Y002485D01*
X017558Y002540D01*
X017556Y002596D01*
X017856Y002596D02*
X017857Y002558D01*
X017862Y002521D01*
X017869Y002484D01*
X017878Y002448D01*
X017891Y002412D01*
X017906Y002378D01*
X018806Y001935D02*
X018851Y001967D01*
X018893Y002003D01*
X018933Y002042D01*
X018970Y002084D01*
X019004Y002127D01*
X019035Y002174D01*
X019063Y002222D01*
X019087Y002272D01*
X019108Y002323D01*
X019125Y002376D01*
X019139Y002430D01*
X019148Y002485D01*
X019154Y002540D01*
X019156Y002596D01*
X018356Y003546D02*
X018356Y003696D01*
X018356Y004196D02*
X018356Y004346D01*
X019156Y005296D02*
X019154Y005352D01*
X019148Y005407D01*
X019139Y005462D01*
X019125Y005516D01*
X019108Y005569D01*
X019087Y005620D01*
X019063Y005670D01*
X019035Y005718D01*
X019004Y005765D01*
X018970Y005809D01*
X018933Y005850D01*
X018893Y005889D01*
X018851Y005925D01*
X018806Y005957D01*
X018758Y005987D01*
X018709Y006014D01*
X018658Y006037D01*
X018605Y006056D01*
X018551Y006072D01*
X018496Y006084D01*
X018440Y006092D01*
X018384Y006096D01*
X018328Y006096D01*
X018272Y006092D01*
X018216Y006084D01*
X018161Y006072D01*
X018107Y006056D01*
X018054Y006037D01*
X018003Y006014D01*
X017954Y005987D01*
X017906Y005957D01*
X018806Y005514D02*
X018821Y005480D01*
X018834Y005444D01*
X018843Y005408D01*
X018850Y005371D01*
X018855Y005334D01*
X018856Y005296D01*
X017906Y005514D02*
X017891Y005480D01*
X017878Y005444D01*
X017869Y005408D01*
X017862Y005371D01*
X017857Y005334D01*
X017856Y005296D01*
X017906Y005514D02*
X017926Y005552D01*
X017950Y005588D01*
X017977Y005622D01*
X018006Y005653D01*
X018038Y005682D01*
X018072Y005708D01*
X018109Y005731D01*
X018147Y005750D01*
X018187Y005767D01*
X018228Y005779D01*
X018270Y005789D01*
X018313Y005794D01*
X018356Y005796D01*
X018399Y005794D01*
X018442Y005789D01*
X018484Y005779D01*
X018525Y005767D01*
X018565Y005750D01*
X018603Y005731D01*
X018640Y005708D01*
X018674Y005682D01*
X018706Y005653D01*
X018735Y005622D01*
X018762Y005588D01*
X018786Y005552D01*
X018806Y005514D01*
X017906Y005957D02*
X017861Y005925D01*
X017819Y005889D01*
X017779Y005850D01*
X017742Y005808D01*
X017708Y005765D01*
X017677Y005718D01*
X017649Y005670D01*
X017625Y005620D01*
X017604Y005569D01*
X017587Y005516D01*
X017573Y005462D01*
X017564Y005407D01*
X017558Y005352D01*
X017556Y005296D01*
D22*
X017106Y004581D02*
X017181Y004506D01*
X017181Y004356D01*
X017106Y004281D01*
X016806Y004281D02*
X016731Y004356D01*
X016731Y004506D01*
X016806Y004581D01*
X016881Y004581D01*
X016956Y004506D01*
X017031Y004581D01*
X017106Y004581D01*
X016956Y004506D02*
X016956Y004431D01*
X016806Y004120D02*
X017106Y004120D01*
X017181Y004045D01*
X017181Y003895D01*
X017106Y003820D01*
X016806Y003820D01*
X016731Y003895D01*
X016731Y004045D01*
X016806Y004120D01*
X017031Y003970D02*
X017181Y004120D01*
D23*
X010886Y002498D03*
X010887Y001454D03*
X016227Y006454D03*
X017037Y007044D03*
X016226Y007498D03*
X017036Y008088D03*
D24*
X017835Y007515D03*
X019015Y007515D03*
M02*
