G75*
G70*
%OFA0B0*%
%FSLAX24Y24*%
%IPPOS*%
%LPD*%
%AMOC8*
5,1,8,0,0,1.08239X$1,22.5*
%
%ADD10C,0.0740*%
%ADD11C,0.1266*%
%ADD12R,0.0630X0.0787*%
%ADD13R,0.0630X0.0709*%
%ADD14R,0.0472X0.0118*%
%ADD15R,0.0118X0.0472*%
%ADD16R,0.0787X0.0630*%
%ADD17R,0.0760X0.2100*%
%ADD18R,0.0709X0.0630*%
%ADD19R,0.0500X0.1000*%
%ADD20R,0.3150X0.0400*%
%ADD21R,0.3150X0.0390*%
%ADD22R,0.0472X0.0630*%
%ADD23C,0.0120*%
%ADD24C,0.0100*%
%ADD25C,0.0310*%
%ADD26C,0.0396*%
%ADD27C,0.0357*%
%ADD28C,0.0240*%
%ADD29C,0.0160*%
D10*
X008101Y003318D03*
X008101Y004252D03*
X008101Y005140D03*
X008101Y006074D03*
D11*
X007156Y002413D03*
X007156Y006979D03*
D12*
X009375Y004196D03*
X010478Y004196D03*
X010048Y002566D03*
X008945Y002566D03*
D13*
X008945Y001536D03*
X010048Y001536D03*
X015595Y001306D03*
X016698Y001306D03*
X020255Y001316D03*
X021358Y001316D03*
X020928Y004076D03*
X019825Y004076D03*
X015078Y007386D03*
X013975Y007386D03*
X013098Y007386D03*
X011995Y007386D03*
X010478Y005196D03*
X009375Y005196D03*
D14*
X011612Y005122D03*
X011612Y005319D03*
X011612Y005516D03*
X011612Y005712D03*
X011612Y004925D03*
X011612Y004728D03*
X011612Y004531D03*
X011612Y004334D03*
X011612Y004138D03*
X011612Y003941D03*
X011612Y003744D03*
X011612Y003547D03*
X011612Y003350D03*
X011612Y003153D03*
X011612Y002956D03*
X011612Y002760D03*
X016101Y002760D03*
X016101Y002956D03*
X016101Y003153D03*
X016101Y003350D03*
X016101Y003547D03*
X016101Y003744D03*
X016101Y003941D03*
X016101Y004138D03*
X016101Y004334D03*
X016101Y004531D03*
X016101Y004728D03*
X016101Y004925D03*
X016101Y005122D03*
X016101Y005319D03*
X016101Y005516D03*
X016101Y005712D03*
D15*
X015333Y006480D03*
X015136Y006480D03*
X014939Y006480D03*
X014742Y006480D03*
X014545Y006480D03*
X014349Y006480D03*
X014152Y006480D03*
X013955Y006480D03*
X013758Y006480D03*
X013561Y006480D03*
X013364Y006480D03*
X013167Y006480D03*
X012971Y006480D03*
X012774Y006480D03*
X012577Y006480D03*
X012380Y006480D03*
X012380Y001992D03*
X012577Y001992D03*
X012774Y001992D03*
X012971Y001992D03*
X013167Y001992D03*
X013364Y001992D03*
X013561Y001992D03*
X013758Y001992D03*
X013955Y001992D03*
X014152Y001992D03*
X014349Y001992D03*
X014545Y001992D03*
X014742Y001992D03*
X014939Y001992D03*
X015136Y001992D03*
X015333Y001992D03*
D16*
X020416Y002155D03*
X020416Y003257D03*
X020186Y004965D03*
X020186Y006067D03*
X021326Y006015D03*
X021326Y007117D03*
D17*
X018356Y005846D03*
X018356Y002046D03*
D18*
X010886Y002527D03*
X010886Y001425D03*
X016226Y006425D03*
X017036Y007015D03*
X016226Y007527D03*
X017036Y008117D03*
D19*
X009236Y007826D03*
X008236Y007826D03*
D20*
X023716Y005486D03*
X023716Y003916D03*
D21*
X023716Y004706D03*
D22*
X019017Y007516D03*
X017836Y007516D03*
D23*
X018436Y007576D02*
X018496Y007516D01*
X017335Y007015D02*
X017036Y007015D01*
X016626Y006596D02*
X016355Y006296D01*
X016226Y006425D01*
X016476Y006435D01*
X016516Y006456D02*
X016626Y006596D01*
X016226Y007527D02*
X015626Y006927D01*
X015626Y006876D01*
X015136Y006876D01*
X015136Y006480D01*
X015136Y006066D01*
X013167Y006066D01*
X013167Y006480D01*
X013166Y006480D01*
X013166Y006856D01*
X013098Y006925D01*
X013098Y007386D01*
X013086Y007397D01*
X013086Y007676D01*
X012616Y008146D01*
X012126Y008146D01*
X013098Y007386D02*
X013975Y007386D01*
X014939Y007247D02*
X015078Y007386D01*
X014939Y007247D02*
X014939Y006480D01*
X015333Y006480D02*
X015333Y006170D01*
X015606Y006036D01*
X015203Y005712D02*
X016101Y005712D01*
X015203Y005712D02*
X015191Y005710D01*
X015180Y005706D01*
X015170Y005699D01*
X015163Y005689D01*
X015159Y005678D01*
X015157Y005666D01*
X016101Y005122D02*
X016101Y005116D01*
X016626Y005116D01*
X016101Y004925D02*
X015725Y004925D01*
X015056Y004256D01*
X016101Y003941D02*
X016506Y003941D01*
X016506Y004746D01*
X017246Y004746D01*
X017236Y005626D01*
X018356Y005846D02*
X018356Y003744D01*
X019903Y003744D01*
X019825Y004076D01*
X019706Y004096D01*
X019825Y004076D02*
X020416Y003495D01*
X020416Y003257D01*
X020928Y004076D02*
X021398Y003606D01*
X021486Y003606D01*
X021506Y003606D01*
X021506Y002096D01*
X020416Y002155D02*
X020416Y001477D01*
X020255Y001316D01*
X019226Y001316D01*
X018356Y002046D01*
X018626Y001956D01*
X018626Y002776D01*
X017855Y003547D01*
X016101Y003547D01*
X016101Y003744D02*
X018356Y003744D01*
X016746Y003196D02*
X016704Y003153D01*
X016101Y003153D01*
X016101Y002956D02*
X016386Y002956D01*
X016466Y002876D01*
X017306Y002876D01*
X017456Y003026D01*
X015136Y002606D02*
X015136Y001992D01*
X015136Y001686D01*
X015333Y001568D02*
X015595Y001306D01*
X015593Y001280D01*
X015588Y001254D01*
X015580Y001229D01*
X015568Y001206D01*
X015554Y001184D01*
X015536Y001165D01*
X015517Y001147D01*
X015495Y001133D01*
X015472Y001121D01*
X015447Y001113D01*
X015421Y001108D01*
X015395Y001106D01*
X014866Y001476D02*
X014446Y001476D01*
X013946Y000986D01*
X011325Y000986D01*
X010886Y001425D01*
X011596Y002096D02*
X011612Y002080D01*
X011612Y002502D02*
X011612Y002760D01*
X011047Y002691D01*
X010879Y002750D01*
X010886Y002527D01*
X011596Y002666D02*
X011612Y002502D01*
X011612Y002956D02*
X012516Y002956D01*
X012526Y004296D01*
X011166Y004046D02*
X011166Y005776D01*
X009526Y007416D01*
X009236Y007826D01*
X008656Y007176D02*
X008246Y007546D01*
X008236Y007826D01*
X008656Y007176D02*
X009486Y007176D01*
X010976Y005686D01*
X010976Y003956D01*
X011189Y003744D01*
X011612Y003744D01*
X011612Y003547D02*
X011006Y003547D01*
X011016Y003566D01*
X010946Y003576D02*
X010866Y003616D01*
X011186Y003350D02*
X011186Y003296D01*
X011186Y003350D02*
X011612Y003350D01*
X010116Y003340D02*
X010066Y003326D01*
X010058Y003324D01*
X010052Y003320D01*
X010048Y003314D01*
X010046Y003306D01*
X010042Y003320D02*
X010116Y003340D01*
X010456Y003966D02*
X010478Y004196D01*
X010478Y005196D01*
X012776Y005536D02*
X012774Y006123D01*
X012774Y006480D01*
X012971Y006480D02*
X012971Y006012D01*
X013356Y005606D01*
X012316Y006174D02*
X012306Y006184D01*
X012306Y006446D02*
X012331Y006480D01*
X012380Y006480D01*
X012380Y006512D01*
X012316Y006526D01*
X012577Y006480D02*
X012577Y006856D01*
X013166Y006856D01*
X012316Y006938D02*
X012310Y006961D01*
X019486Y005566D02*
X019486Y004836D01*
X020186Y004965D02*
X020358Y005226D01*
X020936Y005226D01*
X020596Y005566D02*
X021326Y006015D01*
X021866Y005475D01*
X023705Y005475D01*
X023716Y005486D01*
X021756Y004356D02*
X021486Y004086D01*
X021486Y003606D01*
X020596Y005566D02*
X019486Y005566D01*
X013556Y003166D02*
X013496Y003226D01*
X013556Y003166D02*
X013556Y002476D01*
X013561Y002476D01*
X013561Y001992D01*
X014545Y001992D02*
X014545Y002385D01*
X014656Y002506D01*
X015056Y002786D02*
X015136Y002606D01*
X015333Y001992D02*
X015333Y001568D01*
D24*
X015136Y001686D02*
X014866Y001476D01*
X015446Y001266D02*
X015595Y001306D01*
X016446Y001266D02*
X016698Y001306D01*
X016446Y001266D02*
X016446Y001766D01*
X015946Y002266D01*
X011612Y003941D02*
X011282Y003941D01*
X011166Y004046D01*
X009946Y003766D02*
X009446Y003266D01*
X009446Y001766D01*
X008946Y001266D01*
X008945Y001536D01*
X008946Y001766D01*
X008446Y001766D01*
X008446Y003266D01*
X008101Y003318D01*
X009946Y003766D02*
X009946Y004766D01*
X009446Y005266D01*
X009375Y005196D01*
X009446Y005266D02*
X009446Y005766D01*
X009946Y006266D01*
X011946Y007266D02*
X011995Y007386D01*
X012946Y007266D02*
X013098Y007386D01*
X014946Y007266D02*
X015078Y007386D01*
X016226Y007527D02*
X016446Y007766D01*
X016946Y008266D01*
X017036Y008117D01*
X016946Y008266D02*
X018946Y008266D01*
X019017Y007516D02*
X018946Y007266D01*
X020946Y007266D02*
X021326Y007117D01*
X021446Y007266D01*
X020186Y006067D02*
X019946Y006266D01*
X023446Y004766D02*
X023716Y004706D01*
X023946Y004766D01*
X023716Y003916D02*
X023946Y003766D01*
X021506Y002096D02*
X021446Y001266D01*
X021358Y001316D01*
X010946Y001266D02*
X010886Y001425D01*
D25*
X015446Y003266D03*
X015946Y002266D03*
X021506Y002096D03*
X021446Y005266D03*
X021946Y007266D03*
X018946Y008266D03*
X014626Y008286D03*
X012126Y008146D03*
X011946Y006766D03*
X011446Y006266D03*
X009946Y006266D03*
D26*
X012776Y005536D03*
X013356Y005606D03*
X017236Y005626D03*
X019486Y004836D03*
X020936Y005226D03*
X021756Y004356D03*
X017456Y003026D03*
X016746Y003196D03*
X010066Y003326D03*
D27*
X012526Y004296D03*
X015056Y004256D03*
X013496Y003226D03*
X015056Y002786D03*
X014656Y002506D03*
X012186Y001506D03*
X014636Y001106D03*
X014866Y001476D03*
X021486Y003606D03*
X015156Y005666D03*
X015606Y006036D03*
X018436Y007576D03*
D28*
X018496Y007516D02*
X019017Y007516D01*
X018946Y007266D02*
X019946Y006266D01*
X020946Y007266D01*
X021446Y007266D02*
X021946Y007266D01*
X017836Y007516D02*
X017335Y007015D01*
X017036Y007015D02*
X016476Y006435D01*
X016626Y006596D02*
X016626Y005116D01*
X015446Y003586D02*
X014446Y003586D01*
X012996Y003586D01*
X012996Y002691D01*
X011047Y002691D01*
X011596Y002666D02*
X011596Y002096D01*
X011612Y002080D02*
X012186Y001506D01*
X014636Y001106D02*
X015395Y001106D01*
X015446Y001266D02*
X015446Y003266D01*
X015446Y003586D01*
X014446Y003586D02*
X012306Y005366D01*
X012306Y006184D01*
X012316Y006174D02*
X012306Y006446D01*
X012316Y006526D02*
X012316Y006938D01*
X012310Y006961D02*
X011995Y007386D01*
X011946Y007266D02*
X011946Y006766D01*
X011446Y006266D01*
X009045Y004196D02*
X008101Y005140D01*
X008101Y004252D02*
X008965Y003448D01*
X008945Y002566D01*
X010048Y002566D02*
X010042Y003320D01*
X010046Y003306D02*
X011186Y003296D01*
X010866Y003616D02*
X010456Y003966D01*
X014946Y007266D02*
X014946Y007966D01*
X014626Y008286D01*
X021446Y005266D02*
X021946Y004766D01*
X023446Y004766D01*
X023946Y004766D02*
X023946Y003766D01*
D29*
X011016Y003566D02*
X010946Y003576D01*
X009375Y004196D02*
X009045Y004196D01*
X010048Y002566D02*
X010048Y001536D01*
M02*
