G75*
G70*
%OFA0B0*%
%FSLAX24Y24*%
%IPPOS*%
%LPD*%
%AMOC8*
5,1,8,0,0,1.08239X$1,22.5*
%
%ADD10R,0.0709X0.0630*%
%ADD11R,0.1500X0.0760*%
%ADD12R,0.0590X0.0790*%
%ADD13C,0.0740*%
%ADD14C,0.1266*%
%ADD15R,0.0630X0.0787*%
%ADD16R,0.0787X0.0630*%
%ADD17R,0.0394X0.0551*%
%ADD18R,0.1500X0.0500*%
%ADD19R,0.0250X0.0500*%
%ADD20R,0.0500X0.1000*%
%ADD21R,0.3150X0.0400*%
%ADD22R,0.0800X0.0800*%
%ADD23R,0.0630X0.0709*%
%ADD24C,0.0100*%
%ADD25C,0.0310*%
%ADD26C,0.0396*%
%ADD27C,0.0120*%
%ADD28C,0.0357*%
%ADD29C,0.0560*%
%ADD30C,0.0320*%
%ADD31C,0.0240*%
%ADD32C,0.0160*%
D10*
X009166Y006705D03*
X009166Y007807D03*
X016346Y008137D03*
X016346Y007035D03*
D11*
X011026Y008006D03*
D12*
X011026Y005482D03*
X010121Y005482D03*
X011932Y005482D03*
D13*
X008101Y005140D03*
X008101Y004252D03*
X008101Y003318D03*
X008101Y006074D03*
D14*
X007156Y002413D03*
X007156Y006979D03*
D15*
X010865Y003486D03*
X011968Y003486D03*
X012955Y002616D03*
X014058Y002616D03*
X014048Y001406D03*
X012945Y001406D03*
D16*
X009216Y002365D03*
X009216Y003467D03*
X009206Y004365D03*
X009206Y005467D03*
X015336Y007035D03*
X015336Y008137D03*
X019306Y003007D03*
X018076Y002507D03*
X016876Y002497D03*
X019306Y001905D03*
X018076Y001405D03*
X016876Y001395D03*
D17*
X012090Y002579D03*
X011342Y002579D03*
X010456Y002579D03*
X010082Y001713D03*
X010830Y001713D03*
X011716Y001713D03*
D18*
X017736Y006156D03*
X020736Y006156D03*
X020736Y008156D03*
X017736Y008156D03*
D19*
X016006Y001236D03*
X015656Y001236D03*
X015306Y001236D03*
D20*
X014056Y007726D03*
X013056Y007726D03*
D21*
X023716Y005486D03*
X023716Y003916D03*
D22*
X021576Y002933D03*
X020416Y002933D03*
X020416Y001359D03*
X021576Y001359D03*
D23*
X011938Y004516D03*
X010835Y004516D03*
D24*
X011938Y004516D02*
X011946Y004766D01*
X011946Y005266D01*
X011932Y005482D01*
X011946Y005766D01*
X011946Y006266D01*
X011446Y006766D01*
X010446Y006766D01*
X009946Y006266D01*
X010946Y005766D02*
X011026Y005482D01*
X012446Y004266D02*
X012526Y004296D01*
X012446Y004266D02*
X012946Y003766D01*
X019446Y003766D01*
X019946Y003266D01*
X020446Y003266D01*
X020416Y002933D01*
X020446Y003266D02*
X019446Y004266D01*
X015946Y002766D02*
X015446Y003266D01*
X015946Y002766D02*
X016946Y002766D01*
X016876Y002497D01*
X021506Y002096D02*
X021526Y001126D01*
X021576Y001359D01*
X010082Y001713D02*
X009946Y001766D01*
X009446Y002266D01*
X009216Y002365D01*
X008946Y002266D01*
X007946Y003266D01*
X008101Y003318D01*
X010446Y006766D02*
X009446Y007766D01*
X009166Y007807D01*
X014946Y008266D02*
X015336Y008137D01*
X016346Y008137D02*
X016446Y008266D01*
X017446Y008266D01*
X017736Y008156D01*
X017946Y008266D01*
X018946Y008266D01*
X020446Y008266D01*
X020736Y008156D01*
D25*
X018946Y008266D03*
X021946Y007266D03*
X021446Y005266D03*
X015446Y003266D03*
X015946Y002266D03*
X021506Y002096D03*
X011446Y006266D03*
X011946Y006766D03*
X009946Y006266D03*
X012126Y008146D03*
X014626Y008286D03*
D26*
X013356Y005606D03*
X012776Y005536D03*
X017236Y005626D03*
X019486Y004836D03*
X020936Y005226D03*
X021756Y004356D03*
X017456Y003026D03*
X016746Y003196D03*
X010066Y003326D03*
D27*
X010856Y003316D02*
X010865Y003486D01*
X010080Y002956D02*
X009206Y002956D01*
X009216Y003467D01*
X010080Y002956D02*
X010456Y002579D01*
X011342Y002579D01*
X012090Y002579D02*
X012148Y002636D01*
X012955Y002616D02*
X012955Y001406D01*
X012955Y001176D01*
X010830Y001176D01*
X010830Y001713D01*
X011716Y001713D02*
X011923Y001506D01*
X012945Y001406D02*
X012955Y001406D01*
X014048Y001406D02*
X014348Y001106D01*
X014636Y001106D01*
X015066Y001476D02*
X015306Y001236D01*
X015066Y001476D02*
X014866Y001476D01*
X015656Y001236D02*
X015646Y002296D01*
X014736Y002296D01*
X014736Y002516D01*
X014656Y002506D01*
X015066Y002636D02*
X015056Y002786D01*
X015056Y002686D01*
X015066Y002676D01*
X015066Y002636D01*
X015066Y002676D02*
X015075Y002689D01*
X015080Y002703D01*
X015084Y002718D01*
X015084Y002733D01*
X015081Y002748D01*
X015075Y002762D01*
X015067Y002775D01*
X015056Y002786D01*
X015056Y004256D01*
X019436Y004256D01*
X019446Y004266D01*
X019486Y004836D02*
X013546Y004846D01*
X012776Y005536D01*
X013356Y005606D02*
X013756Y005246D01*
X020936Y005226D01*
X021426Y004816D01*
X021426Y004006D01*
X021516Y003916D01*
X023716Y003916D01*
X022886Y005486D02*
X021756Y004356D01*
X021486Y003606D02*
X020786Y003606D01*
X020446Y003266D01*
X021576Y002933D02*
X020548Y001905D01*
X019306Y001905D01*
X020416Y001359D02*
X018123Y001359D01*
X018076Y001405D01*
X016876Y001395D02*
X016758Y001276D01*
X016006Y001236D01*
X015946Y002266D02*
X015946Y002286D01*
X015596Y002636D01*
X015056Y002786D01*
X014058Y002665D02*
X014058Y002616D01*
X014058Y002665D02*
X013496Y003226D01*
X012496Y004256D02*
X012497Y004267D01*
X012500Y004277D01*
X012507Y004286D01*
X012516Y004292D01*
X012526Y004296D01*
X012148Y004306D01*
X012121Y004308D01*
X012094Y004313D01*
X012068Y004322D01*
X012043Y004334D01*
X012020Y004349D01*
X012000Y004368D01*
X011981Y004388D01*
X011966Y004411D01*
X011954Y004436D01*
X011945Y004462D01*
X011940Y004489D01*
X011938Y004516D01*
X013096Y007726D02*
X015156Y005666D01*
X015196Y005986D02*
X015556Y005986D01*
X015606Y006036D01*
X015196Y005986D02*
X014056Y007126D01*
X014056Y007726D01*
X013096Y007726D02*
X013056Y007726D01*
X012126Y007506D02*
X012126Y008146D01*
X012126Y007506D02*
X011446Y006766D01*
X015336Y007035D02*
X015346Y007085D01*
X016346Y007035D01*
X016346Y006166D01*
X016356Y006156D01*
X017246Y006156D01*
X017736Y006156D01*
X020736Y006156D01*
X022886Y005486D02*
X023716Y005486D01*
X019185Y003007D02*
X018826Y003366D01*
X016916Y003366D01*
X016746Y003196D01*
X017456Y003026D02*
X017558Y003026D01*
X018076Y002507D01*
X019185Y003007D02*
X019306Y003007D01*
X017236Y005626D02*
X017246Y006156D01*
X014626Y008286D02*
X014536Y008376D01*
D28*
X018436Y007576D03*
X015606Y006036D03*
X015156Y005666D03*
X015056Y004256D03*
X012526Y004296D03*
X013496Y003226D03*
X015056Y002786D03*
X014656Y002506D03*
X012186Y001506D03*
X014636Y001106D03*
X014866Y001476D03*
X021486Y003606D03*
D29*
X011026Y004495D02*
X011026Y005482D01*
X010121Y005482D02*
X009206Y005482D01*
X009166Y005482D01*
X009166Y006705D01*
X009156Y006074D01*
X008101Y006074D01*
X009206Y005482D02*
X009206Y005467D01*
D30*
X009166Y006437D02*
X009166Y006705D01*
X010835Y004516D02*
X011026Y004495D01*
D31*
X011968Y003486D02*
X012148Y002636D01*
X010856Y003316D02*
X010066Y003326D01*
X011923Y001506D02*
X012186Y001506D01*
X021446Y005266D02*
X021946Y005766D01*
X018436Y007576D02*
X015898Y007576D01*
X015336Y008137D01*
X014946Y008266D02*
X014626Y008286D01*
X012506Y007326D02*
X011946Y006766D01*
X011446Y006266D02*
X010946Y005766D01*
D32*
X009206Y004365D02*
X009216Y003467D01*
X012506Y007326D02*
X012506Y008376D01*
X014536Y008376D01*
X021946Y007266D02*
X021946Y005766D01*
M02*
