%
M48
M72
T01C0.0150
T02C0.0197
T03C0.0236
T04C0.0360
T05C0.0433
T06C0.0866
%
T01
X15446Y3266
X15946Y2266
X21506Y2096
X21446Y5266
X21946Y7266
X18946Y8266
X14626Y8286
X12126Y8146
X11946Y6766
X11446Y6266
X9946Y6266
T02
X15156Y5666
X15606Y6036
X18436Y7576
X22286Y6976
X22586Y6976
X22886Y6976
X23186Y6976
X23486Y6976
X23786Y6976
X24086Y6976
X24386Y6976
X24686Y6976
X24986Y6976
X25286Y6976
X25286Y6676
X24986Y6676
X24686Y6676
X24386Y6676
X24086Y6676
X23786Y6676
X23486Y6676
X23186Y6676
X22886Y6676
X22586Y6676
X22286Y6676
X22286Y6376
X22586Y6376
X22886Y6376
X23186Y6376
X23486Y6376
X23786Y6376
X24086Y6376
X24386Y6376
X24686Y6376
X24986Y6376
X25286Y6376
X25286Y6076
X24986Y6076
X24686Y6076
X24386Y6076
X24086Y6076
X23786Y6076
X23486Y6076
X23186Y6076
X22886Y6076
X22586Y6076
X22286Y6076
X21486Y3606
X22286Y3326
X22586Y3326
X22886Y3326
X23186Y3326
X23486Y3326
X23786Y3326
X24086Y3326
X24386Y3326
X24686Y3326
X24986Y3326
X25286Y3326
X25286Y3026
X24986Y3026
X24686Y3026
X24386Y3026
X24086Y3026
X23786Y3026
X23486Y3026
X23186Y3026
X22886Y3026
X22586Y3026
X22286Y3026
X22286Y2726
X22586Y2726
X22886Y2726
X23186Y2726
X23486Y2726
X23786Y2726
X24086Y2726
X24386Y2726
X24686Y2726
X24986Y2726
X25286Y2726
X25286Y2426
X24986Y2426
X24686Y2426
X24386Y2426
X24086Y2426
X23786Y2426
X23486Y2426
X23186Y2426
X22886Y2426
X22586Y2426
X22286Y2426
X23526Y906
X23826Y906
X24126Y906
X24426Y906
X24726Y906
X25026Y906
X15056Y2786
X14656Y2506
X13496Y3226
X12526Y4296
X15056Y4256
X12186Y1506
X14636Y1106
X14866Y1476
X23526Y8496
X23826Y8496
X24126Y8496
X24426Y8496
X24726Y8496
X25026Y8496
T03
X17236Y5626
X19486Y4836
X20936Y5226
X21756Y4356
X17456Y3026
X16746Y3196
X12776Y5536
X13356Y5606
X10066Y3326
T04
X8101Y3318
X8101Y4252
X8101Y5140
X8101Y6074
T05
X7117Y5582
X7117Y3810
T06
X7156Y2413
X7156Y6979
M30
