%
M48
M72
T01C0.0150
T02C0.0197
T03C0.0360
T04C0.0433
T05C0.0866
%
T01
X10198Y3246
X13698Y4046
X13598Y4446
X15098Y4046
X15698Y3446
X16598Y4046
X16598Y4946
X16198Y4946
X15698Y5246
X16398Y5846
X13098Y6046
X12798Y6746
X12798Y7146
X16198Y7546
X22498Y8146
X21698Y4746
X16698Y2046
X17398Y1746
X16098Y1696
X13998Y3346
X8598Y4646
X21598Y1246
T02
X23678Y886
X23978Y886
X24278Y886
X24578Y886
X24538Y2406
X24838Y2406
X25138Y2406
X25438Y2406
X25438Y2706
X25138Y2706
X24838Y2706
X24538Y2706
X24238Y2706
X23938Y2706
X23638Y2706
X23338Y2706
X23038Y2706
X22738Y2706
X22438Y2706
X22438Y3006
X22738Y3006
X23038Y3006
X23338Y3006
X23638Y3006
X23938Y3006
X24238Y3006
X24538Y3006
X24838Y3006
X25138Y3006
X25438Y3006
X25438Y3306
X25138Y3306
X24838Y3306
X24538Y3306
X24238Y3306
X23938Y3306
X23638Y3306
X23338Y3306
X23038Y3306
X22738Y3306
X22438Y3306
X22438Y2406
X22738Y2406
X23038Y2406
X23338Y2406
X23638Y2406
X23938Y2406
X24238Y2406
X24238Y6056
X23938Y6056
X23638Y6056
X23338Y6056
X23038Y6056
X22738Y6056
X22438Y6056
X22438Y6356
X22738Y6356
X23038Y6356
X23338Y6356
X23638Y6356
X23938Y6356
X24238Y6356
X24538Y6356
X24838Y6356
X25138Y6356
X25438Y6356
X25438Y6656
X25138Y6656
X24838Y6656
X24538Y6656
X24238Y6656
X23938Y6656
X23638Y6656
X23338Y6656
X23038Y6656
X22738Y6656
X22438Y6656
X22438Y6956
X22738Y6956
X23038Y6956
X23338Y6956
X23638Y6956
X23938Y6956
X24238Y6956
X24538Y6956
X24838Y6956
X25138Y6956
X25438Y6956
X25438Y6056
X25138Y6056
X24838Y6056
X24538Y6056
X24578Y8476
X24278Y8476
X23978Y8476
X23678Y8476
T03
X8103Y5994
X8103Y5060
X8103Y4172
X8103Y3238
T04
X7118Y3730
X7118Y5502
T05
X7158Y2332
X7158Y6899
M30
