G75*
G70*
%OFA0B0*%
%FSLAX24Y24*%
%IPPOS*%
%LPD*%
%AMOC8*
5,1,8,0,0,1.08239X$1,22.5*
%
%ADD10C,0.0000*%
%ADD11C,0.0060*%
%ADD12R,0.0669X0.0295*%
%ADD13C,0.0040*%
%ADD14R,0.0230X0.0180*%
%ADD15C,0.0010*%
%ADD16R,0.0230X0.0720*%
%ADD17R,0.0720X0.0230*%
%ADD18C,0.0120*%
%ADD19C,0.0050*%
%ADD20R,0.0600X0.0400*%
%ADD21C,0.0080*%
%ADD22R,0.0157X0.0157*%
D10*
X006098Y000746D02*
X025598Y000736D01*
X025598Y008616D01*
X006098Y008616D01*
X006098Y000746D01*
X006901Y003730D02*
X006903Y003759D01*
X006909Y003787D01*
X006918Y003815D01*
X006931Y003841D01*
X006948Y003864D01*
X006967Y003886D01*
X006989Y003905D01*
X007014Y003920D01*
X007040Y003933D01*
X007068Y003941D01*
X007096Y003946D01*
X007125Y003947D01*
X007154Y003944D01*
X007182Y003937D01*
X007209Y003927D01*
X007235Y003913D01*
X007258Y003896D01*
X007279Y003876D01*
X007297Y003853D01*
X007312Y003828D01*
X007323Y003801D01*
X007331Y003773D01*
X007335Y003744D01*
X007335Y003716D01*
X007331Y003687D01*
X007323Y003659D01*
X007312Y003632D01*
X007297Y003607D01*
X007279Y003584D01*
X007258Y003564D01*
X007235Y003547D01*
X007209Y003533D01*
X007182Y003523D01*
X007154Y003516D01*
X007125Y003513D01*
X007096Y003514D01*
X007068Y003519D01*
X007040Y003527D01*
X007014Y003540D01*
X006989Y003555D01*
X006967Y003574D01*
X006948Y003596D01*
X006931Y003619D01*
X006918Y003645D01*
X006909Y003673D01*
X006903Y003701D01*
X006901Y003730D01*
X006901Y005502D02*
X006903Y005531D01*
X006909Y005559D01*
X006918Y005587D01*
X006931Y005613D01*
X006948Y005636D01*
X006967Y005658D01*
X006989Y005677D01*
X007014Y005692D01*
X007040Y005705D01*
X007068Y005713D01*
X007096Y005718D01*
X007125Y005719D01*
X007154Y005716D01*
X007182Y005709D01*
X007209Y005699D01*
X007235Y005685D01*
X007258Y005668D01*
X007279Y005648D01*
X007297Y005625D01*
X007312Y005600D01*
X007323Y005573D01*
X007331Y005545D01*
X007335Y005516D01*
X007335Y005488D01*
X007331Y005459D01*
X007323Y005431D01*
X007312Y005404D01*
X007297Y005379D01*
X007279Y005356D01*
X007258Y005336D01*
X007235Y005319D01*
X007209Y005305D01*
X007182Y005295D01*
X007154Y005288D01*
X007125Y005285D01*
X007096Y005286D01*
X007068Y005291D01*
X007040Y005299D01*
X007014Y005312D01*
X006989Y005327D01*
X006967Y005346D01*
X006948Y005368D01*
X006931Y005391D01*
X006918Y005417D01*
X006909Y005445D01*
X006903Y005473D01*
X006901Y005502D01*
X022440Y006056D02*
X022442Y006075D01*
X022447Y006094D01*
X022457Y006110D01*
X022469Y006125D01*
X022484Y006137D01*
X022500Y006147D01*
X022519Y006152D01*
X022538Y006154D01*
X022557Y006152D01*
X022576Y006147D01*
X022592Y006137D01*
X022607Y006125D01*
X022619Y006110D01*
X022629Y006094D01*
X022634Y006075D01*
X022636Y006056D01*
X022634Y006037D01*
X022629Y006018D01*
X022619Y006002D01*
X022607Y005987D01*
X022592Y005975D01*
X022576Y005965D01*
X022557Y005960D01*
X022538Y005958D01*
X022519Y005960D01*
X022500Y005965D01*
X022484Y005975D01*
X022469Y005987D01*
X022457Y006002D01*
X022447Y006018D01*
X022442Y006037D01*
X022440Y006056D01*
X022730Y006056D02*
X022732Y006075D01*
X022737Y006094D01*
X022747Y006110D01*
X022759Y006125D01*
X022774Y006137D01*
X022790Y006147D01*
X022809Y006152D01*
X022828Y006154D01*
X022847Y006152D01*
X022866Y006147D01*
X022882Y006137D01*
X022897Y006125D01*
X022909Y006110D01*
X022919Y006094D01*
X022924Y006075D01*
X022926Y006056D01*
X022924Y006037D01*
X022919Y006018D01*
X022909Y006002D01*
X022897Y005987D01*
X022882Y005975D01*
X022866Y005965D01*
X022847Y005960D01*
X022828Y005958D01*
X022809Y005960D01*
X022790Y005965D01*
X022774Y005975D01*
X022759Y005987D01*
X022747Y006002D01*
X022737Y006018D01*
X022732Y006037D01*
X022730Y006056D01*
X023020Y006056D02*
X023022Y006075D01*
X023027Y006094D01*
X023037Y006110D01*
X023049Y006125D01*
X023064Y006137D01*
X023080Y006147D01*
X023099Y006152D01*
X023118Y006154D01*
X023137Y006152D01*
X023156Y006147D01*
X023172Y006137D01*
X023187Y006125D01*
X023199Y006110D01*
X023209Y006094D01*
X023214Y006075D01*
X023216Y006056D01*
X023214Y006037D01*
X023209Y006018D01*
X023199Y006002D01*
X023187Y005987D01*
X023172Y005975D01*
X023156Y005965D01*
X023137Y005960D01*
X023118Y005958D01*
X023099Y005960D01*
X023080Y005965D01*
X023064Y005975D01*
X023049Y005987D01*
X023037Y006002D01*
X023027Y006018D01*
X023022Y006037D01*
X023020Y006056D01*
X023310Y006056D02*
X023312Y006075D01*
X023317Y006094D01*
X023327Y006110D01*
X023339Y006125D01*
X023354Y006137D01*
X023370Y006147D01*
X023389Y006152D01*
X023408Y006154D01*
X023427Y006152D01*
X023446Y006147D01*
X023462Y006137D01*
X023477Y006125D01*
X023489Y006110D01*
X023499Y006094D01*
X023504Y006075D01*
X023506Y006056D01*
X023504Y006037D01*
X023499Y006018D01*
X023489Y006002D01*
X023477Y005987D01*
X023462Y005975D01*
X023446Y005965D01*
X023427Y005960D01*
X023408Y005958D01*
X023389Y005960D01*
X023370Y005965D01*
X023354Y005975D01*
X023339Y005987D01*
X023327Y006002D01*
X023317Y006018D01*
X023312Y006037D01*
X023310Y006056D01*
X023600Y006056D02*
X023602Y006075D01*
X023607Y006094D01*
X023617Y006110D01*
X023629Y006125D01*
X023644Y006137D01*
X023660Y006147D01*
X023679Y006152D01*
X023698Y006154D01*
X023717Y006152D01*
X023736Y006147D01*
X023752Y006137D01*
X023767Y006125D01*
X023779Y006110D01*
X023789Y006094D01*
X023794Y006075D01*
X023796Y006056D01*
X023794Y006037D01*
X023789Y006018D01*
X023779Y006002D01*
X023767Y005987D01*
X023752Y005975D01*
X023736Y005965D01*
X023717Y005960D01*
X023698Y005958D01*
X023679Y005960D01*
X023660Y005965D01*
X023644Y005975D01*
X023629Y005987D01*
X023617Y006002D01*
X023607Y006018D01*
X023602Y006037D01*
X023600Y006056D01*
X023890Y006056D02*
X023892Y006075D01*
X023897Y006094D01*
X023907Y006110D01*
X023919Y006125D01*
X023934Y006137D01*
X023950Y006147D01*
X023969Y006152D01*
X023988Y006154D01*
X024007Y006152D01*
X024026Y006147D01*
X024042Y006137D01*
X024057Y006125D01*
X024069Y006110D01*
X024079Y006094D01*
X024084Y006075D01*
X024086Y006056D01*
X024084Y006037D01*
X024079Y006018D01*
X024069Y006002D01*
X024057Y005987D01*
X024042Y005975D01*
X024026Y005965D01*
X024007Y005960D01*
X023988Y005958D01*
X023969Y005960D01*
X023950Y005965D01*
X023934Y005975D01*
X023919Y005987D01*
X023907Y006002D01*
X023897Y006018D01*
X023892Y006037D01*
X023890Y006056D01*
X024180Y006056D02*
X024182Y006075D01*
X024187Y006094D01*
X024197Y006110D01*
X024209Y006125D01*
X024224Y006137D01*
X024240Y006147D01*
X024259Y006152D01*
X024278Y006154D01*
X024297Y006152D01*
X024316Y006147D01*
X024332Y006137D01*
X024347Y006125D01*
X024359Y006110D01*
X024369Y006094D01*
X024374Y006075D01*
X024376Y006056D01*
X024374Y006037D01*
X024369Y006018D01*
X024359Y006002D01*
X024347Y005987D01*
X024332Y005975D01*
X024316Y005965D01*
X024297Y005960D01*
X024278Y005958D01*
X024259Y005960D01*
X024240Y005965D01*
X024224Y005975D01*
X024209Y005987D01*
X024197Y006002D01*
X024187Y006018D01*
X024182Y006037D01*
X024180Y006056D01*
X024470Y006056D02*
X024472Y006075D01*
X024477Y006094D01*
X024487Y006110D01*
X024499Y006125D01*
X024514Y006137D01*
X024530Y006147D01*
X024549Y006152D01*
X024568Y006154D01*
X024587Y006152D01*
X024606Y006147D01*
X024622Y006137D01*
X024637Y006125D01*
X024649Y006110D01*
X024659Y006094D01*
X024664Y006075D01*
X024666Y006056D01*
X024664Y006037D01*
X024659Y006018D01*
X024649Y006002D01*
X024637Y005987D01*
X024622Y005975D01*
X024606Y005965D01*
X024587Y005960D01*
X024568Y005958D01*
X024549Y005960D01*
X024530Y005965D01*
X024514Y005975D01*
X024499Y005987D01*
X024487Y006002D01*
X024477Y006018D01*
X024472Y006037D01*
X024470Y006056D01*
X024760Y006056D02*
X024762Y006075D01*
X024767Y006094D01*
X024777Y006110D01*
X024789Y006125D01*
X024804Y006137D01*
X024820Y006147D01*
X024839Y006152D01*
X024858Y006154D01*
X024877Y006152D01*
X024896Y006147D01*
X024912Y006137D01*
X024927Y006125D01*
X024939Y006110D01*
X024949Y006094D01*
X024954Y006075D01*
X024956Y006056D01*
X024954Y006037D01*
X024949Y006018D01*
X024939Y006002D01*
X024927Y005987D01*
X024912Y005975D01*
X024896Y005965D01*
X024877Y005960D01*
X024858Y005958D01*
X024839Y005960D01*
X024820Y005965D01*
X024804Y005975D01*
X024789Y005987D01*
X024777Y006002D01*
X024767Y006018D01*
X024762Y006037D01*
X024760Y006056D01*
X025050Y006056D02*
X025052Y006075D01*
X025057Y006094D01*
X025067Y006110D01*
X025079Y006125D01*
X025094Y006137D01*
X025110Y006147D01*
X025129Y006152D01*
X025148Y006154D01*
X025167Y006152D01*
X025186Y006147D01*
X025202Y006137D01*
X025217Y006125D01*
X025229Y006110D01*
X025239Y006094D01*
X025244Y006075D01*
X025246Y006056D01*
X025244Y006037D01*
X025239Y006018D01*
X025229Y006002D01*
X025217Y005987D01*
X025202Y005975D01*
X025186Y005965D01*
X025167Y005960D01*
X025148Y005958D01*
X025129Y005960D01*
X025110Y005965D01*
X025094Y005975D01*
X025079Y005987D01*
X025067Y006002D01*
X025057Y006018D01*
X025052Y006037D01*
X025050Y006056D01*
X025340Y006056D02*
X025342Y006075D01*
X025347Y006094D01*
X025357Y006110D01*
X025369Y006125D01*
X025384Y006137D01*
X025400Y006147D01*
X025419Y006152D01*
X025438Y006154D01*
X025457Y006152D01*
X025476Y006147D01*
X025492Y006137D01*
X025507Y006125D01*
X025519Y006110D01*
X025529Y006094D01*
X025534Y006075D01*
X025536Y006056D01*
X025534Y006037D01*
X025529Y006018D01*
X025519Y006002D01*
X025507Y005987D01*
X025492Y005975D01*
X025476Y005965D01*
X025457Y005960D01*
X025438Y005958D01*
X025419Y005960D01*
X025400Y005965D01*
X025384Y005975D01*
X025369Y005987D01*
X025357Y006002D01*
X025347Y006018D01*
X025342Y006037D01*
X025340Y006056D01*
X025340Y006346D02*
X025342Y006365D01*
X025347Y006384D01*
X025357Y006400D01*
X025369Y006415D01*
X025384Y006427D01*
X025400Y006437D01*
X025419Y006442D01*
X025438Y006444D01*
X025457Y006442D01*
X025476Y006437D01*
X025492Y006427D01*
X025507Y006415D01*
X025519Y006400D01*
X025529Y006384D01*
X025534Y006365D01*
X025536Y006346D01*
X025534Y006327D01*
X025529Y006308D01*
X025519Y006292D01*
X025507Y006277D01*
X025492Y006265D01*
X025476Y006255D01*
X025457Y006250D01*
X025438Y006248D01*
X025419Y006250D01*
X025400Y006255D01*
X025384Y006265D01*
X025369Y006277D01*
X025357Y006292D01*
X025347Y006308D01*
X025342Y006327D01*
X025340Y006346D01*
X025050Y006346D02*
X025052Y006365D01*
X025057Y006384D01*
X025067Y006400D01*
X025079Y006415D01*
X025094Y006427D01*
X025110Y006437D01*
X025129Y006442D01*
X025148Y006444D01*
X025167Y006442D01*
X025186Y006437D01*
X025202Y006427D01*
X025217Y006415D01*
X025229Y006400D01*
X025239Y006384D01*
X025244Y006365D01*
X025246Y006346D01*
X025244Y006327D01*
X025239Y006308D01*
X025229Y006292D01*
X025217Y006277D01*
X025202Y006265D01*
X025186Y006255D01*
X025167Y006250D01*
X025148Y006248D01*
X025129Y006250D01*
X025110Y006255D01*
X025094Y006265D01*
X025079Y006277D01*
X025067Y006292D01*
X025057Y006308D01*
X025052Y006327D01*
X025050Y006346D01*
X024760Y006346D02*
X024762Y006365D01*
X024767Y006384D01*
X024777Y006400D01*
X024789Y006415D01*
X024804Y006427D01*
X024820Y006437D01*
X024839Y006442D01*
X024858Y006444D01*
X024877Y006442D01*
X024896Y006437D01*
X024912Y006427D01*
X024927Y006415D01*
X024939Y006400D01*
X024949Y006384D01*
X024954Y006365D01*
X024956Y006346D01*
X024954Y006327D01*
X024949Y006308D01*
X024939Y006292D01*
X024927Y006277D01*
X024912Y006265D01*
X024896Y006255D01*
X024877Y006250D01*
X024858Y006248D01*
X024839Y006250D01*
X024820Y006255D01*
X024804Y006265D01*
X024789Y006277D01*
X024777Y006292D01*
X024767Y006308D01*
X024762Y006327D01*
X024760Y006346D01*
X024470Y006346D02*
X024472Y006365D01*
X024477Y006384D01*
X024487Y006400D01*
X024499Y006415D01*
X024514Y006427D01*
X024530Y006437D01*
X024549Y006442D01*
X024568Y006444D01*
X024587Y006442D01*
X024606Y006437D01*
X024622Y006427D01*
X024637Y006415D01*
X024649Y006400D01*
X024659Y006384D01*
X024664Y006365D01*
X024666Y006346D01*
X024664Y006327D01*
X024659Y006308D01*
X024649Y006292D01*
X024637Y006277D01*
X024622Y006265D01*
X024606Y006255D01*
X024587Y006250D01*
X024568Y006248D01*
X024549Y006250D01*
X024530Y006255D01*
X024514Y006265D01*
X024499Y006277D01*
X024487Y006292D01*
X024477Y006308D01*
X024472Y006327D01*
X024470Y006346D01*
X024180Y006346D02*
X024182Y006365D01*
X024187Y006384D01*
X024197Y006400D01*
X024209Y006415D01*
X024224Y006427D01*
X024240Y006437D01*
X024259Y006442D01*
X024278Y006444D01*
X024297Y006442D01*
X024316Y006437D01*
X024332Y006427D01*
X024347Y006415D01*
X024359Y006400D01*
X024369Y006384D01*
X024374Y006365D01*
X024376Y006346D01*
X024374Y006327D01*
X024369Y006308D01*
X024359Y006292D01*
X024347Y006277D01*
X024332Y006265D01*
X024316Y006255D01*
X024297Y006250D01*
X024278Y006248D01*
X024259Y006250D01*
X024240Y006255D01*
X024224Y006265D01*
X024209Y006277D01*
X024197Y006292D01*
X024187Y006308D01*
X024182Y006327D01*
X024180Y006346D01*
X023890Y006346D02*
X023892Y006365D01*
X023897Y006384D01*
X023907Y006400D01*
X023919Y006415D01*
X023934Y006427D01*
X023950Y006437D01*
X023969Y006442D01*
X023988Y006444D01*
X024007Y006442D01*
X024026Y006437D01*
X024042Y006427D01*
X024057Y006415D01*
X024069Y006400D01*
X024079Y006384D01*
X024084Y006365D01*
X024086Y006346D01*
X024084Y006327D01*
X024079Y006308D01*
X024069Y006292D01*
X024057Y006277D01*
X024042Y006265D01*
X024026Y006255D01*
X024007Y006250D01*
X023988Y006248D01*
X023969Y006250D01*
X023950Y006255D01*
X023934Y006265D01*
X023919Y006277D01*
X023907Y006292D01*
X023897Y006308D01*
X023892Y006327D01*
X023890Y006346D01*
X023600Y006346D02*
X023602Y006365D01*
X023607Y006384D01*
X023617Y006400D01*
X023629Y006415D01*
X023644Y006427D01*
X023660Y006437D01*
X023679Y006442D01*
X023698Y006444D01*
X023717Y006442D01*
X023736Y006437D01*
X023752Y006427D01*
X023767Y006415D01*
X023779Y006400D01*
X023789Y006384D01*
X023794Y006365D01*
X023796Y006346D01*
X023794Y006327D01*
X023789Y006308D01*
X023779Y006292D01*
X023767Y006277D01*
X023752Y006265D01*
X023736Y006255D01*
X023717Y006250D01*
X023698Y006248D01*
X023679Y006250D01*
X023660Y006255D01*
X023644Y006265D01*
X023629Y006277D01*
X023617Y006292D01*
X023607Y006308D01*
X023602Y006327D01*
X023600Y006346D01*
X023310Y006346D02*
X023312Y006365D01*
X023317Y006384D01*
X023327Y006400D01*
X023339Y006415D01*
X023354Y006427D01*
X023370Y006437D01*
X023389Y006442D01*
X023408Y006444D01*
X023427Y006442D01*
X023446Y006437D01*
X023462Y006427D01*
X023477Y006415D01*
X023489Y006400D01*
X023499Y006384D01*
X023504Y006365D01*
X023506Y006346D01*
X023504Y006327D01*
X023499Y006308D01*
X023489Y006292D01*
X023477Y006277D01*
X023462Y006265D01*
X023446Y006255D01*
X023427Y006250D01*
X023408Y006248D01*
X023389Y006250D01*
X023370Y006255D01*
X023354Y006265D01*
X023339Y006277D01*
X023327Y006292D01*
X023317Y006308D01*
X023312Y006327D01*
X023310Y006346D01*
X023020Y006346D02*
X023022Y006365D01*
X023027Y006384D01*
X023037Y006400D01*
X023049Y006415D01*
X023064Y006427D01*
X023080Y006437D01*
X023099Y006442D01*
X023118Y006444D01*
X023137Y006442D01*
X023156Y006437D01*
X023172Y006427D01*
X023187Y006415D01*
X023199Y006400D01*
X023209Y006384D01*
X023214Y006365D01*
X023216Y006346D01*
X023214Y006327D01*
X023209Y006308D01*
X023199Y006292D01*
X023187Y006277D01*
X023172Y006265D01*
X023156Y006255D01*
X023137Y006250D01*
X023118Y006248D01*
X023099Y006250D01*
X023080Y006255D01*
X023064Y006265D01*
X023049Y006277D01*
X023037Y006292D01*
X023027Y006308D01*
X023022Y006327D01*
X023020Y006346D01*
X022730Y006346D02*
X022732Y006365D01*
X022737Y006384D01*
X022747Y006400D01*
X022759Y006415D01*
X022774Y006427D01*
X022790Y006437D01*
X022809Y006442D01*
X022828Y006444D01*
X022847Y006442D01*
X022866Y006437D01*
X022882Y006427D01*
X022897Y006415D01*
X022909Y006400D01*
X022919Y006384D01*
X022924Y006365D01*
X022926Y006346D01*
X022924Y006327D01*
X022919Y006308D01*
X022909Y006292D01*
X022897Y006277D01*
X022882Y006265D01*
X022866Y006255D01*
X022847Y006250D01*
X022828Y006248D01*
X022809Y006250D01*
X022790Y006255D01*
X022774Y006265D01*
X022759Y006277D01*
X022747Y006292D01*
X022737Y006308D01*
X022732Y006327D01*
X022730Y006346D01*
X022440Y006346D02*
X022442Y006365D01*
X022447Y006384D01*
X022457Y006400D01*
X022469Y006415D01*
X022484Y006427D01*
X022500Y006437D01*
X022519Y006442D01*
X022538Y006444D01*
X022557Y006442D01*
X022576Y006437D01*
X022592Y006427D01*
X022607Y006415D01*
X022619Y006400D01*
X022629Y006384D01*
X022634Y006365D01*
X022636Y006346D01*
X022634Y006327D01*
X022629Y006308D01*
X022619Y006292D01*
X022607Y006277D01*
X022592Y006265D01*
X022576Y006255D01*
X022557Y006250D01*
X022538Y006248D01*
X022519Y006250D01*
X022500Y006255D01*
X022484Y006265D01*
X022469Y006277D01*
X022457Y006292D01*
X022447Y006308D01*
X022442Y006327D01*
X022440Y006346D01*
X022440Y006636D02*
X022442Y006655D01*
X022447Y006674D01*
X022457Y006690D01*
X022469Y006705D01*
X022484Y006717D01*
X022500Y006727D01*
X022519Y006732D01*
X022538Y006734D01*
X022557Y006732D01*
X022576Y006727D01*
X022592Y006717D01*
X022607Y006705D01*
X022619Y006690D01*
X022629Y006674D01*
X022634Y006655D01*
X022636Y006636D01*
X022634Y006617D01*
X022629Y006598D01*
X022619Y006582D01*
X022607Y006567D01*
X022592Y006555D01*
X022576Y006545D01*
X022557Y006540D01*
X022538Y006538D01*
X022519Y006540D01*
X022500Y006545D01*
X022484Y006555D01*
X022469Y006567D01*
X022457Y006582D01*
X022447Y006598D01*
X022442Y006617D01*
X022440Y006636D01*
X022730Y006636D02*
X022732Y006655D01*
X022737Y006674D01*
X022747Y006690D01*
X022759Y006705D01*
X022774Y006717D01*
X022790Y006727D01*
X022809Y006732D01*
X022828Y006734D01*
X022847Y006732D01*
X022866Y006727D01*
X022882Y006717D01*
X022897Y006705D01*
X022909Y006690D01*
X022919Y006674D01*
X022924Y006655D01*
X022926Y006636D01*
X022924Y006617D01*
X022919Y006598D01*
X022909Y006582D01*
X022897Y006567D01*
X022882Y006555D01*
X022866Y006545D01*
X022847Y006540D01*
X022828Y006538D01*
X022809Y006540D01*
X022790Y006545D01*
X022774Y006555D01*
X022759Y006567D01*
X022747Y006582D01*
X022737Y006598D01*
X022732Y006617D01*
X022730Y006636D01*
X023020Y006636D02*
X023022Y006655D01*
X023027Y006674D01*
X023037Y006690D01*
X023049Y006705D01*
X023064Y006717D01*
X023080Y006727D01*
X023099Y006732D01*
X023118Y006734D01*
X023137Y006732D01*
X023156Y006727D01*
X023172Y006717D01*
X023187Y006705D01*
X023199Y006690D01*
X023209Y006674D01*
X023214Y006655D01*
X023216Y006636D01*
X023214Y006617D01*
X023209Y006598D01*
X023199Y006582D01*
X023187Y006567D01*
X023172Y006555D01*
X023156Y006545D01*
X023137Y006540D01*
X023118Y006538D01*
X023099Y006540D01*
X023080Y006545D01*
X023064Y006555D01*
X023049Y006567D01*
X023037Y006582D01*
X023027Y006598D01*
X023022Y006617D01*
X023020Y006636D01*
X023310Y006636D02*
X023312Y006655D01*
X023317Y006674D01*
X023327Y006690D01*
X023339Y006705D01*
X023354Y006717D01*
X023370Y006727D01*
X023389Y006732D01*
X023408Y006734D01*
X023427Y006732D01*
X023446Y006727D01*
X023462Y006717D01*
X023477Y006705D01*
X023489Y006690D01*
X023499Y006674D01*
X023504Y006655D01*
X023506Y006636D01*
X023504Y006617D01*
X023499Y006598D01*
X023489Y006582D01*
X023477Y006567D01*
X023462Y006555D01*
X023446Y006545D01*
X023427Y006540D01*
X023408Y006538D01*
X023389Y006540D01*
X023370Y006545D01*
X023354Y006555D01*
X023339Y006567D01*
X023327Y006582D01*
X023317Y006598D01*
X023312Y006617D01*
X023310Y006636D01*
X023600Y006636D02*
X023602Y006655D01*
X023607Y006674D01*
X023617Y006690D01*
X023629Y006705D01*
X023644Y006717D01*
X023660Y006727D01*
X023679Y006732D01*
X023698Y006734D01*
X023717Y006732D01*
X023736Y006727D01*
X023752Y006717D01*
X023767Y006705D01*
X023779Y006690D01*
X023789Y006674D01*
X023794Y006655D01*
X023796Y006636D01*
X023794Y006617D01*
X023789Y006598D01*
X023779Y006582D01*
X023767Y006567D01*
X023752Y006555D01*
X023736Y006545D01*
X023717Y006540D01*
X023698Y006538D01*
X023679Y006540D01*
X023660Y006545D01*
X023644Y006555D01*
X023629Y006567D01*
X023617Y006582D01*
X023607Y006598D01*
X023602Y006617D01*
X023600Y006636D01*
X023890Y006636D02*
X023892Y006655D01*
X023897Y006674D01*
X023907Y006690D01*
X023919Y006705D01*
X023934Y006717D01*
X023950Y006727D01*
X023969Y006732D01*
X023988Y006734D01*
X024007Y006732D01*
X024026Y006727D01*
X024042Y006717D01*
X024057Y006705D01*
X024069Y006690D01*
X024079Y006674D01*
X024084Y006655D01*
X024086Y006636D01*
X024084Y006617D01*
X024079Y006598D01*
X024069Y006582D01*
X024057Y006567D01*
X024042Y006555D01*
X024026Y006545D01*
X024007Y006540D01*
X023988Y006538D01*
X023969Y006540D01*
X023950Y006545D01*
X023934Y006555D01*
X023919Y006567D01*
X023907Y006582D01*
X023897Y006598D01*
X023892Y006617D01*
X023890Y006636D01*
X024180Y006636D02*
X024182Y006655D01*
X024187Y006674D01*
X024197Y006690D01*
X024209Y006705D01*
X024224Y006717D01*
X024240Y006727D01*
X024259Y006732D01*
X024278Y006734D01*
X024297Y006732D01*
X024316Y006727D01*
X024332Y006717D01*
X024347Y006705D01*
X024359Y006690D01*
X024369Y006674D01*
X024374Y006655D01*
X024376Y006636D01*
X024374Y006617D01*
X024369Y006598D01*
X024359Y006582D01*
X024347Y006567D01*
X024332Y006555D01*
X024316Y006545D01*
X024297Y006540D01*
X024278Y006538D01*
X024259Y006540D01*
X024240Y006545D01*
X024224Y006555D01*
X024209Y006567D01*
X024197Y006582D01*
X024187Y006598D01*
X024182Y006617D01*
X024180Y006636D01*
X024470Y006636D02*
X024472Y006655D01*
X024477Y006674D01*
X024487Y006690D01*
X024499Y006705D01*
X024514Y006717D01*
X024530Y006727D01*
X024549Y006732D01*
X024568Y006734D01*
X024587Y006732D01*
X024606Y006727D01*
X024622Y006717D01*
X024637Y006705D01*
X024649Y006690D01*
X024659Y006674D01*
X024664Y006655D01*
X024666Y006636D01*
X024664Y006617D01*
X024659Y006598D01*
X024649Y006582D01*
X024637Y006567D01*
X024622Y006555D01*
X024606Y006545D01*
X024587Y006540D01*
X024568Y006538D01*
X024549Y006540D01*
X024530Y006545D01*
X024514Y006555D01*
X024499Y006567D01*
X024487Y006582D01*
X024477Y006598D01*
X024472Y006617D01*
X024470Y006636D01*
X024760Y006636D02*
X024762Y006655D01*
X024767Y006674D01*
X024777Y006690D01*
X024789Y006705D01*
X024804Y006717D01*
X024820Y006727D01*
X024839Y006732D01*
X024858Y006734D01*
X024877Y006732D01*
X024896Y006727D01*
X024912Y006717D01*
X024927Y006705D01*
X024939Y006690D01*
X024949Y006674D01*
X024954Y006655D01*
X024956Y006636D01*
X024954Y006617D01*
X024949Y006598D01*
X024939Y006582D01*
X024927Y006567D01*
X024912Y006555D01*
X024896Y006545D01*
X024877Y006540D01*
X024858Y006538D01*
X024839Y006540D01*
X024820Y006545D01*
X024804Y006555D01*
X024789Y006567D01*
X024777Y006582D01*
X024767Y006598D01*
X024762Y006617D01*
X024760Y006636D01*
X025050Y006636D02*
X025052Y006655D01*
X025057Y006674D01*
X025067Y006690D01*
X025079Y006705D01*
X025094Y006717D01*
X025110Y006727D01*
X025129Y006732D01*
X025148Y006734D01*
X025167Y006732D01*
X025186Y006727D01*
X025202Y006717D01*
X025217Y006705D01*
X025229Y006690D01*
X025239Y006674D01*
X025244Y006655D01*
X025246Y006636D01*
X025244Y006617D01*
X025239Y006598D01*
X025229Y006582D01*
X025217Y006567D01*
X025202Y006555D01*
X025186Y006545D01*
X025167Y006540D01*
X025148Y006538D01*
X025129Y006540D01*
X025110Y006545D01*
X025094Y006555D01*
X025079Y006567D01*
X025067Y006582D01*
X025057Y006598D01*
X025052Y006617D01*
X025050Y006636D01*
X025340Y006636D02*
X025342Y006655D01*
X025347Y006674D01*
X025357Y006690D01*
X025369Y006705D01*
X025384Y006717D01*
X025400Y006727D01*
X025419Y006732D01*
X025438Y006734D01*
X025457Y006732D01*
X025476Y006727D01*
X025492Y006717D01*
X025507Y006705D01*
X025519Y006690D01*
X025529Y006674D01*
X025534Y006655D01*
X025536Y006636D01*
X025534Y006617D01*
X025529Y006598D01*
X025519Y006582D01*
X025507Y006567D01*
X025492Y006555D01*
X025476Y006545D01*
X025457Y006540D01*
X025438Y006538D01*
X025419Y006540D01*
X025400Y006545D01*
X025384Y006555D01*
X025369Y006567D01*
X025357Y006582D01*
X025347Y006598D01*
X025342Y006617D01*
X025340Y006636D01*
X025340Y006946D02*
X025342Y006965D01*
X025347Y006984D01*
X025357Y007000D01*
X025369Y007015D01*
X025384Y007027D01*
X025400Y007037D01*
X025419Y007042D01*
X025438Y007044D01*
X025457Y007042D01*
X025476Y007037D01*
X025492Y007027D01*
X025507Y007015D01*
X025519Y007000D01*
X025529Y006984D01*
X025534Y006965D01*
X025536Y006946D01*
X025534Y006927D01*
X025529Y006908D01*
X025519Y006892D01*
X025507Y006877D01*
X025492Y006865D01*
X025476Y006855D01*
X025457Y006850D01*
X025438Y006848D01*
X025419Y006850D01*
X025400Y006855D01*
X025384Y006865D01*
X025369Y006877D01*
X025357Y006892D01*
X025347Y006908D01*
X025342Y006927D01*
X025340Y006946D01*
X025050Y006946D02*
X025052Y006965D01*
X025057Y006984D01*
X025067Y007000D01*
X025079Y007015D01*
X025094Y007027D01*
X025110Y007037D01*
X025129Y007042D01*
X025148Y007044D01*
X025167Y007042D01*
X025186Y007037D01*
X025202Y007027D01*
X025217Y007015D01*
X025229Y007000D01*
X025239Y006984D01*
X025244Y006965D01*
X025246Y006946D01*
X025244Y006927D01*
X025239Y006908D01*
X025229Y006892D01*
X025217Y006877D01*
X025202Y006865D01*
X025186Y006855D01*
X025167Y006850D01*
X025148Y006848D01*
X025129Y006850D01*
X025110Y006855D01*
X025094Y006865D01*
X025079Y006877D01*
X025067Y006892D01*
X025057Y006908D01*
X025052Y006927D01*
X025050Y006946D01*
X024760Y006946D02*
X024762Y006965D01*
X024767Y006984D01*
X024777Y007000D01*
X024789Y007015D01*
X024804Y007027D01*
X024820Y007037D01*
X024839Y007042D01*
X024858Y007044D01*
X024877Y007042D01*
X024896Y007037D01*
X024912Y007027D01*
X024927Y007015D01*
X024939Y007000D01*
X024949Y006984D01*
X024954Y006965D01*
X024956Y006946D01*
X024954Y006927D01*
X024949Y006908D01*
X024939Y006892D01*
X024927Y006877D01*
X024912Y006865D01*
X024896Y006855D01*
X024877Y006850D01*
X024858Y006848D01*
X024839Y006850D01*
X024820Y006855D01*
X024804Y006865D01*
X024789Y006877D01*
X024777Y006892D01*
X024767Y006908D01*
X024762Y006927D01*
X024760Y006946D01*
X024470Y006946D02*
X024472Y006965D01*
X024477Y006984D01*
X024487Y007000D01*
X024499Y007015D01*
X024514Y007027D01*
X024530Y007037D01*
X024549Y007042D01*
X024568Y007044D01*
X024587Y007042D01*
X024606Y007037D01*
X024622Y007027D01*
X024637Y007015D01*
X024649Y007000D01*
X024659Y006984D01*
X024664Y006965D01*
X024666Y006946D01*
X024664Y006927D01*
X024659Y006908D01*
X024649Y006892D01*
X024637Y006877D01*
X024622Y006865D01*
X024606Y006855D01*
X024587Y006850D01*
X024568Y006848D01*
X024549Y006850D01*
X024530Y006855D01*
X024514Y006865D01*
X024499Y006877D01*
X024487Y006892D01*
X024477Y006908D01*
X024472Y006927D01*
X024470Y006946D01*
X024180Y006946D02*
X024182Y006965D01*
X024187Y006984D01*
X024197Y007000D01*
X024209Y007015D01*
X024224Y007027D01*
X024240Y007037D01*
X024259Y007042D01*
X024278Y007044D01*
X024297Y007042D01*
X024316Y007037D01*
X024332Y007027D01*
X024347Y007015D01*
X024359Y007000D01*
X024369Y006984D01*
X024374Y006965D01*
X024376Y006946D01*
X024374Y006927D01*
X024369Y006908D01*
X024359Y006892D01*
X024347Y006877D01*
X024332Y006865D01*
X024316Y006855D01*
X024297Y006850D01*
X024278Y006848D01*
X024259Y006850D01*
X024240Y006855D01*
X024224Y006865D01*
X024209Y006877D01*
X024197Y006892D01*
X024187Y006908D01*
X024182Y006927D01*
X024180Y006946D01*
X023890Y006946D02*
X023892Y006965D01*
X023897Y006984D01*
X023907Y007000D01*
X023919Y007015D01*
X023934Y007027D01*
X023950Y007037D01*
X023969Y007042D01*
X023988Y007044D01*
X024007Y007042D01*
X024026Y007037D01*
X024042Y007027D01*
X024057Y007015D01*
X024069Y007000D01*
X024079Y006984D01*
X024084Y006965D01*
X024086Y006946D01*
X024084Y006927D01*
X024079Y006908D01*
X024069Y006892D01*
X024057Y006877D01*
X024042Y006865D01*
X024026Y006855D01*
X024007Y006850D01*
X023988Y006848D01*
X023969Y006850D01*
X023950Y006855D01*
X023934Y006865D01*
X023919Y006877D01*
X023907Y006892D01*
X023897Y006908D01*
X023892Y006927D01*
X023890Y006946D01*
X023600Y006946D02*
X023602Y006965D01*
X023607Y006984D01*
X023617Y007000D01*
X023629Y007015D01*
X023644Y007027D01*
X023660Y007037D01*
X023679Y007042D01*
X023698Y007044D01*
X023717Y007042D01*
X023736Y007037D01*
X023752Y007027D01*
X023767Y007015D01*
X023779Y007000D01*
X023789Y006984D01*
X023794Y006965D01*
X023796Y006946D01*
X023794Y006927D01*
X023789Y006908D01*
X023779Y006892D01*
X023767Y006877D01*
X023752Y006865D01*
X023736Y006855D01*
X023717Y006850D01*
X023698Y006848D01*
X023679Y006850D01*
X023660Y006855D01*
X023644Y006865D01*
X023629Y006877D01*
X023617Y006892D01*
X023607Y006908D01*
X023602Y006927D01*
X023600Y006946D01*
X023310Y006946D02*
X023312Y006965D01*
X023317Y006984D01*
X023327Y007000D01*
X023339Y007015D01*
X023354Y007027D01*
X023370Y007037D01*
X023389Y007042D01*
X023408Y007044D01*
X023427Y007042D01*
X023446Y007037D01*
X023462Y007027D01*
X023477Y007015D01*
X023489Y007000D01*
X023499Y006984D01*
X023504Y006965D01*
X023506Y006946D01*
X023504Y006927D01*
X023499Y006908D01*
X023489Y006892D01*
X023477Y006877D01*
X023462Y006865D01*
X023446Y006855D01*
X023427Y006850D01*
X023408Y006848D01*
X023389Y006850D01*
X023370Y006855D01*
X023354Y006865D01*
X023339Y006877D01*
X023327Y006892D01*
X023317Y006908D01*
X023312Y006927D01*
X023310Y006946D01*
X023020Y006946D02*
X023022Y006965D01*
X023027Y006984D01*
X023037Y007000D01*
X023049Y007015D01*
X023064Y007027D01*
X023080Y007037D01*
X023099Y007042D01*
X023118Y007044D01*
X023137Y007042D01*
X023156Y007037D01*
X023172Y007027D01*
X023187Y007015D01*
X023199Y007000D01*
X023209Y006984D01*
X023214Y006965D01*
X023216Y006946D01*
X023214Y006927D01*
X023209Y006908D01*
X023199Y006892D01*
X023187Y006877D01*
X023172Y006865D01*
X023156Y006855D01*
X023137Y006850D01*
X023118Y006848D01*
X023099Y006850D01*
X023080Y006855D01*
X023064Y006865D01*
X023049Y006877D01*
X023037Y006892D01*
X023027Y006908D01*
X023022Y006927D01*
X023020Y006946D01*
X022730Y006946D02*
X022732Y006965D01*
X022737Y006984D01*
X022747Y007000D01*
X022759Y007015D01*
X022774Y007027D01*
X022790Y007037D01*
X022809Y007042D01*
X022828Y007044D01*
X022847Y007042D01*
X022866Y007037D01*
X022882Y007027D01*
X022897Y007015D01*
X022909Y007000D01*
X022919Y006984D01*
X022924Y006965D01*
X022926Y006946D01*
X022924Y006927D01*
X022919Y006908D01*
X022909Y006892D01*
X022897Y006877D01*
X022882Y006865D01*
X022866Y006855D01*
X022847Y006850D01*
X022828Y006848D01*
X022809Y006850D01*
X022790Y006855D01*
X022774Y006865D01*
X022759Y006877D01*
X022747Y006892D01*
X022737Y006908D01*
X022732Y006927D01*
X022730Y006946D01*
X022440Y006946D02*
X022442Y006965D01*
X022447Y006984D01*
X022457Y007000D01*
X022469Y007015D01*
X022484Y007027D01*
X022500Y007037D01*
X022519Y007042D01*
X022538Y007044D01*
X022557Y007042D01*
X022576Y007037D01*
X022592Y007027D01*
X022607Y007015D01*
X022619Y007000D01*
X022629Y006984D01*
X022634Y006965D01*
X022636Y006946D01*
X022634Y006927D01*
X022629Y006908D01*
X022619Y006892D01*
X022607Y006877D01*
X022592Y006865D01*
X022576Y006855D01*
X022557Y006850D01*
X022538Y006848D01*
X022519Y006850D01*
X022500Y006855D01*
X022484Y006865D01*
X022469Y006877D01*
X022457Y006892D01*
X022447Y006908D01*
X022442Y006927D01*
X022440Y006946D01*
X023590Y008476D02*
X023592Y008495D01*
X023597Y008514D01*
X023607Y008530D01*
X023619Y008545D01*
X023634Y008557D01*
X023650Y008567D01*
X023669Y008572D01*
X023688Y008574D01*
X023707Y008572D01*
X023726Y008567D01*
X023742Y008557D01*
X023757Y008545D01*
X023769Y008530D01*
X023779Y008514D01*
X023784Y008495D01*
X023786Y008476D01*
X023784Y008457D01*
X023779Y008438D01*
X023769Y008422D01*
X023757Y008407D01*
X023742Y008395D01*
X023726Y008385D01*
X023707Y008380D01*
X023688Y008378D01*
X023669Y008380D01*
X023650Y008385D01*
X023634Y008395D01*
X023619Y008407D01*
X023607Y008422D01*
X023597Y008438D01*
X023592Y008457D01*
X023590Y008476D01*
X023880Y008476D02*
X023882Y008495D01*
X023887Y008514D01*
X023897Y008530D01*
X023909Y008545D01*
X023924Y008557D01*
X023940Y008567D01*
X023959Y008572D01*
X023978Y008574D01*
X023997Y008572D01*
X024016Y008567D01*
X024032Y008557D01*
X024047Y008545D01*
X024059Y008530D01*
X024069Y008514D01*
X024074Y008495D01*
X024076Y008476D01*
X024074Y008457D01*
X024069Y008438D01*
X024059Y008422D01*
X024047Y008407D01*
X024032Y008395D01*
X024016Y008385D01*
X023997Y008380D01*
X023978Y008378D01*
X023959Y008380D01*
X023940Y008385D01*
X023924Y008395D01*
X023909Y008407D01*
X023897Y008422D01*
X023887Y008438D01*
X023882Y008457D01*
X023880Y008476D01*
X024170Y008476D02*
X024172Y008495D01*
X024177Y008514D01*
X024187Y008530D01*
X024199Y008545D01*
X024214Y008557D01*
X024230Y008567D01*
X024249Y008572D01*
X024268Y008574D01*
X024287Y008572D01*
X024306Y008567D01*
X024322Y008557D01*
X024337Y008545D01*
X024349Y008530D01*
X024359Y008514D01*
X024364Y008495D01*
X024366Y008476D01*
X024364Y008457D01*
X024359Y008438D01*
X024349Y008422D01*
X024337Y008407D01*
X024322Y008395D01*
X024306Y008385D01*
X024287Y008380D01*
X024268Y008378D01*
X024249Y008380D01*
X024230Y008385D01*
X024214Y008395D01*
X024199Y008407D01*
X024187Y008422D01*
X024177Y008438D01*
X024172Y008457D01*
X024170Y008476D01*
X024460Y008476D02*
X024462Y008495D01*
X024467Y008514D01*
X024477Y008530D01*
X024489Y008545D01*
X024504Y008557D01*
X024520Y008567D01*
X024539Y008572D01*
X024558Y008574D01*
X024577Y008572D01*
X024596Y008567D01*
X024612Y008557D01*
X024627Y008545D01*
X024639Y008530D01*
X024649Y008514D01*
X024654Y008495D01*
X024656Y008476D01*
X024654Y008457D01*
X024649Y008438D01*
X024639Y008422D01*
X024627Y008407D01*
X024612Y008395D01*
X024596Y008385D01*
X024577Y008380D01*
X024558Y008378D01*
X024539Y008380D01*
X024520Y008385D01*
X024504Y008395D01*
X024489Y008407D01*
X024477Y008422D01*
X024467Y008438D01*
X024462Y008457D01*
X024460Y008476D01*
X024470Y003306D02*
X024472Y003325D01*
X024477Y003344D01*
X024487Y003360D01*
X024499Y003375D01*
X024514Y003387D01*
X024530Y003397D01*
X024549Y003402D01*
X024568Y003404D01*
X024587Y003402D01*
X024606Y003397D01*
X024622Y003387D01*
X024637Y003375D01*
X024649Y003360D01*
X024659Y003344D01*
X024664Y003325D01*
X024666Y003306D01*
X024664Y003287D01*
X024659Y003268D01*
X024649Y003252D01*
X024637Y003237D01*
X024622Y003225D01*
X024606Y003215D01*
X024587Y003210D01*
X024568Y003208D01*
X024549Y003210D01*
X024530Y003215D01*
X024514Y003225D01*
X024499Y003237D01*
X024487Y003252D01*
X024477Y003268D01*
X024472Y003287D01*
X024470Y003306D01*
X024180Y003306D02*
X024182Y003325D01*
X024187Y003344D01*
X024197Y003360D01*
X024209Y003375D01*
X024224Y003387D01*
X024240Y003397D01*
X024259Y003402D01*
X024278Y003404D01*
X024297Y003402D01*
X024316Y003397D01*
X024332Y003387D01*
X024347Y003375D01*
X024359Y003360D01*
X024369Y003344D01*
X024374Y003325D01*
X024376Y003306D01*
X024374Y003287D01*
X024369Y003268D01*
X024359Y003252D01*
X024347Y003237D01*
X024332Y003225D01*
X024316Y003215D01*
X024297Y003210D01*
X024278Y003208D01*
X024259Y003210D01*
X024240Y003215D01*
X024224Y003225D01*
X024209Y003237D01*
X024197Y003252D01*
X024187Y003268D01*
X024182Y003287D01*
X024180Y003306D01*
X023890Y003306D02*
X023892Y003325D01*
X023897Y003344D01*
X023907Y003360D01*
X023919Y003375D01*
X023934Y003387D01*
X023950Y003397D01*
X023969Y003402D01*
X023988Y003404D01*
X024007Y003402D01*
X024026Y003397D01*
X024042Y003387D01*
X024057Y003375D01*
X024069Y003360D01*
X024079Y003344D01*
X024084Y003325D01*
X024086Y003306D01*
X024084Y003287D01*
X024079Y003268D01*
X024069Y003252D01*
X024057Y003237D01*
X024042Y003225D01*
X024026Y003215D01*
X024007Y003210D01*
X023988Y003208D01*
X023969Y003210D01*
X023950Y003215D01*
X023934Y003225D01*
X023919Y003237D01*
X023907Y003252D01*
X023897Y003268D01*
X023892Y003287D01*
X023890Y003306D01*
X023600Y003306D02*
X023602Y003325D01*
X023607Y003344D01*
X023617Y003360D01*
X023629Y003375D01*
X023644Y003387D01*
X023660Y003397D01*
X023679Y003402D01*
X023698Y003404D01*
X023717Y003402D01*
X023736Y003397D01*
X023752Y003387D01*
X023767Y003375D01*
X023779Y003360D01*
X023789Y003344D01*
X023794Y003325D01*
X023796Y003306D01*
X023794Y003287D01*
X023789Y003268D01*
X023779Y003252D01*
X023767Y003237D01*
X023752Y003225D01*
X023736Y003215D01*
X023717Y003210D01*
X023698Y003208D01*
X023679Y003210D01*
X023660Y003215D01*
X023644Y003225D01*
X023629Y003237D01*
X023617Y003252D01*
X023607Y003268D01*
X023602Y003287D01*
X023600Y003306D01*
X023310Y003306D02*
X023312Y003325D01*
X023317Y003344D01*
X023327Y003360D01*
X023339Y003375D01*
X023354Y003387D01*
X023370Y003397D01*
X023389Y003402D01*
X023408Y003404D01*
X023427Y003402D01*
X023446Y003397D01*
X023462Y003387D01*
X023477Y003375D01*
X023489Y003360D01*
X023499Y003344D01*
X023504Y003325D01*
X023506Y003306D01*
X023504Y003287D01*
X023499Y003268D01*
X023489Y003252D01*
X023477Y003237D01*
X023462Y003225D01*
X023446Y003215D01*
X023427Y003210D01*
X023408Y003208D01*
X023389Y003210D01*
X023370Y003215D01*
X023354Y003225D01*
X023339Y003237D01*
X023327Y003252D01*
X023317Y003268D01*
X023312Y003287D01*
X023310Y003306D01*
X023020Y003306D02*
X023022Y003325D01*
X023027Y003344D01*
X023037Y003360D01*
X023049Y003375D01*
X023064Y003387D01*
X023080Y003397D01*
X023099Y003402D01*
X023118Y003404D01*
X023137Y003402D01*
X023156Y003397D01*
X023172Y003387D01*
X023187Y003375D01*
X023199Y003360D01*
X023209Y003344D01*
X023214Y003325D01*
X023216Y003306D01*
X023214Y003287D01*
X023209Y003268D01*
X023199Y003252D01*
X023187Y003237D01*
X023172Y003225D01*
X023156Y003215D01*
X023137Y003210D01*
X023118Y003208D01*
X023099Y003210D01*
X023080Y003215D01*
X023064Y003225D01*
X023049Y003237D01*
X023037Y003252D01*
X023027Y003268D01*
X023022Y003287D01*
X023020Y003306D01*
X022730Y003306D02*
X022732Y003325D01*
X022737Y003344D01*
X022747Y003360D01*
X022759Y003375D01*
X022774Y003387D01*
X022790Y003397D01*
X022809Y003402D01*
X022828Y003404D01*
X022847Y003402D01*
X022866Y003397D01*
X022882Y003387D01*
X022897Y003375D01*
X022909Y003360D01*
X022919Y003344D01*
X022924Y003325D01*
X022926Y003306D01*
X022924Y003287D01*
X022919Y003268D01*
X022909Y003252D01*
X022897Y003237D01*
X022882Y003225D01*
X022866Y003215D01*
X022847Y003210D01*
X022828Y003208D01*
X022809Y003210D01*
X022790Y003215D01*
X022774Y003225D01*
X022759Y003237D01*
X022747Y003252D01*
X022737Y003268D01*
X022732Y003287D01*
X022730Y003306D01*
X022440Y003306D02*
X022442Y003325D01*
X022447Y003344D01*
X022457Y003360D01*
X022469Y003375D01*
X022484Y003387D01*
X022500Y003397D01*
X022519Y003402D01*
X022538Y003404D01*
X022557Y003402D01*
X022576Y003397D01*
X022592Y003387D01*
X022607Y003375D01*
X022619Y003360D01*
X022629Y003344D01*
X022634Y003325D01*
X022636Y003306D01*
X022634Y003287D01*
X022629Y003268D01*
X022619Y003252D01*
X022607Y003237D01*
X022592Y003225D01*
X022576Y003215D01*
X022557Y003210D01*
X022538Y003208D01*
X022519Y003210D01*
X022500Y003215D01*
X022484Y003225D01*
X022469Y003237D01*
X022457Y003252D01*
X022447Y003268D01*
X022442Y003287D01*
X022440Y003306D01*
X022440Y002996D02*
X022442Y003015D01*
X022447Y003034D01*
X022457Y003050D01*
X022469Y003065D01*
X022484Y003077D01*
X022500Y003087D01*
X022519Y003092D01*
X022538Y003094D01*
X022557Y003092D01*
X022576Y003087D01*
X022592Y003077D01*
X022607Y003065D01*
X022619Y003050D01*
X022629Y003034D01*
X022634Y003015D01*
X022636Y002996D01*
X022634Y002977D01*
X022629Y002958D01*
X022619Y002942D01*
X022607Y002927D01*
X022592Y002915D01*
X022576Y002905D01*
X022557Y002900D01*
X022538Y002898D01*
X022519Y002900D01*
X022500Y002905D01*
X022484Y002915D01*
X022469Y002927D01*
X022457Y002942D01*
X022447Y002958D01*
X022442Y002977D01*
X022440Y002996D01*
X022730Y002996D02*
X022732Y003015D01*
X022737Y003034D01*
X022747Y003050D01*
X022759Y003065D01*
X022774Y003077D01*
X022790Y003087D01*
X022809Y003092D01*
X022828Y003094D01*
X022847Y003092D01*
X022866Y003087D01*
X022882Y003077D01*
X022897Y003065D01*
X022909Y003050D01*
X022919Y003034D01*
X022924Y003015D01*
X022926Y002996D01*
X022924Y002977D01*
X022919Y002958D01*
X022909Y002942D01*
X022897Y002927D01*
X022882Y002915D01*
X022866Y002905D01*
X022847Y002900D01*
X022828Y002898D01*
X022809Y002900D01*
X022790Y002905D01*
X022774Y002915D01*
X022759Y002927D01*
X022747Y002942D01*
X022737Y002958D01*
X022732Y002977D01*
X022730Y002996D01*
X023020Y002996D02*
X023022Y003015D01*
X023027Y003034D01*
X023037Y003050D01*
X023049Y003065D01*
X023064Y003077D01*
X023080Y003087D01*
X023099Y003092D01*
X023118Y003094D01*
X023137Y003092D01*
X023156Y003087D01*
X023172Y003077D01*
X023187Y003065D01*
X023199Y003050D01*
X023209Y003034D01*
X023214Y003015D01*
X023216Y002996D01*
X023214Y002977D01*
X023209Y002958D01*
X023199Y002942D01*
X023187Y002927D01*
X023172Y002915D01*
X023156Y002905D01*
X023137Y002900D01*
X023118Y002898D01*
X023099Y002900D01*
X023080Y002905D01*
X023064Y002915D01*
X023049Y002927D01*
X023037Y002942D01*
X023027Y002958D01*
X023022Y002977D01*
X023020Y002996D01*
X023310Y002996D02*
X023312Y003015D01*
X023317Y003034D01*
X023327Y003050D01*
X023339Y003065D01*
X023354Y003077D01*
X023370Y003087D01*
X023389Y003092D01*
X023408Y003094D01*
X023427Y003092D01*
X023446Y003087D01*
X023462Y003077D01*
X023477Y003065D01*
X023489Y003050D01*
X023499Y003034D01*
X023504Y003015D01*
X023506Y002996D01*
X023504Y002977D01*
X023499Y002958D01*
X023489Y002942D01*
X023477Y002927D01*
X023462Y002915D01*
X023446Y002905D01*
X023427Y002900D01*
X023408Y002898D01*
X023389Y002900D01*
X023370Y002905D01*
X023354Y002915D01*
X023339Y002927D01*
X023327Y002942D01*
X023317Y002958D01*
X023312Y002977D01*
X023310Y002996D01*
X023600Y002996D02*
X023602Y003015D01*
X023607Y003034D01*
X023617Y003050D01*
X023629Y003065D01*
X023644Y003077D01*
X023660Y003087D01*
X023679Y003092D01*
X023698Y003094D01*
X023717Y003092D01*
X023736Y003087D01*
X023752Y003077D01*
X023767Y003065D01*
X023779Y003050D01*
X023789Y003034D01*
X023794Y003015D01*
X023796Y002996D01*
X023794Y002977D01*
X023789Y002958D01*
X023779Y002942D01*
X023767Y002927D01*
X023752Y002915D01*
X023736Y002905D01*
X023717Y002900D01*
X023698Y002898D01*
X023679Y002900D01*
X023660Y002905D01*
X023644Y002915D01*
X023629Y002927D01*
X023617Y002942D01*
X023607Y002958D01*
X023602Y002977D01*
X023600Y002996D01*
X023890Y002996D02*
X023892Y003015D01*
X023897Y003034D01*
X023907Y003050D01*
X023919Y003065D01*
X023934Y003077D01*
X023950Y003087D01*
X023969Y003092D01*
X023988Y003094D01*
X024007Y003092D01*
X024026Y003087D01*
X024042Y003077D01*
X024057Y003065D01*
X024069Y003050D01*
X024079Y003034D01*
X024084Y003015D01*
X024086Y002996D01*
X024084Y002977D01*
X024079Y002958D01*
X024069Y002942D01*
X024057Y002927D01*
X024042Y002915D01*
X024026Y002905D01*
X024007Y002900D01*
X023988Y002898D01*
X023969Y002900D01*
X023950Y002905D01*
X023934Y002915D01*
X023919Y002927D01*
X023907Y002942D01*
X023897Y002958D01*
X023892Y002977D01*
X023890Y002996D01*
X024180Y002996D02*
X024182Y003015D01*
X024187Y003034D01*
X024197Y003050D01*
X024209Y003065D01*
X024224Y003077D01*
X024240Y003087D01*
X024259Y003092D01*
X024278Y003094D01*
X024297Y003092D01*
X024316Y003087D01*
X024332Y003077D01*
X024347Y003065D01*
X024359Y003050D01*
X024369Y003034D01*
X024374Y003015D01*
X024376Y002996D01*
X024374Y002977D01*
X024369Y002958D01*
X024359Y002942D01*
X024347Y002927D01*
X024332Y002915D01*
X024316Y002905D01*
X024297Y002900D01*
X024278Y002898D01*
X024259Y002900D01*
X024240Y002905D01*
X024224Y002915D01*
X024209Y002927D01*
X024197Y002942D01*
X024187Y002958D01*
X024182Y002977D01*
X024180Y002996D01*
X024470Y002996D02*
X024472Y003015D01*
X024477Y003034D01*
X024487Y003050D01*
X024499Y003065D01*
X024514Y003077D01*
X024530Y003087D01*
X024549Y003092D01*
X024568Y003094D01*
X024587Y003092D01*
X024606Y003087D01*
X024622Y003077D01*
X024637Y003065D01*
X024649Y003050D01*
X024659Y003034D01*
X024664Y003015D01*
X024666Y002996D01*
X024664Y002977D01*
X024659Y002958D01*
X024649Y002942D01*
X024637Y002927D01*
X024622Y002915D01*
X024606Y002905D01*
X024587Y002900D01*
X024568Y002898D01*
X024549Y002900D01*
X024530Y002905D01*
X024514Y002915D01*
X024499Y002927D01*
X024487Y002942D01*
X024477Y002958D01*
X024472Y002977D01*
X024470Y002996D01*
X024760Y002996D02*
X024762Y003015D01*
X024767Y003034D01*
X024777Y003050D01*
X024789Y003065D01*
X024804Y003077D01*
X024820Y003087D01*
X024839Y003092D01*
X024858Y003094D01*
X024877Y003092D01*
X024896Y003087D01*
X024912Y003077D01*
X024927Y003065D01*
X024939Y003050D01*
X024949Y003034D01*
X024954Y003015D01*
X024956Y002996D01*
X024954Y002977D01*
X024949Y002958D01*
X024939Y002942D01*
X024927Y002927D01*
X024912Y002915D01*
X024896Y002905D01*
X024877Y002900D01*
X024858Y002898D01*
X024839Y002900D01*
X024820Y002905D01*
X024804Y002915D01*
X024789Y002927D01*
X024777Y002942D01*
X024767Y002958D01*
X024762Y002977D01*
X024760Y002996D01*
X025050Y002996D02*
X025052Y003015D01*
X025057Y003034D01*
X025067Y003050D01*
X025079Y003065D01*
X025094Y003077D01*
X025110Y003087D01*
X025129Y003092D01*
X025148Y003094D01*
X025167Y003092D01*
X025186Y003087D01*
X025202Y003077D01*
X025217Y003065D01*
X025229Y003050D01*
X025239Y003034D01*
X025244Y003015D01*
X025246Y002996D01*
X025244Y002977D01*
X025239Y002958D01*
X025229Y002942D01*
X025217Y002927D01*
X025202Y002915D01*
X025186Y002905D01*
X025167Y002900D01*
X025148Y002898D01*
X025129Y002900D01*
X025110Y002905D01*
X025094Y002915D01*
X025079Y002927D01*
X025067Y002942D01*
X025057Y002958D01*
X025052Y002977D01*
X025050Y002996D01*
X025340Y002996D02*
X025342Y003015D01*
X025347Y003034D01*
X025357Y003050D01*
X025369Y003065D01*
X025384Y003077D01*
X025400Y003087D01*
X025419Y003092D01*
X025438Y003094D01*
X025457Y003092D01*
X025476Y003087D01*
X025492Y003077D01*
X025507Y003065D01*
X025519Y003050D01*
X025529Y003034D01*
X025534Y003015D01*
X025536Y002996D01*
X025534Y002977D01*
X025529Y002958D01*
X025519Y002942D01*
X025507Y002927D01*
X025492Y002915D01*
X025476Y002905D01*
X025457Y002900D01*
X025438Y002898D01*
X025419Y002900D01*
X025400Y002905D01*
X025384Y002915D01*
X025369Y002927D01*
X025357Y002942D01*
X025347Y002958D01*
X025342Y002977D01*
X025340Y002996D01*
X025340Y002706D02*
X025342Y002725D01*
X025347Y002744D01*
X025357Y002760D01*
X025369Y002775D01*
X025384Y002787D01*
X025400Y002797D01*
X025419Y002802D01*
X025438Y002804D01*
X025457Y002802D01*
X025476Y002797D01*
X025492Y002787D01*
X025507Y002775D01*
X025519Y002760D01*
X025529Y002744D01*
X025534Y002725D01*
X025536Y002706D01*
X025534Y002687D01*
X025529Y002668D01*
X025519Y002652D01*
X025507Y002637D01*
X025492Y002625D01*
X025476Y002615D01*
X025457Y002610D01*
X025438Y002608D01*
X025419Y002610D01*
X025400Y002615D01*
X025384Y002625D01*
X025369Y002637D01*
X025357Y002652D01*
X025347Y002668D01*
X025342Y002687D01*
X025340Y002706D01*
X025050Y002706D02*
X025052Y002725D01*
X025057Y002744D01*
X025067Y002760D01*
X025079Y002775D01*
X025094Y002787D01*
X025110Y002797D01*
X025129Y002802D01*
X025148Y002804D01*
X025167Y002802D01*
X025186Y002797D01*
X025202Y002787D01*
X025217Y002775D01*
X025229Y002760D01*
X025239Y002744D01*
X025244Y002725D01*
X025246Y002706D01*
X025244Y002687D01*
X025239Y002668D01*
X025229Y002652D01*
X025217Y002637D01*
X025202Y002625D01*
X025186Y002615D01*
X025167Y002610D01*
X025148Y002608D01*
X025129Y002610D01*
X025110Y002615D01*
X025094Y002625D01*
X025079Y002637D01*
X025067Y002652D01*
X025057Y002668D01*
X025052Y002687D01*
X025050Y002706D01*
X024760Y002706D02*
X024762Y002725D01*
X024767Y002744D01*
X024777Y002760D01*
X024789Y002775D01*
X024804Y002787D01*
X024820Y002797D01*
X024839Y002802D01*
X024858Y002804D01*
X024877Y002802D01*
X024896Y002797D01*
X024912Y002787D01*
X024927Y002775D01*
X024939Y002760D01*
X024949Y002744D01*
X024954Y002725D01*
X024956Y002706D01*
X024954Y002687D01*
X024949Y002668D01*
X024939Y002652D01*
X024927Y002637D01*
X024912Y002625D01*
X024896Y002615D01*
X024877Y002610D01*
X024858Y002608D01*
X024839Y002610D01*
X024820Y002615D01*
X024804Y002625D01*
X024789Y002637D01*
X024777Y002652D01*
X024767Y002668D01*
X024762Y002687D01*
X024760Y002706D01*
X024470Y002706D02*
X024472Y002725D01*
X024477Y002744D01*
X024487Y002760D01*
X024499Y002775D01*
X024514Y002787D01*
X024530Y002797D01*
X024549Y002802D01*
X024568Y002804D01*
X024587Y002802D01*
X024606Y002797D01*
X024622Y002787D01*
X024637Y002775D01*
X024649Y002760D01*
X024659Y002744D01*
X024664Y002725D01*
X024666Y002706D01*
X024664Y002687D01*
X024659Y002668D01*
X024649Y002652D01*
X024637Y002637D01*
X024622Y002625D01*
X024606Y002615D01*
X024587Y002610D01*
X024568Y002608D01*
X024549Y002610D01*
X024530Y002615D01*
X024514Y002625D01*
X024499Y002637D01*
X024487Y002652D01*
X024477Y002668D01*
X024472Y002687D01*
X024470Y002706D01*
X024180Y002706D02*
X024182Y002725D01*
X024187Y002744D01*
X024197Y002760D01*
X024209Y002775D01*
X024224Y002787D01*
X024240Y002797D01*
X024259Y002802D01*
X024278Y002804D01*
X024297Y002802D01*
X024316Y002797D01*
X024332Y002787D01*
X024347Y002775D01*
X024359Y002760D01*
X024369Y002744D01*
X024374Y002725D01*
X024376Y002706D01*
X024374Y002687D01*
X024369Y002668D01*
X024359Y002652D01*
X024347Y002637D01*
X024332Y002625D01*
X024316Y002615D01*
X024297Y002610D01*
X024278Y002608D01*
X024259Y002610D01*
X024240Y002615D01*
X024224Y002625D01*
X024209Y002637D01*
X024197Y002652D01*
X024187Y002668D01*
X024182Y002687D01*
X024180Y002706D01*
X023890Y002706D02*
X023892Y002725D01*
X023897Y002744D01*
X023907Y002760D01*
X023919Y002775D01*
X023934Y002787D01*
X023950Y002797D01*
X023969Y002802D01*
X023988Y002804D01*
X024007Y002802D01*
X024026Y002797D01*
X024042Y002787D01*
X024057Y002775D01*
X024069Y002760D01*
X024079Y002744D01*
X024084Y002725D01*
X024086Y002706D01*
X024084Y002687D01*
X024079Y002668D01*
X024069Y002652D01*
X024057Y002637D01*
X024042Y002625D01*
X024026Y002615D01*
X024007Y002610D01*
X023988Y002608D01*
X023969Y002610D01*
X023950Y002615D01*
X023934Y002625D01*
X023919Y002637D01*
X023907Y002652D01*
X023897Y002668D01*
X023892Y002687D01*
X023890Y002706D01*
X023600Y002706D02*
X023602Y002725D01*
X023607Y002744D01*
X023617Y002760D01*
X023629Y002775D01*
X023644Y002787D01*
X023660Y002797D01*
X023679Y002802D01*
X023698Y002804D01*
X023717Y002802D01*
X023736Y002797D01*
X023752Y002787D01*
X023767Y002775D01*
X023779Y002760D01*
X023789Y002744D01*
X023794Y002725D01*
X023796Y002706D01*
X023794Y002687D01*
X023789Y002668D01*
X023779Y002652D01*
X023767Y002637D01*
X023752Y002625D01*
X023736Y002615D01*
X023717Y002610D01*
X023698Y002608D01*
X023679Y002610D01*
X023660Y002615D01*
X023644Y002625D01*
X023629Y002637D01*
X023617Y002652D01*
X023607Y002668D01*
X023602Y002687D01*
X023600Y002706D01*
X023310Y002706D02*
X023312Y002725D01*
X023317Y002744D01*
X023327Y002760D01*
X023339Y002775D01*
X023354Y002787D01*
X023370Y002797D01*
X023389Y002802D01*
X023408Y002804D01*
X023427Y002802D01*
X023446Y002797D01*
X023462Y002787D01*
X023477Y002775D01*
X023489Y002760D01*
X023499Y002744D01*
X023504Y002725D01*
X023506Y002706D01*
X023504Y002687D01*
X023499Y002668D01*
X023489Y002652D01*
X023477Y002637D01*
X023462Y002625D01*
X023446Y002615D01*
X023427Y002610D01*
X023408Y002608D01*
X023389Y002610D01*
X023370Y002615D01*
X023354Y002625D01*
X023339Y002637D01*
X023327Y002652D01*
X023317Y002668D01*
X023312Y002687D01*
X023310Y002706D01*
X023020Y002706D02*
X023022Y002725D01*
X023027Y002744D01*
X023037Y002760D01*
X023049Y002775D01*
X023064Y002787D01*
X023080Y002797D01*
X023099Y002802D01*
X023118Y002804D01*
X023137Y002802D01*
X023156Y002797D01*
X023172Y002787D01*
X023187Y002775D01*
X023199Y002760D01*
X023209Y002744D01*
X023214Y002725D01*
X023216Y002706D01*
X023214Y002687D01*
X023209Y002668D01*
X023199Y002652D01*
X023187Y002637D01*
X023172Y002625D01*
X023156Y002615D01*
X023137Y002610D01*
X023118Y002608D01*
X023099Y002610D01*
X023080Y002615D01*
X023064Y002625D01*
X023049Y002637D01*
X023037Y002652D01*
X023027Y002668D01*
X023022Y002687D01*
X023020Y002706D01*
X022730Y002706D02*
X022732Y002725D01*
X022737Y002744D01*
X022747Y002760D01*
X022759Y002775D01*
X022774Y002787D01*
X022790Y002797D01*
X022809Y002802D01*
X022828Y002804D01*
X022847Y002802D01*
X022866Y002797D01*
X022882Y002787D01*
X022897Y002775D01*
X022909Y002760D01*
X022919Y002744D01*
X022924Y002725D01*
X022926Y002706D01*
X022924Y002687D01*
X022919Y002668D01*
X022909Y002652D01*
X022897Y002637D01*
X022882Y002625D01*
X022866Y002615D01*
X022847Y002610D01*
X022828Y002608D01*
X022809Y002610D01*
X022790Y002615D01*
X022774Y002625D01*
X022759Y002637D01*
X022747Y002652D01*
X022737Y002668D01*
X022732Y002687D01*
X022730Y002706D01*
X022440Y002706D02*
X022442Y002725D01*
X022447Y002744D01*
X022457Y002760D01*
X022469Y002775D01*
X022484Y002787D01*
X022500Y002797D01*
X022519Y002802D01*
X022538Y002804D01*
X022557Y002802D01*
X022576Y002797D01*
X022592Y002787D01*
X022607Y002775D01*
X022619Y002760D01*
X022629Y002744D01*
X022634Y002725D01*
X022636Y002706D01*
X022634Y002687D01*
X022629Y002668D01*
X022619Y002652D01*
X022607Y002637D01*
X022592Y002625D01*
X022576Y002615D01*
X022557Y002610D01*
X022538Y002608D01*
X022519Y002610D01*
X022500Y002615D01*
X022484Y002625D01*
X022469Y002637D01*
X022457Y002652D01*
X022447Y002668D01*
X022442Y002687D01*
X022440Y002706D01*
X022440Y002416D02*
X022442Y002435D01*
X022447Y002454D01*
X022457Y002470D01*
X022469Y002485D01*
X022484Y002497D01*
X022500Y002507D01*
X022519Y002512D01*
X022538Y002514D01*
X022557Y002512D01*
X022576Y002507D01*
X022592Y002497D01*
X022607Y002485D01*
X022619Y002470D01*
X022629Y002454D01*
X022634Y002435D01*
X022636Y002416D01*
X022634Y002397D01*
X022629Y002378D01*
X022619Y002362D01*
X022607Y002347D01*
X022592Y002335D01*
X022576Y002325D01*
X022557Y002320D01*
X022538Y002318D01*
X022519Y002320D01*
X022500Y002325D01*
X022484Y002335D01*
X022469Y002347D01*
X022457Y002362D01*
X022447Y002378D01*
X022442Y002397D01*
X022440Y002416D01*
X022730Y002416D02*
X022732Y002435D01*
X022737Y002454D01*
X022747Y002470D01*
X022759Y002485D01*
X022774Y002497D01*
X022790Y002507D01*
X022809Y002512D01*
X022828Y002514D01*
X022847Y002512D01*
X022866Y002507D01*
X022882Y002497D01*
X022897Y002485D01*
X022909Y002470D01*
X022919Y002454D01*
X022924Y002435D01*
X022926Y002416D01*
X022924Y002397D01*
X022919Y002378D01*
X022909Y002362D01*
X022897Y002347D01*
X022882Y002335D01*
X022866Y002325D01*
X022847Y002320D01*
X022828Y002318D01*
X022809Y002320D01*
X022790Y002325D01*
X022774Y002335D01*
X022759Y002347D01*
X022747Y002362D01*
X022737Y002378D01*
X022732Y002397D01*
X022730Y002416D01*
X023020Y002416D02*
X023022Y002435D01*
X023027Y002454D01*
X023037Y002470D01*
X023049Y002485D01*
X023064Y002497D01*
X023080Y002507D01*
X023099Y002512D01*
X023118Y002514D01*
X023137Y002512D01*
X023156Y002507D01*
X023172Y002497D01*
X023187Y002485D01*
X023199Y002470D01*
X023209Y002454D01*
X023214Y002435D01*
X023216Y002416D01*
X023214Y002397D01*
X023209Y002378D01*
X023199Y002362D01*
X023187Y002347D01*
X023172Y002335D01*
X023156Y002325D01*
X023137Y002320D01*
X023118Y002318D01*
X023099Y002320D01*
X023080Y002325D01*
X023064Y002335D01*
X023049Y002347D01*
X023037Y002362D01*
X023027Y002378D01*
X023022Y002397D01*
X023020Y002416D01*
X023310Y002416D02*
X023312Y002435D01*
X023317Y002454D01*
X023327Y002470D01*
X023339Y002485D01*
X023354Y002497D01*
X023370Y002507D01*
X023389Y002512D01*
X023408Y002514D01*
X023427Y002512D01*
X023446Y002507D01*
X023462Y002497D01*
X023477Y002485D01*
X023489Y002470D01*
X023499Y002454D01*
X023504Y002435D01*
X023506Y002416D01*
X023504Y002397D01*
X023499Y002378D01*
X023489Y002362D01*
X023477Y002347D01*
X023462Y002335D01*
X023446Y002325D01*
X023427Y002320D01*
X023408Y002318D01*
X023389Y002320D01*
X023370Y002325D01*
X023354Y002335D01*
X023339Y002347D01*
X023327Y002362D01*
X023317Y002378D01*
X023312Y002397D01*
X023310Y002416D01*
X023600Y002416D02*
X023602Y002435D01*
X023607Y002454D01*
X023617Y002470D01*
X023629Y002485D01*
X023644Y002497D01*
X023660Y002507D01*
X023679Y002512D01*
X023698Y002514D01*
X023717Y002512D01*
X023736Y002507D01*
X023752Y002497D01*
X023767Y002485D01*
X023779Y002470D01*
X023789Y002454D01*
X023794Y002435D01*
X023796Y002416D01*
X023794Y002397D01*
X023789Y002378D01*
X023779Y002362D01*
X023767Y002347D01*
X023752Y002335D01*
X023736Y002325D01*
X023717Y002320D01*
X023698Y002318D01*
X023679Y002320D01*
X023660Y002325D01*
X023644Y002335D01*
X023629Y002347D01*
X023617Y002362D01*
X023607Y002378D01*
X023602Y002397D01*
X023600Y002416D01*
X023890Y002416D02*
X023892Y002435D01*
X023897Y002454D01*
X023907Y002470D01*
X023919Y002485D01*
X023934Y002497D01*
X023950Y002507D01*
X023969Y002512D01*
X023988Y002514D01*
X024007Y002512D01*
X024026Y002507D01*
X024042Y002497D01*
X024057Y002485D01*
X024069Y002470D01*
X024079Y002454D01*
X024084Y002435D01*
X024086Y002416D01*
X024084Y002397D01*
X024079Y002378D01*
X024069Y002362D01*
X024057Y002347D01*
X024042Y002335D01*
X024026Y002325D01*
X024007Y002320D01*
X023988Y002318D01*
X023969Y002320D01*
X023950Y002325D01*
X023934Y002335D01*
X023919Y002347D01*
X023907Y002362D01*
X023897Y002378D01*
X023892Y002397D01*
X023890Y002416D01*
X024180Y002416D02*
X024182Y002435D01*
X024187Y002454D01*
X024197Y002470D01*
X024209Y002485D01*
X024224Y002497D01*
X024240Y002507D01*
X024259Y002512D01*
X024278Y002514D01*
X024297Y002512D01*
X024316Y002507D01*
X024332Y002497D01*
X024347Y002485D01*
X024359Y002470D01*
X024369Y002454D01*
X024374Y002435D01*
X024376Y002416D01*
X024374Y002397D01*
X024369Y002378D01*
X024359Y002362D01*
X024347Y002347D01*
X024332Y002335D01*
X024316Y002325D01*
X024297Y002320D01*
X024278Y002318D01*
X024259Y002320D01*
X024240Y002325D01*
X024224Y002335D01*
X024209Y002347D01*
X024197Y002362D01*
X024187Y002378D01*
X024182Y002397D01*
X024180Y002416D01*
X024470Y002416D02*
X024472Y002435D01*
X024477Y002454D01*
X024487Y002470D01*
X024499Y002485D01*
X024514Y002497D01*
X024530Y002507D01*
X024549Y002512D01*
X024568Y002514D01*
X024587Y002512D01*
X024606Y002507D01*
X024622Y002497D01*
X024637Y002485D01*
X024649Y002470D01*
X024659Y002454D01*
X024664Y002435D01*
X024666Y002416D01*
X024664Y002397D01*
X024659Y002378D01*
X024649Y002362D01*
X024637Y002347D01*
X024622Y002335D01*
X024606Y002325D01*
X024587Y002320D01*
X024568Y002318D01*
X024549Y002320D01*
X024530Y002325D01*
X024514Y002335D01*
X024499Y002347D01*
X024487Y002362D01*
X024477Y002378D01*
X024472Y002397D01*
X024470Y002416D01*
X024760Y002416D02*
X024762Y002435D01*
X024767Y002454D01*
X024777Y002470D01*
X024789Y002485D01*
X024804Y002497D01*
X024820Y002507D01*
X024839Y002512D01*
X024858Y002514D01*
X024877Y002512D01*
X024896Y002507D01*
X024912Y002497D01*
X024927Y002485D01*
X024939Y002470D01*
X024949Y002454D01*
X024954Y002435D01*
X024956Y002416D01*
X024954Y002397D01*
X024949Y002378D01*
X024939Y002362D01*
X024927Y002347D01*
X024912Y002335D01*
X024896Y002325D01*
X024877Y002320D01*
X024858Y002318D01*
X024839Y002320D01*
X024820Y002325D01*
X024804Y002335D01*
X024789Y002347D01*
X024777Y002362D01*
X024767Y002378D01*
X024762Y002397D01*
X024760Y002416D01*
X025050Y002416D02*
X025052Y002435D01*
X025057Y002454D01*
X025067Y002470D01*
X025079Y002485D01*
X025094Y002497D01*
X025110Y002507D01*
X025129Y002512D01*
X025148Y002514D01*
X025167Y002512D01*
X025186Y002507D01*
X025202Y002497D01*
X025217Y002485D01*
X025229Y002470D01*
X025239Y002454D01*
X025244Y002435D01*
X025246Y002416D01*
X025244Y002397D01*
X025239Y002378D01*
X025229Y002362D01*
X025217Y002347D01*
X025202Y002335D01*
X025186Y002325D01*
X025167Y002320D01*
X025148Y002318D01*
X025129Y002320D01*
X025110Y002325D01*
X025094Y002335D01*
X025079Y002347D01*
X025067Y002362D01*
X025057Y002378D01*
X025052Y002397D01*
X025050Y002416D01*
X025340Y002416D02*
X025342Y002435D01*
X025347Y002454D01*
X025357Y002470D01*
X025369Y002485D01*
X025384Y002497D01*
X025400Y002507D01*
X025419Y002512D01*
X025438Y002514D01*
X025457Y002512D01*
X025476Y002507D01*
X025492Y002497D01*
X025507Y002485D01*
X025519Y002470D01*
X025529Y002454D01*
X025534Y002435D01*
X025536Y002416D01*
X025534Y002397D01*
X025529Y002378D01*
X025519Y002362D01*
X025507Y002347D01*
X025492Y002335D01*
X025476Y002325D01*
X025457Y002320D01*
X025438Y002318D01*
X025419Y002320D01*
X025400Y002325D01*
X025384Y002335D01*
X025369Y002347D01*
X025357Y002362D01*
X025347Y002378D01*
X025342Y002397D01*
X025340Y002416D01*
X025340Y003306D02*
X025342Y003325D01*
X025347Y003344D01*
X025357Y003360D01*
X025369Y003375D01*
X025384Y003387D01*
X025400Y003397D01*
X025419Y003402D01*
X025438Y003404D01*
X025457Y003402D01*
X025476Y003397D01*
X025492Y003387D01*
X025507Y003375D01*
X025519Y003360D01*
X025529Y003344D01*
X025534Y003325D01*
X025536Y003306D01*
X025534Y003287D01*
X025529Y003268D01*
X025519Y003252D01*
X025507Y003237D01*
X025492Y003225D01*
X025476Y003215D01*
X025457Y003210D01*
X025438Y003208D01*
X025419Y003210D01*
X025400Y003215D01*
X025384Y003225D01*
X025369Y003237D01*
X025357Y003252D01*
X025347Y003268D01*
X025342Y003287D01*
X025340Y003306D01*
X025050Y003306D02*
X025052Y003325D01*
X025057Y003344D01*
X025067Y003360D01*
X025079Y003375D01*
X025094Y003387D01*
X025110Y003397D01*
X025129Y003402D01*
X025148Y003404D01*
X025167Y003402D01*
X025186Y003397D01*
X025202Y003387D01*
X025217Y003375D01*
X025229Y003360D01*
X025239Y003344D01*
X025244Y003325D01*
X025246Y003306D01*
X025244Y003287D01*
X025239Y003268D01*
X025229Y003252D01*
X025217Y003237D01*
X025202Y003225D01*
X025186Y003215D01*
X025167Y003210D01*
X025148Y003208D01*
X025129Y003210D01*
X025110Y003215D01*
X025094Y003225D01*
X025079Y003237D01*
X025067Y003252D01*
X025057Y003268D01*
X025052Y003287D01*
X025050Y003306D01*
X024760Y003306D02*
X024762Y003325D01*
X024767Y003344D01*
X024777Y003360D01*
X024789Y003375D01*
X024804Y003387D01*
X024820Y003397D01*
X024839Y003402D01*
X024858Y003404D01*
X024877Y003402D01*
X024896Y003397D01*
X024912Y003387D01*
X024927Y003375D01*
X024939Y003360D01*
X024949Y003344D01*
X024954Y003325D01*
X024956Y003306D01*
X024954Y003287D01*
X024949Y003268D01*
X024939Y003252D01*
X024927Y003237D01*
X024912Y003225D01*
X024896Y003215D01*
X024877Y003210D01*
X024858Y003208D01*
X024839Y003210D01*
X024820Y003215D01*
X024804Y003225D01*
X024789Y003237D01*
X024777Y003252D01*
X024767Y003268D01*
X024762Y003287D01*
X024760Y003306D01*
X024460Y000886D02*
X024462Y000905D01*
X024467Y000924D01*
X024477Y000940D01*
X024489Y000955D01*
X024504Y000967D01*
X024520Y000977D01*
X024539Y000982D01*
X024558Y000984D01*
X024577Y000982D01*
X024596Y000977D01*
X024612Y000967D01*
X024627Y000955D01*
X024639Y000940D01*
X024649Y000924D01*
X024654Y000905D01*
X024656Y000886D01*
X024654Y000867D01*
X024649Y000848D01*
X024639Y000832D01*
X024627Y000817D01*
X024612Y000805D01*
X024596Y000795D01*
X024577Y000790D01*
X024558Y000788D01*
X024539Y000790D01*
X024520Y000795D01*
X024504Y000805D01*
X024489Y000817D01*
X024477Y000832D01*
X024467Y000848D01*
X024462Y000867D01*
X024460Y000886D01*
X024170Y000886D02*
X024172Y000905D01*
X024177Y000924D01*
X024187Y000940D01*
X024199Y000955D01*
X024214Y000967D01*
X024230Y000977D01*
X024249Y000982D01*
X024268Y000984D01*
X024287Y000982D01*
X024306Y000977D01*
X024322Y000967D01*
X024337Y000955D01*
X024349Y000940D01*
X024359Y000924D01*
X024364Y000905D01*
X024366Y000886D01*
X024364Y000867D01*
X024359Y000848D01*
X024349Y000832D01*
X024337Y000817D01*
X024322Y000805D01*
X024306Y000795D01*
X024287Y000790D01*
X024268Y000788D01*
X024249Y000790D01*
X024230Y000795D01*
X024214Y000805D01*
X024199Y000817D01*
X024187Y000832D01*
X024177Y000848D01*
X024172Y000867D01*
X024170Y000886D01*
X023880Y000886D02*
X023882Y000905D01*
X023887Y000924D01*
X023897Y000940D01*
X023909Y000955D01*
X023924Y000967D01*
X023940Y000977D01*
X023959Y000982D01*
X023978Y000984D01*
X023997Y000982D01*
X024016Y000977D01*
X024032Y000967D01*
X024047Y000955D01*
X024059Y000940D01*
X024069Y000924D01*
X024074Y000905D01*
X024076Y000886D01*
X024074Y000867D01*
X024069Y000848D01*
X024059Y000832D01*
X024047Y000817D01*
X024032Y000805D01*
X024016Y000795D01*
X023997Y000790D01*
X023978Y000788D01*
X023959Y000790D01*
X023940Y000795D01*
X023924Y000805D01*
X023909Y000817D01*
X023897Y000832D01*
X023887Y000848D01*
X023882Y000867D01*
X023880Y000886D01*
X023590Y000886D02*
X023592Y000905D01*
X023597Y000924D01*
X023607Y000940D01*
X023619Y000955D01*
X023634Y000967D01*
X023650Y000977D01*
X023669Y000982D01*
X023688Y000984D01*
X023707Y000982D01*
X023726Y000977D01*
X023742Y000967D01*
X023757Y000955D01*
X023769Y000940D01*
X023779Y000924D01*
X023784Y000905D01*
X023786Y000886D01*
X023784Y000867D01*
X023779Y000848D01*
X023769Y000832D01*
X023757Y000817D01*
X023742Y000805D01*
X023726Y000795D01*
X023707Y000790D01*
X023688Y000788D01*
X023669Y000790D01*
X023650Y000795D01*
X023634Y000805D01*
X023619Y000817D01*
X023607Y000832D01*
X023597Y000848D01*
X023592Y000867D01*
X023590Y000886D01*
D11*
X021978Y002706D02*
X021978Y003606D01*
X021318Y003606D02*
X021318Y002706D01*
X020348Y004046D02*
X019448Y004046D01*
X019448Y004706D02*
X020348Y004706D01*
X015848Y005706D02*
X015848Y008206D01*
X015846Y008223D01*
X015842Y008240D01*
X015835Y008256D01*
X015825Y008270D01*
X015812Y008283D01*
X015798Y008293D01*
X015782Y008300D01*
X015765Y008304D01*
X015748Y008306D01*
X014748Y008306D01*
X014731Y008304D01*
X014714Y008300D01*
X014698Y008293D01*
X014684Y008283D01*
X014671Y008270D01*
X014661Y008256D01*
X014654Y008240D01*
X014650Y008223D01*
X014648Y008206D01*
X014648Y005706D01*
X014650Y005689D01*
X014654Y005672D01*
X014661Y005656D01*
X014671Y005642D01*
X014684Y005629D01*
X014698Y005619D01*
X014714Y005612D01*
X014731Y005608D01*
X014748Y005606D01*
X015748Y005606D01*
X015765Y005608D01*
X015782Y005612D01*
X015798Y005619D01*
X015812Y005629D01*
X015825Y005642D01*
X015835Y005656D01*
X015842Y005672D01*
X015846Y005689D01*
X015848Y005706D01*
X015248Y005656D02*
X015248Y005856D01*
X014418Y005838D02*
X014311Y005731D01*
X014205Y005731D01*
X014098Y005838D01*
X014098Y006051D01*
X013991Y006158D01*
X013884Y006158D01*
X013778Y006051D01*
X013778Y005838D01*
X013884Y005731D01*
X013884Y005514D02*
X013778Y005407D01*
X013778Y005087D01*
X014418Y005087D01*
X014418Y005407D01*
X014311Y005514D01*
X014205Y005514D01*
X014098Y005407D01*
X014098Y005087D01*
X014658Y004886D02*
X015558Y004886D01*
X014098Y005407D02*
X013991Y005514D01*
X013884Y005514D01*
X014418Y005838D02*
X014418Y006051D01*
X014311Y006158D01*
X012788Y005676D02*
X011888Y005676D01*
X012058Y006136D02*
X011538Y006136D01*
X011538Y007256D01*
X012058Y007256D01*
X012058Y006136D01*
X010358Y006236D02*
X010358Y005116D01*
X009838Y005116D01*
X009838Y006236D01*
X010358Y006236D01*
X010118Y006666D02*
X009218Y006666D01*
X009218Y007326D02*
X010118Y007326D01*
X009608Y007706D02*
X008708Y007706D01*
X008708Y008366D02*
X009608Y008366D01*
X012378Y008056D02*
X013278Y008056D01*
X013828Y007831D02*
X014468Y007831D01*
X014468Y008258D01*
X014148Y008045D02*
X014148Y007831D01*
X014255Y007614D02*
X014148Y007507D01*
X014148Y007187D01*
X014468Y007187D02*
X014468Y007507D01*
X014361Y007614D01*
X014255Y007614D01*
X014148Y007507D02*
X014041Y007614D01*
X013934Y007614D01*
X013828Y007507D01*
X013828Y007187D01*
X014468Y007187D01*
X014698Y006956D02*
X014948Y006956D01*
X015548Y006956D02*
X015798Y006956D01*
X013278Y007396D02*
X012378Y007396D01*
X015248Y008056D02*
X015248Y008256D01*
X021468Y007906D02*
X021468Y007006D01*
X022128Y007006D02*
X022128Y007906D01*
X012788Y005016D02*
X011888Y005016D01*
X009638Y004336D02*
X009638Y003436D01*
X008978Y003436D02*
X008978Y004336D01*
X014358Y003046D02*
X014358Y002146D01*
X015018Y002146D02*
X015018Y003046D01*
X014658Y004226D02*
X015558Y004226D01*
D12*
X013688Y002448D03*
X013687Y001404D03*
X009677Y001284D03*
X009678Y002328D03*
D13*
X009987Y002186D02*
X009987Y001426D01*
X009368Y001426D02*
X009368Y002186D01*
X009108Y001869D02*
X008648Y001869D01*
X008648Y002022D02*
X008648Y001715D01*
X008724Y001562D02*
X008648Y001485D01*
X008648Y001332D01*
X008724Y001255D01*
X009031Y001255D01*
X009108Y001332D01*
X009108Y001485D01*
X009031Y001562D01*
X008955Y001715D02*
X009108Y001869D01*
X013208Y002952D02*
X013284Y002875D01*
X013591Y002875D01*
X013668Y002952D01*
X013668Y003105D01*
X013591Y003182D01*
X013591Y003335D02*
X013668Y003412D01*
X013668Y003566D01*
X013591Y003642D01*
X013515Y003642D01*
X013208Y003335D01*
X013208Y003642D01*
X013284Y003182D02*
X013208Y003105D01*
X013208Y002952D01*
X013378Y002306D02*
X013378Y001546D01*
X013997Y001546D02*
X013997Y002306D01*
X015258Y002402D02*
X015411Y002249D01*
X015411Y002325D02*
X015411Y002095D01*
X015258Y002095D02*
X015718Y002095D01*
X015718Y002325D01*
X015641Y002402D01*
X015488Y002402D01*
X015411Y002325D01*
X015411Y002555D02*
X015488Y002632D01*
X015488Y002786D01*
X015411Y002862D01*
X015334Y002862D01*
X015258Y002786D01*
X015258Y002632D01*
X015334Y002555D01*
X015411Y002555D01*
X015488Y002632D02*
X015565Y002555D01*
X015641Y002555D01*
X015718Y002632D01*
X015718Y002786D01*
X015641Y002862D01*
X015565Y002862D01*
X015488Y002786D01*
X015424Y003576D02*
X015424Y004036D01*
X015577Y003883D01*
X015731Y003959D02*
X015731Y003806D01*
X015807Y003729D01*
X016038Y003729D01*
X016038Y003576D02*
X016038Y004036D01*
X015807Y004036D01*
X015731Y003959D01*
X015884Y003729D02*
X015731Y003576D01*
X015577Y003576D02*
X015270Y003576D01*
X015117Y003653D02*
X014810Y003959D01*
X014810Y003653D01*
X014887Y003576D01*
X015040Y003576D01*
X015117Y003653D01*
X015117Y003959D01*
X015040Y004036D01*
X014887Y004036D01*
X014810Y003959D01*
X011328Y004906D02*
X011328Y005136D01*
X011251Y005213D01*
X011098Y005213D01*
X011021Y005136D01*
X011021Y004906D01*
X010868Y004906D02*
X011328Y004906D01*
X011021Y005059D02*
X010868Y005213D01*
X010944Y005366D02*
X010868Y005443D01*
X010868Y005596D01*
X010944Y005673D01*
X011021Y005673D01*
X011098Y005596D01*
X011098Y005366D01*
X010944Y005366D01*
X011098Y005366D02*
X011251Y005520D01*
X011328Y005673D01*
X008678Y006525D02*
X008678Y006755D01*
X008601Y006832D01*
X008448Y006832D01*
X008371Y006755D01*
X008371Y006525D01*
X008218Y006525D02*
X008678Y006525D01*
X008371Y006679D02*
X008218Y006832D01*
X008448Y006985D02*
X008448Y007292D01*
X008218Y007216D02*
X008678Y007216D01*
X008448Y006985D01*
X008088Y007455D02*
X007628Y007455D01*
X007781Y007455D02*
X007781Y007685D01*
X007858Y007762D01*
X008011Y007762D01*
X008088Y007685D01*
X008088Y007455D01*
X007781Y007609D02*
X007628Y007762D01*
X007704Y007915D02*
X007628Y007992D01*
X007628Y008146D01*
X007704Y008222D01*
X007858Y008222D01*
X007935Y008146D01*
X007935Y008069D01*
X007858Y007915D01*
X008088Y007915D01*
X008088Y008222D01*
X011238Y008016D02*
X011238Y007862D01*
X011314Y007785D01*
X011238Y007632D02*
X011391Y007479D01*
X011391Y007555D02*
X011391Y007325D01*
X011238Y007325D02*
X011698Y007325D01*
X011698Y007555D01*
X011621Y007632D01*
X011468Y007632D01*
X011391Y007555D01*
X011621Y007785D02*
X011698Y007862D01*
X011698Y008016D01*
X011621Y008092D01*
X011545Y008092D01*
X011468Y008016D01*
X011391Y008092D01*
X011314Y008092D01*
X011238Y008016D01*
X011468Y008016D02*
X011468Y007939D01*
X018004Y007140D02*
X018004Y006943D01*
X018398Y006943D01*
X018768Y007050D02*
X019228Y007050D01*
X019228Y006897D02*
X019228Y007204D01*
X019678Y007179D02*
X020091Y007179D01*
X020091Y006943D01*
X019697Y006943D01*
X019228Y006590D02*
X019075Y006743D01*
X018768Y006743D01*
X018998Y006743D02*
X018998Y006437D01*
X019075Y006437D02*
X019228Y006590D01*
X019697Y006549D02*
X020091Y006549D01*
X020091Y006352D01*
X019678Y006352D01*
X019228Y006283D02*
X019228Y005976D01*
X019228Y006130D02*
X018768Y006130D01*
X018418Y006352D02*
X018004Y006352D01*
X018004Y006549D01*
X018398Y006549D01*
X018768Y006437D02*
X019075Y006437D01*
X019151Y005823D02*
X019228Y005746D01*
X019228Y005593D01*
X019151Y005516D01*
X019075Y005516D01*
X018998Y005593D01*
X018998Y005746D01*
X018921Y005823D01*
X018844Y005823D01*
X018768Y005746D01*
X018768Y005593D01*
X018844Y005516D01*
X018628Y004762D02*
X018628Y004455D01*
X018858Y004686D01*
X018398Y004686D01*
X018398Y004302D02*
X018398Y003995D01*
X018705Y003995D02*
X018858Y004148D01*
X018398Y004148D01*
X018398Y003842D02*
X018551Y003688D01*
X018551Y003765D02*
X018551Y003535D01*
X018398Y003535D02*
X018858Y003535D01*
X018858Y003765D01*
X018781Y003842D01*
X018628Y003842D01*
X018551Y003765D01*
X021568Y005095D02*
X022028Y005095D01*
X022028Y005325D01*
X021951Y005402D01*
X021798Y005402D01*
X021721Y005325D01*
X021721Y005095D01*
X021721Y005248D02*
X021568Y005402D01*
X021568Y005555D02*
X021568Y005862D01*
X021568Y005708D02*
X022028Y005708D01*
X021875Y005555D01*
X021951Y006015D02*
X022028Y006092D01*
X022028Y006246D01*
X021951Y006322D01*
X021875Y006322D01*
X021798Y006246D01*
X021721Y006322D01*
X021644Y006322D01*
X021568Y006246D01*
X021568Y006092D01*
X021644Y006015D01*
X021798Y006169D02*
X021798Y006246D01*
X019228Y007357D02*
X018844Y007357D01*
X018768Y007434D01*
X018768Y007587D01*
X018844Y007664D01*
X019228Y007664D01*
X019151Y007818D02*
X019075Y007818D01*
X018998Y007894D01*
X018998Y008048D01*
X018921Y008124D01*
X018844Y008124D01*
X018768Y008048D01*
X018768Y007894D01*
X018844Y007818D01*
X019151Y007818D02*
X019228Y007894D01*
X019228Y008048D01*
X019151Y008124D01*
X018418Y007140D02*
X018004Y007140D01*
X010288Y004623D02*
X010211Y004623D01*
X009904Y004316D01*
X009828Y004316D01*
X009828Y004163D02*
X009981Y004009D01*
X009981Y004086D02*
X009981Y003856D01*
X009828Y003856D02*
X010288Y003856D01*
X010288Y004086D01*
X010211Y004163D01*
X010058Y004163D01*
X009981Y004086D01*
X010288Y004316D02*
X010288Y004623D01*
X021518Y002102D02*
X021518Y001795D01*
X021825Y002102D01*
X021901Y002102D01*
X021978Y002026D01*
X021978Y001872D01*
X021901Y001795D01*
X021518Y001642D02*
X021518Y001335D01*
X021518Y001182D02*
X021671Y001028D01*
X021671Y001105D02*
X021671Y000875D01*
X021518Y000875D02*
X021978Y000875D01*
X021978Y001105D01*
X021901Y001182D01*
X021748Y001182D01*
X021671Y001105D01*
X021825Y001335D02*
X021978Y001488D01*
X021518Y001488D01*
D14*
X010493Y005676D03*
X009703Y005306D03*
X009703Y006046D03*
X011403Y006326D03*
X012193Y006696D03*
X011403Y007066D03*
D15*
X011743Y006804D02*
X011743Y006704D01*
X011743Y006656D02*
X011793Y006606D01*
X011743Y006581D02*
X011768Y006556D01*
X011868Y006556D01*
X011893Y006581D01*
X011893Y006631D01*
X011868Y006656D01*
X011768Y006656D01*
X011743Y006631D01*
X011743Y006581D01*
X011843Y006704D02*
X011893Y006754D01*
X011743Y006754D01*
X010203Y005753D02*
X010203Y005703D01*
X010178Y005678D01*
X010178Y005631D02*
X010078Y005631D01*
X010053Y005606D01*
X010053Y005556D01*
X010078Y005531D01*
X010178Y005531D01*
X010203Y005556D01*
X010203Y005606D01*
X010178Y005631D01*
X010103Y005581D02*
X010053Y005631D01*
X010053Y005678D02*
X010153Y005778D01*
X010178Y005778D01*
X010203Y005753D01*
X010053Y005778D02*
X010053Y005678D01*
D16*
X011783Y005346D03*
X012893Y005346D03*
X014553Y004556D03*
X015663Y004556D03*
X019343Y004376D03*
X020453Y004376D03*
X013383Y007726D03*
X012273Y007726D03*
X010223Y006996D03*
X009113Y006996D03*
X008603Y008036D03*
X009713Y008036D03*
D17*
X009308Y004441D03*
X009308Y003331D03*
X014688Y003151D03*
X014688Y002041D03*
X021648Y002601D03*
X021648Y003711D03*
X021798Y006901D03*
X021798Y008011D03*
D18*
X012824Y003736D02*
X010324Y003736D01*
X010324Y002236D01*
X012824Y002236D01*
X012824Y003736D01*
D19*
X012645Y003581D02*
X012419Y003581D01*
X012344Y003506D01*
X012344Y003206D01*
X012419Y003131D01*
X012645Y003131D01*
X012645Y003581D01*
X013105Y003581D02*
X013105Y003131D01*
X012805Y003131D01*
X012613Y002891D02*
X012463Y002891D01*
X012538Y002891D02*
X012538Y002441D01*
X012613Y002441D02*
X012463Y002441D01*
X012306Y002516D02*
X012231Y002441D01*
X012081Y002441D01*
X012006Y002516D01*
X011845Y002441D02*
X011545Y002441D01*
X011695Y002441D02*
X011695Y002891D01*
X011845Y002741D01*
X012006Y002816D02*
X012081Y002891D01*
X012231Y002891D01*
X012306Y002816D01*
X012306Y002516D01*
X012184Y003131D02*
X011884Y003131D01*
X012034Y003131D02*
X012034Y003581D01*
X012184Y003431D01*
X011724Y003431D02*
X011574Y003581D01*
X011574Y003131D01*
X011724Y003131D02*
X011424Y003131D01*
X011264Y003131D02*
X010963Y003131D01*
X011113Y003131D02*
X011113Y003581D01*
X011264Y003431D01*
X010803Y003581D02*
X010503Y003581D01*
X010503Y003506D01*
X010803Y003206D01*
X010803Y003131D01*
X018312Y002031D02*
X018612Y002031D01*
X018462Y002031D02*
X018462Y002481D01*
X018612Y002331D01*
X018772Y002406D02*
X018847Y002481D01*
X018998Y002481D01*
X019073Y002406D01*
X019073Y002331D01*
X018998Y002256D01*
X018847Y002256D01*
X018772Y002181D01*
X018772Y002106D01*
X018847Y002031D01*
X018998Y002031D01*
X019073Y002106D01*
X016398Y005950D02*
X016323Y005950D01*
X016248Y006025D01*
X016248Y006175D01*
X016173Y006250D01*
X016098Y006250D01*
X016023Y006175D01*
X016023Y006025D01*
X016098Y005950D01*
X016398Y005950D02*
X016473Y006025D01*
X016473Y006175D01*
X016398Y006250D01*
X016098Y006410D02*
X016023Y006485D01*
X016023Y006560D01*
X016098Y006635D01*
X016473Y006635D01*
X016473Y006560D02*
X016473Y006710D01*
X016323Y006870D02*
X016473Y007021D01*
X016023Y007021D01*
X016023Y007171D02*
X016023Y006870D01*
X014975Y006132D02*
X015248Y006155D01*
X015248Y006155D01*
X015521Y006132D01*
X015522Y006131D01*
X015517Y006099D01*
X015508Y006067D01*
X015496Y006037D01*
X015480Y006009D01*
X015461Y005982D01*
X015439Y005958D01*
X015415Y005937D01*
X015388Y005919D01*
X015359Y005904D01*
X015328Y005893D01*
X015297Y005885D01*
X015264Y005881D01*
X015232Y005881D01*
X015199Y005885D01*
X015168Y005893D01*
X015137Y005904D01*
X015108Y005919D01*
X015081Y005937D01*
X015057Y005958D01*
X015035Y005982D01*
X015016Y006009D01*
X015000Y006037D01*
X014988Y006067D01*
X014979Y006099D01*
X014974Y006131D01*
X015021Y006131D01*
X015026Y006103D01*
X015035Y006075D01*
X015047Y006049D01*
X015062Y006024D01*
X015080Y006001D01*
X015101Y005981D01*
X015125Y005964D01*
X015150Y005950D01*
X015177Y005939D01*
X015205Y005932D01*
X015234Y005928D01*
X015262Y005928D01*
X015291Y005932D01*
X015319Y005939D01*
X015346Y005950D01*
X015371Y005964D01*
X015395Y005981D01*
X015416Y006001D01*
X015434Y006024D01*
X015449Y006049D01*
X015461Y006075D01*
X015470Y006103D01*
X015475Y006131D01*
X015427Y006131D01*
X015422Y006106D01*
X015413Y006081D01*
X015401Y006059D01*
X015385Y006038D01*
X015367Y006019D01*
X015346Y006004D01*
X015323Y005991D01*
X015299Y005982D01*
X015274Y005977D01*
X015248Y005975D01*
X015222Y005977D01*
X015197Y005982D01*
X015173Y005991D01*
X015150Y006004D01*
X015129Y006019D01*
X015111Y006038D01*
X015095Y006059D01*
X015083Y006081D01*
X015074Y006106D01*
X015069Y006131D01*
X015116Y006131D01*
X015122Y006110D01*
X015131Y006090D01*
X015143Y006072D01*
X015158Y006056D01*
X015176Y006043D01*
X015195Y006033D01*
X015216Y006026D01*
X015237Y006022D01*
X015259Y006022D01*
X015280Y006026D01*
X015301Y006033D01*
X015320Y006043D01*
X015338Y006056D01*
X015353Y006072D01*
X015365Y006090D01*
X015374Y006110D01*
X015380Y006131D01*
X015331Y006131D01*
X015325Y006115D01*
X015316Y006101D01*
X015303Y006089D01*
X015289Y006079D01*
X015273Y006073D01*
X015257Y006069D01*
X015239Y006069D01*
X015223Y006073D01*
X015207Y006079D01*
X015193Y006089D01*
X015180Y006101D01*
X015171Y006115D01*
X015165Y006131D01*
X015216Y006133D01*
X015223Y006125D01*
X015232Y006119D01*
X015243Y006116D01*
X015253Y006116D01*
X015264Y006119D01*
X015273Y006125D01*
X015280Y006133D01*
X015521Y007780D02*
X015248Y007757D01*
X015248Y007757D01*
X014975Y007780D01*
X014974Y007781D01*
X014979Y007813D01*
X014988Y007845D01*
X015000Y007875D01*
X015016Y007903D01*
X015035Y007930D01*
X015057Y007954D01*
X015081Y007975D01*
X015108Y007993D01*
X015137Y008008D01*
X015168Y008019D01*
X015199Y008027D01*
X015232Y008031D01*
X015264Y008031D01*
X015297Y008027D01*
X015328Y008019D01*
X015359Y008008D01*
X015388Y007993D01*
X015415Y007975D01*
X015439Y007954D01*
X015461Y007930D01*
X015480Y007903D01*
X015496Y007875D01*
X015508Y007845D01*
X015517Y007813D01*
X015522Y007781D01*
X015475Y007781D01*
X015470Y007809D01*
X015461Y007837D01*
X015449Y007863D01*
X015434Y007888D01*
X015416Y007911D01*
X015395Y007931D01*
X015371Y007948D01*
X015346Y007962D01*
X015319Y007973D01*
X015291Y007980D01*
X015262Y007984D01*
X015234Y007984D01*
X015205Y007980D01*
X015177Y007973D01*
X015150Y007962D01*
X015125Y007948D01*
X015101Y007931D01*
X015080Y007911D01*
X015062Y007888D01*
X015047Y007863D01*
X015035Y007837D01*
X015026Y007809D01*
X015021Y007781D01*
X015069Y007781D01*
X015074Y007806D01*
X015083Y007831D01*
X015095Y007853D01*
X015111Y007874D01*
X015129Y007893D01*
X015150Y007908D01*
X015173Y007921D01*
X015197Y007930D01*
X015222Y007935D01*
X015248Y007937D01*
X015274Y007935D01*
X015299Y007930D01*
X015323Y007921D01*
X015346Y007908D01*
X015367Y007893D01*
X015385Y007874D01*
X015401Y007853D01*
X015413Y007831D01*
X015422Y007806D01*
X015427Y007781D01*
X015380Y007781D01*
X015374Y007802D01*
X015365Y007822D01*
X015353Y007840D01*
X015338Y007856D01*
X015320Y007869D01*
X015301Y007879D01*
X015280Y007886D01*
X015259Y007890D01*
X015237Y007890D01*
X015216Y007886D01*
X015195Y007879D01*
X015176Y007869D01*
X015158Y007856D01*
X015143Y007840D01*
X015131Y007822D01*
X015122Y007802D01*
X015116Y007781D01*
X015165Y007781D01*
X015171Y007797D01*
X015180Y007811D01*
X015193Y007823D01*
X015207Y007833D01*
X015223Y007839D01*
X015239Y007843D01*
X015257Y007843D01*
X015273Y007839D01*
X015289Y007833D01*
X015303Y007823D01*
X015316Y007811D01*
X015325Y007797D01*
X015331Y007781D01*
X015280Y007779D01*
X015273Y007787D01*
X015264Y007793D01*
X015253Y007796D01*
X015243Y007796D01*
X015232Y007793D01*
X015223Y007787D01*
X015216Y007779D01*
D20*
X015248Y006956D03*
D21*
X018418Y007080D02*
X018418Y006352D01*
X018418Y006195D01*
X019678Y006195D01*
X019678Y006352D01*
X019678Y007179D01*
X019678Y007297D01*
X018634Y007297D01*
X018418Y007080D01*
X018418Y007140D01*
X018418Y007297D01*
X018634Y007297D01*
X017848Y003456D02*
X019548Y003456D01*
X019698Y003456D01*
X019898Y003256D01*
X019898Y002656D01*
X019898Y002661D02*
X019898Y001856D01*
X019898Y001256D01*
X019698Y001056D01*
X019548Y001056D01*
X017848Y001056D01*
X017698Y001056D01*
X017498Y001256D01*
X017498Y001856D01*
X017498Y002649D01*
X017498Y002656D02*
X017498Y003256D01*
X017698Y003456D01*
X017848Y003456D01*
X019698Y002756D02*
X019698Y002456D01*
X019548Y002106D01*
X019698Y002056D02*
X019698Y001756D01*
X017998Y002256D02*
X018000Y002308D01*
X018006Y002360D01*
X018016Y002412D01*
X018029Y002462D01*
X018046Y002512D01*
X018067Y002560D01*
X018092Y002606D01*
X018120Y002650D01*
X018151Y002692D01*
X018185Y002732D01*
X018222Y002769D01*
X018262Y002803D01*
X018304Y002834D01*
X018348Y002862D01*
X018394Y002887D01*
X018442Y002908D01*
X018492Y002925D01*
X018542Y002938D01*
X018594Y002948D01*
X018646Y002954D01*
X018698Y002956D01*
X018750Y002954D01*
X018802Y002948D01*
X018854Y002938D01*
X018904Y002925D01*
X018954Y002908D01*
X019002Y002887D01*
X019048Y002862D01*
X019092Y002834D01*
X019134Y002803D01*
X019174Y002769D01*
X019211Y002732D01*
X019245Y002692D01*
X019276Y002650D01*
X019304Y002606D01*
X019329Y002560D01*
X019350Y002512D01*
X019367Y002462D01*
X019380Y002412D01*
X019390Y002360D01*
X019396Y002308D01*
X019398Y002256D01*
X019396Y002204D01*
X019390Y002152D01*
X019380Y002100D01*
X019367Y002050D01*
X019350Y002000D01*
X019329Y001952D01*
X019304Y001906D01*
X019276Y001862D01*
X019245Y001820D01*
X019211Y001780D01*
X019174Y001743D01*
X019134Y001709D01*
X019092Y001678D01*
X019048Y001650D01*
X019002Y001625D01*
X018954Y001604D01*
X018904Y001587D01*
X018854Y001574D01*
X018802Y001564D01*
X018750Y001558D01*
X018698Y001556D01*
X018646Y001558D01*
X018594Y001564D01*
X018542Y001574D01*
X018492Y001587D01*
X018442Y001604D01*
X018394Y001625D01*
X018348Y001650D01*
X018304Y001678D01*
X018262Y001709D01*
X018222Y001743D01*
X018185Y001780D01*
X018151Y001820D01*
X018120Y001862D01*
X018092Y001906D01*
X018067Y001952D01*
X018046Y002000D01*
X018029Y002050D01*
X018016Y002100D01*
X018006Y002152D01*
X018000Y002204D01*
X017998Y002256D01*
D22*
X018930Y006628D03*
X019166Y006628D03*
X018930Y006864D03*
M02*
