G75*
G70*
%OFA0B0*%
%FSLAX24Y24*%
%IPPOS*%
%LPD*%
%AMOC8*
5,1,8,0,0,1.08239X$1,22.5*
%
%ADD10C,0.0085*%
%ADD11C,0.0820*%
%ADD12C,0.1346*%
%ADD13C,0.0513*%
%ADD14C,0.0081*%
%ADD15C,0.0081*%
%ADD16C,0.0084*%
%ADD17C,0.0082*%
%ADD18C,0.0082*%
%ADD19C,0.0277*%
%ADD20C,0.0390*%
D10*
X009303Y001514D02*
X009929Y001514D01*
X009303Y001514D02*
X009303Y002218D01*
X009929Y002218D01*
X009929Y001514D01*
X009929Y001598D02*
X009303Y001598D01*
X009303Y001682D02*
X009929Y001682D01*
X009929Y001766D02*
X009303Y001766D01*
X009303Y001850D02*
X009929Y001850D01*
X009929Y001934D02*
X009303Y001934D01*
X009303Y002018D02*
X009929Y002018D01*
X009929Y002102D02*
X009303Y002102D01*
X009303Y002186D02*
X009929Y002186D01*
X010406Y001514D02*
X011032Y001514D01*
X010406Y001514D02*
X010406Y002218D01*
X011032Y002218D01*
X011032Y001514D01*
X011032Y001598D02*
X010406Y001598D01*
X010406Y001682D02*
X011032Y001682D01*
X011032Y001766D02*
X010406Y001766D01*
X010406Y001850D02*
X011032Y001850D01*
X011032Y001934D02*
X010406Y001934D01*
X010406Y002018D02*
X011032Y002018D01*
X011032Y002102D02*
X010406Y002102D01*
X010406Y002186D02*
X011032Y002186D01*
X010336Y002402D02*
X010336Y003028D01*
X011040Y003028D01*
X011040Y002402D01*
X010336Y002402D01*
X010336Y002486D02*
X011040Y002486D01*
X011040Y002570D02*
X010336Y002570D01*
X010336Y002654D02*
X011040Y002654D01*
X011040Y002738D02*
X010336Y002738D01*
X010336Y002822D02*
X011040Y002822D01*
X011040Y002906D02*
X010336Y002906D01*
X010336Y002990D02*
X011040Y002990D01*
X010079Y003038D02*
X010079Y002412D01*
X009297Y002412D01*
X009297Y003038D01*
X010079Y003038D01*
X010079Y002496D02*
X009297Y002496D01*
X009297Y002580D02*
X010079Y002580D01*
X010079Y002664D02*
X009297Y002664D01*
X009297Y002748D02*
X010079Y002748D01*
X010079Y002832D02*
X009297Y002832D01*
X009297Y002916D02*
X010079Y002916D01*
X010079Y003000D02*
X009297Y003000D01*
X010079Y003514D02*
X010079Y004140D01*
X010079Y003514D02*
X009297Y003514D01*
X009297Y004140D01*
X010079Y004140D01*
X010079Y003598D02*
X009297Y003598D01*
X009297Y003682D02*
X010079Y003682D01*
X010079Y003766D02*
X009297Y003766D01*
X009297Y003850D02*
X010079Y003850D01*
X010079Y003934D02*
X009297Y003934D01*
X009297Y004018D02*
X010079Y004018D01*
X010079Y004102D02*
X009297Y004102D01*
X010336Y004130D02*
X010336Y003504D01*
X010336Y004130D02*
X011040Y004130D01*
X011040Y003504D01*
X010336Y003504D01*
X010336Y003588D02*
X011040Y003588D01*
X011040Y003672D02*
X010336Y003672D01*
X010336Y003756D02*
X011040Y003756D01*
X011040Y003840D02*
X010336Y003840D01*
X010336Y003924D02*
X011040Y003924D01*
X011040Y004008D02*
X010336Y004008D01*
X010336Y004092D02*
X011040Y004092D01*
X010279Y005152D02*
X010279Y005778D01*
X010279Y005152D02*
X009497Y005152D01*
X009497Y005778D01*
X010279Y005778D01*
X010279Y005236D02*
X009497Y005236D01*
X009497Y005320D02*
X010279Y005320D01*
X010279Y005404D02*
X009497Y005404D01*
X009497Y005488D02*
X010279Y005488D01*
X010279Y005572D02*
X009497Y005572D01*
X009497Y005656D02*
X010279Y005656D01*
X010279Y005740D02*
X009497Y005740D01*
X010279Y006254D02*
X010279Y006880D01*
X010279Y006254D02*
X009497Y006254D01*
X009497Y006880D01*
X010279Y006880D01*
X010279Y006338D02*
X009497Y006338D01*
X009497Y006422D02*
X010279Y006422D01*
X010279Y006506D02*
X009497Y006506D01*
X009497Y006590D02*
X010279Y006590D01*
X010279Y006674D02*
X009497Y006674D01*
X009497Y006758D02*
X010279Y006758D01*
X010279Y006842D02*
X009497Y006842D01*
X011563Y008168D02*
X012189Y008168D01*
X012189Y007464D01*
X011563Y007464D01*
X011563Y008168D01*
X011563Y007548D02*
X012189Y007548D01*
X012189Y007632D02*
X011563Y007632D01*
X011563Y007716D02*
X012189Y007716D01*
X012189Y007800D02*
X011563Y007800D01*
X011563Y007884D02*
X012189Y007884D01*
X012189Y007968D02*
X011563Y007968D01*
X011563Y008052D02*
X012189Y008052D01*
X012189Y008136D02*
X011563Y008136D01*
X012666Y008168D02*
X013292Y008168D01*
X013292Y007464D01*
X012666Y007464D01*
X012666Y008168D01*
X012666Y007548D02*
X013292Y007548D01*
X013292Y007632D02*
X012666Y007632D01*
X012666Y007716D02*
X013292Y007716D01*
X013292Y007800D02*
X012666Y007800D01*
X012666Y007884D02*
X013292Y007884D01*
X013292Y007968D02*
X012666Y007968D01*
X012666Y008052D02*
X013292Y008052D01*
X013292Y008136D02*
X012666Y008136D01*
X022099Y008010D02*
X022099Y007384D01*
X021317Y007384D01*
X021317Y008010D01*
X022099Y008010D01*
X022099Y007468D02*
X021317Y007468D01*
X021317Y007552D02*
X022099Y007552D01*
X022099Y007636D02*
X021317Y007636D01*
X021317Y007720D02*
X022099Y007720D01*
X022099Y007804D02*
X021317Y007804D01*
X021317Y007888D02*
X022099Y007888D01*
X022099Y007972D02*
X021317Y007972D01*
X022099Y006908D02*
X022099Y006282D01*
X021317Y006282D01*
X021317Y006908D01*
X022099Y006908D01*
X022099Y006366D02*
X021317Y006366D01*
X021317Y006450D02*
X022099Y006450D01*
X022099Y006534D02*
X021317Y006534D01*
X021317Y006618D02*
X022099Y006618D01*
X022099Y006702D02*
X021317Y006702D01*
X021317Y006786D02*
X022099Y006786D01*
X022099Y006870D02*
X021317Y006870D01*
X021246Y004048D02*
X021872Y004048D01*
X021872Y003344D01*
X021246Y003344D01*
X021246Y004048D01*
X021246Y003428D02*
X021872Y003428D01*
X021872Y003512D02*
X021246Y003512D01*
X021246Y003596D02*
X021872Y003596D01*
X021872Y003680D02*
X021246Y003680D01*
X021246Y003764D02*
X021872Y003764D01*
X021872Y003848D02*
X021246Y003848D01*
X021246Y003932D02*
X021872Y003932D01*
X021872Y004016D02*
X021246Y004016D01*
X020769Y004048D02*
X020143Y004048D01*
X020769Y004048D02*
X020769Y003344D01*
X020143Y003344D01*
X020143Y004048D01*
X020143Y003428D02*
X020769Y003428D01*
X020769Y003512D02*
X020143Y003512D01*
X020143Y003596D02*
X020769Y003596D01*
X020769Y003680D02*
X020143Y003680D01*
X020143Y003764D02*
X020769Y003764D01*
X020769Y003848D02*
X020143Y003848D01*
X020143Y003932D02*
X020769Y003932D01*
X020769Y004016D02*
X020143Y004016D01*
X020153Y002405D02*
X020779Y002405D01*
X020153Y002405D02*
X020153Y003187D01*
X020779Y003187D01*
X020779Y002405D01*
X020779Y002489D02*
X020153Y002489D01*
X020153Y002573D02*
X020779Y002573D01*
X020779Y002657D02*
X020153Y002657D01*
X020153Y002741D02*
X020779Y002741D01*
X020779Y002825D02*
X020153Y002825D01*
X020153Y002909D02*
X020779Y002909D01*
X020779Y002993D02*
X020153Y002993D01*
X020153Y003077D02*
X020779Y003077D01*
X020779Y003161D02*
X020153Y003161D01*
X021256Y002405D02*
X021882Y002405D01*
X021256Y002405D02*
X021256Y003187D01*
X021882Y003187D01*
X021882Y002405D01*
X021882Y002489D02*
X021256Y002489D01*
X021256Y002573D02*
X021882Y002573D01*
X021882Y002657D02*
X021256Y002657D01*
X021256Y002741D02*
X021882Y002741D01*
X021882Y002825D02*
X021256Y002825D01*
X021256Y002909D02*
X021882Y002909D01*
X021882Y002993D02*
X021256Y002993D01*
X021256Y003077D02*
X021882Y003077D01*
X021882Y003161D02*
X021256Y003161D01*
X021286Y001544D02*
X021912Y001544D01*
X021286Y001544D02*
X021286Y002248D01*
X021912Y002248D01*
X021912Y001544D01*
X021912Y001628D02*
X021286Y001628D01*
X021286Y001712D02*
X021912Y001712D01*
X021912Y001796D02*
X021286Y001796D01*
X021286Y001880D02*
X021912Y001880D01*
X021912Y001964D02*
X021286Y001964D01*
X021286Y002048D02*
X021912Y002048D01*
X021912Y002132D02*
X021286Y002132D01*
X021286Y002216D02*
X021912Y002216D01*
X020809Y001544D02*
X020183Y001544D01*
X020183Y002248D01*
X020809Y002248D01*
X020809Y001544D01*
X020809Y001628D02*
X020183Y001628D01*
X020183Y001712D02*
X020809Y001712D01*
X020809Y001796D02*
X020183Y001796D01*
X020183Y001880D02*
X020809Y001880D01*
X020809Y001964D02*
X020183Y001964D01*
X020183Y002048D02*
X020809Y002048D01*
X020809Y002132D02*
X020183Y002132D01*
X020183Y002216D02*
X020809Y002216D01*
D11*
X008103Y003238D03*
X008103Y004172D03*
X008103Y005060D03*
X008103Y005994D03*
D12*
X007158Y002332D03*
X007158Y006899D03*
D13*
X007118Y005502D03*
X007118Y003730D03*
D14*
X008866Y004508D02*
X009256Y004508D01*
X009256Y004390D01*
X008866Y004390D01*
X008866Y004508D01*
X008866Y004470D02*
X009256Y004470D01*
X009256Y004705D02*
X008866Y004705D01*
X009256Y004705D02*
X009256Y004587D01*
X008866Y004587D01*
X008866Y004705D01*
X008866Y004667D02*
X009256Y004667D01*
X009256Y004902D02*
X008866Y004902D01*
X009256Y004902D02*
X009256Y004784D01*
X008866Y004784D01*
X008866Y004902D01*
X008866Y004864D02*
X009256Y004864D01*
X009500Y004902D02*
X009890Y004902D01*
X009890Y004784D01*
X009500Y004784D01*
X009500Y004902D01*
X009500Y004864D02*
X009890Y004864D01*
X009890Y004705D02*
X009500Y004705D01*
X009890Y004705D02*
X009890Y004587D01*
X009500Y004587D01*
X009500Y004705D01*
X009500Y004667D02*
X009890Y004667D01*
X009890Y004508D02*
X009500Y004508D01*
X009890Y004508D02*
X009890Y004390D01*
X009500Y004390D01*
X009500Y004508D01*
X009500Y004470D02*
X009890Y004470D01*
D15*
X012408Y004496D02*
X012880Y004496D01*
X012880Y004378D01*
X012408Y004378D01*
X012408Y004496D01*
X012408Y004458D02*
X012880Y004458D01*
X012880Y004693D02*
X012408Y004693D01*
X012880Y004693D02*
X012880Y004575D01*
X012408Y004575D01*
X012408Y004693D01*
X012408Y004655D02*
X012880Y004655D01*
X012880Y004890D02*
X012408Y004890D01*
X012880Y004890D02*
X012880Y004772D01*
X012408Y004772D01*
X012408Y004890D01*
X012408Y004852D02*
X012880Y004852D01*
X012880Y005087D02*
X012408Y005087D01*
X012880Y005087D02*
X012880Y004969D01*
X012408Y004969D01*
X012408Y005087D01*
X012408Y005049D02*
X012880Y005049D01*
X012880Y005284D02*
X012408Y005284D01*
X012880Y005284D02*
X012880Y005166D01*
X012408Y005166D01*
X012408Y005284D01*
X012408Y005246D02*
X012880Y005246D01*
X012880Y005481D02*
X012408Y005481D01*
X012880Y005481D02*
X012880Y005363D01*
X012408Y005363D01*
X012408Y005481D01*
X012408Y005443D02*
X012880Y005443D01*
X012880Y005678D02*
X012408Y005678D01*
X012880Y005678D02*
X012880Y005560D01*
X012408Y005560D01*
X012408Y005678D01*
X012408Y005640D02*
X012880Y005640D01*
X012880Y005874D02*
X012408Y005874D01*
X012880Y005874D02*
X012880Y005756D01*
X012408Y005756D01*
X012408Y005874D01*
X012408Y005836D02*
X012880Y005836D01*
X012880Y006071D02*
X012408Y006071D01*
X012880Y006071D02*
X012880Y005953D01*
X012408Y005953D01*
X012408Y006071D01*
X012408Y006033D02*
X012880Y006033D01*
X013352Y007016D02*
X013470Y007016D01*
X013470Y006544D01*
X013352Y006544D01*
X013352Y007016D01*
X013352Y006624D02*
X013470Y006624D01*
X013470Y006704D02*
X013352Y006704D01*
X013352Y006784D02*
X013470Y006784D01*
X013470Y006864D02*
X013352Y006864D01*
X013352Y006944D02*
X013470Y006944D01*
X013549Y007016D02*
X013667Y007016D01*
X013667Y006544D01*
X013549Y006544D01*
X013549Y007016D01*
X013549Y006624D02*
X013667Y006624D01*
X013667Y006704D02*
X013549Y006704D01*
X013549Y006784D02*
X013667Y006784D01*
X013667Y006864D02*
X013549Y006864D01*
X013549Y006944D02*
X013667Y006944D01*
X013746Y007016D02*
X013864Y007016D01*
X013864Y006544D01*
X013746Y006544D01*
X013746Y007016D01*
X013746Y006624D02*
X013864Y006624D01*
X013864Y006704D02*
X013746Y006704D01*
X013746Y006784D02*
X013864Y006784D01*
X013864Y006864D02*
X013746Y006864D01*
X013746Y006944D02*
X013864Y006944D01*
X013943Y007016D02*
X014061Y007016D01*
X014061Y006544D01*
X013943Y006544D01*
X013943Y007016D01*
X013943Y006624D02*
X014061Y006624D01*
X014061Y006704D02*
X013943Y006704D01*
X013943Y006784D02*
X014061Y006784D01*
X014061Y006864D02*
X013943Y006864D01*
X013943Y006944D02*
X014061Y006944D01*
X014140Y007016D02*
X014258Y007016D01*
X014258Y006544D01*
X014140Y006544D01*
X014140Y007016D01*
X014140Y006624D02*
X014258Y006624D01*
X014258Y006704D02*
X014140Y006704D01*
X014140Y006784D02*
X014258Y006784D01*
X014258Y006864D02*
X014140Y006864D01*
X014140Y006944D02*
X014258Y006944D01*
X014337Y007016D02*
X014455Y007016D01*
X014455Y006544D01*
X014337Y006544D01*
X014337Y007016D01*
X014337Y006624D02*
X014455Y006624D01*
X014455Y006704D02*
X014337Y006704D01*
X014337Y006784D02*
X014455Y006784D01*
X014455Y006864D02*
X014337Y006864D01*
X014337Y006944D02*
X014455Y006944D01*
X014533Y007016D02*
X014651Y007016D01*
X014651Y006544D01*
X014533Y006544D01*
X014533Y007016D01*
X014533Y006624D02*
X014651Y006624D01*
X014651Y006704D02*
X014533Y006704D01*
X014533Y006784D02*
X014651Y006784D01*
X014651Y006864D02*
X014533Y006864D01*
X014533Y006944D02*
X014651Y006944D01*
X014730Y007016D02*
X014848Y007016D01*
X014848Y006544D01*
X014730Y006544D01*
X014730Y007016D01*
X014730Y006624D02*
X014848Y006624D01*
X014848Y006704D02*
X014730Y006704D01*
X014730Y006784D02*
X014848Y006784D01*
X014848Y006864D02*
X014730Y006864D01*
X014730Y006944D02*
X014848Y006944D01*
X014927Y007016D02*
X015045Y007016D01*
X015045Y006544D01*
X014927Y006544D01*
X014927Y007016D01*
X014927Y006624D02*
X015045Y006624D01*
X015045Y006704D02*
X014927Y006704D01*
X014927Y006784D02*
X015045Y006784D01*
X015045Y006864D02*
X014927Y006864D01*
X014927Y006944D02*
X015045Y006944D01*
X015124Y007016D02*
X015242Y007016D01*
X015242Y006544D01*
X015124Y006544D01*
X015124Y007016D01*
X015124Y006624D02*
X015242Y006624D01*
X015242Y006704D02*
X015124Y006704D01*
X015124Y006784D02*
X015242Y006784D01*
X015242Y006864D02*
X015124Y006864D01*
X015124Y006944D02*
X015242Y006944D01*
X015321Y007016D02*
X015439Y007016D01*
X015439Y006544D01*
X015321Y006544D01*
X015321Y007016D01*
X015321Y006624D02*
X015439Y006624D01*
X015439Y006704D02*
X015321Y006704D01*
X015321Y006784D02*
X015439Y006784D01*
X015439Y006864D02*
X015321Y006864D01*
X015321Y006944D02*
X015439Y006944D01*
X015518Y007016D02*
X015636Y007016D01*
X015636Y006544D01*
X015518Y006544D01*
X015518Y007016D01*
X015518Y006624D02*
X015636Y006624D01*
X015636Y006704D02*
X015518Y006704D01*
X015518Y006784D02*
X015636Y006784D01*
X015636Y006864D02*
X015518Y006864D01*
X015518Y006944D02*
X015636Y006944D01*
X015714Y007016D02*
X015832Y007016D01*
X015832Y006544D01*
X015714Y006544D01*
X015714Y007016D01*
X015714Y006624D02*
X015832Y006624D01*
X015832Y006704D02*
X015714Y006704D01*
X015714Y006784D02*
X015832Y006784D01*
X015832Y006864D02*
X015714Y006864D01*
X015714Y006944D02*
X015832Y006944D01*
X015911Y007016D02*
X016029Y007016D01*
X016029Y006544D01*
X015911Y006544D01*
X015911Y007016D01*
X015911Y006624D02*
X016029Y006624D01*
X016029Y006704D02*
X015911Y006704D01*
X015911Y006784D02*
X016029Y006784D01*
X016029Y006864D02*
X015911Y006864D01*
X015911Y006944D02*
X016029Y006944D01*
X016108Y007016D02*
X016226Y007016D01*
X016226Y006544D01*
X016108Y006544D01*
X016108Y007016D01*
X016108Y006624D02*
X016226Y006624D01*
X016226Y006704D02*
X016108Y006704D01*
X016108Y006784D02*
X016226Y006784D01*
X016226Y006864D02*
X016108Y006864D01*
X016108Y006944D02*
X016226Y006944D01*
X016305Y007016D02*
X016423Y007016D01*
X016423Y006544D01*
X016305Y006544D01*
X016305Y007016D01*
X016305Y006624D02*
X016423Y006624D01*
X016423Y006704D02*
X016305Y006704D01*
X016305Y006784D02*
X016423Y006784D01*
X016423Y006864D02*
X016305Y006864D01*
X016305Y006944D02*
X016423Y006944D01*
X016896Y006071D02*
X017368Y006071D01*
X017368Y005953D01*
X016896Y005953D01*
X016896Y006071D01*
X016896Y006033D02*
X017368Y006033D01*
X017368Y005874D02*
X016896Y005874D01*
X017368Y005874D02*
X017368Y005756D01*
X016896Y005756D01*
X016896Y005874D01*
X016896Y005836D02*
X017368Y005836D01*
X017368Y005678D02*
X016896Y005678D01*
X017368Y005678D02*
X017368Y005560D01*
X016896Y005560D01*
X016896Y005678D01*
X016896Y005640D02*
X017368Y005640D01*
X017368Y005481D02*
X016896Y005481D01*
X017368Y005481D02*
X017368Y005363D01*
X016896Y005363D01*
X016896Y005481D01*
X016896Y005443D02*
X017368Y005443D01*
X017368Y005284D02*
X016896Y005284D01*
X017368Y005284D02*
X017368Y005166D01*
X016896Y005166D01*
X016896Y005284D01*
X016896Y005246D02*
X017368Y005246D01*
X017368Y005087D02*
X016896Y005087D01*
X017368Y005087D02*
X017368Y004969D01*
X016896Y004969D01*
X016896Y005087D01*
X016896Y005049D02*
X017368Y005049D01*
X017368Y004890D02*
X016896Y004890D01*
X017368Y004890D02*
X017368Y004772D01*
X016896Y004772D01*
X016896Y004890D01*
X016896Y004852D02*
X017368Y004852D01*
X017368Y004693D02*
X016896Y004693D01*
X017368Y004693D02*
X017368Y004575D01*
X016896Y004575D01*
X016896Y004693D01*
X016896Y004655D02*
X017368Y004655D01*
X017368Y004496D02*
X016896Y004496D01*
X017368Y004496D02*
X017368Y004378D01*
X016896Y004378D01*
X016896Y004496D01*
X016896Y004458D02*
X017368Y004458D01*
X017368Y004300D02*
X016896Y004300D01*
X017368Y004300D02*
X017368Y004182D01*
X016896Y004182D01*
X016896Y004300D01*
X016896Y004262D02*
X017368Y004262D01*
X017368Y004103D02*
X016896Y004103D01*
X017368Y004103D02*
X017368Y003985D01*
X016896Y003985D01*
X016896Y004103D01*
X016896Y004065D02*
X017368Y004065D01*
X017368Y003906D02*
X016896Y003906D01*
X017368Y003906D02*
X017368Y003788D01*
X016896Y003788D01*
X016896Y003906D01*
X016896Y003868D02*
X017368Y003868D01*
X017368Y003709D02*
X016896Y003709D01*
X017368Y003709D02*
X017368Y003591D01*
X016896Y003591D01*
X016896Y003709D01*
X016896Y003671D02*
X017368Y003671D01*
X017368Y003512D02*
X016896Y003512D01*
X017368Y003512D02*
X017368Y003394D01*
X016896Y003394D01*
X016896Y003512D01*
X016896Y003474D02*
X017368Y003474D01*
X017368Y003315D02*
X016896Y003315D01*
X017368Y003315D02*
X017368Y003197D01*
X016896Y003197D01*
X016896Y003315D01*
X016896Y003277D02*
X017368Y003277D01*
X017368Y003118D02*
X016896Y003118D01*
X017368Y003118D02*
X017368Y003000D01*
X016896Y003000D01*
X016896Y003118D01*
X016896Y003080D02*
X017368Y003080D01*
X016423Y002528D02*
X016305Y002528D01*
X016423Y002528D02*
X016423Y002056D01*
X016305Y002056D01*
X016305Y002528D01*
X016305Y002136D02*
X016423Y002136D01*
X016423Y002216D02*
X016305Y002216D01*
X016305Y002296D02*
X016423Y002296D01*
X016423Y002376D02*
X016305Y002376D01*
X016305Y002456D02*
X016423Y002456D01*
X016226Y002528D02*
X016108Y002528D01*
X016226Y002528D02*
X016226Y002056D01*
X016108Y002056D01*
X016108Y002528D01*
X016108Y002136D02*
X016226Y002136D01*
X016226Y002216D02*
X016108Y002216D01*
X016108Y002296D02*
X016226Y002296D01*
X016226Y002376D02*
X016108Y002376D01*
X016108Y002456D02*
X016226Y002456D01*
X016029Y002528D02*
X015911Y002528D01*
X016029Y002528D02*
X016029Y002056D01*
X015911Y002056D01*
X015911Y002528D01*
X015911Y002136D02*
X016029Y002136D01*
X016029Y002216D02*
X015911Y002216D01*
X015911Y002296D02*
X016029Y002296D01*
X016029Y002376D02*
X015911Y002376D01*
X015911Y002456D02*
X016029Y002456D01*
X015832Y002528D02*
X015714Y002528D01*
X015832Y002528D02*
X015832Y002056D01*
X015714Y002056D01*
X015714Y002528D01*
X015714Y002136D02*
X015832Y002136D01*
X015832Y002216D02*
X015714Y002216D01*
X015714Y002296D02*
X015832Y002296D01*
X015832Y002376D02*
X015714Y002376D01*
X015714Y002456D02*
X015832Y002456D01*
X015636Y002528D02*
X015518Y002528D01*
X015636Y002528D02*
X015636Y002056D01*
X015518Y002056D01*
X015518Y002528D01*
X015518Y002136D02*
X015636Y002136D01*
X015636Y002216D02*
X015518Y002216D01*
X015518Y002296D02*
X015636Y002296D01*
X015636Y002376D02*
X015518Y002376D01*
X015518Y002456D02*
X015636Y002456D01*
X015439Y002528D02*
X015321Y002528D01*
X015439Y002528D02*
X015439Y002056D01*
X015321Y002056D01*
X015321Y002528D01*
X015321Y002136D02*
X015439Y002136D01*
X015439Y002216D02*
X015321Y002216D01*
X015321Y002296D02*
X015439Y002296D01*
X015439Y002376D02*
X015321Y002376D01*
X015321Y002456D02*
X015439Y002456D01*
X015242Y002528D02*
X015124Y002528D01*
X015242Y002528D02*
X015242Y002056D01*
X015124Y002056D01*
X015124Y002528D01*
X015124Y002136D02*
X015242Y002136D01*
X015242Y002216D02*
X015124Y002216D01*
X015124Y002296D02*
X015242Y002296D01*
X015242Y002376D02*
X015124Y002376D01*
X015124Y002456D02*
X015242Y002456D01*
X015045Y002528D02*
X014927Y002528D01*
X015045Y002528D02*
X015045Y002056D01*
X014927Y002056D01*
X014927Y002528D01*
X014927Y002136D02*
X015045Y002136D01*
X015045Y002216D02*
X014927Y002216D01*
X014927Y002296D02*
X015045Y002296D01*
X015045Y002376D02*
X014927Y002376D01*
X014927Y002456D02*
X015045Y002456D01*
X014848Y002528D02*
X014730Y002528D01*
X014848Y002528D02*
X014848Y002056D01*
X014730Y002056D01*
X014730Y002528D01*
X014730Y002136D02*
X014848Y002136D01*
X014848Y002216D02*
X014730Y002216D01*
X014730Y002296D02*
X014848Y002296D01*
X014848Y002376D02*
X014730Y002376D01*
X014730Y002456D02*
X014848Y002456D01*
X014651Y002528D02*
X014533Y002528D01*
X014651Y002528D02*
X014651Y002056D01*
X014533Y002056D01*
X014533Y002528D01*
X014533Y002136D02*
X014651Y002136D01*
X014651Y002216D02*
X014533Y002216D01*
X014533Y002296D02*
X014651Y002296D01*
X014651Y002376D02*
X014533Y002376D01*
X014533Y002456D02*
X014651Y002456D01*
X014455Y002528D02*
X014337Y002528D01*
X014455Y002528D02*
X014455Y002056D01*
X014337Y002056D01*
X014337Y002528D01*
X014337Y002136D02*
X014455Y002136D01*
X014455Y002216D02*
X014337Y002216D01*
X014337Y002296D02*
X014455Y002296D01*
X014455Y002376D02*
X014337Y002376D01*
X014337Y002456D02*
X014455Y002456D01*
X014258Y002528D02*
X014140Y002528D01*
X014258Y002528D02*
X014258Y002056D01*
X014140Y002056D01*
X014140Y002528D01*
X014140Y002136D02*
X014258Y002136D01*
X014258Y002216D02*
X014140Y002216D01*
X014140Y002296D02*
X014258Y002296D01*
X014258Y002376D02*
X014140Y002376D01*
X014140Y002456D02*
X014258Y002456D01*
X014061Y002528D02*
X013943Y002528D01*
X014061Y002528D02*
X014061Y002056D01*
X013943Y002056D01*
X013943Y002528D01*
X013943Y002136D02*
X014061Y002136D01*
X014061Y002216D02*
X013943Y002216D01*
X013943Y002296D02*
X014061Y002296D01*
X014061Y002376D02*
X013943Y002376D01*
X013943Y002456D02*
X014061Y002456D01*
X013864Y002528D02*
X013746Y002528D01*
X013864Y002528D02*
X013864Y002056D01*
X013746Y002056D01*
X013746Y002528D01*
X013746Y002136D02*
X013864Y002136D01*
X013864Y002216D02*
X013746Y002216D01*
X013746Y002296D02*
X013864Y002296D01*
X013864Y002376D02*
X013746Y002376D01*
X013746Y002456D02*
X013864Y002456D01*
X013667Y002528D02*
X013549Y002528D01*
X013667Y002528D02*
X013667Y002056D01*
X013549Y002056D01*
X013549Y002528D01*
X013549Y002136D02*
X013667Y002136D01*
X013667Y002216D02*
X013549Y002216D01*
X013549Y002296D02*
X013667Y002296D01*
X013667Y002376D02*
X013549Y002376D01*
X013549Y002456D02*
X013667Y002456D01*
X013470Y002528D02*
X013352Y002528D01*
X013470Y002528D02*
X013470Y002056D01*
X013352Y002056D01*
X013352Y002528D01*
X013352Y002136D02*
X013470Y002136D01*
X013470Y002216D02*
X013352Y002216D01*
X013352Y002296D02*
X013470Y002296D01*
X013470Y002376D02*
X013352Y002376D01*
X013352Y002456D02*
X013470Y002456D01*
X012880Y003118D02*
X012408Y003118D01*
X012880Y003118D02*
X012880Y003000D01*
X012408Y003000D01*
X012408Y003118D01*
X012408Y003080D02*
X012880Y003080D01*
X012880Y003315D02*
X012408Y003315D01*
X012880Y003315D02*
X012880Y003197D01*
X012408Y003197D01*
X012408Y003315D01*
X012408Y003277D02*
X012880Y003277D01*
X012880Y003512D02*
X012408Y003512D01*
X012880Y003512D02*
X012880Y003394D01*
X012408Y003394D01*
X012408Y003512D01*
X012408Y003474D02*
X012880Y003474D01*
X012880Y003709D02*
X012408Y003709D01*
X012880Y003709D02*
X012880Y003591D01*
X012408Y003591D01*
X012408Y003709D01*
X012408Y003671D02*
X012880Y003671D01*
X012880Y003906D02*
X012408Y003906D01*
X012880Y003906D02*
X012880Y003788D01*
X012408Y003788D01*
X012408Y003906D01*
X012408Y003868D02*
X012880Y003868D01*
X012880Y004103D02*
X012408Y004103D01*
X012880Y004103D02*
X012880Y003985D01*
X012408Y003985D01*
X012408Y004103D01*
X012408Y004065D02*
X012880Y004065D01*
X012880Y004300D02*
X012408Y004300D01*
X012880Y004300D02*
X012880Y004182D01*
X012408Y004182D01*
X012408Y004300D01*
X012408Y004262D02*
X012880Y004262D01*
D16*
X018460Y004868D02*
X018460Y006964D01*
X019216Y006964D01*
X019216Y004868D01*
X018460Y004868D01*
X018460Y004951D02*
X019216Y004951D01*
X019216Y005034D02*
X018460Y005034D01*
X018460Y005117D02*
X019216Y005117D01*
X019216Y005200D02*
X018460Y005200D01*
X018460Y005283D02*
X019216Y005283D01*
X019216Y005366D02*
X018460Y005366D01*
X018460Y005449D02*
X019216Y005449D01*
X019216Y005532D02*
X018460Y005532D01*
X018460Y005615D02*
X019216Y005615D01*
X019216Y005698D02*
X018460Y005698D01*
X018460Y005781D02*
X019216Y005781D01*
X019216Y005864D02*
X018460Y005864D01*
X018460Y005947D02*
X019216Y005947D01*
X019216Y006030D02*
X018460Y006030D01*
X018460Y006113D02*
X019216Y006113D01*
X019216Y006196D02*
X018460Y006196D01*
X018460Y006279D02*
X019216Y006279D01*
X019216Y006362D02*
X018460Y006362D01*
X018460Y006445D02*
X019216Y006445D01*
X019216Y006528D02*
X018460Y006528D01*
X018460Y006611D02*
X019216Y006611D01*
X019216Y006694D02*
X018460Y006694D01*
X018460Y006777D02*
X019216Y006777D01*
X019216Y006860D02*
X018460Y006860D01*
X018460Y006943D02*
X019216Y006943D01*
X018460Y003164D02*
X018460Y001068D01*
X018460Y003164D02*
X019216Y003164D01*
X019216Y001068D01*
X018460Y001068D01*
X018460Y001151D02*
X019216Y001151D01*
X019216Y001234D02*
X018460Y001234D01*
X018460Y001317D02*
X019216Y001317D01*
X019216Y001400D02*
X018460Y001400D01*
X018460Y001483D02*
X019216Y001483D01*
X019216Y001566D02*
X018460Y001566D01*
X018460Y001649D02*
X019216Y001649D01*
X019216Y001732D02*
X018460Y001732D01*
X018460Y001815D02*
X019216Y001815D01*
X019216Y001898D02*
X018460Y001898D01*
X018460Y001981D02*
X019216Y001981D01*
X019216Y002064D02*
X018460Y002064D01*
X018460Y002147D02*
X019216Y002147D01*
X019216Y002230D02*
X018460Y002230D01*
X018460Y002313D02*
X019216Y002313D01*
X019216Y002396D02*
X018460Y002396D01*
X018460Y002479D02*
X019216Y002479D01*
X019216Y002562D02*
X018460Y002562D01*
X018460Y002645D02*
X019216Y002645D01*
X019216Y002728D02*
X018460Y002728D01*
X018460Y002811D02*
X019216Y002811D01*
X019216Y002894D02*
X018460Y002894D01*
X018460Y002977D02*
X019216Y002977D01*
X019216Y003060D02*
X018460Y003060D01*
X018460Y003143D02*
X019216Y003143D01*
D17*
X012047Y004170D02*
X011549Y004170D01*
X012047Y004170D02*
X012047Y003922D01*
X011549Y003922D01*
X011549Y004170D01*
X011549Y004003D02*
X012047Y004003D01*
X012047Y004084D02*
X011549Y004084D01*
X011549Y004165D02*
X012047Y004165D01*
X012047Y004670D02*
X011549Y004670D01*
X012047Y004670D02*
X012047Y004422D01*
X011549Y004422D01*
X011549Y004670D01*
X011549Y004503D02*
X012047Y004503D01*
X012047Y004584D02*
X011549Y004584D01*
X011549Y004665D02*
X012047Y004665D01*
X017522Y007897D02*
X017522Y008395D01*
X017522Y007897D02*
X017274Y007897D01*
X017274Y008395D01*
X017522Y008395D01*
X017522Y007978D02*
X017274Y007978D01*
X017274Y008059D02*
X017522Y008059D01*
X017522Y008140D02*
X017274Y008140D01*
X017274Y008221D02*
X017522Y008221D01*
X017522Y008302D02*
X017274Y008302D01*
X017274Y008383D02*
X017522Y008383D01*
X018022Y008395D02*
X018022Y007897D01*
X017774Y007897D01*
X017774Y008395D01*
X018022Y008395D01*
X018022Y007978D02*
X017774Y007978D01*
X017774Y008059D02*
X018022Y008059D01*
X018022Y008140D02*
X017774Y008140D01*
X017774Y008221D02*
X018022Y008221D01*
X018022Y008302D02*
X017774Y008302D01*
X017774Y008383D02*
X018022Y008383D01*
D18*
X022294Y005665D02*
X022294Y005267D01*
X022294Y005665D02*
X025442Y005665D01*
X025442Y005267D01*
X022294Y005267D01*
X022294Y005348D02*
X025442Y005348D01*
X025442Y005429D02*
X022294Y005429D01*
X022294Y005510D02*
X025442Y005510D01*
X025442Y005591D02*
X022294Y005591D01*
X022294Y004095D02*
X022294Y003697D01*
X022294Y004095D02*
X025442Y004095D01*
X025442Y003697D01*
X022294Y003697D01*
X022294Y003778D02*
X025442Y003778D01*
X025442Y003859D02*
X022294Y003859D01*
X022294Y003940D02*
X025442Y003940D01*
X025442Y004021D02*
X022294Y004021D01*
D19*
X022438Y003306D03*
X022738Y003306D03*
X023038Y003306D03*
X023338Y003306D03*
X023638Y003306D03*
X023938Y003306D03*
X024238Y003306D03*
X024538Y003306D03*
X024838Y003306D03*
X025138Y003306D03*
X025438Y003306D03*
X025438Y003006D03*
X025138Y003006D03*
X024838Y003006D03*
X024538Y003006D03*
X024238Y003006D03*
X023938Y003006D03*
X023638Y003006D03*
X023338Y003006D03*
X023038Y003006D03*
X022738Y003006D03*
X022438Y003006D03*
X022438Y002706D03*
X022738Y002706D03*
X023038Y002706D03*
X023338Y002706D03*
X023638Y002706D03*
X023938Y002706D03*
X024238Y002706D03*
X024538Y002706D03*
X024838Y002706D03*
X025138Y002706D03*
X025438Y002706D03*
X025438Y002406D03*
X025138Y002406D03*
X024838Y002406D03*
X024538Y002406D03*
X024238Y002406D03*
X023938Y002406D03*
X023638Y002406D03*
X023338Y002406D03*
X023038Y002406D03*
X022738Y002406D03*
X022438Y002406D03*
X023678Y000886D03*
X023978Y000886D03*
X024278Y000886D03*
X024578Y000886D03*
X024538Y006056D03*
X024838Y006056D03*
X025138Y006056D03*
X025438Y006056D03*
X025438Y006356D03*
X025138Y006356D03*
X024838Y006356D03*
X024538Y006356D03*
X024238Y006356D03*
X023938Y006356D03*
X023638Y006356D03*
X023338Y006356D03*
X023038Y006356D03*
X022738Y006356D03*
X022438Y006356D03*
X022438Y006656D03*
X022738Y006656D03*
X023038Y006656D03*
X023338Y006656D03*
X023638Y006656D03*
X023938Y006656D03*
X024238Y006656D03*
X024538Y006656D03*
X024838Y006656D03*
X025138Y006656D03*
X025438Y006656D03*
X025438Y006956D03*
X025138Y006956D03*
X024838Y006956D03*
X024538Y006956D03*
X024238Y006956D03*
X023938Y006956D03*
X023638Y006956D03*
X023338Y006956D03*
X023038Y006956D03*
X022738Y006956D03*
X022438Y006956D03*
X022438Y006056D03*
X022738Y006056D03*
X023038Y006056D03*
X023338Y006056D03*
X023638Y006056D03*
X023938Y006056D03*
X024238Y006056D03*
X024278Y008476D03*
X024578Y008476D03*
X023978Y008476D03*
X023678Y008476D03*
D20*
X022498Y008146D03*
X016398Y005846D03*
X015698Y005246D03*
X016198Y004946D03*
X016598Y004946D03*
X016598Y004046D03*
X015698Y003446D03*
X015098Y004046D03*
X013698Y004046D03*
X013598Y004446D03*
X013998Y003346D03*
X016698Y002046D03*
X017398Y001746D03*
X016098Y001696D03*
X021598Y001246D03*
X021698Y004746D03*
X016198Y007546D03*
X012798Y007146D03*
X012798Y006746D03*
X013098Y006046D03*
X008598Y004646D03*
X010198Y003246D03*
M02*
