G75*
G70*
%OFA0B0*%
%FSLAX24Y24*%
%IPPOS*%
%LPD*%
%AMOC8*
5,1,8,0,0,1.08239X$1,22.5*
%
%ADD10C,0.0000*%
%ADD11C,0.0060*%
%ADD12R,0.0669X0.0295*%
%ADD13C,0.0040*%
%ADD14R,0.0230X0.0180*%
%ADD15C,0.0010*%
%ADD16R,0.0230X0.0720*%
%ADD17R,0.0720X0.0230*%
%ADD18C,0.0120*%
%ADD19C,0.0050*%
%ADD20R,0.0600X0.0400*%
%ADD21C,0.0080*%
%ADD22R,0.0157X0.0157*%
D10*
X006098Y000746D02*
X025598Y000736D01*
X025598Y008616D01*
X006098Y008616D01*
X006098Y000746D01*
X006901Y003730D02*
X006903Y003759D01*
X006909Y003787D01*
X006918Y003815D01*
X006931Y003841D01*
X006948Y003864D01*
X006967Y003886D01*
X006989Y003905D01*
X007014Y003920D01*
X007040Y003933D01*
X007068Y003941D01*
X007096Y003946D01*
X007125Y003947D01*
X007154Y003944D01*
X007182Y003937D01*
X007209Y003927D01*
X007235Y003913D01*
X007258Y003896D01*
X007279Y003876D01*
X007297Y003853D01*
X007312Y003828D01*
X007323Y003801D01*
X007331Y003773D01*
X007335Y003744D01*
X007335Y003716D01*
X007331Y003687D01*
X007323Y003659D01*
X007312Y003632D01*
X007297Y003607D01*
X007279Y003584D01*
X007258Y003564D01*
X007235Y003547D01*
X007209Y003533D01*
X007182Y003523D01*
X007154Y003516D01*
X007125Y003513D01*
X007096Y003514D01*
X007068Y003519D01*
X007040Y003527D01*
X007014Y003540D01*
X006989Y003555D01*
X006967Y003574D01*
X006948Y003596D01*
X006931Y003619D01*
X006918Y003645D01*
X006909Y003673D01*
X006903Y003701D01*
X006901Y003730D01*
X006901Y005502D02*
X006903Y005531D01*
X006909Y005559D01*
X006918Y005587D01*
X006931Y005613D01*
X006948Y005636D01*
X006967Y005658D01*
X006989Y005677D01*
X007014Y005692D01*
X007040Y005705D01*
X007068Y005713D01*
X007096Y005718D01*
X007125Y005719D01*
X007154Y005716D01*
X007182Y005709D01*
X007209Y005699D01*
X007235Y005685D01*
X007258Y005668D01*
X007279Y005648D01*
X007297Y005625D01*
X007312Y005600D01*
X007323Y005573D01*
X007331Y005545D01*
X007335Y005516D01*
X007335Y005488D01*
X007331Y005459D01*
X007323Y005431D01*
X007312Y005404D01*
X007297Y005379D01*
X007279Y005356D01*
X007258Y005336D01*
X007235Y005319D01*
X007209Y005305D01*
X007182Y005295D01*
X007154Y005288D01*
X007125Y005285D01*
X007096Y005286D01*
X007068Y005291D01*
X007040Y005299D01*
X007014Y005312D01*
X006989Y005327D01*
X006967Y005346D01*
X006948Y005368D01*
X006931Y005391D01*
X006918Y005417D01*
X006909Y005445D01*
X006903Y005473D01*
X006901Y005502D01*
X022340Y006056D02*
X022342Y006075D01*
X022347Y006094D01*
X022357Y006110D01*
X022369Y006125D01*
X022384Y006137D01*
X022400Y006147D01*
X022419Y006152D01*
X022438Y006154D01*
X022457Y006152D01*
X022476Y006147D01*
X022492Y006137D01*
X022507Y006125D01*
X022519Y006110D01*
X022529Y006094D01*
X022534Y006075D01*
X022536Y006056D01*
X022534Y006037D01*
X022529Y006018D01*
X022519Y006002D01*
X022507Y005987D01*
X022492Y005975D01*
X022476Y005965D01*
X022457Y005960D01*
X022438Y005958D01*
X022419Y005960D01*
X022400Y005965D01*
X022384Y005975D01*
X022369Y005987D01*
X022357Y006002D01*
X022347Y006018D01*
X022342Y006037D01*
X022340Y006056D01*
X022640Y006056D02*
X022642Y006075D01*
X022647Y006094D01*
X022657Y006110D01*
X022669Y006125D01*
X022684Y006137D01*
X022700Y006147D01*
X022719Y006152D01*
X022738Y006154D01*
X022757Y006152D01*
X022776Y006147D01*
X022792Y006137D01*
X022807Y006125D01*
X022819Y006110D01*
X022829Y006094D01*
X022834Y006075D01*
X022836Y006056D01*
X022834Y006037D01*
X022829Y006018D01*
X022819Y006002D01*
X022807Y005987D01*
X022792Y005975D01*
X022776Y005965D01*
X022757Y005960D01*
X022738Y005958D01*
X022719Y005960D01*
X022700Y005965D01*
X022684Y005975D01*
X022669Y005987D01*
X022657Y006002D01*
X022647Y006018D01*
X022642Y006037D01*
X022640Y006056D01*
X022940Y006056D02*
X022942Y006075D01*
X022947Y006094D01*
X022957Y006110D01*
X022969Y006125D01*
X022984Y006137D01*
X023000Y006147D01*
X023019Y006152D01*
X023038Y006154D01*
X023057Y006152D01*
X023076Y006147D01*
X023092Y006137D01*
X023107Y006125D01*
X023119Y006110D01*
X023129Y006094D01*
X023134Y006075D01*
X023136Y006056D01*
X023134Y006037D01*
X023129Y006018D01*
X023119Y006002D01*
X023107Y005987D01*
X023092Y005975D01*
X023076Y005965D01*
X023057Y005960D01*
X023038Y005958D01*
X023019Y005960D01*
X023000Y005965D01*
X022984Y005975D01*
X022969Y005987D01*
X022957Y006002D01*
X022947Y006018D01*
X022942Y006037D01*
X022940Y006056D01*
X023240Y006056D02*
X023242Y006075D01*
X023247Y006094D01*
X023257Y006110D01*
X023269Y006125D01*
X023284Y006137D01*
X023300Y006147D01*
X023319Y006152D01*
X023338Y006154D01*
X023357Y006152D01*
X023376Y006147D01*
X023392Y006137D01*
X023407Y006125D01*
X023419Y006110D01*
X023429Y006094D01*
X023434Y006075D01*
X023436Y006056D01*
X023434Y006037D01*
X023429Y006018D01*
X023419Y006002D01*
X023407Y005987D01*
X023392Y005975D01*
X023376Y005965D01*
X023357Y005960D01*
X023338Y005958D01*
X023319Y005960D01*
X023300Y005965D01*
X023284Y005975D01*
X023269Y005987D01*
X023257Y006002D01*
X023247Y006018D01*
X023242Y006037D01*
X023240Y006056D01*
X023540Y006056D02*
X023542Y006075D01*
X023547Y006094D01*
X023557Y006110D01*
X023569Y006125D01*
X023584Y006137D01*
X023600Y006147D01*
X023619Y006152D01*
X023638Y006154D01*
X023657Y006152D01*
X023676Y006147D01*
X023692Y006137D01*
X023707Y006125D01*
X023719Y006110D01*
X023729Y006094D01*
X023734Y006075D01*
X023736Y006056D01*
X023734Y006037D01*
X023729Y006018D01*
X023719Y006002D01*
X023707Y005987D01*
X023692Y005975D01*
X023676Y005965D01*
X023657Y005960D01*
X023638Y005958D01*
X023619Y005960D01*
X023600Y005965D01*
X023584Y005975D01*
X023569Y005987D01*
X023557Y006002D01*
X023547Y006018D01*
X023542Y006037D01*
X023540Y006056D01*
X023840Y006056D02*
X023842Y006075D01*
X023847Y006094D01*
X023857Y006110D01*
X023869Y006125D01*
X023884Y006137D01*
X023900Y006147D01*
X023919Y006152D01*
X023938Y006154D01*
X023957Y006152D01*
X023976Y006147D01*
X023992Y006137D01*
X024007Y006125D01*
X024019Y006110D01*
X024029Y006094D01*
X024034Y006075D01*
X024036Y006056D01*
X024034Y006037D01*
X024029Y006018D01*
X024019Y006002D01*
X024007Y005987D01*
X023992Y005975D01*
X023976Y005965D01*
X023957Y005960D01*
X023938Y005958D01*
X023919Y005960D01*
X023900Y005965D01*
X023884Y005975D01*
X023869Y005987D01*
X023857Y006002D01*
X023847Y006018D01*
X023842Y006037D01*
X023840Y006056D01*
X024140Y006056D02*
X024142Y006075D01*
X024147Y006094D01*
X024157Y006110D01*
X024169Y006125D01*
X024184Y006137D01*
X024200Y006147D01*
X024219Y006152D01*
X024238Y006154D01*
X024257Y006152D01*
X024276Y006147D01*
X024292Y006137D01*
X024307Y006125D01*
X024319Y006110D01*
X024329Y006094D01*
X024334Y006075D01*
X024336Y006056D01*
X024334Y006037D01*
X024329Y006018D01*
X024319Y006002D01*
X024307Y005987D01*
X024292Y005975D01*
X024276Y005965D01*
X024257Y005960D01*
X024238Y005958D01*
X024219Y005960D01*
X024200Y005965D01*
X024184Y005975D01*
X024169Y005987D01*
X024157Y006002D01*
X024147Y006018D01*
X024142Y006037D01*
X024140Y006056D01*
X024440Y006056D02*
X024442Y006075D01*
X024447Y006094D01*
X024457Y006110D01*
X024469Y006125D01*
X024484Y006137D01*
X024500Y006147D01*
X024519Y006152D01*
X024538Y006154D01*
X024557Y006152D01*
X024576Y006147D01*
X024592Y006137D01*
X024607Y006125D01*
X024619Y006110D01*
X024629Y006094D01*
X024634Y006075D01*
X024636Y006056D01*
X024634Y006037D01*
X024629Y006018D01*
X024619Y006002D01*
X024607Y005987D01*
X024592Y005975D01*
X024576Y005965D01*
X024557Y005960D01*
X024538Y005958D01*
X024519Y005960D01*
X024500Y005965D01*
X024484Y005975D01*
X024469Y005987D01*
X024457Y006002D01*
X024447Y006018D01*
X024442Y006037D01*
X024440Y006056D01*
X024740Y006056D02*
X024742Y006075D01*
X024747Y006094D01*
X024757Y006110D01*
X024769Y006125D01*
X024784Y006137D01*
X024800Y006147D01*
X024819Y006152D01*
X024838Y006154D01*
X024857Y006152D01*
X024876Y006147D01*
X024892Y006137D01*
X024907Y006125D01*
X024919Y006110D01*
X024929Y006094D01*
X024934Y006075D01*
X024936Y006056D01*
X024934Y006037D01*
X024929Y006018D01*
X024919Y006002D01*
X024907Y005987D01*
X024892Y005975D01*
X024876Y005965D01*
X024857Y005960D01*
X024838Y005958D01*
X024819Y005960D01*
X024800Y005965D01*
X024784Y005975D01*
X024769Y005987D01*
X024757Y006002D01*
X024747Y006018D01*
X024742Y006037D01*
X024740Y006056D01*
X025040Y006056D02*
X025042Y006075D01*
X025047Y006094D01*
X025057Y006110D01*
X025069Y006125D01*
X025084Y006137D01*
X025100Y006147D01*
X025119Y006152D01*
X025138Y006154D01*
X025157Y006152D01*
X025176Y006147D01*
X025192Y006137D01*
X025207Y006125D01*
X025219Y006110D01*
X025229Y006094D01*
X025234Y006075D01*
X025236Y006056D01*
X025234Y006037D01*
X025229Y006018D01*
X025219Y006002D01*
X025207Y005987D01*
X025192Y005975D01*
X025176Y005965D01*
X025157Y005960D01*
X025138Y005958D01*
X025119Y005960D01*
X025100Y005965D01*
X025084Y005975D01*
X025069Y005987D01*
X025057Y006002D01*
X025047Y006018D01*
X025042Y006037D01*
X025040Y006056D01*
X025340Y006056D02*
X025342Y006075D01*
X025347Y006094D01*
X025357Y006110D01*
X025369Y006125D01*
X025384Y006137D01*
X025400Y006147D01*
X025419Y006152D01*
X025438Y006154D01*
X025457Y006152D01*
X025476Y006147D01*
X025492Y006137D01*
X025507Y006125D01*
X025519Y006110D01*
X025529Y006094D01*
X025534Y006075D01*
X025536Y006056D01*
X025534Y006037D01*
X025529Y006018D01*
X025519Y006002D01*
X025507Y005987D01*
X025492Y005975D01*
X025476Y005965D01*
X025457Y005960D01*
X025438Y005958D01*
X025419Y005960D01*
X025400Y005965D01*
X025384Y005975D01*
X025369Y005987D01*
X025357Y006002D01*
X025347Y006018D01*
X025342Y006037D01*
X025340Y006056D01*
X025340Y006356D02*
X025342Y006375D01*
X025347Y006394D01*
X025357Y006410D01*
X025369Y006425D01*
X025384Y006437D01*
X025400Y006447D01*
X025419Y006452D01*
X025438Y006454D01*
X025457Y006452D01*
X025476Y006447D01*
X025492Y006437D01*
X025507Y006425D01*
X025519Y006410D01*
X025529Y006394D01*
X025534Y006375D01*
X025536Y006356D01*
X025534Y006337D01*
X025529Y006318D01*
X025519Y006302D01*
X025507Y006287D01*
X025492Y006275D01*
X025476Y006265D01*
X025457Y006260D01*
X025438Y006258D01*
X025419Y006260D01*
X025400Y006265D01*
X025384Y006275D01*
X025369Y006287D01*
X025357Y006302D01*
X025347Y006318D01*
X025342Y006337D01*
X025340Y006356D01*
X025040Y006356D02*
X025042Y006375D01*
X025047Y006394D01*
X025057Y006410D01*
X025069Y006425D01*
X025084Y006437D01*
X025100Y006447D01*
X025119Y006452D01*
X025138Y006454D01*
X025157Y006452D01*
X025176Y006447D01*
X025192Y006437D01*
X025207Y006425D01*
X025219Y006410D01*
X025229Y006394D01*
X025234Y006375D01*
X025236Y006356D01*
X025234Y006337D01*
X025229Y006318D01*
X025219Y006302D01*
X025207Y006287D01*
X025192Y006275D01*
X025176Y006265D01*
X025157Y006260D01*
X025138Y006258D01*
X025119Y006260D01*
X025100Y006265D01*
X025084Y006275D01*
X025069Y006287D01*
X025057Y006302D01*
X025047Y006318D01*
X025042Y006337D01*
X025040Y006356D01*
X024740Y006356D02*
X024742Y006375D01*
X024747Y006394D01*
X024757Y006410D01*
X024769Y006425D01*
X024784Y006437D01*
X024800Y006447D01*
X024819Y006452D01*
X024838Y006454D01*
X024857Y006452D01*
X024876Y006447D01*
X024892Y006437D01*
X024907Y006425D01*
X024919Y006410D01*
X024929Y006394D01*
X024934Y006375D01*
X024936Y006356D01*
X024934Y006337D01*
X024929Y006318D01*
X024919Y006302D01*
X024907Y006287D01*
X024892Y006275D01*
X024876Y006265D01*
X024857Y006260D01*
X024838Y006258D01*
X024819Y006260D01*
X024800Y006265D01*
X024784Y006275D01*
X024769Y006287D01*
X024757Y006302D01*
X024747Y006318D01*
X024742Y006337D01*
X024740Y006356D01*
X024440Y006356D02*
X024442Y006375D01*
X024447Y006394D01*
X024457Y006410D01*
X024469Y006425D01*
X024484Y006437D01*
X024500Y006447D01*
X024519Y006452D01*
X024538Y006454D01*
X024557Y006452D01*
X024576Y006447D01*
X024592Y006437D01*
X024607Y006425D01*
X024619Y006410D01*
X024629Y006394D01*
X024634Y006375D01*
X024636Y006356D01*
X024634Y006337D01*
X024629Y006318D01*
X024619Y006302D01*
X024607Y006287D01*
X024592Y006275D01*
X024576Y006265D01*
X024557Y006260D01*
X024538Y006258D01*
X024519Y006260D01*
X024500Y006265D01*
X024484Y006275D01*
X024469Y006287D01*
X024457Y006302D01*
X024447Y006318D01*
X024442Y006337D01*
X024440Y006356D01*
X024140Y006356D02*
X024142Y006375D01*
X024147Y006394D01*
X024157Y006410D01*
X024169Y006425D01*
X024184Y006437D01*
X024200Y006447D01*
X024219Y006452D01*
X024238Y006454D01*
X024257Y006452D01*
X024276Y006447D01*
X024292Y006437D01*
X024307Y006425D01*
X024319Y006410D01*
X024329Y006394D01*
X024334Y006375D01*
X024336Y006356D01*
X024334Y006337D01*
X024329Y006318D01*
X024319Y006302D01*
X024307Y006287D01*
X024292Y006275D01*
X024276Y006265D01*
X024257Y006260D01*
X024238Y006258D01*
X024219Y006260D01*
X024200Y006265D01*
X024184Y006275D01*
X024169Y006287D01*
X024157Y006302D01*
X024147Y006318D01*
X024142Y006337D01*
X024140Y006356D01*
X023840Y006356D02*
X023842Y006375D01*
X023847Y006394D01*
X023857Y006410D01*
X023869Y006425D01*
X023884Y006437D01*
X023900Y006447D01*
X023919Y006452D01*
X023938Y006454D01*
X023957Y006452D01*
X023976Y006447D01*
X023992Y006437D01*
X024007Y006425D01*
X024019Y006410D01*
X024029Y006394D01*
X024034Y006375D01*
X024036Y006356D01*
X024034Y006337D01*
X024029Y006318D01*
X024019Y006302D01*
X024007Y006287D01*
X023992Y006275D01*
X023976Y006265D01*
X023957Y006260D01*
X023938Y006258D01*
X023919Y006260D01*
X023900Y006265D01*
X023884Y006275D01*
X023869Y006287D01*
X023857Y006302D01*
X023847Y006318D01*
X023842Y006337D01*
X023840Y006356D01*
X023540Y006356D02*
X023542Y006375D01*
X023547Y006394D01*
X023557Y006410D01*
X023569Y006425D01*
X023584Y006437D01*
X023600Y006447D01*
X023619Y006452D01*
X023638Y006454D01*
X023657Y006452D01*
X023676Y006447D01*
X023692Y006437D01*
X023707Y006425D01*
X023719Y006410D01*
X023729Y006394D01*
X023734Y006375D01*
X023736Y006356D01*
X023734Y006337D01*
X023729Y006318D01*
X023719Y006302D01*
X023707Y006287D01*
X023692Y006275D01*
X023676Y006265D01*
X023657Y006260D01*
X023638Y006258D01*
X023619Y006260D01*
X023600Y006265D01*
X023584Y006275D01*
X023569Y006287D01*
X023557Y006302D01*
X023547Y006318D01*
X023542Y006337D01*
X023540Y006356D01*
X023240Y006356D02*
X023242Y006375D01*
X023247Y006394D01*
X023257Y006410D01*
X023269Y006425D01*
X023284Y006437D01*
X023300Y006447D01*
X023319Y006452D01*
X023338Y006454D01*
X023357Y006452D01*
X023376Y006447D01*
X023392Y006437D01*
X023407Y006425D01*
X023419Y006410D01*
X023429Y006394D01*
X023434Y006375D01*
X023436Y006356D01*
X023434Y006337D01*
X023429Y006318D01*
X023419Y006302D01*
X023407Y006287D01*
X023392Y006275D01*
X023376Y006265D01*
X023357Y006260D01*
X023338Y006258D01*
X023319Y006260D01*
X023300Y006265D01*
X023284Y006275D01*
X023269Y006287D01*
X023257Y006302D01*
X023247Y006318D01*
X023242Y006337D01*
X023240Y006356D01*
X022940Y006356D02*
X022942Y006375D01*
X022947Y006394D01*
X022957Y006410D01*
X022969Y006425D01*
X022984Y006437D01*
X023000Y006447D01*
X023019Y006452D01*
X023038Y006454D01*
X023057Y006452D01*
X023076Y006447D01*
X023092Y006437D01*
X023107Y006425D01*
X023119Y006410D01*
X023129Y006394D01*
X023134Y006375D01*
X023136Y006356D01*
X023134Y006337D01*
X023129Y006318D01*
X023119Y006302D01*
X023107Y006287D01*
X023092Y006275D01*
X023076Y006265D01*
X023057Y006260D01*
X023038Y006258D01*
X023019Y006260D01*
X023000Y006265D01*
X022984Y006275D01*
X022969Y006287D01*
X022957Y006302D01*
X022947Y006318D01*
X022942Y006337D01*
X022940Y006356D01*
X022640Y006356D02*
X022642Y006375D01*
X022647Y006394D01*
X022657Y006410D01*
X022669Y006425D01*
X022684Y006437D01*
X022700Y006447D01*
X022719Y006452D01*
X022738Y006454D01*
X022757Y006452D01*
X022776Y006447D01*
X022792Y006437D01*
X022807Y006425D01*
X022819Y006410D01*
X022829Y006394D01*
X022834Y006375D01*
X022836Y006356D01*
X022834Y006337D01*
X022829Y006318D01*
X022819Y006302D01*
X022807Y006287D01*
X022792Y006275D01*
X022776Y006265D01*
X022757Y006260D01*
X022738Y006258D01*
X022719Y006260D01*
X022700Y006265D01*
X022684Y006275D01*
X022669Y006287D01*
X022657Y006302D01*
X022647Y006318D01*
X022642Y006337D01*
X022640Y006356D01*
X022340Y006356D02*
X022342Y006375D01*
X022347Y006394D01*
X022357Y006410D01*
X022369Y006425D01*
X022384Y006437D01*
X022400Y006447D01*
X022419Y006452D01*
X022438Y006454D01*
X022457Y006452D01*
X022476Y006447D01*
X022492Y006437D01*
X022507Y006425D01*
X022519Y006410D01*
X022529Y006394D01*
X022534Y006375D01*
X022536Y006356D01*
X022534Y006337D01*
X022529Y006318D01*
X022519Y006302D01*
X022507Y006287D01*
X022492Y006275D01*
X022476Y006265D01*
X022457Y006260D01*
X022438Y006258D01*
X022419Y006260D01*
X022400Y006265D01*
X022384Y006275D01*
X022369Y006287D01*
X022357Y006302D01*
X022347Y006318D01*
X022342Y006337D01*
X022340Y006356D01*
X022340Y006656D02*
X022342Y006675D01*
X022347Y006694D01*
X022357Y006710D01*
X022369Y006725D01*
X022384Y006737D01*
X022400Y006747D01*
X022419Y006752D01*
X022438Y006754D01*
X022457Y006752D01*
X022476Y006747D01*
X022492Y006737D01*
X022507Y006725D01*
X022519Y006710D01*
X022529Y006694D01*
X022534Y006675D01*
X022536Y006656D01*
X022534Y006637D01*
X022529Y006618D01*
X022519Y006602D01*
X022507Y006587D01*
X022492Y006575D01*
X022476Y006565D01*
X022457Y006560D01*
X022438Y006558D01*
X022419Y006560D01*
X022400Y006565D01*
X022384Y006575D01*
X022369Y006587D01*
X022357Y006602D01*
X022347Y006618D01*
X022342Y006637D01*
X022340Y006656D01*
X022640Y006656D02*
X022642Y006675D01*
X022647Y006694D01*
X022657Y006710D01*
X022669Y006725D01*
X022684Y006737D01*
X022700Y006747D01*
X022719Y006752D01*
X022738Y006754D01*
X022757Y006752D01*
X022776Y006747D01*
X022792Y006737D01*
X022807Y006725D01*
X022819Y006710D01*
X022829Y006694D01*
X022834Y006675D01*
X022836Y006656D01*
X022834Y006637D01*
X022829Y006618D01*
X022819Y006602D01*
X022807Y006587D01*
X022792Y006575D01*
X022776Y006565D01*
X022757Y006560D01*
X022738Y006558D01*
X022719Y006560D01*
X022700Y006565D01*
X022684Y006575D01*
X022669Y006587D01*
X022657Y006602D01*
X022647Y006618D01*
X022642Y006637D01*
X022640Y006656D01*
X022940Y006656D02*
X022942Y006675D01*
X022947Y006694D01*
X022957Y006710D01*
X022969Y006725D01*
X022984Y006737D01*
X023000Y006747D01*
X023019Y006752D01*
X023038Y006754D01*
X023057Y006752D01*
X023076Y006747D01*
X023092Y006737D01*
X023107Y006725D01*
X023119Y006710D01*
X023129Y006694D01*
X023134Y006675D01*
X023136Y006656D01*
X023134Y006637D01*
X023129Y006618D01*
X023119Y006602D01*
X023107Y006587D01*
X023092Y006575D01*
X023076Y006565D01*
X023057Y006560D01*
X023038Y006558D01*
X023019Y006560D01*
X023000Y006565D01*
X022984Y006575D01*
X022969Y006587D01*
X022957Y006602D01*
X022947Y006618D01*
X022942Y006637D01*
X022940Y006656D01*
X023240Y006656D02*
X023242Y006675D01*
X023247Y006694D01*
X023257Y006710D01*
X023269Y006725D01*
X023284Y006737D01*
X023300Y006747D01*
X023319Y006752D01*
X023338Y006754D01*
X023357Y006752D01*
X023376Y006747D01*
X023392Y006737D01*
X023407Y006725D01*
X023419Y006710D01*
X023429Y006694D01*
X023434Y006675D01*
X023436Y006656D01*
X023434Y006637D01*
X023429Y006618D01*
X023419Y006602D01*
X023407Y006587D01*
X023392Y006575D01*
X023376Y006565D01*
X023357Y006560D01*
X023338Y006558D01*
X023319Y006560D01*
X023300Y006565D01*
X023284Y006575D01*
X023269Y006587D01*
X023257Y006602D01*
X023247Y006618D01*
X023242Y006637D01*
X023240Y006656D01*
X023540Y006656D02*
X023542Y006675D01*
X023547Y006694D01*
X023557Y006710D01*
X023569Y006725D01*
X023584Y006737D01*
X023600Y006747D01*
X023619Y006752D01*
X023638Y006754D01*
X023657Y006752D01*
X023676Y006747D01*
X023692Y006737D01*
X023707Y006725D01*
X023719Y006710D01*
X023729Y006694D01*
X023734Y006675D01*
X023736Y006656D01*
X023734Y006637D01*
X023729Y006618D01*
X023719Y006602D01*
X023707Y006587D01*
X023692Y006575D01*
X023676Y006565D01*
X023657Y006560D01*
X023638Y006558D01*
X023619Y006560D01*
X023600Y006565D01*
X023584Y006575D01*
X023569Y006587D01*
X023557Y006602D01*
X023547Y006618D01*
X023542Y006637D01*
X023540Y006656D01*
X023840Y006656D02*
X023842Y006675D01*
X023847Y006694D01*
X023857Y006710D01*
X023869Y006725D01*
X023884Y006737D01*
X023900Y006747D01*
X023919Y006752D01*
X023938Y006754D01*
X023957Y006752D01*
X023976Y006747D01*
X023992Y006737D01*
X024007Y006725D01*
X024019Y006710D01*
X024029Y006694D01*
X024034Y006675D01*
X024036Y006656D01*
X024034Y006637D01*
X024029Y006618D01*
X024019Y006602D01*
X024007Y006587D01*
X023992Y006575D01*
X023976Y006565D01*
X023957Y006560D01*
X023938Y006558D01*
X023919Y006560D01*
X023900Y006565D01*
X023884Y006575D01*
X023869Y006587D01*
X023857Y006602D01*
X023847Y006618D01*
X023842Y006637D01*
X023840Y006656D01*
X024140Y006656D02*
X024142Y006675D01*
X024147Y006694D01*
X024157Y006710D01*
X024169Y006725D01*
X024184Y006737D01*
X024200Y006747D01*
X024219Y006752D01*
X024238Y006754D01*
X024257Y006752D01*
X024276Y006747D01*
X024292Y006737D01*
X024307Y006725D01*
X024319Y006710D01*
X024329Y006694D01*
X024334Y006675D01*
X024336Y006656D01*
X024334Y006637D01*
X024329Y006618D01*
X024319Y006602D01*
X024307Y006587D01*
X024292Y006575D01*
X024276Y006565D01*
X024257Y006560D01*
X024238Y006558D01*
X024219Y006560D01*
X024200Y006565D01*
X024184Y006575D01*
X024169Y006587D01*
X024157Y006602D01*
X024147Y006618D01*
X024142Y006637D01*
X024140Y006656D01*
X024440Y006656D02*
X024442Y006675D01*
X024447Y006694D01*
X024457Y006710D01*
X024469Y006725D01*
X024484Y006737D01*
X024500Y006747D01*
X024519Y006752D01*
X024538Y006754D01*
X024557Y006752D01*
X024576Y006747D01*
X024592Y006737D01*
X024607Y006725D01*
X024619Y006710D01*
X024629Y006694D01*
X024634Y006675D01*
X024636Y006656D01*
X024634Y006637D01*
X024629Y006618D01*
X024619Y006602D01*
X024607Y006587D01*
X024592Y006575D01*
X024576Y006565D01*
X024557Y006560D01*
X024538Y006558D01*
X024519Y006560D01*
X024500Y006565D01*
X024484Y006575D01*
X024469Y006587D01*
X024457Y006602D01*
X024447Y006618D01*
X024442Y006637D01*
X024440Y006656D01*
X024740Y006656D02*
X024742Y006675D01*
X024747Y006694D01*
X024757Y006710D01*
X024769Y006725D01*
X024784Y006737D01*
X024800Y006747D01*
X024819Y006752D01*
X024838Y006754D01*
X024857Y006752D01*
X024876Y006747D01*
X024892Y006737D01*
X024907Y006725D01*
X024919Y006710D01*
X024929Y006694D01*
X024934Y006675D01*
X024936Y006656D01*
X024934Y006637D01*
X024929Y006618D01*
X024919Y006602D01*
X024907Y006587D01*
X024892Y006575D01*
X024876Y006565D01*
X024857Y006560D01*
X024838Y006558D01*
X024819Y006560D01*
X024800Y006565D01*
X024784Y006575D01*
X024769Y006587D01*
X024757Y006602D01*
X024747Y006618D01*
X024742Y006637D01*
X024740Y006656D01*
X025040Y006656D02*
X025042Y006675D01*
X025047Y006694D01*
X025057Y006710D01*
X025069Y006725D01*
X025084Y006737D01*
X025100Y006747D01*
X025119Y006752D01*
X025138Y006754D01*
X025157Y006752D01*
X025176Y006747D01*
X025192Y006737D01*
X025207Y006725D01*
X025219Y006710D01*
X025229Y006694D01*
X025234Y006675D01*
X025236Y006656D01*
X025234Y006637D01*
X025229Y006618D01*
X025219Y006602D01*
X025207Y006587D01*
X025192Y006575D01*
X025176Y006565D01*
X025157Y006560D01*
X025138Y006558D01*
X025119Y006560D01*
X025100Y006565D01*
X025084Y006575D01*
X025069Y006587D01*
X025057Y006602D01*
X025047Y006618D01*
X025042Y006637D01*
X025040Y006656D01*
X025340Y006656D02*
X025342Y006675D01*
X025347Y006694D01*
X025357Y006710D01*
X025369Y006725D01*
X025384Y006737D01*
X025400Y006747D01*
X025419Y006752D01*
X025438Y006754D01*
X025457Y006752D01*
X025476Y006747D01*
X025492Y006737D01*
X025507Y006725D01*
X025519Y006710D01*
X025529Y006694D01*
X025534Y006675D01*
X025536Y006656D01*
X025534Y006637D01*
X025529Y006618D01*
X025519Y006602D01*
X025507Y006587D01*
X025492Y006575D01*
X025476Y006565D01*
X025457Y006560D01*
X025438Y006558D01*
X025419Y006560D01*
X025400Y006565D01*
X025384Y006575D01*
X025369Y006587D01*
X025357Y006602D01*
X025347Y006618D01*
X025342Y006637D01*
X025340Y006656D01*
X025340Y006956D02*
X025342Y006975D01*
X025347Y006994D01*
X025357Y007010D01*
X025369Y007025D01*
X025384Y007037D01*
X025400Y007047D01*
X025419Y007052D01*
X025438Y007054D01*
X025457Y007052D01*
X025476Y007047D01*
X025492Y007037D01*
X025507Y007025D01*
X025519Y007010D01*
X025529Y006994D01*
X025534Y006975D01*
X025536Y006956D01*
X025534Y006937D01*
X025529Y006918D01*
X025519Y006902D01*
X025507Y006887D01*
X025492Y006875D01*
X025476Y006865D01*
X025457Y006860D01*
X025438Y006858D01*
X025419Y006860D01*
X025400Y006865D01*
X025384Y006875D01*
X025369Y006887D01*
X025357Y006902D01*
X025347Y006918D01*
X025342Y006937D01*
X025340Y006956D01*
X025040Y006956D02*
X025042Y006975D01*
X025047Y006994D01*
X025057Y007010D01*
X025069Y007025D01*
X025084Y007037D01*
X025100Y007047D01*
X025119Y007052D01*
X025138Y007054D01*
X025157Y007052D01*
X025176Y007047D01*
X025192Y007037D01*
X025207Y007025D01*
X025219Y007010D01*
X025229Y006994D01*
X025234Y006975D01*
X025236Y006956D01*
X025234Y006937D01*
X025229Y006918D01*
X025219Y006902D01*
X025207Y006887D01*
X025192Y006875D01*
X025176Y006865D01*
X025157Y006860D01*
X025138Y006858D01*
X025119Y006860D01*
X025100Y006865D01*
X025084Y006875D01*
X025069Y006887D01*
X025057Y006902D01*
X025047Y006918D01*
X025042Y006937D01*
X025040Y006956D01*
X024740Y006956D02*
X024742Y006975D01*
X024747Y006994D01*
X024757Y007010D01*
X024769Y007025D01*
X024784Y007037D01*
X024800Y007047D01*
X024819Y007052D01*
X024838Y007054D01*
X024857Y007052D01*
X024876Y007047D01*
X024892Y007037D01*
X024907Y007025D01*
X024919Y007010D01*
X024929Y006994D01*
X024934Y006975D01*
X024936Y006956D01*
X024934Y006937D01*
X024929Y006918D01*
X024919Y006902D01*
X024907Y006887D01*
X024892Y006875D01*
X024876Y006865D01*
X024857Y006860D01*
X024838Y006858D01*
X024819Y006860D01*
X024800Y006865D01*
X024784Y006875D01*
X024769Y006887D01*
X024757Y006902D01*
X024747Y006918D01*
X024742Y006937D01*
X024740Y006956D01*
X024440Y006956D02*
X024442Y006975D01*
X024447Y006994D01*
X024457Y007010D01*
X024469Y007025D01*
X024484Y007037D01*
X024500Y007047D01*
X024519Y007052D01*
X024538Y007054D01*
X024557Y007052D01*
X024576Y007047D01*
X024592Y007037D01*
X024607Y007025D01*
X024619Y007010D01*
X024629Y006994D01*
X024634Y006975D01*
X024636Y006956D01*
X024634Y006937D01*
X024629Y006918D01*
X024619Y006902D01*
X024607Y006887D01*
X024592Y006875D01*
X024576Y006865D01*
X024557Y006860D01*
X024538Y006858D01*
X024519Y006860D01*
X024500Y006865D01*
X024484Y006875D01*
X024469Y006887D01*
X024457Y006902D01*
X024447Y006918D01*
X024442Y006937D01*
X024440Y006956D01*
X024140Y006956D02*
X024142Y006975D01*
X024147Y006994D01*
X024157Y007010D01*
X024169Y007025D01*
X024184Y007037D01*
X024200Y007047D01*
X024219Y007052D01*
X024238Y007054D01*
X024257Y007052D01*
X024276Y007047D01*
X024292Y007037D01*
X024307Y007025D01*
X024319Y007010D01*
X024329Y006994D01*
X024334Y006975D01*
X024336Y006956D01*
X024334Y006937D01*
X024329Y006918D01*
X024319Y006902D01*
X024307Y006887D01*
X024292Y006875D01*
X024276Y006865D01*
X024257Y006860D01*
X024238Y006858D01*
X024219Y006860D01*
X024200Y006865D01*
X024184Y006875D01*
X024169Y006887D01*
X024157Y006902D01*
X024147Y006918D01*
X024142Y006937D01*
X024140Y006956D01*
X023840Y006956D02*
X023842Y006975D01*
X023847Y006994D01*
X023857Y007010D01*
X023869Y007025D01*
X023884Y007037D01*
X023900Y007047D01*
X023919Y007052D01*
X023938Y007054D01*
X023957Y007052D01*
X023976Y007047D01*
X023992Y007037D01*
X024007Y007025D01*
X024019Y007010D01*
X024029Y006994D01*
X024034Y006975D01*
X024036Y006956D01*
X024034Y006937D01*
X024029Y006918D01*
X024019Y006902D01*
X024007Y006887D01*
X023992Y006875D01*
X023976Y006865D01*
X023957Y006860D01*
X023938Y006858D01*
X023919Y006860D01*
X023900Y006865D01*
X023884Y006875D01*
X023869Y006887D01*
X023857Y006902D01*
X023847Y006918D01*
X023842Y006937D01*
X023840Y006956D01*
X023540Y006956D02*
X023542Y006975D01*
X023547Y006994D01*
X023557Y007010D01*
X023569Y007025D01*
X023584Y007037D01*
X023600Y007047D01*
X023619Y007052D01*
X023638Y007054D01*
X023657Y007052D01*
X023676Y007047D01*
X023692Y007037D01*
X023707Y007025D01*
X023719Y007010D01*
X023729Y006994D01*
X023734Y006975D01*
X023736Y006956D01*
X023734Y006937D01*
X023729Y006918D01*
X023719Y006902D01*
X023707Y006887D01*
X023692Y006875D01*
X023676Y006865D01*
X023657Y006860D01*
X023638Y006858D01*
X023619Y006860D01*
X023600Y006865D01*
X023584Y006875D01*
X023569Y006887D01*
X023557Y006902D01*
X023547Y006918D01*
X023542Y006937D01*
X023540Y006956D01*
X023240Y006956D02*
X023242Y006975D01*
X023247Y006994D01*
X023257Y007010D01*
X023269Y007025D01*
X023284Y007037D01*
X023300Y007047D01*
X023319Y007052D01*
X023338Y007054D01*
X023357Y007052D01*
X023376Y007047D01*
X023392Y007037D01*
X023407Y007025D01*
X023419Y007010D01*
X023429Y006994D01*
X023434Y006975D01*
X023436Y006956D01*
X023434Y006937D01*
X023429Y006918D01*
X023419Y006902D01*
X023407Y006887D01*
X023392Y006875D01*
X023376Y006865D01*
X023357Y006860D01*
X023338Y006858D01*
X023319Y006860D01*
X023300Y006865D01*
X023284Y006875D01*
X023269Y006887D01*
X023257Y006902D01*
X023247Y006918D01*
X023242Y006937D01*
X023240Y006956D01*
X022940Y006956D02*
X022942Y006975D01*
X022947Y006994D01*
X022957Y007010D01*
X022969Y007025D01*
X022984Y007037D01*
X023000Y007047D01*
X023019Y007052D01*
X023038Y007054D01*
X023057Y007052D01*
X023076Y007047D01*
X023092Y007037D01*
X023107Y007025D01*
X023119Y007010D01*
X023129Y006994D01*
X023134Y006975D01*
X023136Y006956D01*
X023134Y006937D01*
X023129Y006918D01*
X023119Y006902D01*
X023107Y006887D01*
X023092Y006875D01*
X023076Y006865D01*
X023057Y006860D01*
X023038Y006858D01*
X023019Y006860D01*
X023000Y006865D01*
X022984Y006875D01*
X022969Y006887D01*
X022957Y006902D01*
X022947Y006918D01*
X022942Y006937D01*
X022940Y006956D01*
X022640Y006956D02*
X022642Y006975D01*
X022647Y006994D01*
X022657Y007010D01*
X022669Y007025D01*
X022684Y007037D01*
X022700Y007047D01*
X022719Y007052D01*
X022738Y007054D01*
X022757Y007052D01*
X022776Y007047D01*
X022792Y007037D01*
X022807Y007025D01*
X022819Y007010D01*
X022829Y006994D01*
X022834Y006975D01*
X022836Y006956D01*
X022834Y006937D01*
X022829Y006918D01*
X022819Y006902D01*
X022807Y006887D01*
X022792Y006875D01*
X022776Y006865D01*
X022757Y006860D01*
X022738Y006858D01*
X022719Y006860D01*
X022700Y006865D01*
X022684Y006875D01*
X022669Y006887D01*
X022657Y006902D01*
X022647Y006918D01*
X022642Y006937D01*
X022640Y006956D01*
X022340Y006956D02*
X022342Y006975D01*
X022347Y006994D01*
X022357Y007010D01*
X022369Y007025D01*
X022384Y007037D01*
X022400Y007047D01*
X022419Y007052D01*
X022438Y007054D01*
X022457Y007052D01*
X022476Y007047D01*
X022492Y007037D01*
X022507Y007025D01*
X022519Y007010D01*
X022529Y006994D01*
X022534Y006975D01*
X022536Y006956D01*
X022534Y006937D01*
X022529Y006918D01*
X022519Y006902D01*
X022507Y006887D01*
X022492Y006875D01*
X022476Y006865D01*
X022457Y006860D01*
X022438Y006858D01*
X022419Y006860D01*
X022400Y006865D01*
X022384Y006875D01*
X022369Y006887D01*
X022357Y006902D01*
X022347Y006918D01*
X022342Y006937D01*
X022340Y006956D01*
X023580Y008476D02*
X023582Y008495D01*
X023587Y008514D01*
X023597Y008530D01*
X023609Y008545D01*
X023624Y008557D01*
X023640Y008567D01*
X023659Y008572D01*
X023678Y008574D01*
X023697Y008572D01*
X023716Y008567D01*
X023732Y008557D01*
X023747Y008545D01*
X023759Y008530D01*
X023769Y008514D01*
X023774Y008495D01*
X023776Y008476D01*
X023774Y008457D01*
X023769Y008438D01*
X023759Y008422D01*
X023747Y008407D01*
X023732Y008395D01*
X023716Y008385D01*
X023697Y008380D01*
X023678Y008378D01*
X023659Y008380D01*
X023640Y008385D01*
X023624Y008395D01*
X023609Y008407D01*
X023597Y008422D01*
X023587Y008438D01*
X023582Y008457D01*
X023580Y008476D01*
X023880Y008476D02*
X023882Y008495D01*
X023887Y008514D01*
X023897Y008530D01*
X023909Y008545D01*
X023924Y008557D01*
X023940Y008567D01*
X023959Y008572D01*
X023978Y008574D01*
X023997Y008572D01*
X024016Y008567D01*
X024032Y008557D01*
X024047Y008545D01*
X024059Y008530D01*
X024069Y008514D01*
X024074Y008495D01*
X024076Y008476D01*
X024074Y008457D01*
X024069Y008438D01*
X024059Y008422D01*
X024047Y008407D01*
X024032Y008395D01*
X024016Y008385D01*
X023997Y008380D01*
X023978Y008378D01*
X023959Y008380D01*
X023940Y008385D01*
X023924Y008395D01*
X023909Y008407D01*
X023897Y008422D01*
X023887Y008438D01*
X023882Y008457D01*
X023880Y008476D01*
X024180Y008476D02*
X024182Y008495D01*
X024187Y008514D01*
X024197Y008530D01*
X024209Y008545D01*
X024224Y008557D01*
X024240Y008567D01*
X024259Y008572D01*
X024278Y008574D01*
X024297Y008572D01*
X024316Y008567D01*
X024332Y008557D01*
X024347Y008545D01*
X024359Y008530D01*
X024369Y008514D01*
X024374Y008495D01*
X024376Y008476D01*
X024374Y008457D01*
X024369Y008438D01*
X024359Y008422D01*
X024347Y008407D01*
X024332Y008395D01*
X024316Y008385D01*
X024297Y008380D01*
X024278Y008378D01*
X024259Y008380D01*
X024240Y008385D01*
X024224Y008395D01*
X024209Y008407D01*
X024197Y008422D01*
X024187Y008438D01*
X024182Y008457D01*
X024180Y008476D01*
X024480Y008476D02*
X024482Y008495D01*
X024487Y008514D01*
X024497Y008530D01*
X024509Y008545D01*
X024524Y008557D01*
X024540Y008567D01*
X024559Y008572D01*
X024578Y008574D01*
X024597Y008572D01*
X024616Y008567D01*
X024632Y008557D01*
X024647Y008545D01*
X024659Y008530D01*
X024669Y008514D01*
X024674Y008495D01*
X024676Y008476D01*
X024674Y008457D01*
X024669Y008438D01*
X024659Y008422D01*
X024647Y008407D01*
X024632Y008395D01*
X024616Y008385D01*
X024597Y008380D01*
X024578Y008378D01*
X024559Y008380D01*
X024540Y008385D01*
X024524Y008395D01*
X024509Y008407D01*
X024497Y008422D01*
X024487Y008438D01*
X024482Y008457D01*
X024480Y008476D01*
X024440Y003306D02*
X024442Y003325D01*
X024447Y003344D01*
X024457Y003360D01*
X024469Y003375D01*
X024484Y003387D01*
X024500Y003397D01*
X024519Y003402D01*
X024538Y003404D01*
X024557Y003402D01*
X024576Y003397D01*
X024592Y003387D01*
X024607Y003375D01*
X024619Y003360D01*
X024629Y003344D01*
X024634Y003325D01*
X024636Y003306D01*
X024634Y003287D01*
X024629Y003268D01*
X024619Y003252D01*
X024607Y003237D01*
X024592Y003225D01*
X024576Y003215D01*
X024557Y003210D01*
X024538Y003208D01*
X024519Y003210D01*
X024500Y003215D01*
X024484Y003225D01*
X024469Y003237D01*
X024457Y003252D01*
X024447Y003268D01*
X024442Y003287D01*
X024440Y003306D01*
X024140Y003306D02*
X024142Y003325D01*
X024147Y003344D01*
X024157Y003360D01*
X024169Y003375D01*
X024184Y003387D01*
X024200Y003397D01*
X024219Y003402D01*
X024238Y003404D01*
X024257Y003402D01*
X024276Y003397D01*
X024292Y003387D01*
X024307Y003375D01*
X024319Y003360D01*
X024329Y003344D01*
X024334Y003325D01*
X024336Y003306D01*
X024334Y003287D01*
X024329Y003268D01*
X024319Y003252D01*
X024307Y003237D01*
X024292Y003225D01*
X024276Y003215D01*
X024257Y003210D01*
X024238Y003208D01*
X024219Y003210D01*
X024200Y003215D01*
X024184Y003225D01*
X024169Y003237D01*
X024157Y003252D01*
X024147Y003268D01*
X024142Y003287D01*
X024140Y003306D01*
X023840Y003306D02*
X023842Y003325D01*
X023847Y003344D01*
X023857Y003360D01*
X023869Y003375D01*
X023884Y003387D01*
X023900Y003397D01*
X023919Y003402D01*
X023938Y003404D01*
X023957Y003402D01*
X023976Y003397D01*
X023992Y003387D01*
X024007Y003375D01*
X024019Y003360D01*
X024029Y003344D01*
X024034Y003325D01*
X024036Y003306D01*
X024034Y003287D01*
X024029Y003268D01*
X024019Y003252D01*
X024007Y003237D01*
X023992Y003225D01*
X023976Y003215D01*
X023957Y003210D01*
X023938Y003208D01*
X023919Y003210D01*
X023900Y003215D01*
X023884Y003225D01*
X023869Y003237D01*
X023857Y003252D01*
X023847Y003268D01*
X023842Y003287D01*
X023840Y003306D01*
X023540Y003306D02*
X023542Y003325D01*
X023547Y003344D01*
X023557Y003360D01*
X023569Y003375D01*
X023584Y003387D01*
X023600Y003397D01*
X023619Y003402D01*
X023638Y003404D01*
X023657Y003402D01*
X023676Y003397D01*
X023692Y003387D01*
X023707Y003375D01*
X023719Y003360D01*
X023729Y003344D01*
X023734Y003325D01*
X023736Y003306D01*
X023734Y003287D01*
X023729Y003268D01*
X023719Y003252D01*
X023707Y003237D01*
X023692Y003225D01*
X023676Y003215D01*
X023657Y003210D01*
X023638Y003208D01*
X023619Y003210D01*
X023600Y003215D01*
X023584Y003225D01*
X023569Y003237D01*
X023557Y003252D01*
X023547Y003268D01*
X023542Y003287D01*
X023540Y003306D01*
X023240Y003306D02*
X023242Y003325D01*
X023247Y003344D01*
X023257Y003360D01*
X023269Y003375D01*
X023284Y003387D01*
X023300Y003397D01*
X023319Y003402D01*
X023338Y003404D01*
X023357Y003402D01*
X023376Y003397D01*
X023392Y003387D01*
X023407Y003375D01*
X023419Y003360D01*
X023429Y003344D01*
X023434Y003325D01*
X023436Y003306D01*
X023434Y003287D01*
X023429Y003268D01*
X023419Y003252D01*
X023407Y003237D01*
X023392Y003225D01*
X023376Y003215D01*
X023357Y003210D01*
X023338Y003208D01*
X023319Y003210D01*
X023300Y003215D01*
X023284Y003225D01*
X023269Y003237D01*
X023257Y003252D01*
X023247Y003268D01*
X023242Y003287D01*
X023240Y003306D01*
X022940Y003306D02*
X022942Y003325D01*
X022947Y003344D01*
X022957Y003360D01*
X022969Y003375D01*
X022984Y003387D01*
X023000Y003397D01*
X023019Y003402D01*
X023038Y003404D01*
X023057Y003402D01*
X023076Y003397D01*
X023092Y003387D01*
X023107Y003375D01*
X023119Y003360D01*
X023129Y003344D01*
X023134Y003325D01*
X023136Y003306D01*
X023134Y003287D01*
X023129Y003268D01*
X023119Y003252D01*
X023107Y003237D01*
X023092Y003225D01*
X023076Y003215D01*
X023057Y003210D01*
X023038Y003208D01*
X023019Y003210D01*
X023000Y003215D01*
X022984Y003225D01*
X022969Y003237D01*
X022957Y003252D01*
X022947Y003268D01*
X022942Y003287D01*
X022940Y003306D01*
X022640Y003306D02*
X022642Y003325D01*
X022647Y003344D01*
X022657Y003360D01*
X022669Y003375D01*
X022684Y003387D01*
X022700Y003397D01*
X022719Y003402D01*
X022738Y003404D01*
X022757Y003402D01*
X022776Y003397D01*
X022792Y003387D01*
X022807Y003375D01*
X022819Y003360D01*
X022829Y003344D01*
X022834Y003325D01*
X022836Y003306D01*
X022834Y003287D01*
X022829Y003268D01*
X022819Y003252D01*
X022807Y003237D01*
X022792Y003225D01*
X022776Y003215D01*
X022757Y003210D01*
X022738Y003208D01*
X022719Y003210D01*
X022700Y003215D01*
X022684Y003225D01*
X022669Y003237D01*
X022657Y003252D01*
X022647Y003268D01*
X022642Y003287D01*
X022640Y003306D01*
X022340Y003306D02*
X022342Y003325D01*
X022347Y003344D01*
X022357Y003360D01*
X022369Y003375D01*
X022384Y003387D01*
X022400Y003397D01*
X022419Y003402D01*
X022438Y003404D01*
X022457Y003402D01*
X022476Y003397D01*
X022492Y003387D01*
X022507Y003375D01*
X022519Y003360D01*
X022529Y003344D01*
X022534Y003325D01*
X022536Y003306D01*
X022534Y003287D01*
X022529Y003268D01*
X022519Y003252D01*
X022507Y003237D01*
X022492Y003225D01*
X022476Y003215D01*
X022457Y003210D01*
X022438Y003208D01*
X022419Y003210D01*
X022400Y003215D01*
X022384Y003225D01*
X022369Y003237D01*
X022357Y003252D01*
X022347Y003268D01*
X022342Y003287D01*
X022340Y003306D01*
X022340Y003006D02*
X022342Y003025D01*
X022347Y003044D01*
X022357Y003060D01*
X022369Y003075D01*
X022384Y003087D01*
X022400Y003097D01*
X022419Y003102D01*
X022438Y003104D01*
X022457Y003102D01*
X022476Y003097D01*
X022492Y003087D01*
X022507Y003075D01*
X022519Y003060D01*
X022529Y003044D01*
X022534Y003025D01*
X022536Y003006D01*
X022534Y002987D01*
X022529Y002968D01*
X022519Y002952D01*
X022507Y002937D01*
X022492Y002925D01*
X022476Y002915D01*
X022457Y002910D01*
X022438Y002908D01*
X022419Y002910D01*
X022400Y002915D01*
X022384Y002925D01*
X022369Y002937D01*
X022357Y002952D01*
X022347Y002968D01*
X022342Y002987D01*
X022340Y003006D01*
X022640Y003006D02*
X022642Y003025D01*
X022647Y003044D01*
X022657Y003060D01*
X022669Y003075D01*
X022684Y003087D01*
X022700Y003097D01*
X022719Y003102D01*
X022738Y003104D01*
X022757Y003102D01*
X022776Y003097D01*
X022792Y003087D01*
X022807Y003075D01*
X022819Y003060D01*
X022829Y003044D01*
X022834Y003025D01*
X022836Y003006D01*
X022834Y002987D01*
X022829Y002968D01*
X022819Y002952D01*
X022807Y002937D01*
X022792Y002925D01*
X022776Y002915D01*
X022757Y002910D01*
X022738Y002908D01*
X022719Y002910D01*
X022700Y002915D01*
X022684Y002925D01*
X022669Y002937D01*
X022657Y002952D01*
X022647Y002968D01*
X022642Y002987D01*
X022640Y003006D01*
X022940Y003006D02*
X022942Y003025D01*
X022947Y003044D01*
X022957Y003060D01*
X022969Y003075D01*
X022984Y003087D01*
X023000Y003097D01*
X023019Y003102D01*
X023038Y003104D01*
X023057Y003102D01*
X023076Y003097D01*
X023092Y003087D01*
X023107Y003075D01*
X023119Y003060D01*
X023129Y003044D01*
X023134Y003025D01*
X023136Y003006D01*
X023134Y002987D01*
X023129Y002968D01*
X023119Y002952D01*
X023107Y002937D01*
X023092Y002925D01*
X023076Y002915D01*
X023057Y002910D01*
X023038Y002908D01*
X023019Y002910D01*
X023000Y002915D01*
X022984Y002925D01*
X022969Y002937D01*
X022957Y002952D01*
X022947Y002968D01*
X022942Y002987D01*
X022940Y003006D01*
X023240Y003006D02*
X023242Y003025D01*
X023247Y003044D01*
X023257Y003060D01*
X023269Y003075D01*
X023284Y003087D01*
X023300Y003097D01*
X023319Y003102D01*
X023338Y003104D01*
X023357Y003102D01*
X023376Y003097D01*
X023392Y003087D01*
X023407Y003075D01*
X023419Y003060D01*
X023429Y003044D01*
X023434Y003025D01*
X023436Y003006D01*
X023434Y002987D01*
X023429Y002968D01*
X023419Y002952D01*
X023407Y002937D01*
X023392Y002925D01*
X023376Y002915D01*
X023357Y002910D01*
X023338Y002908D01*
X023319Y002910D01*
X023300Y002915D01*
X023284Y002925D01*
X023269Y002937D01*
X023257Y002952D01*
X023247Y002968D01*
X023242Y002987D01*
X023240Y003006D01*
X023540Y003006D02*
X023542Y003025D01*
X023547Y003044D01*
X023557Y003060D01*
X023569Y003075D01*
X023584Y003087D01*
X023600Y003097D01*
X023619Y003102D01*
X023638Y003104D01*
X023657Y003102D01*
X023676Y003097D01*
X023692Y003087D01*
X023707Y003075D01*
X023719Y003060D01*
X023729Y003044D01*
X023734Y003025D01*
X023736Y003006D01*
X023734Y002987D01*
X023729Y002968D01*
X023719Y002952D01*
X023707Y002937D01*
X023692Y002925D01*
X023676Y002915D01*
X023657Y002910D01*
X023638Y002908D01*
X023619Y002910D01*
X023600Y002915D01*
X023584Y002925D01*
X023569Y002937D01*
X023557Y002952D01*
X023547Y002968D01*
X023542Y002987D01*
X023540Y003006D01*
X023840Y003006D02*
X023842Y003025D01*
X023847Y003044D01*
X023857Y003060D01*
X023869Y003075D01*
X023884Y003087D01*
X023900Y003097D01*
X023919Y003102D01*
X023938Y003104D01*
X023957Y003102D01*
X023976Y003097D01*
X023992Y003087D01*
X024007Y003075D01*
X024019Y003060D01*
X024029Y003044D01*
X024034Y003025D01*
X024036Y003006D01*
X024034Y002987D01*
X024029Y002968D01*
X024019Y002952D01*
X024007Y002937D01*
X023992Y002925D01*
X023976Y002915D01*
X023957Y002910D01*
X023938Y002908D01*
X023919Y002910D01*
X023900Y002915D01*
X023884Y002925D01*
X023869Y002937D01*
X023857Y002952D01*
X023847Y002968D01*
X023842Y002987D01*
X023840Y003006D01*
X024140Y003006D02*
X024142Y003025D01*
X024147Y003044D01*
X024157Y003060D01*
X024169Y003075D01*
X024184Y003087D01*
X024200Y003097D01*
X024219Y003102D01*
X024238Y003104D01*
X024257Y003102D01*
X024276Y003097D01*
X024292Y003087D01*
X024307Y003075D01*
X024319Y003060D01*
X024329Y003044D01*
X024334Y003025D01*
X024336Y003006D01*
X024334Y002987D01*
X024329Y002968D01*
X024319Y002952D01*
X024307Y002937D01*
X024292Y002925D01*
X024276Y002915D01*
X024257Y002910D01*
X024238Y002908D01*
X024219Y002910D01*
X024200Y002915D01*
X024184Y002925D01*
X024169Y002937D01*
X024157Y002952D01*
X024147Y002968D01*
X024142Y002987D01*
X024140Y003006D01*
X024440Y003006D02*
X024442Y003025D01*
X024447Y003044D01*
X024457Y003060D01*
X024469Y003075D01*
X024484Y003087D01*
X024500Y003097D01*
X024519Y003102D01*
X024538Y003104D01*
X024557Y003102D01*
X024576Y003097D01*
X024592Y003087D01*
X024607Y003075D01*
X024619Y003060D01*
X024629Y003044D01*
X024634Y003025D01*
X024636Y003006D01*
X024634Y002987D01*
X024629Y002968D01*
X024619Y002952D01*
X024607Y002937D01*
X024592Y002925D01*
X024576Y002915D01*
X024557Y002910D01*
X024538Y002908D01*
X024519Y002910D01*
X024500Y002915D01*
X024484Y002925D01*
X024469Y002937D01*
X024457Y002952D01*
X024447Y002968D01*
X024442Y002987D01*
X024440Y003006D01*
X024740Y003006D02*
X024742Y003025D01*
X024747Y003044D01*
X024757Y003060D01*
X024769Y003075D01*
X024784Y003087D01*
X024800Y003097D01*
X024819Y003102D01*
X024838Y003104D01*
X024857Y003102D01*
X024876Y003097D01*
X024892Y003087D01*
X024907Y003075D01*
X024919Y003060D01*
X024929Y003044D01*
X024934Y003025D01*
X024936Y003006D01*
X024934Y002987D01*
X024929Y002968D01*
X024919Y002952D01*
X024907Y002937D01*
X024892Y002925D01*
X024876Y002915D01*
X024857Y002910D01*
X024838Y002908D01*
X024819Y002910D01*
X024800Y002915D01*
X024784Y002925D01*
X024769Y002937D01*
X024757Y002952D01*
X024747Y002968D01*
X024742Y002987D01*
X024740Y003006D01*
X025040Y003006D02*
X025042Y003025D01*
X025047Y003044D01*
X025057Y003060D01*
X025069Y003075D01*
X025084Y003087D01*
X025100Y003097D01*
X025119Y003102D01*
X025138Y003104D01*
X025157Y003102D01*
X025176Y003097D01*
X025192Y003087D01*
X025207Y003075D01*
X025219Y003060D01*
X025229Y003044D01*
X025234Y003025D01*
X025236Y003006D01*
X025234Y002987D01*
X025229Y002968D01*
X025219Y002952D01*
X025207Y002937D01*
X025192Y002925D01*
X025176Y002915D01*
X025157Y002910D01*
X025138Y002908D01*
X025119Y002910D01*
X025100Y002915D01*
X025084Y002925D01*
X025069Y002937D01*
X025057Y002952D01*
X025047Y002968D01*
X025042Y002987D01*
X025040Y003006D01*
X025340Y003006D02*
X025342Y003025D01*
X025347Y003044D01*
X025357Y003060D01*
X025369Y003075D01*
X025384Y003087D01*
X025400Y003097D01*
X025419Y003102D01*
X025438Y003104D01*
X025457Y003102D01*
X025476Y003097D01*
X025492Y003087D01*
X025507Y003075D01*
X025519Y003060D01*
X025529Y003044D01*
X025534Y003025D01*
X025536Y003006D01*
X025534Y002987D01*
X025529Y002968D01*
X025519Y002952D01*
X025507Y002937D01*
X025492Y002925D01*
X025476Y002915D01*
X025457Y002910D01*
X025438Y002908D01*
X025419Y002910D01*
X025400Y002915D01*
X025384Y002925D01*
X025369Y002937D01*
X025357Y002952D01*
X025347Y002968D01*
X025342Y002987D01*
X025340Y003006D01*
X025340Y003306D02*
X025342Y003325D01*
X025347Y003344D01*
X025357Y003360D01*
X025369Y003375D01*
X025384Y003387D01*
X025400Y003397D01*
X025419Y003402D01*
X025438Y003404D01*
X025457Y003402D01*
X025476Y003397D01*
X025492Y003387D01*
X025507Y003375D01*
X025519Y003360D01*
X025529Y003344D01*
X025534Y003325D01*
X025536Y003306D01*
X025534Y003287D01*
X025529Y003268D01*
X025519Y003252D01*
X025507Y003237D01*
X025492Y003225D01*
X025476Y003215D01*
X025457Y003210D01*
X025438Y003208D01*
X025419Y003210D01*
X025400Y003215D01*
X025384Y003225D01*
X025369Y003237D01*
X025357Y003252D01*
X025347Y003268D01*
X025342Y003287D01*
X025340Y003306D01*
X025040Y003306D02*
X025042Y003325D01*
X025047Y003344D01*
X025057Y003360D01*
X025069Y003375D01*
X025084Y003387D01*
X025100Y003397D01*
X025119Y003402D01*
X025138Y003404D01*
X025157Y003402D01*
X025176Y003397D01*
X025192Y003387D01*
X025207Y003375D01*
X025219Y003360D01*
X025229Y003344D01*
X025234Y003325D01*
X025236Y003306D01*
X025234Y003287D01*
X025229Y003268D01*
X025219Y003252D01*
X025207Y003237D01*
X025192Y003225D01*
X025176Y003215D01*
X025157Y003210D01*
X025138Y003208D01*
X025119Y003210D01*
X025100Y003215D01*
X025084Y003225D01*
X025069Y003237D01*
X025057Y003252D01*
X025047Y003268D01*
X025042Y003287D01*
X025040Y003306D01*
X024740Y003306D02*
X024742Y003325D01*
X024747Y003344D01*
X024757Y003360D01*
X024769Y003375D01*
X024784Y003387D01*
X024800Y003397D01*
X024819Y003402D01*
X024838Y003404D01*
X024857Y003402D01*
X024876Y003397D01*
X024892Y003387D01*
X024907Y003375D01*
X024919Y003360D01*
X024929Y003344D01*
X024934Y003325D01*
X024936Y003306D01*
X024934Y003287D01*
X024929Y003268D01*
X024919Y003252D01*
X024907Y003237D01*
X024892Y003225D01*
X024876Y003215D01*
X024857Y003210D01*
X024838Y003208D01*
X024819Y003210D01*
X024800Y003215D01*
X024784Y003225D01*
X024769Y003237D01*
X024757Y003252D01*
X024747Y003268D01*
X024742Y003287D01*
X024740Y003306D01*
X024740Y002706D02*
X024742Y002725D01*
X024747Y002744D01*
X024757Y002760D01*
X024769Y002775D01*
X024784Y002787D01*
X024800Y002797D01*
X024819Y002802D01*
X024838Y002804D01*
X024857Y002802D01*
X024876Y002797D01*
X024892Y002787D01*
X024907Y002775D01*
X024919Y002760D01*
X024929Y002744D01*
X024934Y002725D01*
X024936Y002706D01*
X024934Y002687D01*
X024929Y002668D01*
X024919Y002652D01*
X024907Y002637D01*
X024892Y002625D01*
X024876Y002615D01*
X024857Y002610D01*
X024838Y002608D01*
X024819Y002610D01*
X024800Y002615D01*
X024784Y002625D01*
X024769Y002637D01*
X024757Y002652D01*
X024747Y002668D01*
X024742Y002687D01*
X024740Y002706D01*
X024440Y002706D02*
X024442Y002725D01*
X024447Y002744D01*
X024457Y002760D01*
X024469Y002775D01*
X024484Y002787D01*
X024500Y002797D01*
X024519Y002802D01*
X024538Y002804D01*
X024557Y002802D01*
X024576Y002797D01*
X024592Y002787D01*
X024607Y002775D01*
X024619Y002760D01*
X024629Y002744D01*
X024634Y002725D01*
X024636Y002706D01*
X024634Y002687D01*
X024629Y002668D01*
X024619Y002652D01*
X024607Y002637D01*
X024592Y002625D01*
X024576Y002615D01*
X024557Y002610D01*
X024538Y002608D01*
X024519Y002610D01*
X024500Y002615D01*
X024484Y002625D01*
X024469Y002637D01*
X024457Y002652D01*
X024447Y002668D01*
X024442Y002687D01*
X024440Y002706D01*
X024140Y002706D02*
X024142Y002725D01*
X024147Y002744D01*
X024157Y002760D01*
X024169Y002775D01*
X024184Y002787D01*
X024200Y002797D01*
X024219Y002802D01*
X024238Y002804D01*
X024257Y002802D01*
X024276Y002797D01*
X024292Y002787D01*
X024307Y002775D01*
X024319Y002760D01*
X024329Y002744D01*
X024334Y002725D01*
X024336Y002706D01*
X024334Y002687D01*
X024329Y002668D01*
X024319Y002652D01*
X024307Y002637D01*
X024292Y002625D01*
X024276Y002615D01*
X024257Y002610D01*
X024238Y002608D01*
X024219Y002610D01*
X024200Y002615D01*
X024184Y002625D01*
X024169Y002637D01*
X024157Y002652D01*
X024147Y002668D01*
X024142Y002687D01*
X024140Y002706D01*
X023840Y002706D02*
X023842Y002725D01*
X023847Y002744D01*
X023857Y002760D01*
X023869Y002775D01*
X023884Y002787D01*
X023900Y002797D01*
X023919Y002802D01*
X023938Y002804D01*
X023957Y002802D01*
X023976Y002797D01*
X023992Y002787D01*
X024007Y002775D01*
X024019Y002760D01*
X024029Y002744D01*
X024034Y002725D01*
X024036Y002706D01*
X024034Y002687D01*
X024029Y002668D01*
X024019Y002652D01*
X024007Y002637D01*
X023992Y002625D01*
X023976Y002615D01*
X023957Y002610D01*
X023938Y002608D01*
X023919Y002610D01*
X023900Y002615D01*
X023884Y002625D01*
X023869Y002637D01*
X023857Y002652D01*
X023847Y002668D01*
X023842Y002687D01*
X023840Y002706D01*
X023540Y002706D02*
X023542Y002725D01*
X023547Y002744D01*
X023557Y002760D01*
X023569Y002775D01*
X023584Y002787D01*
X023600Y002797D01*
X023619Y002802D01*
X023638Y002804D01*
X023657Y002802D01*
X023676Y002797D01*
X023692Y002787D01*
X023707Y002775D01*
X023719Y002760D01*
X023729Y002744D01*
X023734Y002725D01*
X023736Y002706D01*
X023734Y002687D01*
X023729Y002668D01*
X023719Y002652D01*
X023707Y002637D01*
X023692Y002625D01*
X023676Y002615D01*
X023657Y002610D01*
X023638Y002608D01*
X023619Y002610D01*
X023600Y002615D01*
X023584Y002625D01*
X023569Y002637D01*
X023557Y002652D01*
X023547Y002668D01*
X023542Y002687D01*
X023540Y002706D01*
X023240Y002706D02*
X023242Y002725D01*
X023247Y002744D01*
X023257Y002760D01*
X023269Y002775D01*
X023284Y002787D01*
X023300Y002797D01*
X023319Y002802D01*
X023338Y002804D01*
X023357Y002802D01*
X023376Y002797D01*
X023392Y002787D01*
X023407Y002775D01*
X023419Y002760D01*
X023429Y002744D01*
X023434Y002725D01*
X023436Y002706D01*
X023434Y002687D01*
X023429Y002668D01*
X023419Y002652D01*
X023407Y002637D01*
X023392Y002625D01*
X023376Y002615D01*
X023357Y002610D01*
X023338Y002608D01*
X023319Y002610D01*
X023300Y002615D01*
X023284Y002625D01*
X023269Y002637D01*
X023257Y002652D01*
X023247Y002668D01*
X023242Y002687D01*
X023240Y002706D01*
X022940Y002706D02*
X022942Y002725D01*
X022947Y002744D01*
X022957Y002760D01*
X022969Y002775D01*
X022984Y002787D01*
X023000Y002797D01*
X023019Y002802D01*
X023038Y002804D01*
X023057Y002802D01*
X023076Y002797D01*
X023092Y002787D01*
X023107Y002775D01*
X023119Y002760D01*
X023129Y002744D01*
X023134Y002725D01*
X023136Y002706D01*
X023134Y002687D01*
X023129Y002668D01*
X023119Y002652D01*
X023107Y002637D01*
X023092Y002625D01*
X023076Y002615D01*
X023057Y002610D01*
X023038Y002608D01*
X023019Y002610D01*
X023000Y002615D01*
X022984Y002625D01*
X022969Y002637D01*
X022957Y002652D01*
X022947Y002668D01*
X022942Y002687D01*
X022940Y002706D01*
X022640Y002706D02*
X022642Y002725D01*
X022647Y002744D01*
X022657Y002760D01*
X022669Y002775D01*
X022684Y002787D01*
X022700Y002797D01*
X022719Y002802D01*
X022738Y002804D01*
X022757Y002802D01*
X022776Y002797D01*
X022792Y002787D01*
X022807Y002775D01*
X022819Y002760D01*
X022829Y002744D01*
X022834Y002725D01*
X022836Y002706D01*
X022834Y002687D01*
X022829Y002668D01*
X022819Y002652D01*
X022807Y002637D01*
X022792Y002625D01*
X022776Y002615D01*
X022757Y002610D01*
X022738Y002608D01*
X022719Y002610D01*
X022700Y002615D01*
X022684Y002625D01*
X022669Y002637D01*
X022657Y002652D01*
X022647Y002668D01*
X022642Y002687D01*
X022640Y002706D01*
X022340Y002706D02*
X022342Y002725D01*
X022347Y002744D01*
X022357Y002760D01*
X022369Y002775D01*
X022384Y002787D01*
X022400Y002797D01*
X022419Y002802D01*
X022438Y002804D01*
X022457Y002802D01*
X022476Y002797D01*
X022492Y002787D01*
X022507Y002775D01*
X022519Y002760D01*
X022529Y002744D01*
X022534Y002725D01*
X022536Y002706D01*
X022534Y002687D01*
X022529Y002668D01*
X022519Y002652D01*
X022507Y002637D01*
X022492Y002625D01*
X022476Y002615D01*
X022457Y002610D01*
X022438Y002608D01*
X022419Y002610D01*
X022400Y002615D01*
X022384Y002625D01*
X022369Y002637D01*
X022357Y002652D01*
X022347Y002668D01*
X022342Y002687D01*
X022340Y002706D01*
X022340Y002406D02*
X022342Y002425D01*
X022347Y002444D01*
X022357Y002460D01*
X022369Y002475D01*
X022384Y002487D01*
X022400Y002497D01*
X022419Y002502D01*
X022438Y002504D01*
X022457Y002502D01*
X022476Y002497D01*
X022492Y002487D01*
X022507Y002475D01*
X022519Y002460D01*
X022529Y002444D01*
X022534Y002425D01*
X022536Y002406D01*
X022534Y002387D01*
X022529Y002368D01*
X022519Y002352D01*
X022507Y002337D01*
X022492Y002325D01*
X022476Y002315D01*
X022457Y002310D01*
X022438Y002308D01*
X022419Y002310D01*
X022400Y002315D01*
X022384Y002325D01*
X022369Y002337D01*
X022357Y002352D01*
X022347Y002368D01*
X022342Y002387D01*
X022340Y002406D01*
X022640Y002406D02*
X022642Y002425D01*
X022647Y002444D01*
X022657Y002460D01*
X022669Y002475D01*
X022684Y002487D01*
X022700Y002497D01*
X022719Y002502D01*
X022738Y002504D01*
X022757Y002502D01*
X022776Y002497D01*
X022792Y002487D01*
X022807Y002475D01*
X022819Y002460D01*
X022829Y002444D01*
X022834Y002425D01*
X022836Y002406D01*
X022834Y002387D01*
X022829Y002368D01*
X022819Y002352D01*
X022807Y002337D01*
X022792Y002325D01*
X022776Y002315D01*
X022757Y002310D01*
X022738Y002308D01*
X022719Y002310D01*
X022700Y002315D01*
X022684Y002325D01*
X022669Y002337D01*
X022657Y002352D01*
X022647Y002368D01*
X022642Y002387D01*
X022640Y002406D01*
X022940Y002406D02*
X022942Y002425D01*
X022947Y002444D01*
X022957Y002460D01*
X022969Y002475D01*
X022984Y002487D01*
X023000Y002497D01*
X023019Y002502D01*
X023038Y002504D01*
X023057Y002502D01*
X023076Y002497D01*
X023092Y002487D01*
X023107Y002475D01*
X023119Y002460D01*
X023129Y002444D01*
X023134Y002425D01*
X023136Y002406D01*
X023134Y002387D01*
X023129Y002368D01*
X023119Y002352D01*
X023107Y002337D01*
X023092Y002325D01*
X023076Y002315D01*
X023057Y002310D01*
X023038Y002308D01*
X023019Y002310D01*
X023000Y002315D01*
X022984Y002325D01*
X022969Y002337D01*
X022957Y002352D01*
X022947Y002368D01*
X022942Y002387D01*
X022940Y002406D01*
X023240Y002406D02*
X023242Y002425D01*
X023247Y002444D01*
X023257Y002460D01*
X023269Y002475D01*
X023284Y002487D01*
X023300Y002497D01*
X023319Y002502D01*
X023338Y002504D01*
X023357Y002502D01*
X023376Y002497D01*
X023392Y002487D01*
X023407Y002475D01*
X023419Y002460D01*
X023429Y002444D01*
X023434Y002425D01*
X023436Y002406D01*
X023434Y002387D01*
X023429Y002368D01*
X023419Y002352D01*
X023407Y002337D01*
X023392Y002325D01*
X023376Y002315D01*
X023357Y002310D01*
X023338Y002308D01*
X023319Y002310D01*
X023300Y002315D01*
X023284Y002325D01*
X023269Y002337D01*
X023257Y002352D01*
X023247Y002368D01*
X023242Y002387D01*
X023240Y002406D01*
X023540Y002406D02*
X023542Y002425D01*
X023547Y002444D01*
X023557Y002460D01*
X023569Y002475D01*
X023584Y002487D01*
X023600Y002497D01*
X023619Y002502D01*
X023638Y002504D01*
X023657Y002502D01*
X023676Y002497D01*
X023692Y002487D01*
X023707Y002475D01*
X023719Y002460D01*
X023729Y002444D01*
X023734Y002425D01*
X023736Y002406D01*
X023734Y002387D01*
X023729Y002368D01*
X023719Y002352D01*
X023707Y002337D01*
X023692Y002325D01*
X023676Y002315D01*
X023657Y002310D01*
X023638Y002308D01*
X023619Y002310D01*
X023600Y002315D01*
X023584Y002325D01*
X023569Y002337D01*
X023557Y002352D01*
X023547Y002368D01*
X023542Y002387D01*
X023540Y002406D01*
X023840Y002406D02*
X023842Y002425D01*
X023847Y002444D01*
X023857Y002460D01*
X023869Y002475D01*
X023884Y002487D01*
X023900Y002497D01*
X023919Y002502D01*
X023938Y002504D01*
X023957Y002502D01*
X023976Y002497D01*
X023992Y002487D01*
X024007Y002475D01*
X024019Y002460D01*
X024029Y002444D01*
X024034Y002425D01*
X024036Y002406D01*
X024034Y002387D01*
X024029Y002368D01*
X024019Y002352D01*
X024007Y002337D01*
X023992Y002325D01*
X023976Y002315D01*
X023957Y002310D01*
X023938Y002308D01*
X023919Y002310D01*
X023900Y002315D01*
X023884Y002325D01*
X023869Y002337D01*
X023857Y002352D01*
X023847Y002368D01*
X023842Y002387D01*
X023840Y002406D01*
X024140Y002406D02*
X024142Y002425D01*
X024147Y002444D01*
X024157Y002460D01*
X024169Y002475D01*
X024184Y002487D01*
X024200Y002497D01*
X024219Y002502D01*
X024238Y002504D01*
X024257Y002502D01*
X024276Y002497D01*
X024292Y002487D01*
X024307Y002475D01*
X024319Y002460D01*
X024329Y002444D01*
X024334Y002425D01*
X024336Y002406D01*
X024334Y002387D01*
X024329Y002368D01*
X024319Y002352D01*
X024307Y002337D01*
X024292Y002325D01*
X024276Y002315D01*
X024257Y002310D01*
X024238Y002308D01*
X024219Y002310D01*
X024200Y002315D01*
X024184Y002325D01*
X024169Y002337D01*
X024157Y002352D01*
X024147Y002368D01*
X024142Y002387D01*
X024140Y002406D01*
X024440Y002406D02*
X024442Y002425D01*
X024447Y002444D01*
X024457Y002460D01*
X024469Y002475D01*
X024484Y002487D01*
X024500Y002497D01*
X024519Y002502D01*
X024538Y002504D01*
X024557Y002502D01*
X024576Y002497D01*
X024592Y002487D01*
X024607Y002475D01*
X024619Y002460D01*
X024629Y002444D01*
X024634Y002425D01*
X024636Y002406D01*
X024634Y002387D01*
X024629Y002368D01*
X024619Y002352D01*
X024607Y002337D01*
X024592Y002325D01*
X024576Y002315D01*
X024557Y002310D01*
X024538Y002308D01*
X024519Y002310D01*
X024500Y002315D01*
X024484Y002325D01*
X024469Y002337D01*
X024457Y002352D01*
X024447Y002368D01*
X024442Y002387D01*
X024440Y002406D01*
X024740Y002406D02*
X024742Y002425D01*
X024747Y002444D01*
X024757Y002460D01*
X024769Y002475D01*
X024784Y002487D01*
X024800Y002497D01*
X024819Y002502D01*
X024838Y002504D01*
X024857Y002502D01*
X024876Y002497D01*
X024892Y002487D01*
X024907Y002475D01*
X024919Y002460D01*
X024929Y002444D01*
X024934Y002425D01*
X024936Y002406D01*
X024934Y002387D01*
X024929Y002368D01*
X024919Y002352D01*
X024907Y002337D01*
X024892Y002325D01*
X024876Y002315D01*
X024857Y002310D01*
X024838Y002308D01*
X024819Y002310D01*
X024800Y002315D01*
X024784Y002325D01*
X024769Y002337D01*
X024757Y002352D01*
X024747Y002368D01*
X024742Y002387D01*
X024740Y002406D01*
X025040Y002406D02*
X025042Y002425D01*
X025047Y002444D01*
X025057Y002460D01*
X025069Y002475D01*
X025084Y002487D01*
X025100Y002497D01*
X025119Y002502D01*
X025138Y002504D01*
X025157Y002502D01*
X025176Y002497D01*
X025192Y002487D01*
X025207Y002475D01*
X025219Y002460D01*
X025229Y002444D01*
X025234Y002425D01*
X025236Y002406D01*
X025234Y002387D01*
X025229Y002368D01*
X025219Y002352D01*
X025207Y002337D01*
X025192Y002325D01*
X025176Y002315D01*
X025157Y002310D01*
X025138Y002308D01*
X025119Y002310D01*
X025100Y002315D01*
X025084Y002325D01*
X025069Y002337D01*
X025057Y002352D01*
X025047Y002368D01*
X025042Y002387D01*
X025040Y002406D01*
X025340Y002406D02*
X025342Y002425D01*
X025347Y002444D01*
X025357Y002460D01*
X025369Y002475D01*
X025384Y002487D01*
X025400Y002497D01*
X025419Y002502D01*
X025438Y002504D01*
X025457Y002502D01*
X025476Y002497D01*
X025492Y002487D01*
X025507Y002475D01*
X025519Y002460D01*
X025529Y002444D01*
X025534Y002425D01*
X025536Y002406D01*
X025534Y002387D01*
X025529Y002368D01*
X025519Y002352D01*
X025507Y002337D01*
X025492Y002325D01*
X025476Y002315D01*
X025457Y002310D01*
X025438Y002308D01*
X025419Y002310D01*
X025400Y002315D01*
X025384Y002325D01*
X025369Y002337D01*
X025357Y002352D01*
X025347Y002368D01*
X025342Y002387D01*
X025340Y002406D01*
X025340Y002706D02*
X025342Y002725D01*
X025347Y002744D01*
X025357Y002760D01*
X025369Y002775D01*
X025384Y002787D01*
X025400Y002797D01*
X025419Y002802D01*
X025438Y002804D01*
X025457Y002802D01*
X025476Y002797D01*
X025492Y002787D01*
X025507Y002775D01*
X025519Y002760D01*
X025529Y002744D01*
X025534Y002725D01*
X025536Y002706D01*
X025534Y002687D01*
X025529Y002668D01*
X025519Y002652D01*
X025507Y002637D01*
X025492Y002625D01*
X025476Y002615D01*
X025457Y002610D01*
X025438Y002608D01*
X025419Y002610D01*
X025400Y002615D01*
X025384Y002625D01*
X025369Y002637D01*
X025357Y002652D01*
X025347Y002668D01*
X025342Y002687D01*
X025340Y002706D01*
X025040Y002706D02*
X025042Y002725D01*
X025047Y002744D01*
X025057Y002760D01*
X025069Y002775D01*
X025084Y002787D01*
X025100Y002797D01*
X025119Y002802D01*
X025138Y002804D01*
X025157Y002802D01*
X025176Y002797D01*
X025192Y002787D01*
X025207Y002775D01*
X025219Y002760D01*
X025229Y002744D01*
X025234Y002725D01*
X025236Y002706D01*
X025234Y002687D01*
X025229Y002668D01*
X025219Y002652D01*
X025207Y002637D01*
X025192Y002625D01*
X025176Y002615D01*
X025157Y002610D01*
X025138Y002608D01*
X025119Y002610D01*
X025100Y002615D01*
X025084Y002625D01*
X025069Y002637D01*
X025057Y002652D01*
X025047Y002668D01*
X025042Y002687D01*
X025040Y002706D01*
X024480Y000886D02*
X024482Y000905D01*
X024487Y000924D01*
X024497Y000940D01*
X024509Y000955D01*
X024524Y000967D01*
X024540Y000977D01*
X024559Y000982D01*
X024578Y000984D01*
X024597Y000982D01*
X024616Y000977D01*
X024632Y000967D01*
X024647Y000955D01*
X024659Y000940D01*
X024669Y000924D01*
X024674Y000905D01*
X024676Y000886D01*
X024674Y000867D01*
X024669Y000848D01*
X024659Y000832D01*
X024647Y000817D01*
X024632Y000805D01*
X024616Y000795D01*
X024597Y000790D01*
X024578Y000788D01*
X024559Y000790D01*
X024540Y000795D01*
X024524Y000805D01*
X024509Y000817D01*
X024497Y000832D01*
X024487Y000848D01*
X024482Y000867D01*
X024480Y000886D01*
X024180Y000886D02*
X024182Y000905D01*
X024187Y000924D01*
X024197Y000940D01*
X024209Y000955D01*
X024224Y000967D01*
X024240Y000977D01*
X024259Y000982D01*
X024278Y000984D01*
X024297Y000982D01*
X024316Y000977D01*
X024332Y000967D01*
X024347Y000955D01*
X024359Y000940D01*
X024369Y000924D01*
X024374Y000905D01*
X024376Y000886D01*
X024374Y000867D01*
X024369Y000848D01*
X024359Y000832D01*
X024347Y000817D01*
X024332Y000805D01*
X024316Y000795D01*
X024297Y000790D01*
X024278Y000788D01*
X024259Y000790D01*
X024240Y000795D01*
X024224Y000805D01*
X024209Y000817D01*
X024197Y000832D01*
X024187Y000848D01*
X024182Y000867D01*
X024180Y000886D01*
X023880Y000886D02*
X023882Y000905D01*
X023887Y000924D01*
X023897Y000940D01*
X023909Y000955D01*
X023924Y000967D01*
X023940Y000977D01*
X023959Y000982D01*
X023978Y000984D01*
X023997Y000982D01*
X024016Y000977D01*
X024032Y000967D01*
X024047Y000955D01*
X024059Y000940D01*
X024069Y000924D01*
X024074Y000905D01*
X024076Y000886D01*
X024074Y000867D01*
X024069Y000848D01*
X024059Y000832D01*
X024047Y000817D01*
X024032Y000805D01*
X024016Y000795D01*
X023997Y000790D01*
X023978Y000788D01*
X023959Y000790D01*
X023940Y000795D01*
X023924Y000805D01*
X023909Y000817D01*
X023897Y000832D01*
X023887Y000848D01*
X023882Y000867D01*
X023880Y000886D01*
X023580Y000886D02*
X023582Y000905D01*
X023587Y000924D01*
X023597Y000940D01*
X023609Y000955D01*
X023624Y000967D01*
X023640Y000977D01*
X023659Y000982D01*
X023678Y000984D01*
X023697Y000982D01*
X023716Y000977D01*
X023732Y000967D01*
X023747Y000955D01*
X023759Y000940D01*
X023769Y000924D01*
X023774Y000905D01*
X023776Y000886D01*
X023774Y000867D01*
X023769Y000848D01*
X023759Y000832D01*
X023747Y000817D01*
X023732Y000805D01*
X023716Y000795D01*
X023697Y000790D01*
X023678Y000788D01*
X023659Y000790D01*
X023640Y000795D01*
X023624Y000805D01*
X023609Y000817D01*
X023597Y000832D01*
X023587Y000848D01*
X023582Y000867D01*
X023580Y000886D01*
D11*
X021948Y002666D02*
X021948Y003566D01*
X021288Y003566D02*
X021288Y002666D01*
X020348Y004046D02*
X019448Y004046D01*
X019448Y004706D02*
X020348Y004706D01*
X015848Y005706D02*
X015848Y008206D01*
X015846Y008223D01*
X015842Y008240D01*
X015835Y008256D01*
X015825Y008270D01*
X015812Y008283D01*
X015798Y008293D01*
X015782Y008300D01*
X015765Y008304D01*
X015748Y008306D01*
X014748Y008306D01*
X014731Y008304D01*
X014714Y008300D01*
X014698Y008293D01*
X014684Y008283D01*
X014671Y008270D01*
X014661Y008256D01*
X014654Y008240D01*
X014650Y008223D01*
X014648Y008206D01*
X014648Y005706D01*
X014650Y005689D01*
X014654Y005672D01*
X014661Y005656D01*
X014671Y005642D01*
X014684Y005629D01*
X014698Y005619D01*
X014714Y005612D01*
X014731Y005608D01*
X014748Y005606D01*
X015748Y005606D01*
X015765Y005608D01*
X015782Y005612D01*
X015798Y005619D01*
X015812Y005629D01*
X015825Y005642D01*
X015835Y005656D01*
X015842Y005672D01*
X015846Y005689D01*
X015848Y005706D01*
X015248Y005656D02*
X015248Y005856D01*
X014418Y005838D02*
X014311Y005731D01*
X014205Y005731D01*
X014098Y005838D01*
X014098Y006051D01*
X013991Y006158D01*
X013884Y006158D01*
X013778Y006051D01*
X013778Y005838D01*
X013884Y005731D01*
X013884Y005514D02*
X013778Y005407D01*
X013778Y005087D01*
X014418Y005087D01*
X014418Y005407D01*
X014311Y005514D01*
X014205Y005514D01*
X014098Y005407D01*
X014098Y005087D01*
X014658Y004886D02*
X015558Y004886D01*
X015558Y004226D02*
X014658Y004226D01*
X012788Y005016D02*
X011888Y005016D01*
X011888Y005676D02*
X012788Y005676D01*
X012058Y006136D02*
X011538Y006136D01*
X011538Y007256D01*
X012058Y007256D01*
X012058Y006136D01*
X010358Y006236D02*
X010358Y005116D01*
X009838Y005116D01*
X009838Y006236D01*
X010358Y006236D01*
X010118Y006666D02*
X009218Y006666D01*
X009218Y007326D02*
X010118Y007326D01*
X009608Y007706D02*
X008708Y007706D01*
X008708Y008366D02*
X009608Y008366D01*
X012378Y008056D02*
X013278Y008056D01*
X013828Y007831D02*
X014468Y007831D01*
X014468Y008258D01*
X014148Y008045D02*
X014148Y007831D01*
X014255Y007614D02*
X014148Y007507D01*
X014148Y007187D01*
X014468Y007187D02*
X014468Y007507D01*
X014361Y007614D01*
X014255Y007614D01*
X014148Y007507D02*
X014041Y007614D01*
X013934Y007614D01*
X013828Y007507D01*
X013828Y007187D01*
X014468Y007187D01*
X014698Y006956D02*
X014948Y006956D01*
X015548Y006956D02*
X015798Y006956D01*
X014418Y006051D02*
X014311Y006158D01*
X014418Y006051D02*
X014418Y005838D01*
X013991Y005514D02*
X013884Y005514D01*
X013991Y005514D02*
X014098Y005407D01*
X009638Y004336D02*
X009638Y003436D01*
X008978Y003436D02*
X008978Y004336D01*
X014358Y003046D02*
X014358Y002146D01*
X015018Y002146D02*
X015018Y003046D01*
X021458Y007006D02*
X021458Y007906D01*
X022118Y007906D02*
X022118Y007006D01*
X015248Y008056D02*
X015248Y008256D01*
X013278Y007396D02*
X012378Y007396D01*
D12*
X013688Y002448D03*
X013687Y001404D03*
X009677Y001284D03*
X009678Y002328D03*
D13*
X009987Y002186D02*
X009987Y001426D01*
X009368Y001426D02*
X009368Y002186D01*
X009108Y001869D02*
X008648Y001869D01*
X008648Y002022D02*
X008648Y001715D01*
X008724Y001562D02*
X008648Y001485D01*
X008648Y001332D01*
X008724Y001255D01*
X009031Y001255D01*
X009108Y001332D01*
X009108Y001485D01*
X009031Y001562D01*
X008955Y001715D02*
X009108Y001869D01*
X013208Y002952D02*
X013208Y003105D01*
X013284Y003182D01*
X013208Y003335D02*
X013515Y003642D01*
X013591Y003642D01*
X013668Y003566D01*
X013668Y003412D01*
X013591Y003335D01*
X013591Y003182D02*
X013668Y003105D01*
X013668Y002952D01*
X013591Y002875D01*
X013284Y002875D01*
X013208Y002952D01*
X013208Y003335D02*
X013208Y003642D01*
X014810Y003653D02*
X014887Y003576D01*
X015040Y003576D01*
X015117Y003653D01*
X014810Y003959D01*
X014810Y003653D01*
X015117Y003653D02*
X015117Y003959D01*
X015040Y004036D01*
X014887Y004036D01*
X014810Y003959D01*
X015424Y004036D02*
X015424Y003576D01*
X015577Y003576D02*
X015270Y003576D01*
X015731Y003576D02*
X015884Y003729D01*
X015807Y003729D02*
X016038Y003729D01*
X016038Y003576D02*
X016038Y004036D01*
X015807Y004036D01*
X015731Y003959D01*
X015731Y003806D01*
X015807Y003729D01*
X015577Y003883D02*
X015424Y004036D01*
X015411Y002862D02*
X015334Y002862D01*
X015258Y002786D01*
X015258Y002632D01*
X015334Y002555D01*
X015411Y002555D01*
X015488Y002632D01*
X015488Y002786D01*
X015411Y002862D01*
X015488Y002786D02*
X015565Y002862D01*
X015641Y002862D01*
X015718Y002786D01*
X015718Y002632D01*
X015641Y002555D01*
X015565Y002555D01*
X015488Y002632D01*
X015488Y002402D02*
X015411Y002325D01*
X015411Y002095D01*
X015258Y002095D02*
X015718Y002095D01*
X015718Y002325D01*
X015641Y002402D01*
X015488Y002402D01*
X015411Y002249D02*
X015258Y002402D01*
X013997Y002306D02*
X013997Y001546D01*
X013378Y001546D02*
X013378Y002306D01*
X010288Y003856D02*
X009828Y003856D01*
X009981Y003856D02*
X009981Y004086D01*
X010058Y004163D01*
X010211Y004163D01*
X010288Y004086D01*
X010288Y003856D01*
X009981Y004009D02*
X009828Y004163D01*
X009828Y004316D02*
X009904Y004316D01*
X010211Y004623D01*
X010288Y004623D01*
X010288Y004316D01*
X010868Y004906D02*
X011328Y004906D01*
X011328Y005136D01*
X011251Y005213D01*
X011098Y005213D01*
X011021Y005136D01*
X011021Y004906D01*
X011021Y005059D02*
X010868Y005213D01*
X010944Y005366D02*
X010868Y005443D01*
X010868Y005596D01*
X010944Y005673D01*
X011021Y005673D01*
X011098Y005596D01*
X011098Y005366D01*
X010944Y005366D01*
X011098Y005366D02*
X011251Y005520D01*
X011328Y005673D01*
X008678Y006525D02*
X008678Y006755D01*
X008601Y006832D01*
X008448Y006832D01*
X008371Y006755D01*
X008371Y006525D01*
X008218Y006525D02*
X008678Y006525D01*
X008371Y006679D02*
X008218Y006832D01*
X008448Y006985D02*
X008448Y007292D01*
X008218Y007216D02*
X008678Y007216D01*
X008448Y006985D01*
X008088Y007455D02*
X007628Y007455D01*
X007781Y007455D02*
X007781Y007685D01*
X007858Y007762D01*
X008011Y007762D01*
X008088Y007685D01*
X008088Y007455D01*
X007781Y007609D02*
X007628Y007762D01*
X007704Y007915D02*
X007628Y007992D01*
X007628Y008146D01*
X007704Y008222D01*
X007858Y008222D01*
X007935Y008146D01*
X007935Y008069D01*
X007858Y007915D01*
X008088Y007915D01*
X008088Y008222D01*
X011238Y008016D02*
X011238Y007862D01*
X011314Y007785D01*
X011468Y007939D02*
X011468Y008016D01*
X011391Y008092D01*
X011314Y008092D01*
X011238Y008016D01*
X011468Y008016D02*
X011545Y008092D01*
X011621Y008092D01*
X011698Y008016D01*
X011698Y007862D01*
X011621Y007785D01*
X011621Y007632D02*
X011468Y007632D01*
X011391Y007555D01*
X011391Y007325D01*
X011238Y007325D02*
X011698Y007325D01*
X011698Y007555D01*
X011621Y007632D01*
X011391Y007479D02*
X011238Y007632D01*
X018381Y007693D02*
X018457Y007616D01*
X018611Y007616D01*
X018688Y007693D01*
X019025Y007554D02*
X019025Y007476D01*
X019025Y007554D02*
X019261Y007554D01*
X019261Y007495D01*
X019654Y007495D02*
X019654Y007554D01*
X019851Y007554D01*
X019851Y007476D01*
X020131Y007616D02*
X020438Y007616D01*
X020131Y007923D01*
X020131Y007999D01*
X020207Y008076D01*
X020361Y008076D01*
X020438Y007999D01*
X020978Y007937D02*
X020978Y007784D01*
X021054Y007707D01*
X021438Y007707D01*
X021438Y007554D02*
X021438Y007247D01*
X021438Y007400D02*
X020978Y007400D01*
X020978Y007093D02*
X021285Y007093D01*
X021438Y006940D01*
X021285Y006787D01*
X020978Y006787D01*
X021208Y006787D02*
X021208Y007093D01*
X021438Y006633D02*
X021438Y006326D01*
X021558Y006246D02*
X021558Y006092D01*
X021634Y006015D01*
X021438Y005943D02*
X021361Y005866D01*
X021285Y005866D01*
X021208Y005943D01*
X021208Y006096D01*
X021131Y006173D01*
X021054Y006173D01*
X020978Y006096D01*
X020978Y005943D01*
X021054Y005866D01*
X021438Y005943D02*
X021438Y006096D01*
X021361Y006173D01*
X021558Y006246D02*
X021634Y006322D01*
X021711Y006322D01*
X021788Y006246D01*
X021788Y006169D01*
X021788Y006246D02*
X021865Y006322D01*
X021941Y006322D01*
X022018Y006246D01*
X022018Y006092D01*
X021941Y006015D01*
X021558Y005862D02*
X021558Y005555D01*
X021558Y005402D02*
X021711Y005248D01*
X021711Y005325D02*
X021711Y005095D01*
X021558Y005095D02*
X022018Y005095D01*
X022018Y005325D01*
X021941Y005402D01*
X021788Y005402D01*
X021711Y005325D01*
X021865Y005555D02*
X022018Y005708D01*
X021558Y005708D01*
X020438Y005866D02*
X020131Y005866D01*
X020284Y005866D02*
X020284Y006326D01*
X020438Y006173D01*
X019851Y006137D02*
X019654Y006137D01*
X019654Y006196D01*
X019851Y006216D02*
X019851Y006137D01*
X019261Y006137D02*
X019064Y006137D01*
X019064Y006216D01*
X019261Y006196D02*
X019261Y006137D01*
X018688Y006096D02*
X018381Y006096D01*
X018457Y005866D02*
X018457Y006326D01*
X018688Y006096D01*
X020978Y006480D02*
X021438Y006480D01*
X018381Y007693D02*
X018381Y007769D01*
X018457Y007846D01*
X018534Y007846D01*
X018457Y007846D02*
X018381Y007923D01*
X018381Y007999D01*
X018457Y008076D01*
X018611Y008076D01*
X018688Y007999D01*
X020978Y007937D02*
X021054Y008014D01*
X021438Y008014D01*
X021361Y008168D02*
X021285Y008168D01*
X021208Y008244D01*
X021208Y008398D01*
X021131Y008474D01*
X021054Y008474D01*
X020978Y008398D01*
X020978Y008244D01*
X021054Y008168D01*
X021361Y008168D02*
X021438Y008244D01*
X021438Y008398D01*
X021361Y008474D01*
X018628Y004762D02*
X018628Y004455D01*
X018858Y004686D01*
X018398Y004686D01*
X018398Y004302D02*
X018398Y003995D01*
X018398Y004148D02*
X018858Y004148D01*
X018705Y003995D01*
X018781Y003842D02*
X018628Y003842D01*
X018551Y003765D01*
X018551Y003535D01*
X018398Y003535D02*
X018858Y003535D01*
X018858Y003765D01*
X018781Y003842D01*
X018551Y003688D02*
X018398Y003842D01*
X021488Y002062D02*
X021488Y001755D01*
X021795Y002062D01*
X021871Y002062D01*
X021948Y001986D01*
X021948Y001832D01*
X021871Y001755D01*
X021488Y001602D02*
X021488Y001295D01*
X021488Y001142D02*
X021641Y000988D01*
X021641Y001065D02*
X021641Y000835D01*
X021488Y000835D02*
X021948Y000835D01*
X021948Y001065D01*
X021871Y001142D01*
X021718Y001142D01*
X021641Y001065D01*
X021795Y001295D02*
X021948Y001448D01*
X021488Y001448D01*
D14*
X010493Y005676D03*
X009703Y005306D03*
X009703Y006046D03*
X011403Y006326D03*
X012193Y006696D03*
X011403Y007066D03*
D15*
X011743Y006804D02*
X011743Y006704D01*
X011743Y006656D02*
X011793Y006606D01*
X011743Y006581D02*
X011768Y006556D01*
X011868Y006556D01*
X011893Y006581D01*
X011893Y006631D01*
X011868Y006656D01*
X011768Y006656D01*
X011743Y006631D01*
X011743Y006581D01*
X011843Y006704D02*
X011893Y006754D01*
X011743Y006754D01*
X010203Y005753D02*
X010203Y005703D01*
X010178Y005678D01*
X010178Y005631D02*
X010078Y005631D01*
X010053Y005606D01*
X010053Y005556D01*
X010078Y005531D01*
X010178Y005531D01*
X010203Y005556D01*
X010203Y005606D01*
X010178Y005631D01*
X010103Y005581D02*
X010053Y005631D01*
X010053Y005678D02*
X010153Y005778D01*
X010178Y005778D01*
X010203Y005753D01*
X010053Y005778D02*
X010053Y005678D01*
D16*
X011783Y005346D03*
X012893Y005346D03*
X014553Y004556D03*
X015663Y004556D03*
X019343Y004376D03*
X020453Y004376D03*
X013383Y007726D03*
X012273Y007726D03*
X010223Y006996D03*
X009113Y006996D03*
X008603Y008036D03*
X009713Y008036D03*
D17*
X009308Y004441D03*
X009308Y003331D03*
X014688Y003151D03*
X014688Y002041D03*
X021618Y002561D03*
X021618Y003671D03*
X021788Y006901D03*
X021788Y008011D03*
D18*
X012824Y003736D02*
X010324Y003736D01*
X010324Y002236D01*
X012824Y002236D01*
X012824Y003736D01*
D19*
X012645Y003581D02*
X012419Y003581D01*
X012344Y003506D01*
X012344Y003206D01*
X012419Y003131D01*
X012645Y003131D01*
X012645Y003581D01*
X013105Y003581D02*
X013105Y003131D01*
X012805Y003131D01*
X012613Y002891D02*
X012463Y002891D01*
X012538Y002891D02*
X012538Y002441D01*
X012613Y002441D02*
X012463Y002441D01*
X012306Y002516D02*
X012231Y002441D01*
X012081Y002441D01*
X012006Y002516D01*
X011845Y002441D02*
X011545Y002441D01*
X011695Y002441D02*
X011695Y002891D01*
X011845Y002741D01*
X012006Y002816D02*
X012081Y002891D01*
X012231Y002891D01*
X012306Y002816D01*
X012306Y002516D01*
X012184Y003131D02*
X011884Y003131D01*
X012034Y003131D02*
X012034Y003581D01*
X012184Y003431D01*
X011724Y003431D02*
X011574Y003581D01*
X011574Y003131D01*
X011724Y003131D02*
X011424Y003131D01*
X011264Y003131D02*
X010963Y003131D01*
X011113Y003131D02*
X011113Y003581D01*
X011264Y003431D01*
X010803Y003581D02*
X010503Y003581D01*
X010503Y003506D01*
X010803Y003206D01*
X010803Y003131D01*
X016023Y006025D02*
X016098Y005950D01*
X016023Y006025D02*
X016023Y006175D01*
X016098Y006250D01*
X016173Y006250D01*
X016248Y006175D01*
X016248Y006025D01*
X016323Y005950D01*
X016398Y005950D01*
X016473Y006025D01*
X016473Y006175D01*
X016398Y006250D01*
X016098Y006410D02*
X016023Y006485D01*
X016023Y006560D01*
X016098Y006635D01*
X016473Y006635D01*
X016473Y006560D02*
X016473Y006710D01*
X016323Y006870D02*
X016473Y007021D01*
X016023Y007021D01*
X016023Y007171D02*
X016023Y006870D01*
X014975Y006132D02*
X015248Y006155D01*
X015248Y006155D01*
X015521Y006132D01*
X015522Y006131D01*
X015517Y006099D01*
X015508Y006067D01*
X015496Y006037D01*
X015480Y006009D01*
X015461Y005982D01*
X015439Y005958D01*
X015415Y005937D01*
X015388Y005919D01*
X015359Y005904D01*
X015328Y005893D01*
X015297Y005885D01*
X015264Y005881D01*
X015232Y005881D01*
X015199Y005885D01*
X015168Y005893D01*
X015137Y005904D01*
X015108Y005919D01*
X015081Y005937D01*
X015057Y005958D01*
X015035Y005982D01*
X015016Y006009D01*
X015000Y006037D01*
X014988Y006067D01*
X014979Y006099D01*
X014974Y006131D01*
X015021Y006131D01*
X015026Y006103D01*
X015035Y006075D01*
X015047Y006049D01*
X015062Y006024D01*
X015080Y006001D01*
X015101Y005981D01*
X015125Y005964D01*
X015150Y005950D01*
X015177Y005939D01*
X015205Y005932D01*
X015234Y005928D01*
X015262Y005928D01*
X015291Y005932D01*
X015319Y005939D01*
X015346Y005950D01*
X015371Y005964D01*
X015395Y005981D01*
X015416Y006001D01*
X015434Y006024D01*
X015449Y006049D01*
X015461Y006075D01*
X015470Y006103D01*
X015475Y006131D01*
X015427Y006131D01*
X015422Y006106D01*
X015413Y006081D01*
X015401Y006059D01*
X015385Y006038D01*
X015367Y006019D01*
X015346Y006004D01*
X015323Y005991D01*
X015299Y005982D01*
X015274Y005977D01*
X015248Y005975D01*
X015222Y005977D01*
X015197Y005982D01*
X015173Y005991D01*
X015150Y006004D01*
X015129Y006019D01*
X015111Y006038D01*
X015095Y006059D01*
X015083Y006081D01*
X015074Y006106D01*
X015069Y006131D01*
X015116Y006131D01*
X015122Y006110D01*
X015131Y006090D01*
X015143Y006072D01*
X015158Y006056D01*
X015176Y006043D01*
X015195Y006033D01*
X015216Y006026D01*
X015237Y006022D01*
X015259Y006022D01*
X015280Y006026D01*
X015301Y006033D01*
X015320Y006043D01*
X015338Y006056D01*
X015353Y006072D01*
X015365Y006090D01*
X015374Y006110D01*
X015380Y006131D01*
X015331Y006131D01*
X015325Y006115D01*
X015316Y006101D01*
X015303Y006089D01*
X015289Y006079D01*
X015273Y006073D01*
X015257Y006069D01*
X015239Y006069D01*
X015223Y006073D01*
X015207Y006079D01*
X015193Y006089D01*
X015180Y006101D01*
X015171Y006115D01*
X015165Y006131D01*
X015216Y006133D01*
X015223Y006125D01*
X015232Y006119D01*
X015243Y006116D01*
X015253Y006116D01*
X015264Y006119D01*
X015273Y006125D01*
X015280Y006133D01*
X015521Y007780D02*
X015248Y007757D01*
X015248Y007757D01*
X014975Y007780D01*
X014974Y007781D01*
X014979Y007813D01*
X014988Y007845D01*
X015000Y007875D01*
X015016Y007903D01*
X015035Y007930D01*
X015057Y007954D01*
X015081Y007975D01*
X015108Y007993D01*
X015137Y008008D01*
X015168Y008019D01*
X015199Y008027D01*
X015232Y008031D01*
X015264Y008031D01*
X015297Y008027D01*
X015328Y008019D01*
X015359Y008008D01*
X015388Y007993D01*
X015415Y007975D01*
X015439Y007954D01*
X015461Y007930D01*
X015480Y007903D01*
X015496Y007875D01*
X015508Y007845D01*
X015517Y007813D01*
X015522Y007781D01*
X015475Y007781D01*
X015470Y007809D01*
X015461Y007837D01*
X015449Y007863D01*
X015434Y007888D01*
X015416Y007911D01*
X015395Y007931D01*
X015371Y007948D01*
X015346Y007962D01*
X015319Y007973D01*
X015291Y007980D01*
X015262Y007984D01*
X015234Y007984D01*
X015205Y007980D01*
X015177Y007973D01*
X015150Y007962D01*
X015125Y007948D01*
X015101Y007931D01*
X015080Y007911D01*
X015062Y007888D01*
X015047Y007863D01*
X015035Y007837D01*
X015026Y007809D01*
X015021Y007781D01*
X015069Y007781D01*
X015074Y007806D01*
X015083Y007831D01*
X015095Y007853D01*
X015111Y007874D01*
X015129Y007893D01*
X015150Y007908D01*
X015173Y007921D01*
X015197Y007930D01*
X015222Y007935D01*
X015248Y007937D01*
X015274Y007935D01*
X015299Y007930D01*
X015323Y007921D01*
X015346Y007908D01*
X015367Y007893D01*
X015385Y007874D01*
X015401Y007853D01*
X015413Y007831D01*
X015422Y007806D01*
X015427Y007781D01*
X015380Y007781D01*
X015374Y007802D01*
X015365Y007822D01*
X015353Y007840D01*
X015338Y007856D01*
X015320Y007869D01*
X015301Y007879D01*
X015280Y007886D01*
X015259Y007890D01*
X015237Y007890D01*
X015216Y007886D01*
X015195Y007879D01*
X015176Y007869D01*
X015158Y007856D01*
X015143Y007840D01*
X015131Y007822D01*
X015122Y007802D01*
X015116Y007781D01*
X015165Y007781D01*
X015171Y007797D01*
X015180Y007811D01*
X015193Y007823D01*
X015207Y007833D01*
X015223Y007839D01*
X015239Y007843D01*
X015257Y007843D01*
X015273Y007839D01*
X015289Y007833D01*
X015303Y007823D01*
X015316Y007811D01*
X015325Y007797D01*
X015331Y007781D01*
X015280Y007779D01*
X015273Y007787D01*
X015264Y007793D01*
X015253Y007796D01*
X015243Y007796D01*
X015232Y007793D01*
X015223Y007787D01*
X015216Y007779D01*
X018462Y002481D02*
X018462Y002031D01*
X018612Y002031D02*
X018312Y002031D01*
X018772Y002106D02*
X018772Y002181D01*
X018847Y002256D01*
X018998Y002256D01*
X019073Y002331D01*
X019073Y002406D01*
X018998Y002481D01*
X018847Y002481D01*
X018772Y002406D01*
X018612Y002331D02*
X018462Y002481D01*
X018772Y002106D02*
X018847Y002031D01*
X018998Y002031D01*
X019073Y002106D01*
D20*
X015248Y006956D03*
D21*
X018906Y007476D02*
X018906Y006216D01*
X019064Y006216D01*
X019792Y006216D01*
X020009Y006432D01*
X020009Y007476D01*
X019851Y007476D01*
X019025Y007476D01*
X018906Y007476D01*
X019025Y006846D02*
X019027Y006887D01*
X019033Y006928D01*
X019043Y006968D01*
X019056Y007007D01*
X019073Y007044D01*
X019094Y007080D01*
X019118Y007114D01*
X019145Y007145D01*
X019174Y007173D01*
X019207Y007199D01*
X019241Y007221D01*
X019278Y007240D01*
X019316Y007255D01*
X019356Y007267D01*
X019396Y007275D01*
X019437Y007279D01*
X019479Y007279D01*
X019520Y007275D01*
X019560Y007267D01*
X019600Y007255D01*
X019638Y007240D01*
X019674Y007221D01*
X019709Y007199D01*
X019742Y007173D01*
X019771Y007145D01*
X019798Y007114D01*
X019822Y007080D01*
X019843Y007044D01*
X019860Y007007D01*
X019873Y006968D01*
X019883Y006928D01*
X019889Y006887D01*
X019891Y006846D01*
X019889Y006805D01*
X019883Y006764D01*
X019873Y006724D01*
X019860Y006685D01*
X019843Y006648D01*
X019822Y006612D01*
X019798Y006578D01*
X019771Y006547D01*
X019742Y006519D01*
X019709Y006493D01*
X019675Y006471D01*
X019638Y006452D01*
X019600Y006437D01*
X019560Y006425D01*
X019520Y006417D01*
X019479Y006413D01*
X019437Y006413D01*
X019396Y006417D01*
X019356Y006425D01*
X019316Y006437D01*
X019278Y006452D01*
X019242Y006471D01*
X019207Y006493D01*
X019174Y006519D01*
X019145Y006547D01*
X019118Y006578D01*
X019094Y006612D01*
X019073Y006648D01*
X019056Y006685D01*
X019043Y006724D01*
X019033Y006764D01*
X019027Y006805D01*
X019025Y006846D01*
X020009Y006432D02*
X020009Y006216D01*
X019851Y006216D01*
X019792Y006216D01*
X019698Y003456D02*
X019548Y003456D01*
X017848Y003456D01*
X017698Y003456D01*
X017498Y003256D01*
X017498Y002656D01*
X017498Y002649D02*
X017498Y001856D01*
X017498Y001256D01*
X017698Y001056D01*
X017848Y001056D01*
X019548Y001056D01*
X019698Y001056D01*
X019898Y001256D01*
X019898Y001856D01*
X019898Y002661D01*
X019898Y002656D02*
X019898Y003256D01*
X019698Y003456D01*
X019698Y002756D02*
X019698Y002456D01*
X019548Y002106D01*
X019698Y002056D02*
X019698Y001756D01*
X017998Y002256D02*
X018000Y002308D01*
X018006Y002360D01*
X018016Y002412D01*
X018029Y002462D01*
X018046Y002512D01*
X018067Y002560D01*
X018092Y002606D01*
X018120Y002650D01*
X018151Y002692D01*
X018185Y002732D01*
X018222Y002769D01*
X018262Y002803D01*
X018304Y002834D01*
X018348Y002862D01*
X018394Y002887D01*
X018442Y002908D01*
X018492Y002925D01*
X018542Y002938D01*
X018594Y002948D01*
X018646Y002954D01*
X018698Y002956D01*
X018750Y002954D01*
X018802Y002948D01*
X018854Y002938D01*
X018904Y002925D01*
X018954Y002908D01*
X019002Y002887D01*
X019048Y002862D01*
X019092Y002834D01*
X019134Y002803D01*
X019174Y002769D01*
X019211Y002732D01*
X019245Y002692D01*
X019276Y002650D01*
X019304Y002606D01*
X019329Y002560D01*
X019350Y002512D01*
X019367Y002462D01*
X019380Y002412D01*
X019390Y002360D01*
X019396Y002308D01*
X019398Y002256D01*
X019396Y002204D01*
X019390Y002152D01*
X019380Y002100D01*
X019367Y002050D01*
X019350Y002000D01*
X019329Y001952D01*
X019304Y001906D01*
X019276Y001862D01*
X019245Y001820D01*
X019211Y001780D01*
X019174Y001743D01*
X019134Y001709D01*
X019092Y001678D01*
X019048Y001650D01*
X019002Y001625D01*
X018954Y001604D01*
X018904Y001587D01*
X018854Y001574D01*
X018802Y001564D01*
X018750Y001558D01*
X018698Y001556D01*
X018646Y001558D01*
X018594Y001564D01*
X018542Y001574D01*
X018492Y001587D01*
X018442Y001604D01*
X018394Y001625D01*
X018348Y001650D01*
X018304Y001678D01*
X018262Y001709D01*
X018222Y001743D01*
X018185Y001780D01*
X018151Y001820D01*
X018120Y001862D01*
X018092Y001906D01*
X018067Y001952D01*
X018046Y002000D01*
X018029Y002050D01*
X018016Y002100D01*
X018006Y002152D01*
X018000Y002204D01*
X017998Y002256D01*
D22*
X019340Y006728D03*
X019576Y006728D03*
M02*
