G75*
G70*
%OFA0B0*%
%FSLAX24Y24*%
%IPPOS*%
%LPD*%
%AMOC8*
5,1,8,0,0,1.08239X$1,22.5*
%
%ADD10R,0.0787X0.0630*%
%ADD11C,0.0740*%
%ADD12C,0.1266*%
%ADD13R,0.0390X0.0118*%
%ADD14R,0.0709X0.0630*%
%ADD15R,0.0630X0.0709*%
%ADD16R,0.0472X0.0118*%
%ADD17R,0.0118X0.0472*%
%ADD18R,0.0630X0.0787*%
%ADD19R,0.0760X0.2100*%
%ADD20R,0.0500X0.0250*%
%ADD21R,0.0250X0.0500*%
%ADD22R,0.3150X0.0400*%
%ADD23C,0.0160*%
%ADD24C,0.0100*%
%ADD25C,0.0120*%
%ADD26C,0.0310*%
D10*
X009688Y002725D03*
X009688Y003827D03*
X009888Y005465D03*
X009888Y006567D03*
X021708Y006595D03*
X021708Y007697D03*
D11*
X008103Y005994D03*
X008103Y005060D03*
X008103Y004172D03*
X008103Y003238D03*
D12*
X007158Y002332D03*
X007158Y006899D03*
D13*
X009061Y004843D03*
X009061Y004646D03*
X009061Y004449D03*
X009695Y004449D03*
X009695Y004646D03*
X009695Y004843D03*
D14*
X010688Y003817D03*
X010688Y002715D03*
D15*
X010719Y001866D03*
X009616Y001866D03*
X020496Y001896D03*
X021599Y001896D03*
X021559Y003696D03*
X020456Y003696D03*
X012979Y007816D03*
X011876Y007816D03*
D16*
X012644Y006012D03*
X012644Y005815D03*
X012644Y005619D03*
X012644Y005422D03*
X012644Y005225D03*
X012644Y005028D03*
X012644Y004831D03*
X012644Y004634D03*
X012644Y004437D03*
X012644Y004241D03*
X012644Y004044D03*
X012644Y003847D03*
X012644Y003650D03*
X012644Y003453D03*
X012644Y003256D03*
X012644Y003059D03*
X017132Y003059D03*
X017132Y003256D03*
X017132Y003453D03*
X017132Y003650D03*
X017132Y003847D03*
X017132Y004044D03*
X017132Y004241D03*
X017132Y004437D03*
X017132Y004634D03*
X017132Y004831D03*
X017132Y005028D03*
X017132Y005225D03*
X017132Y005422D03*
X017132Y005619D03*
X017132Y005815D03*
X017132Y006012D03*
D17*
X016364Y006780D03*
X016167Y006780D03*
X015970Y006780D03*
X015773Y006780D03*
X015577Y006780D03*
X015380Y006780D03*
X015183Y006780D03*
X014986Y006780D03*
X014789Y006780D03*
X014592Y006780D03*
X014396Y006780D03*
X014199Y006780D03*
X014002Y006780D03*
X013805Y006780D03*
X013608Y006780D03*
X013411Y006780D03*
X013411Y002292D03*
X013608Y002292D03*
X013805Y002292D03*
X014002Y002292D03*
X014199Y002292D03*
X014396Y002292D03*
X014592Y002292D03*
X014789Y002292D03*
X014986Y002292D03*
X015183Y002292D03*
X015380Y002292D03*
X015577Y002292D03*
X015773Y002292D03*
X015970Y002292D03*
X016167Y002292D03*
X016364Y002292D03*
D18*
X020466Y002796D03*
X021569Y002796D03*
D19*
X018838Y002116D03*
X018838Y005916D03*
D20*
X011798Y004546D03*
X011798Y004046D03*
D21*
X017398Y008146D03*
X017898Y008146D03*
D22*
X023868Y005466D03*
X023868Y003896D03*
D23*
X006348Y000996D02*
X006348Y008386D01*
X017133Y008386D01*
X017133Y008150D01*
X016208Y007225D01*
X016208Y007196D01*
X016167Y007196D01*
X016084Y007196D01*
X016039Y007184D01*
X015998Y007160D01*
X015994Y007156D01*
X015891Y007156D01*
X015694Y007156D01*
X015497Y007156D01*
X015300Y007156D01*
X015103Y007156D01*
X014906Y007156D01*
X014709Y007156D01*
X014513Y007156D01*
X014316Y007156D01*
X014119Y007156D01*
X013922Y007156D01*
X013782Y007156D01*
X013778Y007160D01*
X013737Y007184D01*
X013691Y007196D01*
X013608Y007196D01*
X013525Y007196D01*
X013480Y007184D01*
X013439Y007160D01*
X013434Y007156D01*
X013294Y007156D01*
X013212Y007074D01*
X013212Y006966D01*
X013035Y006966D01*
X013048Y006979D01*
X013093Y007087D01*
X013093Y007204D01*
X013048Y007313D01*
X013039Y007321D01*
X013352Y007321D01*
X013434Y007403D01*
X013434Y008228D01*
X013352Y008310D01*
X012606Y008310D01*
X012524Y008228D01*
X012524Y007841D01*
X012371Y007688D01*
X012371Y007738D01*
X011954Y007738D01*
X011954Y007281D01*
X011965Y007281D01*
X011519Y006836D01*
X010421Y006836D01*
X010421Y006940D01*
X010339Y007022D01*
X009436Y007022D01*
X009354Y006940D01*
X009354Y006194D01*
X009436Y006112D01*
X010339Y006112D01*
X010421Y006194D01*
X010421Y006456D01*
X011519Y006456D01*
X011676Y006456D01*
X012574Y007353D01*
X012581Y007346D01*
X012548Y007313D01*
X012503Y007204D01*
X012503Y007087D01*
X012548Y006979D01*
X012580Y006946D01*
X012548Y006913D01*
X012503Y006804D01*
X012503Y006687D01*
X012548Y006579D01*
X012631Y006496D01*
X012739Y006451D01*
X012856Y006451D01*
X012965Y006496D01*
X012995Y006526D01*
X013212Y006526D01*
X013212Y006486D01*
X013294Y006404D01*
X013434Y006404D01*
X013439Y006400D01*
X013480Y006376D01*
X013525Y006364D01*
X013608Y006364D01*
X013608Y005104D01*
X013288Y005425D01*
X013288Y005819D01*
X013608Y005819D01*
X013608Y005978D02*
X013389Y005978D01*
X013393Y005987D02*
X013393Y006104D01*
X013348Y006213D01*
X013265Y006296D01*
X013156Y006341D01*
X013039Y006341D01*
X012931Y006296D01*
X012848Y006213D01*
X012847Y006211D01*
X012349Y006211D01*
X012267Y006129D01*
X012267Y005932D01*
X012267Y005736D01*
X012267Y005539D01*
X012267Y005342D01*
X012267Y005145D01*
X012267Y004948D01*
X012267Y004751D01*
X012267Y004554D01*
X012267Y004445D01*
X012188Y004525D01*
X012188Y004729D01*
X012106Y004811D01*
X011490Y004811D01*
X011408Y004729D01*
X011408Y004363D01*
X011475Y004296D01*
X011408Y004229D01*
X011408Y003863D01*
X011490Y003781D01*
X012106Y003781D01*
X012181Y003856D01*
X012267Y003856D01*
X012267Y003767D01*
X012267Y003570D01*
X012267Y003430D01*
X012263Y003426D01*
X012240Y003385D01*
X012227Y003339D01*
X012227Y003256D01*
X012227Y003174D01*
X012240Y003128D01*
X012263Y003087D01*
X012267Y003083D01*
X012267Y002942D01*
X012349Y002860D01*
X012478Y002860D01*
X012478Y002766D01*
X012206Y002766D01*
X012078Y002637D01*
X011214Y001773D01*
X011214Y001788D01*
X010797Y001788D01*
X010797Y001943D01*
X011214Y001943D01*
X011214Y002244D01*
X011201Y002290D01*
X011194Y002303D01*
X011210Y002330D01*
X011222Y002376D01*
X011222Y002637D01*
X010765Y002637D01*
X010765Y002220D01*
X010796Y002220D01*
X010796Y001944D01*
X010641Y001944D01*
X010641Y002400D01*
X010610Y002400D01*
X010610Y002637D01*
X010765Y002637D01*
X010765Y002792D01*
X010610Y002792D01*
X010610Y003210D01*
X010493Y003210D01*
X010493Y003230D01*
X010625Y003362D01*
X011100Y003362D01*
X011182Y003444D01*
X011182Y004190D01*
X011100Y004272D01*
X010683Y004272D01*
X010089Y004866D01*
X010030Y004866D01*
X010030Y004960D01*
X009980Y005010D01*
X010339Y005010D01*
X010421Y005092D01*
X010421Y005838D01*
X010339Y005920D01*
X009436Y005920D01*
X009354Y005838D01*
X009354Y005092D01*
X009423Y005023D01*
X009378Y004978D01*
X009314Y005042D01*
X008870Y005042D01*
X008788Y005125D01*
X008676Y005236D01*
X008581Y005236D01*
X008535Y005348D01*
X008391Y005492D01*
X008357Y005506D01*
X008391Y005523D01*
X008461Y005574D01*
X008522Y005635D01*
X008573Y005706D01*
X008612Y005783D01*
X008639Y005865D01*
X008652Y005950D01*
X008652Y005984D01*
X008113Y005984D01*
X008113Y006004D01*
X008652Y006004D01*
X008652Y006037D01*
X008639Y006123D01*
X008612Y006205D01*
X008573Y006282D01*
X008522Y006352D01*
X008461Y006413D01*
X008391Y006464D01*
X008314Y006503D01*
X008231Y006530D01*
X008146Y006544D01*
X008113Y006544D01*
X008113Y006004D01*
X008092Y006004D01*
X008092Y005984D01*
X007553Y005984D01*
X007553Y005950D01*
X007566Y005865D01*
X007593Y005783D01*
X007632Y005706D01*
X007683Y005635D01*
X007744Y005574D01*
X007814Y005523D01*
X007848Y005506D01*
X007814Y005492D01*
X007670Y005348D01*
X007593Y005161D01*
X007593Y004958D01*
X007670Y004771D01*
X007814Y004627D01*
X007841Y004616D01*
X007814Y004604D01*
X007670Y004461D01*
X007593Y004274D01*
X007593Y004071D01*
X007670Y003883D01*
X007814Y003740D01*
X007898Y003705D01*
X007814Y003670D01*
X007670Y003527D01*
X007593Y003339D01*
X007593Y003136D01*
X007670Y002949D01*
X007814Y002806D01*
X008001Y002728D01*
X008204Y002728D01*
X008391Y002806D01*
X008535Y002949D01*
X008612Y003136D01*
X008612Y003339D01*
X008535Y003527D01*
X008391Y003670D01*
X008307Y003705D01*
X008391Y003740D01*
X008535Y003883D01*
X008606Y004056D01*
X008676Y004056D01*
X008788Y004167D01*
X008870Y004250D01*
X009204Y004250D01*
X009154Y004200D01*
X009154Y003454D01*
X009236Y003372D01*
X009931Y003372D01*
X009903Y003304D01*
X009903Y003187D01*
X009906Y003180D01*
X009236Y003180D01*
X009154Y003098D01*
X009154Y002352D01*
X009194Y002311D01*
X009161Y002278D01*
X009161Y001453D01*
X009243Y001371D01*
X009978Y001371D01*
X009978Y001255D01*
X010106Y001126D01*
X010289Y001126D01*
X011189Y001126D01*
X011318Y001255D01*
X012389Y002326D01*
X012478Y002326D01*
X012478Y000996D01*
X006348Y000996D01*
X006348Y001063D02*
X012478Y001063D01*
X012478Y001221D02*
X011284Y001221D01*
X011318Y001255D02*
X011318Y001255D01*
X011443Y001380D02*
X012478Y001380D01*
X012478Y001539D02*
X011601Y001539D01*
X011760Y001697D02*
X012478Y001697D01*
X012478Y001856D02*
X011919Y001856D01*
X012077Y002014D02*
X012478Y002014D01*
X012478Y002173D02*
X012236Y002173D01*
X011772Y002331D02*
X011210Y002331D01*
X011214Y002173D02*
X011613Y002173D01*
X011455Y002014D02*
X011214Y002014D01*
X011296Y001856D02*
X010797Y001856D01*
X010796Y002014D02*
X010641Y002014D01*
X010641Y002173D02*
X010796Y002173D01*
X010765Y002331D02*
X010641Y002331D01*
X010610Y002490D02*
X010765Y002490D01*
X010765Y002648D02*
X012089Y002648D01*
X012078Y002637D02*
X012078Y002637D01*
X011931Y002490D02*
X011222Y002490D01*
X011222Y002792D02*
X010765Y002792D01*
X010765Y003210D01*
X011066Y003210D01*
X011111Y003197D01*
X011152Y003174D01*
X011186Y003140D01*
X011210Y003099D01*
X011222Y003053D01*
X011222Y002792D01*
X011222Y002807D02*
X012478Y002807D01*
X012267Y002965D02*
X011222Y002965D01*
X011195Y003124D02*
X012242Y003124D01*
X012227Y003256D02*
X012347Y003256D01*
X012347Y003256D01*
X012347Y003256D01*
X012227Y003256D01*
X012227Y003283D02*
X010545Y003283D01*
X010198Y003246D02*
X010698Y003746D01*
X011182Y003758D02*
X012267Y003758D01*
X012267Y003600D02*
X011182Y003600D01*
X011179Y003441D02*
X012267Y003441D01*
X012940Y003256D02*
X012940Y003256D01*
X012940Y003256D01*
X013060Y003256D01*
X013060Y003174D01*
X013047Y003128D01*
X013024Y003087D01*
X013020Y003083D01*
X013020Y002942D01*
X012938Y002860D01*
X012918Y002860D01*
X012918Y002637D01*
X012918Y002455D01*
X012918Y001266D01*
X016178Y001266D01*
X016178Y001876D01*
X016167Y001876D01*
X016167Y001995D01*
X016167Y001995D01*
X016167Y001876D01*
X016084Y001876D01*
X016039Y001888D01*
X015998Y001911D01*
X015994Y001916D01*
X015853Y001916D01*
X015656Y001916D01*
X015460Y001916D01*
X015263Y001916D01*
X015066Y001916D01*
X014869Y001916D01*
X014672Y001916D01*
X014475Y001916D01*
X014278Y001916D01*
X014082Y001916D01*
X013885Y001916D01*
X013688Y001916D01*
X013491Y001916D01*
X013294Y001916D01*
X013212Y001997D01*
X013212Y002586D01*
X013294Y002668D01*
X013491Y002668D01*
X013608Y002668D01*
X013608Y003067D01*
X013508Y003167D01*
X013508Y003819D01*
X013448Y003879D01*
X013403Y003987D01*
X013403Y004104D01*
X013439Y004192D01*
X013431Y004196D01*
X013348Y004279D01*
X013303Y004387D01*
X013303Y004504D01*
X013348Y004613D01*
X013431Y004696D01*
X013465Y004710D01*
X013020Y005155D01*
X013020Y005145D01*
X013020Y004948D01*
X013020Y004751D01*
X013020Y004554D01*
X013020Y004358D01*
X013020Y004161D01*
X013020Y003964D01*
X013020Y003767D01*
X013020Y003570D01*
X013020Y003430D01*
X013024Y003426D01*
X013047Y003385D01*
X013060Y003339D01*
X013060Y003256D01*
X012940Y003256D01*
X013060Y003283D02*
X013508Y003283D01*
X013508Y003441D02*
X013020Y003441D01*
X013020Y003600D02*
X013508Y003600D01*
X013508Y003758D02*
X013020Y003758D01*
X013020Y003917D02*
X013432Y003917D01*
X013403Y004075D02*
X013020Y004075D01*
X013020Y004234D02*
X013392Y004234D01*
X013303Y004392D02*
X013020Y004392D01*
X013020Y004551D02*
X013322Y004551D01*
X013463Y004709D02*
X013020Y004709D01*
X013020Y004868D02*
X013307Y004868D01*
X013148Y005026D02*
X013020Y005026D01*
X013527Y005185D02*
X013608Y005185D01*
X013608Y005344D02*
X013369Y005344D01*
X013288Y005502D02*
X013608Y005502D01*
X013608Y005661D02*
X013288Y005661D01*
X013288Y005819D02*
X013348Y005879D01*
X013393Y005987D01*
X013379Y006136D02*
X013608Y006136D01*
X013608Y006295D02*
X013266Y006295D01*
X012929Y006295D02*
X010421Y006295D01*
X010364Y006136D02*
X012274Y006136D01*
X012267Y005978D02*
X008652Y005978D01*
X008624Y005819D02*
X009354Y005819D01*
X009354Y005661D02*
X008540Y005661D01*
X008367Y005502D02*
X009354Y005502D01*
X009354Y005344D02*
X008537Y005344D01*
X008727Y005185D02*
X009354Y005185D01*
X009329Y005026D02*
X009419Y005026D01*
X010030Y004868D02*
X012267Y004868D01*
X012267Y004709D02*
X012188Y004709D01*
X012188Y004551D02*
X012267Y004551D01*
X011408Y004551D02*
X010404Y004551D01*
X010562Y004392D02*
X011408Y004392D01*
X011413Y004234D02*
X011138Y004234D01*
X011182Y004075D02*
X011408Y004075D01*
X011408Y003917D02*
X011182Y003917D01*
X010598Y004046D02*
X009998Y004646D01*
X010245Y004709D02*
X011408Y004709D01*
X012267Y005026D02*
X010356Y005026D01*
X010421Y005185D02*
X012267Y005185D01*
X012267Y005344D02*
X010421Y005344D01*
X010421Y005502D02*
X012267Y005502D01*
X012267Y005661D02*
X010421Y005661D01*
X010421Y005819D02*
X012267Y005819D01*
X012733Y006453D02*
X010421Y006453D01*
X009412Y006136D02*
X008634Y006136D01*
X008564Y006295D02*
X009354Y006295D01*
X009354Y006453D02*
X008406Y006453D01*
X008113Y006453D02*
X008092Y006453D01*
X008092Y006544D02*
X008059Y006544D01*
X007974Y006530D01*
X007891Y006503D01*
X007814Y006464D01*
X007931Y006745D01*
X007931Y007053D01*
X007813Y007337D01*
X007596Y007555D01*
X007311Y007672D01*
X007004Y007672D01*
X006720Y007555D01*
X006502Y007337D01*
X006385Y007053D01*
X006385Y006745D01*
X006502Y006461D01*
X006720Y006244D01*
X007004Y006126D01*
X007311Y006126D01*
X007596Y006244D01*
X007631Y006279D01*
X007593Y006205D01*
X007566Y006123D01*
X007553Y006037D01*
X007553Y006004D01*
X008092Y006004D01*
X008092Y006544D01*
X007875Y006612D02*
X009354Y006612D01*
X009354Y006770D02*
X007931Y006770D01*
X007931Y006929D02*
X009354Y006929D01*
X010421Y006929D02*
X011612Y006929D01*
X011771Y007088D02*
X007916Y007088D01*
X007851Y007246D02*
X011929Y007246D01*
X011799Y007281D02*
X011799Y007738D01*
X011954Y007738D01*
X011954Y007893D01*
X012371Y007893D01*
X012371Y008194D01*
X012359Y008240D01*
X012335Y008281D01*
X012302Y008314D01*
X012261Y008338D01*
X012215Y008350D01*
X011954Y008350D01*
X011954Y007894D01*
X011799Y007894D01*
X011799Y008350D01*
X011538Y008350D01*
X011492Y008338D01*
X011451Y008314D01*
X011417Y008281D01*
X011394Y008240D01*
X011381Y008194D01*
X011381Y007893D01*
X011799Y007893D01*
X011799Y007738D01*
X011381Y007738D01*
X011381Y007438D01*
X011394Y007392D01*
X011417Y007351D01*
X011451Y007317D01*
X011492Y007294D01*
X011538Y007281D01*
X011799Y007281D01*
X011799Y007405D02*
X011954Y007405D01*
X011954Y007563D02*
X011799Y007563D01*
X011799Y007722D02*
X011954Y007722D01*
X011954Y007880D02*
X012524Y007880D01*
X012524Y008039D02*
X012371Y008039D01*
X012370Y008197D02*
X012524Y008197D01*
X011954Y008197D02*
X011799Y008197D01*
X011799Y008039D02*
X011954Y008039D01*
X011799Y007880D02*
X006348Y007880D01*
X006348Y008039D02*
X011381Y008039D01*
X011382Y008197D02*
X006348Y008197D01*
X006348Y008356D02*
X017133Y008356D01*
X017133Y008197D02*
X013434Y008197D01*
X013434Y008039D02*
X017022Y008039D01*
X016863Y007880D02*
X013434Y007880D01*
X013434Y007722D02*
X016705Y007722D01*
X016546Y007563D02*
X013434Y007563D01*
X013434Y007405D02*
X016388Y007405D01*
X016229Y007246D02*
X013075Y007246D01*
X013093Y007088D02*
X013226Y007088D01*
X013608Y007088D02*
X013608Y007088D01*
X013608Y007077D02*
X013608Y007196D01*
X013608Y007076D01*
X013608Y007077D01*
X013608Y007076D02*
X013608Y007076D01*
X013398Y006746D02*
X012798Y006746D01*
X012534Y006612D02*
X011832Y006612D01*
X011991Y006770D02*
X012503Y006770D01*
X012564Y006929D02*
X012150Y006929D01*
X012308Y007088D02*
X012503Y007088D01*
X012520Y007246D02*
X012467Y007246D01*
X012405Y007722D02*
X012371Y007722D01*
X011381Y007722D02*
X006348Y007722D01*
X006348Y007563D02*
X006740Y007563D01*
X006570Y007405D02*
X006348Y007405D01*
X006348Y007246D02*
X006465Y007246D01*
X006399Y007088D02*
X006348Y007088D01*
X006348Y006929D02*
X006385Y006929D01*
X006385Y006770D02*
X006348Y006770D01*
X006348Y006612D02*
X006440Y006612D01*
X006510Y006453D02*
X006348Y006453D01*
X006348Y006295D02*
X006669Y006295D01*
X006979Y006136D02*
X006348Y006136D01*
X006348Y005978D02*
X007553Y005978D01*
X007581Y005819D02*
X007432Y005819D01*
X007371Y005880D02*
X007207Y005948D01*
X007029Y005948D01*
X006865Y005880D01*
X006740Y005755D01*
X006672Y005590D01*
X006672Y005413D01*
X006740Y005249D01*
X006865Y005123D01*
X007029Y005055D01*
X007207Y005055D01*
X007371Y005123D01*
X007497Y005249D01*
X007565Y005413D01*
X007565Y005590D01*
X007497Y005755D01*
X007371Y005880D01*
X007536Y005661D02*
X007665Y005661D01*
X007565Y005502D02*
X007838Y005502D01*
X007668Y005344D02*
X007536Y005344D01*
X007603Y005185D02*
X007433Y005185D01*
X007593Y005026D02*
X006348Y005026D01*
X006348Y005185D02*
X006803Y005185D01*
X006700Y005344D02*
X006348Y005344D01*
X006348Y005502D02*
X006672Y005502D01*
X006701Y005661D02*
X006348Y005661D01*
X006348Y005819D02*
X006804Y005819D01*
X007336Y006136D02*
X007571Y006136D01*
X008092Y006136D02*
X008113Y006136D01*
X008113Y006295D02*
X008092Y006295D01*
X007814Y006464D02*
X007814Y006464D01*
X007746Y007405D02*
X011390Y007405D01*
X011381Y007563D02*
X007575Y007563D01*
X012862Y006453D02*
X013244Y006453D01*
X015898Y006396D02*
X015898Y005646D01*
X015998Y005546D01*
X015698Y005246D01*
X015998Y005546D02*
X016198Y005346D01*
X016748Y005346D01*
X017428Y005225D02*
X017428Y005225D01*
X017428Y005225D01*
X017548Y005225D01*
X017548Y005256D01*
X017553Y005256D01*
X017626Y005256D01*
X017631Y005260D01*
X017637Y005261D01*
X017686Y005315D01*
X017738Y005367D01*
X017738Y005374D01*
X017742Y005378D01*
X017742Y005379D01*
X017768Y005405D01*
X017768Y006458D01*
X018692Y007426D01*
X021174Y007426D01*
X021174Y007324D01*
X021256Y007242D01*
X022159Y007242D01*
X022241Y007324D01*
X022241Y007956D01*
X022270Y007956D01*
X022331Y007896D01*
X022439Y007851D01*
X022556Y007851D01*
X022665Y007896D01*
X022748Y007979D01*
X022793Y008087D01*
X022793Y008204D01*
X022748Y008313D01*
X022675Y008386D01*
X023359Y008386D01*
X023399Y008290D01*
X023492Y008197D01*
X022793Y008197D01*
X022773Y008039D02*
X025348Y008039D01*
X025348Y007880D02*
X022627Y007880D01*
X022368Y007880D02*
X022241Y007880D01*
X022241Y007722D02*
X025348Y007722D01*
X025348Y007563D02*
X022241Y007563D01*
X022241Y007405D02*
X025348Y007405D01*
X025348Y007274D02*
X025288Y007249D01*
X025203Y007284D01*
X025072Y007284D01*
X024988Y007249D01*
X024903Y007284D01*
X024772Y007284D01*
X024688Y007249D01*
X024603Y007284D01*
X024472Y007284D01*
X024388Y007249D01*
X024303Y007284D01*
X024172Y007284D01*
X024088Y007249D01*
X024003Y007284D01*
X023872Y007284D01*
X023788Y007249D01*
X023703Y007284D01*
X023572Y007284D01*
X023488Y007249D01*
X023403Y007284D01*
X023272Y007284D01*
X023188Y007249D01*
X023103Y007284D01*
X022972Y007284D01*
X022888Y007249D01*
X022803Y007284D01*
X022672Y007284D01*
X022588Y007249D01*
X022503Y007284D01*
X022372Y007284D01*
X022252Y007234D01*
X022159Y007142D01*
X022121Y007050D01*
X021256Y007050D01*
X021174Y006968D01*
X021174Y006222D01*
X021256Y006140D01*
X021508Y006140D01*
X021508Y005625D01*
X021508Y005467D01*
X021508Y004973D01*
X021448Y004913D01*
X021403Y004804D01*
X021403Y004687D01*
X021448Y004579D01*
X021531Y004496D01*
X021639Y004451D01*
X021756Y004451D01*
X021865Y004496D01*
X021948Y004579D01*
X021993Y004687D01*
X021993Y004804D01*
X021948Y004913D01*
X021888Y004973D01*
X021888Y005356D01*
X022153Y005356D01*
X022153Y005208D01*
X022235Y005126D01*
X025348Y005126D01*
X025348Y004276D01*
X023888Y004276D01*
X023888Y003916D01*
X023848Y003916D01*
X023848Y004276D01*
X022269Y004276D01*
X022223Y004264D01*
X022182Y004240D01*
X022149Y004206D01*
X022125Y004165D01*
X022113Y004120D01*
X022113Y003916D01*
X023847Y003916D01*
X023847Y003876D01*
X022113Y003876D01*
X022113Y003672D01*
X022125Y003626D01*
X022149Y003585D01*
X022182Y003552D01*
X022206Y003538D01*
X022159Y003492D01*
X022109Y003371D01*
X022109Y003240D01*
X022144Y003156D01*
X022109Y003071D01*
X022109Y002940D01*
X022144Y002856D01*
X022109Y002771D01*
X022109Y002640D01*
X022144Y002556D01*
X022109Y002471D01*
X022109Y002340D01*
X022159Y002220D01*
X022252Y002127D01*
X022372Y002077D01*
X022503Y002077D01*
X022588Y002112D01*
X022672Y002077D01*
X022803Y002077D01*
X022888Y002112D01*
X022972Y002077D01*
X023103Y002077D01*
X023188Y002112D01*
X023272Y002077D01*
X023403Y002077D01*
X023488Y002112D01*
X023572Y002077D01*
X023703Y002077D01*
X023788Y002112D01*
X023872Y002077D01*
X024003Y002077D01*
X024088Y002112D01*
X024172Y002077D01*
X024303Y002077D01*
X024388Y002112D01*
X024472Y002077D01*
X024603Y002077D01*
X024688Y002112D01*
X024772Y002077D01*
X024903Y002077D01*
X024988Y002112D01*
X025072Y002077D01*
X025203Y002077D01*
X025288Y002112D01*
X025348Y002088D01*
X025348Y000996D01*
X024888Y000996D01*
X024856Y001072D01*
X024764Y001164D01*
X024643Y001214D01*
X024512Y001214D01*
X024428Y001179D01*
X024343Y001214D01*
X024212Y001214D01*
X024128Y001179D01*
X024043Y001214D01*
X023912Y001214D01*
X023828Y001179D01*
X023743Y001214D01*
X023612Y001214D01*
X023492Y001164D01*
X023399Y001072D01*
X023368Y000996D01*
X019346Y000996D01*
X019358Y001008D01*
X019358Y001317D01*
X019519Y001156D01*
X019676Y001156D01*
X020876Y001156D01*
X020988Y001267D01*
X021146Y001425D01*
X021173Y001397D01*
X021214Y001374D01*
X021260Y001361D01*
X021521Y001361D01*
X021521Y001818D01*
X021676Y001818D01*
X021676Y001361D01*
X021937Y001361D01*
X021983Y001374D01*
X022024Y001397D01*
X022058Y001431D01*
X022081Y001472D01*
X022094Y001518D01*
X022094Y001818D01*
X021677Y001818D01*
X021677Y001973D01*
X022094Y001973D01*
X022094Y002274D01*
X022081Y002320D01*
X022058Y002361D01*
X022024Y002394D01*
X022024Y002394D01*
X022024Y003248D01*
X022001Y003270D01*
X022014Y003283D01*
X022014Y004108D01*
X021932Y004190D01*
X021186Y004190D01*
X021104Y004108D01*
X021104Y003283D01*
X021127Y003260D01*
X021114Y003248D01*
X021114Y002631D01*
X020921Y002438D01*
X020921Y003241D01*
X020939Y003272D01*
X020951Y003318D01*
X020951Y003618D01*
X020534Y003618D01*
X020534Y003773D01*
X020951Y003773D01*
X020951Y004074D01*
X020939Y004120D01*
X020915Y004161D01*
X020882Y004194D01*
X020841Y004218D01*
X020795Y004230D01*
X020534Y004230D01*
X020534Y003774D01*
X020379Y003774D01*
X020379Y004230D01*
X020118Y004230D01*
X020072Y004218D01*
X020031Y004194D01*
X019997Y004161D01*
X019974Y004120D01*
X019961Y004074D01*
X019961Y003773D01*
X020379Y003773D01*
X020379Y003618D01*
X019961Y003618D01*
X019961Y003551D01*
X019276Y004236D01*
X019119Y004236D01*
X019088Y004236D01*
X019088Y004726D01*
X019276Y004726D01*
X019358Y004808D01*
X019358Y007024D01*
X019276Y007106D01*
X018400Y007106D01*
X018318Y007024D01*
X018318Y004808D01*
X018400Y004726D01*
X018708Y004726D01*
X018708Y004236D01*
X017508Y004236D01*
X017508Y004320D01*
X017508Y004517D01*
X017508Y004714D01*
X017508Y004911D01*
X017508Y005051D01*
X017512Y005055D01*
X017536Y005096D01*
X017548Y005142D01*
X017548Y005225D01*
X017428Y005225D01*
X017548Y005185D02*
X018318Y005185D01*
X018318Y005026D02*
X017508Y005026D01*
X017508Y004868D02*
X018318Y004868D01*
X018708Y004709D02*
X017508Y004709D01*
X017508Y004551D02*
X018708Y004551D01*
X018708Y004392D02*
X017508Y004392D01*
X019088Y004392D02*
X025348Y004392D01*
X025348Y004551D02*
X021920Y004551D01*
X021993Y004709D02*
X025348Y004709D01*
X025348Y004868D02*
X021966Y004868D01*
X021888Y005026D02*
X025348Y005026D01*
X023888Y004234D02*
X023848Y004234D01*
X023848Y004075D02*
X023888Y004075D01*
X023888Y003917D02*
X023848Y003917D01*
X022176Y004234D02*
X019278Y004234D01*
X019437Y004075D02*
X019962Y004075D01*
X019961Y003917D02*
X019595Y003917D01*
X019754Y003758D02*
X020379Y003758D01*
X020534Y003758D02*
X021104Y003758D01*
X021104Y003600D02*
X020951Y003600D01*
X020951Y003441D02*
X021104Y003441D01*
X021105Y003283D02*
X020942Y003283D01*
X020921Y003124D02*
X021114Y003124D01*
X021114Y002965D02*
X020921Y002965D01*
X020921Y002807D02*
X021114Y002807D01*
X021114Y002648D02*
X020921Y002648D01*
X020921Y002490D02*
X020973Y002490D01*
X022024Y002490D02*
X022117Y002490D01*
X022109Y002648D02*
X022024Y002648D01*
X022024Y002807D02*
X022124Y002807D01*
X022109Y002965D02*
X022024Y002965D01*
X022024Y003124D02*
X022131Y003124D01*
X022109Y003283D02*
X022013Y003283D01*
X022014Y003441D02*
X022138Y003441D01*
X022140Y003600D02*
X022014Y003600D01*
X022014Y003758D02*
X022113Y003758D01*
X022113Y003917D02*
X022014Y003917D01*
X022014Y004075D02*
X022113Y004075D01*
X021104Y004075D02*
X020951Y004075D01*
X020951Y003917D02*
X021104Y003917D01*
X020534Y003917D02*
X020379Y003917D01*
X020379Y004075D02*
X020534Y004075D01*
X019961Y003600D02*
X019913Y003600D01*
X019088Y004551D02*
X021475Y004551D01*
X021403Y004709D02*
X019088Y004709D01*
X019358Y004868D02*
X021429Y004868D01*
X021508Y005026D02*
X019358Y005026D01*
X019358Y005185D02*
X021508Y005185D01*
X021508Y005344D02*
X019358Y005344D01*
X019358Y005502D02*
X021508Y005502D01*
X021508Y005661D02*
X019358Y005661D01*
X019358Y005819D02*
X021508Y005819D01*
X021508Y005978D02*
X019358Y005978D01*
X019358Y006136D02*
X021508Y006136D01*
X021174Y006295D02*
X019358Y006295D01*
X019358Y006453D02*
X021174Y006453D01*
X021174Y006612D02*
X019358Y006612D01*
X019358Y006770D02*
X021174Y006770D01*
X021174Y006929D02*
X019358Y006929D01*
X019294Y007088D02*
X022137Y007088D01*
X022163Y007246D02*
X022280Y007246D01*
X021698Y007646D02*
X018598Y007646D01*
X017548Y006546D01*
X017548Y005496D01*
X017768Y005502D02*
X018318Y005502D01*
X018318Y005344D02*
X017714Y005344D01*
X017768Y005661D02*
X018318Y005661D01*
X018318Y005819D02*
X017768Y005819D01*
X017768Y005978D02*
X018318Y005978D01*
X018318Y006136D02*
X017768Y006136D01*
X017768Y006295D02*
X018318Y006295D01*
X018318Y006453D02*
X017768Y006453D01*
X017915Y006612D02*
X018318Y006612D01*
X018318Y006770D02*
X018066Y006770D01*
X018217Y006929D02*
X018318Y006929D01*
X018369Y007088D02*
X018381Y007088D01*
X018520Y007246D02*
X021252Y007246D01*
X021174Y007405D02*
X018671Y007405D01*
X016167Y007196D02*
X016167Y007076D01*
X016167Y007076D01*
X016167Y007076D01*
X016167Y007196D01*
X016167Y007088D02*
X016167Y007088D01*
X015948Y006446D02*
X015898Y006396D01*
X021888Y005344D02*
X022153Y005344D01*
X022175Y005185D02*
X021888Y005185D01*
X025348Y007274D02*
X025348Y008386D01*
X024896Y008386D01*
X024856Y008290D01*
X024764Y008197D01*
X024643Y008147D01*
X024512Y008147D01*
X024428Y008182D01*
X024343Y008147D01*
X024212Y008147D01*
X024128Y008182D01*
X024043Y008147D01*
X023912Y008147D01*
X023828Y008182D01*
X023743Y008147D01*
X023612Y008147D01*
X023492Y008197D01*
X023372Y008356D02*
X022705Y008356D01*
X024764Y008197D02*
X025348Y008197D01*
X025348Y008356D02*
X024883Y008356D01*
X016398Y002746D02*
X015698Y003446D01*
X016398Y002746D02*
X016398Y002346D01*
X016398Y002246D02*
X016398Y002046D01*
X016698Y002046D01*
X016398Y002046D02*
X016398Y001046D01*
X012698Y001046D01*
X012698Y002546D01*
X012298Y002546D01*
X011098Y001346D01*
X010198Y001346D01*
X010198Y001546D01*
X010011Y001221D02*
X006348Y001221D01*
X006348Y001380D02*
X009235Y001380D01*
X009161Y001539D02*
X006348Y001539D01*
X006348Y001697D02*
X006700Y001697D01*
X006720Y001677D02*
X007004Y001559D01*
X007311Y001559D01*
X007596Y001677D01*
X007813Y001894D01*
X007931Y002179D01*
X007931Y002486D01*
X007813Y002770D01*
X007596Y002988D01*
X007311Y003105D01*
X007004Y003105D01*
X006720Y002988D01*
X006502Y002770D01*
X006385Y002486D01*
X006385Y002179D01*
X006502Y001894D01*
X006720Y001677D01*
X006541Y001856D02*
X006348Y001856D01*
X006348Y002014D02*
X006453Y002014D01*
X006387Y002173D02*
X006348Y002173D01*
X006348Y002331D02*
X006385Y002331D01*
X006386Y002490D02*
X006348Y002490D01*
X006348Y002648D02*
X006452Y002648D01*
X006539Y002807D02*
X006348Y002807D01*
X006348Y002965D02*
X006697Y002965D01*
X006348Y003124D02*
X007598Y003124D01*
X007618Y002965D02*
X007663Y002965D01*
X007776Y002807D02*
X007812Y002807D01*
X007864Y002648D02*
X009154Y002648D01*
X009154Y002490D02*
X007929Y002490D01*
X007931Y002331D02*
X009174Y002331D01*
X009161Y002173D02*
X007928Y002173D01*
X007863Y002014D02*
X009161Y002014D01*
X009161Y001856D02*
X007774Y001856D01*
X007616Y001697D02*
X009161Y001697D01*
X009154Y002807D02*
X008393Y002807D01*
X008542Y002965D02*
X009154Y002965D01*
X009180Y003124D02*
X008607Y003124D01*
X008612Y003283D02*
X009903Y003283D01*
X010610Y003124D02*
X010765Y003124D01*
X010765Y002965D02*
X010610Y002965D01*
X010610Y002807D02*
X010765Y002807D01*
X009167Y003441D02*
X008570Y003441D01*
X008462Y003600D02*
X009154Y003600D01*
X009154Y003758D02*
X008410Y003758D01*
X008549Y003917D02*
X009154Y003917D01*
X009154Y004075D02*
X008696Y004075D01*
X008854Y004234D02*
X009188Y004234D01*
X008686Y004602D02*
X008538Y004454D01*
X008535Y004461D01*
X008391Y004604D01*
X008364Y004616D01*
X008391Y004627D01*
X008535Y004771D01*
X008555Y004820D01*
X008686Y004689D01*
X008686Y004646D01*
X008805Y004646D01*
X008806Y004646D01*
X008805Y004646D01*
X008686Y004646D01*
X008686Y004602D01*
X008634Y004551D02*
X008445Y004551D01*
X008474Y004709D02*
X008665Y004709D01*
X007760Y004551D02*
X006348Y004551D01*
X006348Y004392D02*
X007642Y004392D01*
X007593Y004234D02*
X006348Y004234D01*
X006348Y004075D02*
X006832Y004075D01*
X006865Y004109D02*
X006740Y003983D01*
X006672Y003819D01*
X006672Y003641D01*
X006740Y003477D01*
X006865Y003351D01*
X007029Y003283D01*
X007207Y003283D01*
X007371Y003351D01*
X007497Y003477D01*
X007565Y003641D01*
X007565Y003819D01*
X007497Y003983D01*
X007371Y004109D01*
X007207Y004176D01*
X007029Y004176D01*
X006865Y004109D01*
X006712Y003917D02*
X006348Y003917D01*
X006348Y003758D02*
X006672Y003758D01*
X006689Y003600D02*
X006348Y003600D01*
X006348Y003441D02*
X006776Y003441D01*
X006348Y003283D02*
X007593Y003283D01*
X007635Y003441D02*
X007461Y003441D01*
X007548Y003600D02*
X007743Y003600D01*
X007795Y003758D02*
X007565Y003758D01*
X007524Y003917D02*
X007656Y003917D01*
X007593Y004075D02*
X007404Y004075D01*
X007731Y004709D02*
X006348Y004709D01*
X006348Y004868D02*
X007630Y004868D01*
X012698Y003046D02*
X012698Y002546D01*
X012918Y002490D02*
X013212Y002490D01*
X013275Y002648D02*
X012918Y002648D01*
X012918Y002807D02*
X013608Y002807D01*
X013608Y002965D02*
X013020Y002965D01*
X013045Y003124D02*
X013551Y003124D01*
X013212Y002331D02*
X012918Y002331D01*
X012918Y002173D02*
X013212Y002173D01*
X013212Y002014D02*
X012918Y002014D01*
X012918Y001856D02*
X016178Y001856D01*
X016167Y001995D02*
X016167Y001995D01*
X016178Y001697D02*
X012918Y001697D01*
X012918Y001539D02*
X016178Y001539D01*
X016178Y001380D02*
X012918Y001380D01*
X019358Y001221D02*
X019453Y001221D01*
X019358Y001063D02*
X023396Y001063D01*
X022094Y001539D02*
X025348Y001539D01*
X025348Y001697D02*
X022094Y001697D01*
X021676Y001697D02*
X021521Y001697D01*
X021521Y001539D02*
X021676Y001539D01*
X021676Y001380D02*
X021521Y001380D01*
X021204Y001380D02*
X021100Y001380D01*
X020942Y001221D02*
X025348Y001221D01*
X025348Y001063D02*
X024860Y001063D01*
X025348Y001380D02*
X021994Y001380D01*
X021677Y001856D02*
X025348Y001856D01*
X025348Y002014D02*
X022094Y002014D01*
X022094Y002173D02*
X022206Y002173D01*
X022113Y002331D02*
X022075Y002331D01*
D24*
X022058Y002236D02*
X021698Y001946D01*
X021599Y001896D01*
X021598Y001846D01*
X021598Y001246D01*
X020998Y001546D02*
X020798Y001346D01*
X019598Y001346D01*
X018898Y002046D01*
X018838Y002116D01*
X018798Y002146D01*
X018798Y002446D01*
X017398Y003846D01*
X017198Y003846D01*
X017132Y003847D01*
X017132Y004044D02*
X017198Y004046D01*
X018898Y004046D01*
X018898Y005846D01*
X018838Y005916D01*
X018298Y005946D02*
X018298Y007046D01*
X018398Y007146D01*
X019198Y007146D01*
X020398Y005946D01*
X020398Y004246D01*
X021998Y004246D01*
X022498Y003746D01*
X022058Y003476D01*
X022058Y002236D01*
X021498Y002746D02*
X020998Y002246D01*
X020998Y001546D01*
X020496Y001896D02*
X020498Y001946D01*
X020498Y002746D01*
X020466Y002796D01*
X020398Y002846D01*
X019198Y004046D01*
X018898Y004046D01*
X020398Y004246D02*
X020398Y003746D01*
X020456Y003696D01*
X021559Y003696D02*
X021598Y003646D01*
X021598Y002846D01*
X021569Y002796D01*
X021498Y002746D01*
X022498Y003746D02*
X022598Y003846D01*
X023798Y003846D01*
X021698Y004746D02*
X021698Y005546D01*
X023798Y005546D01*
X023868Y005466D01*
X021698Y005546D02*
X021698Y006546D01*
X021708Y006595D01*
X021698Y007646D02*
X021708Y007697D01*
X022498Y008146D02*
X018698Y008146D01*
X016398Y005846D01*
X016698Y005846D02*
X016698Y005746D01*
X016498Y005546D01*
X016298Y005546D01*
X016098Y005746D01*
X016098Y006046D01*
X017898Y007846D01*
X017898Y008146D01*
X017398Y008146D02*
X016398Y007146D01*
X016398Y006846D01*
X016364Y006780D01*
X016148Y006996D02*
X016198Y007046D01*
X016198Y007546D01*
X015970Y006780D02*
X015948Y006746D01*
X015948Y006446D01*
X016698Y005846D02*
X016898Y006046D01*
X017098Y006046D01*
X017132Y006012D01*
X017598Y005246D02*
X018298Y005946D01*
X017548Y005496D02*
X017548Y005446D01*
X017132Y005422D01*
X017098Y005446D01*
X016898Y005446D01*
X016748Y005346D01*
X017132Y005225D02*
X017198Y005246D01*
X017598Y005246D01*
X016598Y004946D02*
X015698Y004046D01*
X015098Y004046D01*
X014998Y003746D02*
X015798Y003746D01*
X017398Y002146D01*
X017398Y001746D01*
X016398Y002246D02*
X016364Y002292D01*
X016148Y002196D02*
X016148Y001746D01*
X016098Y001696D01*
X015577Y002292D02*
X015598Y002346D01*
X015598Y002846D01*
X013098Y005346D01*
X013098Y006046D01*
X013998Y006446D02*
X015498Y004946D01*
X016198Y004946D01*
X016798Y004246D02*
X016598Y004046D01*
X016798Y004246D02*
X017098Y004246D01*
X017132Y004241D01*
X014998Y003746D02*
X013798Y004946D01*
X013798Y006746D01*
X013805Y006780D01*
X013998Y006746D02*
X014002Y006780D01*
X013998Y006746D02*
X013998Y006446D01*
X013608Y006780D02*
X013598Y006846D01*
X013598Y008046D01*
X013298Y008346D01*
X012398Y008346D01*
X011898Y007846D01*
X011876Y007816D01*
X011798Y007746D01*
X009898Y007746D01*
X008198Y006046D01*
X008103Y005994D01*
X008198Y005946D01*
X010298Y005946D01*
X011198Y005046D01*
X011198Y003246D01*
X010698Y002746D01*
X010688Y002715D01*
X010698Y002646D01*
X010698Y001946D01*
X010719Y001866D01*
X010198Y001546D02*
X010198Y003246D01*
X011198Y003246D02*
X012598Y003246D01*
X012644Y003256D01*
X012644Y003059D02*
X012698Y003046D01*
X013698Y003246D02*
X013798Y003146D01*
X013798Y002346D01*
X013805Y002292D01*
X014002Y002292D02*
X013998Y002346D01*
X013998Y003346D01*
X014198Y003146D02*
X014298Y003246D01*
X014298Y003846D01*
X013698Y004446D01*
X013598Y004446D01*
X013698Y004046D02*
X013698Y003246D01*
X014198Y003146D02*
X014198Y002346D01*
X014199Y002292D01*
X010698Y003746D02*
X010688Y003817D01*
X010598Y003846D01*
X010598Y004046D01*
X009698Y003846D02*
X009688Y003827D01*
X009698Y003846D02*
X009698Y004446D01*
X009695Y004449D01*
X009061Y004449D02*
X008998Y004446D01*
X008798Y004446D01*
X008598Y004246D01*
X008198Y004246D01*
X008103Y004172D01*
X008598Y004646D02*
X009061Y004646D01*
X009061Y004843D02*
X008998Y004846D01*
X008798Y004846D01*
X008598Y005046D01*
X008198Y005046D01*
X008103Y005060D01*
X009695Y004843D02*
X009698Y004846D01*
X009698Y005346D01*
X009798Y005446D01*
X009888Y005465D01*
X011798Y004546D02*
X011898Y004546D01*
X012198Y004246D01*
X012598Y004246D01*
X012644Y004241D01*
X012644Y004044D02*
X012598Y004046D01*
X011798Y004046D01*
X009688Y002725D02*
X009698Y002646D01*
X009698Y001946D01*
X009616Y001866D01*
X009888Y006567D02*
X009898Y006646D01*
X011598Y006646D01*
X012698Y007746D01*
X012798Y007746D01*
X012979Y007816D01*
X012898Y007746D01*
X012798Y007746D01*
X012798Y007146D01*
X013411Y006780D02*
X013398Y006746D01*
D25*
X009998Y004646D02*
X009695Y004646D01*
X016364Y002292D02*
X016398Y002346D01*
D26*
X016698Y002046D03*
X017398Y001746D03*
X016098Y001696D03*
X013998Y003346D03*
X015698Y003446D03*
X015098Y004046D03*
X013698Y004046D03*
X013598Y004446D03*
X015698Y005246D03*
X016198Y004946D03*
X016598Y004946D03*
X016598Y004046D03*
X016398Y005846D03*
X013098Y006046D03*
X012798Y006746D03*
X012798Y007146D03*
X016198Y007546D03*
X022498Y008146D03*
X021698Y004746D03*
X021598Y001246D03*
X010198Y003246D03*
X008598Y004646D03*
M02*
