G75*
G70*
%OFA0B0*%
%FSLAX24Y24*%
%IPPOS*%
%LPD*%
%AMOC8*
5,1,8,0,0,1.08239X$1,22.5*
%
%ADD10C,0.0085*%
%ADD11C,0.0820*%
%ADD12C,0.1346*%
%ADD13C,0.0513*%
%ADD14C,0.0081*%
%ADD15C,0.0084*%
%ADD16C,0.0080*%
%ADD17C,0.0081*%
%ADD18C,0.0082*%
%ADD19C,0.0085*%
%ADD20C,0.0277*%
%ADD21C,0.0083*%
%ADD22C,0.0390*%
D10*
X009699Y003022D02*
X009699Y003648D01*
X009699Y003022D02*
X008917Y003022D01*
X008917Y003648D01*
X009699Y003648D01*
X009699Y003106D02*
X008917Y003106D01*
X008917Y003190D02*
X009699Y003190D01*
X009699Y003274D02*
X008917Y003274D01*
X008917Y003358D02*
X009699Y003358D01*
X009699Y003442D02*
X008917Y003442D01*
X008917Y003526D02*
X009699Y003526D01*
X009699Y003610D02*
X008917Y003610D01*
X009699Y004124D02*
X009699Y004750D01*
X009699Y004124D02*
X008917Y004124D01*
X008917Y004750D01*
X009699Y004750D01*
X009699Y004208D02*
X008917Y004208D01*
X008917Y004292D02*
X009699Y004292D01*
X009699Y004376D02*
X008917Y004376D01*
X008917Y004460D02*
X009699Y004460D01*
X009699Y004544D02*
X008917Y004544D01*
X008917Y004628D02*
X009699Y004628D01*
X009699Y004712D02*
X008917Y004712D01*
X011473Y004955D02*
X012099Y004955D01*
X011473Y004955D02*
X011473Y005737D01*
X012099Y005737D01*
X012099Y004955D01*
X012099Y005039D02*
X011473Y005039D01*
X011473Y005123D02*
X012099Y005123D01*
X012099Y005207D02*
X011473Y005207D01*
X011473Y005291D02*
X012099Y005291D01*
X012099Y005375D02*
X011473Y005375D01*
X011473Y005459D02*
X012099Y005459D01*
X012099Y005543D02*
X011473Y005543D01*
X011473Y005627D02*
X012099Y005627D01*
X012099Y005711D02*
X011473Y005711D01*
X012576Y004955D02*
X013202Y004955D01*
X012576Y004955D02*
X012576Y005737D01*
X013202Y005737D01*
X013202Y004955D01*
X013202Y005039D02*
X012576Y005039D01*
X012576Y005123D02*
X013202Y005123D01*
X013202Y005207D02*
X012576Y005207D01*
X012576Y005291D02*
X013202Y005291D01*
X013202Y005375D02*
X012576Y005375D01*
X012576Y005459D02*
X013202Y005459D01*
X013202Y005543D02*
X012576Y005543D01*
X012576Y005627D02*
X013202Y005627D01*
X013202Y005711D02*
X012576Y005711D01*
X014243Y004947D02*
X014869Y004947D01*
X014869Y004165D01*
X014243Y004165D01*
X014243Y004947D01*
X014243Y004249D02*
X014869Y004249D01*
X014869Y004333D02*
X014243Y004333D01*
X014243Y004417D02*
X014869Y004417D01*
X014869Y004501D02*
X014243Y004501D01*
X014243Y004585D02*
X014869Y004585D01*
X014869Y004669D02*
X014243Y004669D01*
X014243Y004753D02*
X014869Y004753D01*
X014869Y004837D02*
X014243Y004837D01*
X014243Y004921D02*
X014869Y004921D01*
X015346Y004947D02*
X015972Y004947D01*
X015972Y004165D01*
X015346Y004165D01*
X015346Y004947D01*
X015346Y004249D02*
X015972Y004249D01*
X015972Y004333D02*
X015346Y004333D01*
X015346Y004417D02*
X015972Y004417D01*
X015972Y004501D02*
X015346Y004501D01*
X015346Y004585D02*
X015972Y004585D01*
X015972Y004669D02*
X015346Y004669D01*
X015346Y004753D02*
X015972Y004753D01*
X015972Y004837D02*
X015346Y004837D01*
X015346Y004921D02*
X015972Y004921D01*
X019033Y003985D02*
X019659Y003985D01*
X019033Y003985D02*
X019033Y004767D01*
X019659Y004767D01*
X019659Y003985D01*
X019659Y004069D02*
X019033Y004069D01*
X019033Y004153D02*
X019659Y004153D01*
X019659Y004237D02*
X019033Y004237D01*
X019033Y004321D02*
X019659Y004321D01*
X019659Y004405D02*
X019033Y004405D01*
X019033Y004489D02*
X019659Y004489D01*
X019659Y004573D02*
X019033Y004573D01*
X019033Y004657D02*
X019659Y004657D01*
X019659Y004741D02*
X019033Y004741D01*
X020136Y003985D02*
X020762Y003985D01*
X020136Y003985D02*
X020136Y004767D01*
X020762Y004767D01*
X020762Y003985D01*
X020762Y004069D02*
X020136Y004069D01*
X020136Y004153D02*
X020762Y004153D01*
X020762Y004237D02*
X020136Y004237D01*
X020136Y004321D02*
X020762Y004321D01*
X020762Y004405D02*
X020136Y004405D01*
X020136Y004489D02*
X020762Y004489D01*
X020762Y004573D02*
X020136Y004573D01*
X020136Y004657D02*
X020762Y004657D01*
X020762Y004741D02*
X020136Y004741D01*
X022039Y004020D02*
X022039Y003394D01*
X021257Y003394D01*
X021257Y004020D01*
X022039Y004020D01*
X022039Y003478D02*
X021257Y003478D01*
X021257Y003562D02*
X022039Y003562D01*
X022039Y003646D02*
X021257Y003646D01*
X021257Y003730D02*
X022039Y003730D01*
X022039Y003814D02*
X021257Y003814D01*
X021257Y003898D02*
X022039Y003898D01*
X022039Y003982D02*
X021257Y003982D01*
X022039Y002918D02*
X022039Y002292D01*
X021257Y002292D01*
X021257Y002918D01*
X022039Y002918D01*
X022039Y002376D02*
X021257Y002376D01*
X021257Y002460D02*
X022039Y002460D01*
X022039Y002544D02*
X021257Y002544D01*
X021257Y002628D02*
X022039Y002628D01*
X022039Y002712D02*
X021257Y002712D01*
X021257Y002796D02*
X022039Y002796D01*
X022039Y002880D02*
X021257Y002880D01*
X014297Y002834D02*
X014297Y003460D01*
X015079Y003460D01*
X015079Y002834D01*
X014297Y002834D01*
X014297Y002918D02*
X015079Y002918D01*
X015079Y003002D02*
X014297Y003002D01*
X014297Y003086D02*
X015079Y003086D01*
X015079Y003170D02*
X014297Y003170D01*
X014297Y003254D02*
X015079Y003254D01*
X015079Y003338D02*
X014297Y003338D01*
X014297Y003422D02*
X015079Y003422D01*
X013336Y002790D02*
X013336Y002164D01*
X013336Y002790D02*
X014040Y002790D01*
X014040Y002164D01*
X013336Y002164D01*
X013336Y002248D02*
X014040Y002248D01*
X014040Y002332D02*
X013336Y002332D01*
X013336Y002416D02*
X014040Y002416D01*
X014040Y002500D02*
X013336Y002500D01*
X013336Y002584D02*
X014040Y002584D01*
X014040Y002668D02*
X013336Y002668D01*
X013336Y002752D02*
X014040Y002752D01*
X014297Y002358D02*
X014297Y001732D01*
X014297Y002358D02*
X015079Y002358D01*
X015079Y001732D01*
X014297Y001732D01*
X014297Y001816D02*
X015079Y001816D01*
X015079Y001900D02*
X014297Y001900D01*
X014297Y001984D02*
X015079Y001984D01*
X015079Y002068D02*
X014297Y002068D01*
X014297Y002152D02*
X015079Y002152D01*
X015079Y002236D02*
X014297Y002236D01*
X014297Y002320D02*
X015079Y002320D01*
X013336Y001688D02*
X013336Y001062D01*
X013336Y001688D02*
X014040Y001688D01*
X014040Y001062D01*
X013336Y001062D01*
X013336Y001146D02*
X014040Y001146D01*
X014040Y001230D02*
X013336Y001230D01*
X013336Y001314D02*
X014040Y001314D01*
X014040Y001398D02*
X013336Y001398D01*
X013336Y001482D02*
X014040Y001482D01*
X014040Y001566D02*
X013336Y001566D01*
X013336Y001650D02*
X014040Y001650D01*
X009326Y001568D02*
X009326Y000942D01*
X009326Y001568D02*
X010030Y001568D01*
X010030Y000942D01*
X009326Y000942D01*
X009326Y001026D02*
X010030Y001026D01*
X010030Y001110D02*
X009326Y001110D01*
X009326Y001194D02*
X010030Y001194D01*
X010030Y001278D02*
X009326Y001278D01*
X009326Y001362D02*
X010030Y001362D01*
X010030Y001446D02*
X009326Y001446D01*
X009326Y001530D02*
X010030Y001530D01*
X009326Y002044D02*
X009326Y002670D01*
X010030Y002670D01*
X010030Y002044D01*
X009326Y002044D01*
X009326Y002128D02*
X010030Y002128D01*
X010030Y002212D02*
X009326Y002212D01*
X009326Y002296D02*
X010030Y002296D01*
X010030Y002380D02*
X009326Y002380D01*
X009326Y002464D02*
X010030Y002464D01*
X010030Y002548D02*
X009326Y002548D01*
X009326Y002632D02*
X010030Y002632D01*
X009906Y006605D02*
X010532Y006605D01*
X009906Y006605D02*
X009906Y007387D01*
X010532Y007387D01*
X010532Y006605D01*
X010532Y006689D02*
X009906Y006689D01*
X009906Y006773D02*
X010532Y006773D01*
X010532Y006857D02*
X009906Y006857D01*
X009906Y006941D02*
X010532Y006941D01*
X010532Y007025D02*
X009906Y007025D01*
X009906Y007109D02*
X010532Y007109D01*
X010532Y007193D02*
X009906Y007193D01*
X009906Y007277D02*
X010532Y007277D01*
X010532Y007361D02*
X009906Y007361D01*
X009429Y006605D02*
X008803Y006605D01*
X008803Y007387D01*
X009429Y007387D01*
X009429Y006605D01*
X009429Y006689D02*
X008803Y006689D01*
X008803Y006773D02*
X009429Y006773D01*
X009429Y006857D02*
X008803Y006857D01*
X008803Y006941D02*
X009429Y006941D01*
X009429Y007025D02*
X008803Y007025D01*
X008803Y007109D02*
X009429Y007109D01*
X009429Y007193D02*
X008803Y007193D01*
X008803Y007277D02*
X009429Y007277D01*
X009429Y007361D02*
X008803Y007361D01*
X008919Y008427D02*
X008293Y008427D01*
X008919Y008427D02*
X008919Y007645D01*
X008293Y007645D01*
X008293Y008427D01*
X008293Y007729D02*
X008919Y007729D01*
X008919Y007813D02*
X008293Y007813D01*
X008293Y007897D02*
X008919Y007897D01*
X008919Y007981D02*
X008293Y007981D01*
X008293Y008065D02*
X008919Y008065D01*
X008919Y008149D02*
X008293Y008149D01*
X008293Y008233D02*
X008919Y008233D01*
X008919Y008317D02*
X008293Y008317D01*
X008293Y008401D02*
X008919Y008401D01*
X009396Y008427D02*
X010022Y008427D01*
X010022Y007645D01*
X009396Y007645D01*
X009396Y008427D01*
X009396Y007729D02*
X010022Y007729D01*
X010022Y007813D02*
X009396Y007813D01*
X009396Y007897D02*
X010022Y007897D01*
X010022Y007981D02*
X009396Y007981D01*
X009396Y008065D02*
X010022Y008065D01*
X010022Y008149D02*
X009396Y008149D01*
X009396Y008233D02*
X010022Y008233D01*
X010022Y008317D02*
X009396Y008317D01*
X009396Y008401D02*
X010022Y008401D01*
X011963Y008117D02*
X012589Y008117D01*
X012589Y007335D01*
X011963Y007335D01*
X011963Y008117D01*
X011963Y007419D02*
X012589Y007419D01*
X012589Y007503D02*
X011963Y007503D01*
X011963Y007587D02*
X012589Y007587D01*
X012589Y007671D02*
X011963Y007671D01*
X011963Y007755D02*
X012589Y007755D01*
X012589Y007839D02*
X011963Y007839D01*
X011963Y007923D02*
X012589Y007923D01*
X012589Y008007D02*
X011963Y008007D01*
X011963Y008091D02*
X012589Y008091D01*
X013066Y008117D02*
X013692Y008117D01*
X013692Y007335D01*
X013066Y007335D01*
X013066Y008117D01*
X013066Y007419D02*
X013692Y007419D01*
X013692Y007503D02*
X013066Y007503D01*
X013066Y007587D02*
X013692Y007587D01*
X013692Y007671D02*
X013066Y007671D01*
X013066Y007755D02*
X013692Y007755D01*
X013692Y007839D02*
X013066Y007839D01*
X013066Y007923D02*
X013692Y007923D01*
X013692Y008007D02*
X013066Y008007D01*
X013066Y008091D02*
X013692Y008091D01*
X021407Y008320D02*
X021407Y007694D01*
X021407Y008320D02*
X022189Y008320D01*
X022189Y007694D01*
X021407Y007694D01*
X021407Y007778D02*
X022189Y007778D01*
X022189Y007862D02*
X021407Y007862D01*
X021407Y007946D02*
X022189Y007946D01*
X022189Y008030D02*
X021407Y008030D01*
X021407Y008114D02*
X022189Y008114D01*
X022189Y008198D02*
X021407Y008198D01*
X021407Y008282D02*
X022189Y008282D01*
X021407Y007218D02*
X021407Y006592D01*
X021407Y007218D02*
X022189Y007218D01*
X022189Y006592D01*
X021407Y006592D01*
X021407Y006676D02*
X022189Y006676D01*
X022189Y006760D02*
X021407Y006760D01*
X021407Y006844D02*
X022189Y006844D01*
X022189Y006928D02*
X021407Y006928D01*
X021407Y007012D02*
X022189Y007012D01*
X022189Y007096D02*
X021407Y007096D01*
X021407Y007180D02*
X022189Y007180D01*
D11*
X008103Y005994D03*
X008103Y005060D03*
X008103Y004172D03*
X008103Y003238D03*
D12*
X007158Y002332D03*
X007158Y006899D03*
D13*
X007118Y005502D03*
X007118Y003730D03*
D14*
X009940Y005105D02*
X009940Y005499D01*
X009940Y005105D02*
X009390Y005105D01*
X009390Y005499D01*
X009940Y005499D01*
X009940Y005185D02*
X009390Y005185D01*
X009390Y005265D02*
X009940Y005265D01*
X009940Y005345D02*
X009390Y005345D01*
X009390Y005425D02*
X009940Y005425D01*
X010806Y005479D02*
X010806Y005873D01*
X010806Y005479D02*
X010256Y005479D01*
X010256Y005873D01*
X010806Y005873D01*
X010806Y005559D02*
X010256Y005559D01*
X010256Y005639D02*
X010806Y005639D01*
X010806Y005719D02*
X010256Y005719D01*
X010256Y005799D02*
X010806Y005799D01*
X009940Y005853D02*
X009940Y006247D01*
X009940Y005853D02*
X009390Y005853D01*
X009390Y006247D01*
X009940Y006247D01*
X009940Y005933D02*
X009390Y005933D01*
X009390Y006013D02*
X009940Y006013D01*
X009940Y006093D02*
X009390Y006093D01*
X009390Y006173D02*
X009940Y006173D01*
X011640Y006125D02*
X011640Y006519D01*
X011640Y006125D02*
X011090Y006125D01*
X011090Y006519D01*
X011640Y006519D01*
X011640Y006205D02*
X011090Y006205D01*
X011090Y006285D02*
X011640Y006285D01*
X011640Y006365D02*
X011090Y006365D01*
X011090Y006445D02*
X011640Y006445D01*
X012506Y006499D02*
X012506Y006893D01*
X012506Y006499D02*
X011956Y006499D01*
X011956Y006893D01*
X012506Y006893D01*
X012506Y006579D02*
X011956Y006579D01*
X011956Y006659D02*
X012506Y006659D01*
X012506Y006739D02*
X011956Y006739D01*
X011956Y006819D02*
X012506Y006819D01*
X011640Y006873D02*
X011640Y007267D01*
X011640Y006873D02*
X011090Y006873D01*
X011090Y007267D01*
X011640Y007267D01*
X011640Y006953D02*
X011090Y006953D01*
X011090Y007033D02*
X011640Y007033D01*
X011640Y007113D02*
X011090Y007113D01*
X011090Y007193D02*
X011640Y007193D01*
D15*
X012336Y004594D02*
X010840Y004594D01*
X012336Y004594D02*
X012336Y003838D01*
X010840Y003838D01*
X010840Y004594D01*
X010840Y003921D02*
X012336Y003921D01*
X012336Y004004D02*
X010840Y004004D01*
X010840Y004087D02*
X012336Y004087D01*
X012336Y004170D02*
X010840Y004170D01*
X010840Y004253D02*
X012336Y004253D01*
X012336Y004336D02*
X010840Y004336D01*
X010840Y004419D02*
X012336Y004419D01*
X012336Y004502D02*
X010840Y004502D01*
X010840Y004585D02*
X012336Y004585D01*
D16*
X012198Y002087D02*
X012788Y002087D01*
X012788Y001297D01*
X012198Y001297D01*
X012198Y002087D01*
X012198Y001376D02*
X012788Y001376D01*
X012788Y001455D02*
X012198Y001455D01*
X012198Y001534D02*
X012788Y001534D01*
X012788Y001613D02*
X012198Y001613D01*
X012198Y001692D02*
X012788Y001692D01*
X012788Y001771D02*
X012198Y001771D01*
X012198Y001850D02*
X012788Y001850D01*
X012788Y001929D02*
X012198Y001929D01*
X012198Y002008D02*
X012788Y002008D01*
X012788Y002087D02*
X012198Y002087D01*
X011883Y002087D02*
X011293Y002087D01*
X011883Y002087D02*
X011883Y001297D01*
X011293Y001297D01*
X011293Y002087D01*
X011293Y001376D02*
X011883Y001376D01*
X011883Y001455D02*
X011293Y001455D01*
X011293Y001534D02*
X011883Y001534D01*
X011883Y001613D02*
X011293Y001613D01*
X011293Y001692D02*
X011883Y001692D01*
X011883Y001771D02*
X011293Y001771D01*
X011293Y001850D02*
X011883Y001850D01*
X011883Y001929D02*
X011293Y001929D01*
X011293Y002008D02*
X011883Y002008D01*
X011883Y002087D02*
X011293Y002087D01*
X010977Y002087D02*
X010387Y002087D01*
X010977Y002087D02*
X010977Y001297D01*
X010387Y001297D01*
X010387Y002087D01*
X010387Y001376D02*
X010977Y001376D01*
X010977Y001455D02*
X010387Y001455D01*
X010387Y001534D02*
X010977Y001534D01*
X010977Y001613D02*
X010387Y001613D01*
X010387Y001692D02*
X010977Y001692D01*
X010977Y001771D02*
X010387Y001771D01*
X010387Y001850D02*
X010977Y001850D01*
X010977Y001929D02*
X010387Y001929D01*
X010387Y002008D02*
X010977Y002008D01*
X010977Y002087D02*
X010387Y002087D01*
D17*
X016448Y001506D02*
X017948Y001506D01*
X017948Y001006D01*
X016448Y001006D01*
X016448Y001506D01*
X016448Y001086D02*
X017948Y001086D01*
X017948Y001166D02*
X016448Y001166D01*
X016448Y001246D02*
X017948Y001246D01*
X017948Y001326D02*
X016448Y001326D01*
X016448Y001406D02*
X017948Y001406D01*
X017948Y001486D02*
X016448Y001486D01*
X019448Y001506D02*
X020948Y001506D01*
X020948Y001006D01*
X019448Y001006D01*
X019448Y001506D01*
X019448Y001086D02*
X020948Y001086D01*
X020948Y001166D02*
X019448Y001166D01*
X019448Y001246D02*
X020948Y001246D01*
X020948Y001326D02*
X019448Y001326D01*
X019448Y001406D02*
X020948Y001406D01*
X020948Y001486D02*
X019448Y001486D01*
X019448Y003506D02*
X020948Y003506D01*
X020948Y003006D01*
X019448Y003006D01*
X019448Y003506D01*
X019448Y003086D02*
X020948Y003086D01*
X020948Y003166D02*
X019448Y003166D01*
X019448Y003246D02*
X020948Y003246D01*
X020948Y003326D02*
X019448Y003326D01*
X019448Y003406D02*
X020948Y003406D01*
X020948Y003486D02*
X019448Y003486D01*
X017948Y003506D02*
X016448Y003506D01*
X017948Y003506D02*
X017948Y003006D01*
X016448Y003006D01*
X016448Y003506D01*
X016448Y003086D02*
X017948Y003086D01*
X017948Y003166D02*
X016448Y003166D01*
X016448Y003246D02*
X017948Y003246D01*
X017948Y003326D02*
X016448Y003326D01*
X016448Y003406D02*
X017948Y003406D01*
X017948Y003486D02*
X016448Y003486D01*
X014748Y005706D02*
X014748Y006206D01*
X015748Y006206D01*
X015748Y005706D01*
X014748Y005706D01*
X014748Y005786D02*
X015748Y005786D01*
X015748Y005866D02*
X014748Y005866D01*
X014748Y005946D02*
X015748Y005946D01*
X015748Y006026D02*
X014748Y006026D01*
X014748Y006106D02*
X015748Y006106D01*
X015748Y006186D02*
X014748Y006186D01*
X014748Y006706D02*
X014748Y007206D01*
X015748Y007206D01*
X015748Y006706D01*
X014748Y006706D01*
X014748Y006786D02*
X015748Y006786D01*
X015748Y006866D02*
X014748Y006866D01*
X014748Y006946D02*
X015748Y006946D01*
X015748Y007026D02*
X014748Y007026D01*
X014748Y007106D02*
X015748Y007106D01*
X015748Y007186D02*
X014748Y007186D01*
X014748Y007706D02*
X014748Y008206D01*
X015748Y008206D01*
X015748Y007706D01*
X014748Y007706D01*
X014748Y007786D02*
X015748Y007786D01*
X015748Y007866D02*
X014748Y007866D01*
X014748Y007946D02*
X015748Y007946D01*
X015748Y008026D02*
X014748Y008026D01*
X014748Y008106D02*
X015748Y008106D01*
X015748Y008186D02*
X014748Y008186D01*
D18*
X022294Y005665D02*
X022294Y005267D01*
X022294Y005665D02*
X025442Y005665D01*
X025442Y005267D01*
X022294Y005267D01*
X022294Y005348D02*
X025442Y005348D01*
X025442Y005429D02*
X022294Y005429D01*
X022294Y005510D02*
X025442Y005510D01*
X025442Y005591D02*
X022294Y005591D01*
X022294Y004095D02*
X022294Y003697D01*
X022294Y004095D02*
X025442Y004095D01*
X025442Y003697D01*
X022294Y003697D01*
X022294Y003778D02*
X025442Y003778D01*
X025442Y003859D02*
X022294Y003859D01*
X022294Y003940D02*
X025442Y003940D01*
X025442Y004021D02*
X022294Y004021D01*
D19*
X022295Y004483D02*
X022295Y004869D01*
X025441Y004869D01*
X025441Y004483D01*
X022295Y004483D01*
X022295Y004567D02*
X025441Y004567D01*
X025441Y004651D02*
X022295Y004651D01*
X022295Y004735D02*
X025441Y004735D01*
X025441Y004819D02*
X022295Y004819D01*
D20*
X022438Y006056D03*
X022738Y006056D03*
X023038Y006056D03*
X023338Y006056D03*
X023638Y006056D03*
X023938Y006056D03*
X024238Y006056D03*
X024538Y006056D03*
X024838Y006056D03*
X025138Y006056D03*
X025438Y006056D03*
X025438Y006356D03*
X025138Y006356D03*
X024838Y006356D03*
X024538Y006356D03*
X024238Y006356D03*
X023938Y006356D03*
X023638Y006356D03*
X023338Y006356D03*
X023038Y006356D03*
X022738Y006356D03*
X022438Y006356D03*
X022438Y006656D03*
X022738Y006656D03*
X023038Y006656D03*
X023338Y006656D03*
X023638Y006656D03*
X023938Y006656D03*
X024238Y006656D03*
X024538Y006656D03*
X024838Y006656D03*
X025138Y006656D03*
X025438Y006656D03*
X025438Y006956D03*
X025138Y006956D03*
X024838Y006956D03*
X024538Y006956D03*
X024238Y006956D03*
X023938Y006956D03*
X023638Y006956D03*
X023338Y006956D03*
X023038Y006956D03*
X022738Y006956D03*
X022438Y006956D03*
X023678Y008476D03*
X023978Y008476D03*
X024278Y008476D03*
X024578Y008476D03*
X024538Y003306D03*
X024838Y003306D03*
X025138Y003306D03*
X025438Y003306D03*
X025438Y003006D03*
X025138Y003006D03*
X024838Y003006D03*
X024538Y003006D03*
X024238Y003006D03*
X023938Y003006D03*
X023638Y003006D03*
X023338Y003006D03*
X023038Y003006D03*
X022738Y003006D03*
X022438Y003006D03*
X022438Y003306D03*
X022738Y003306D03*
X023038Y003306D03*
X023338Y003306D03*
X023638Y003306D03*
X023938Y003306D03*
X024238Y003306D03*
X024238Y002706D03*
X023938Y002706D03*
X023638Y002706D03*
X023338Y002706D03*
X023038Y002706D03*
X022738Y002706D03*
X022438Y002706D03*
X022438Y002406D03*
X022738Y002406D03*
X023038Y002406D03*
X023338Y002406D03*
X023638Y002406D03*
X023938Y002406D03*
X024238Y002406D03*
X024538Y002406D03*
X024838Y002406D03*
X025138Y002406D03*
X025438Y002406D03*
X025438Y002706D03*
X025138Y002706D03*
X024838Y002706D03*
X024538Y002706D03*
X024578Y000886D03*
X024278Y000886D03*
X023978Y000886D03*
X023678Y000886D03*
D21*
X020834Y006746D02*
X019538Y006746D01*
X020834Y006746D02*
X020834Y005370D01*
X019538Y005370D01*
X019538Y006746D01*
X019538Y005452D02*
X020834Y005452D01*
X020834Y005534D02*
X019538Y005534D01*
X019538Y005616D02*
X020834Y005616D01*
X020834Y005698D02*
X019538Y005698D01*
X019538Y005780D02*
X020834Y005780D01*
X020834Y005862D02*
X019538Y005862D01*
X019538Y005944D02*
X020834Y005944D01*
X020834Y006026D02*
X019538Y006026D01*
X019538Y006108D02*
X020834Y006108D01*
X020834Y006190D02*
X019538Y006190D01*
X019538Y006272D02*
X020834Y006272D01*
X020834Y006354D02*
X019538Y006354D01*
X019538Y006436D02*
X020834Y006436D01*
X020834Y006518D02*
X019538Y006518D01*
X019538Y006600D02*
X020834Y006600D01*
X020834Y006682D02*
X019538Y006682D01*
X019377Y006746D02*
X018081Y006746D01*
X019377Y006746D02*
X019377Y005370D01*
X018081Y005370D01*
X018081Y006746D01*
X018081Y005452D02*
X019377Y005452D01*
X019377Y005534D02*
X018081Y005534D01*
X018081Y005616D02*
X019377Y005616D01*
X019377Y005698D02*
X018081Y005698D01*
X018081Y005780D02*
X019377Y005780D01*
X019377Y005862D02*
X018081Y005862D01*
X018081Y005944D02*
X019377Y005944D01*
X019377Y006026D02*
X018081Y006026D01*
X018081Y006108D02*
X019377Y006108D01*
X019377Y006190D02*
X018081Y006190D01*
X018081Y006272D02*
X019377Y006272D01*
X019377Y006354D02*
X018081Y006354D01*
X018081Y006436D02*
X019377Y006436D01*
X019377Y006518D02*
X018081Y006518D01*
X018081Y006600D02*
X019377Y006600D01*
X019377Y006682D02*
X018081Y006682D01*
X018081Y008321D02*
X019377Y008321D01*
X019377Y006945D01*
X018081Y006945D01*
X018081Y008321D01*
X018081Y007027D02*
X019377Y007027D01*
X019377Y007109D02*
X018081Y007109D01*
X018081Y007191D02*
X019377Y007191D01*
X019377Y007273D02*
X018081Y007273D01*
X018081Y007355D02*
X019377Y007355D01*
X019377Y007437D02*
X018081Y007437D01*
X018081Y007519D02*
X019377Y007519D01*
X019377Y007601D02*
X018081Y007601D01*
X018081Y007683D02*
X019377Y007683D01*
X019377Y007765D02*
X018081Y007765D01*
X018081Y007847D02*
X019377Y007847D01*
X019377Y007929D02*
X018081Y007929D01*
X018081Y008011D02*
X019377Y008011D01*
X019377Y008093D02*
X018081Y008093D01*
X018081Y008175D02*
X019377Y008175D01*
X019377Y008257D02*
X018081Y008257D01*
X019538Y008321D02*
X020834Y008321D01*
X020834Y006945D01*
X019538Y006945D01*
X019538Y008321D01*
X019538Y007027D02*
X020834Y007027D01*
X020834Y007109D02*
X019538Y007109D01*
X019538Y007191D02*
X020834Y007191D01*
X020834Y007273D02*
X019538Y007273D01*
X019538Y007355D02*
X020834Y007355D01*
X020834Y007437D02*
X019538Y007437D01*
X019538Y007519D02*
X020834Y007519D01*
X020834Y007601D02*
X019538Y007601D01*
X019538Y007683D02*
X020834Y007683D01*
X020834Y007765D02*
X019538Y007765D01*
X019538Y007847D02*
X020834Y007847D01*
X020834Y007929D02*
X019538Y007929D01*
X019538Y008011D02*
X020834Y008011D01*
X020834Y008093D02*
X019538Y008093D01*
X019538Y008175D02*
X020834Y008175D01*
X020834Y008257D02*
X019538Y008257D01*
D22*
X022498Y008146D03*
X016398Y005846D03*
X015698Y005246D03*
X016198Y004946D03*
X016598Y004946D03*
X016598Y004046D03*
X015698Y003446D03*
X015098Y004046D03*
X013698Y004046D03*
X013598Y004446D03*
X013998Y003346D03*
X016698Y002046D03*
X017398Y001746D03*
X016098Y001696D03*
X021598Y001246D03*
X021698Y004746D03*
X016198Y007546D03*
X012798Y007146D03*
X012798Y006746D03*
X013098Y006046D03*
X008598Y004646D03*
X010198Y003246D03*
M02*
