%
M48
M72
T01C0.0150
T02C0.0197
T03C0.0360
T04C0.0433
T05C0.0866
%
T01
X10198Y3246
X13698Y4046
X13598Y4446
X15098Y4046
X15698Y3446
X16598Y4046
X16598Y4946
X16198Y4946
X15698Y5246
X16398Y5846
X13098Y6046
X12798Y6746
X12798Y7146
X16198Y7546
X18798Y7246
X22498Y8146
X21698Y4746
X16698Y2046
X17398Y1746
X16098Y1696
X13998Y3346
X8598Y4646
X21598Y1246
T02
X23688Y886
X23978Y886
X24268Y886
X24558Y886
X24568Y2416
X24858Y2416
X25148Y2416
X25438Y2416
X25438Y2706
X25148Y2706
X24858Y2706
X24568Y2706
X24278Y2706
X23988Y2706
X23698Y2706
X23408Y2706
X23118Y2706
X22828Y2706
X22538Y2706
X22538Y2996
X22828Y2996
X23118Y2996
X23408Y2996
X23698Y2996
X23988Y2996
X24278Y2996
X24568Y2996
X24858Y2996
X25148Y2996
X25438Y2996
X25438Y3306
X25148Y3306
X24858Y3306
X24568Y3306
X24278Y3306
X23988Y3306
X23698Y3306
X23408Y3306
X23118Y3306
X22828Y3306
X22538Y3306
X22538Y2416
X22828Y2416
X23118Y2416
X23408Y2416
X23698Y2416
X23988Y2416
X24278Y2416
X24278Y6056
X24568Y6056
X24858Y6056
X25148Y6056
X25438Y6056
X25438Y6346
X25148Y6346
X24858Y6346
X24568Y6346
X24278Y6346
X23988Y6346
X23698Y6346
X23408Y6346
X23118Y6346
X22828Y6346
X22538Y6346
X22538Y6636
X22828Y6636
X23118Y6636
X23408Y6636
X23698Y6636
X23988Y6636
X24278Y6636
X24568Y6636
X24858Y6636
X25148Y6636
X25438Y6636
X25438Y6946
X25148Y6946
X24858Y6946
X24568Y6946
X24278Y6946
X23988Y6946
X23698Y6946
X23408Y6946
X23118Y6946
X22828Y6946
X22538Y6946
X22538Y6056
X22828Y6056
X23118Y6056
X23408Y6056
X23698Y6056
X23988Y6056
X23978Y8476
X23688Y8476
X24268Y8476
X24558Y8476
T03
X8103Y5994
X8103Y5060
X8103Y4172
X8103Y3238
T04
X7118Y3730
X7118Y5502
T05
X7158Y2332
X7158Y6899
M30
